<svg width="193" height="226" viewBox="0 0 193 226" fill="none" xmlns="http://www.w3.org/2000/svg">
<path d="M6.42437 177.037C41.4616 133.592 59.5996 74.471 24.6338 84.7005C2.65802 91.1296 69.9248 113.358 104.605 89.5859C131.227 71.3365 87.7902 -45.8436 23.3351 21.8711C-41.12 89.5859 49.9578 134.249 94.7961 128.486C139.634 122.723 157.832 82.382 134.03 79.5006C110.227 76.6191 -137.719 101.856 117.215 161.623C193.81 179.58 212.995 147.391 168.156 106.57" stroke="#46B4F2" stroke-width="2" stroke-linecap="round"/>
<rect width="100.772" height="67.238" rx="11" transform="matrix(0.959814 -0.280637 0.280541 0.959842 17.2183 68.3892)" fill="#46B4F2"/>
<rect x="1.24036" y="0.679205" width="98.7719" height="65.238" rx="10" transform="matrix(0.959814 -0.280637 0.280541 0.959842 20.0561 59.6556)" fill="white" stroke="#060606" stroke-width="2"/>
<path d="M32.6606 66.645L78.9863 81.6216L109.952 44.046" stroke="#060606" stroke-width="2" stroke-linecap="round"/>
<path d="M50.5779 68.253C50.9761 66.8256 52.7339 66.3117 53.838 67.2997L54.2118 67.6342C54.933 68.2796 56.0128 68.3159 56.7758 67.7205L57.1236 67.449C58.2643 66.5589 59.9434 67.137 60.2942 68.5407L60.5034 69.378C60.725 70.2648 61.5196 70.8885 62.4336 70.893L63.1936 70.8968C64.5821 70.9037 65.5411 72.2887 65.0591 73.591L64.7057 74.5459C64.3995 75.3732 64.6713 76.3033 65.3748 76.8354L66.1869 77.4495C67.2943 78.2871 67.2322 79.9707 66.0661 80.7245L65.4278 81.1371C64.6601 81.6334 64.3265 82.5869 64.6174 83.4534L64.892 84.2716C65.3524 85.6433 64.249 87.035 62.8086 86.8995L62.3693 86.8582C61.4058 86.7676 60.5156 87.3799 60.2555 88.3121L60.1207 88.7953C59.7226 90.2227 57.9648 90.7366 56.8606 89.7485L56.4869 89.4141C55.7657 88.7687 54.6859 88.7324 53.9229 89.3278L53.575 89.5993C52.4344 90.4894 50.7553 89.9113 50.4045 88.5076L50.1953 87.6703C49.9737 86.7835 49.1791 86.1598 48.2651 86.1553L47.505 86.1515C46.1166 86.1446 45.1575 84.7596 45.6396 83.4573L45.993 82.5024C46.2992 81.6751 46.0274 80.745 45.3239 80.2129L44.5118 79.5987C43.4043 78.7612 43.4665 77.0776 44.6326 76.3238L45.2709 75.9112C46.0386 75.4149 46.3722 74.4614 46.0813 73.5949L45.8067 72.7767C45.3463 71.405 46.4496 70.0133 47.8901 70.1488L48.3294 70.1901C49.2929 70.2807 50.1831 69.6684 50.4432 68.7361L50.5779 68.253Z" fill="#46B4F2" stroke="#060606" stroke-width="2"/>
<path d="M92.3661 84.2226L143.082 208.832L160.735 225.259L162.269 201.016L111.677 76.356C111.677 76.356 107.514 74.1388 100.655 76.9329C94.5374 79.4304 92.3661 84.2226 92.3661 84.2226Z" fill="#46B4F2"/>
<path d="M100.659 82.7086L96.525 72.5449C97.2268 71.356 99.4621 68.139 104.003 66.2882C109.122 64.2016 112.584 65.0745 113.692 65.4712L117.841 75.7051L100.659 82.7086Z" fill="white" stroke="#060606" stroke-width="2"/>
<mask id="path-8-inside-1_392_230" fill="white">
<path d="M103.716 65.5831C109.612 63.1798 113.484 64.5448 114.272 64.8818L118.827 76.1198L100.243 83.6956L95.6848 72.4897C96.1518 71.6153 98.4684 67.7224 103.716 65.5831ZM103.535 65.1386C97.3586 67.6566 95.1568 72.4718 95.1568 72.4718L99.9785 84.3266L119.456 76.3867L114.648 64.5263C114.648 64.5263 110.458 62.3166 103.535 65.1386Z"/>
</mask>
<path d="M103.716 65.5831C109.612 63.1798 113.484 64.5448 114.272 64.8818L118.827 76.1198L100.243 83.6956L95.6848 72.4897C96.1518 71.6153 98.4684 67.7224 103.716 65.5831ZM103.535 65.1386C97.3586 67.6566 95.1568 72.4718 95.1568 72.4718L99.9785 84.3266L119.456 76.3867L114.648 64.5263C114.648 64.5263 110.458 62.3166 103.535 65.1386Z" fill="#060606"/>
<path d="M114.272 64.8818L116.125 64.129L115.815 63.3658L115.058 63.0421L114.272 64.8818ZM118.827 76.1198L119.58 77.9724L121.43 77.2183L120.68 75.367L118.827 76.1198ZM100.243 83.6956L98.3905 84.4506L99.144 86.3032L100.996 85.5482L100.243 83.6956ZM95.6848 72.4897L93.9215 71.5476L93.4793 72.3756L93.8328 73.2447L95.6848 72.4897ZM95.1568 72.4718L93.3387 71.6403L92.9793 72.4264L93.3048 73.2267L95.1568 72.4718ZM99.9785 84.3266L98.1265 85.0816L98.88 86.9342L100.732 86.1793L99.9785 84.3266ZM119.456 76.3867L120.21 78.2393L122.059 77.4852L121.309 75.6338L119.456 76.3867ZM114.648 64.5263L116.501 63.7734L116.5 63.7714L114.648 64.5263ZM104.47 67.4357C109.775 65.2731 113.084 66.5499 113.485 66.7214L115.058 63.0421C113.884 62.5397 109.449 61.0865 102.963 63.7305L104.47 67.4357ZM112.419 65.6345L116.974 76.8726L120.68 75.367L116.125 64.129L112.419 65.6345ZM118.073 74.2672L99.489 81.843L100.996 85.5482L119.58 77.9724L118.073 74.2672ZM102.095 82.9407L97.5368 71.7348L93.8328 73.2447L98.3905 84.4506L102.095 82.9407ZM97.4481 73.4319C97.8024 72.7684 99.8266 69.3285 104.47 67.4357L102.963 63.7305C97.1102 66.1163 94.5012 70.4622 93.9215 71.5476L97.4481 73.4319ZM102.782 63.286C99.3497 64.6852 97.0088 66.7293 95.5227 68.4356C94.7803 69.2881 94.2486 70.059 93.8964 70.6295C93.7201 70.9152 93.588 71.1517 93.4965 71.3247C93.4507 71.4112 93.415 71.482 93.3889 71.5351C93.3758 71.5617 93.3652 71.5839 93.3568 71.6015C93.3526 71.6103 93.3491 71.618 93.346 71.6244C93.3445 71.6277 93.3432 71.6306 93.3419 71.6333C93.3413 71.6346 93.3408 71.6358 93.3402 71.637C93.34 71.6376 93.3396 71.6384 93.3394 71.6387C93.3391 71.6395 93.3387 71.6403 95.1568 72.4718C96.9749 73.3032 96.9746 73.304 96.9742 73.3047C96.9741 73.3049 96.9738 73.3056 96.9736 73.3061C96.9732 73.307 96.9728 73.3078 96.9725 73.3085C96.9718 73.31 96.9712 73.3112 96.9708 73.3121C96.97 73.3139 96.9696 73.3146 96.9698 73.3142C96.9702 73.3135 96.9726 73.3083 96.9772 73.299C96.9863 73.2804 97.004 73.2453 97.0304 73.1952C97.0835 73.095 97.1717 72.9357 97.2983 72.7306C97.552 72.3196 97.9568 71.7294 98.5369 71.0633C99.6959 69.7325 101.544 68.11 104.289 66.9912L102.782 63.286ZM93.3048 73.2267L98.1265 85.0816L101.831 83.5717L97.0088 71.7168L93.3048 73.2267ZM100.732 86.1793L120.21 78.2393L118.702 74.5341L99.225 82.474L100.732 86.1793ZM121.309 75.6338L116.501 63.7734L112.795 65.2792L117.603 77.1395L121.309 75.6338ZM114.648 64.5263C115.581 62.7565 115.58 62.756 115.579 62.7554C115.578 62.7552 115.577 62.7546 115.577 62.7542C115.575 62.7534 115.573 62.7526 115.572 62.7517C115.568 62.75 115.565 62.7481 115.561 62.7461C115.553 62.7422 115.544 62.7377 115.535 62.7327C115.515 62.7228 115.491 62.7109 115.463 62.6974C115.406 62.6704 115.333 62.6366 115.243 62.598C115.062 62.5207 114.815 62.4239 114.505 62.3227C113.883 62.1203 113.005 61.9002 111.896 61.7845C109.666 61.5517 106.557 61.7471 102.782 63.286L104.289 66.9912C107.437 65.7081 109.883 65.5974 111.479 65.7639C112.283 65.8479 112.885 66.0039 113.265 66.1276C113.455 66.1894 113.59 66.2432 113.666 66.2758C113.704 66.2921 113.727 66.303 113.735 66.307C113.739 66.3089 113.74 66.3092 113.736 66.3074C113.735 66.3066 113.732 66.3052 113.728 66.3033C113.727 66.3024 113.724 66.3013 113.722 66.3001C113.721 66.2995 113.72 66.2989 113.719 66.2982C113.718 66.2979 113.717 66.2974 113.717 66.2972C113.716 66.2967 113.715 66.2961 114.648 64.5263Z" fill="#060606" mask="url(#path-8-inside-1_392_230)"/>
<path d="M121.727 84.6117L104.1 91.7972L99.8637 81.3819C99.9156 81.2913 99.9783 81.1856 100.052 81.067C100.331 80.6184 100.769 79.9858 101.391 79.2759C102.635 77.8567 104.609 76.1334 107.527 74.9417C110.832 73.5943 113.443 73.457 115.196 73.6349C116.075 73.7243 116.745 73.8937 117.185 74.0352C117.299 74.072 117.398 74.1069 117.481 74.1381L121.727 84.6117ZM99.6677 81.7477L99.6684 81.7462L99.6682 81.7468L99.6677 81.7477ZM117.795 74.2698L117.794 74.2696C117.795 74.2702 117.795 74.2703 117.795 74.2698Z" fill="white" stroke="#060606" stroke-width="2"/>
<path d="M145.328 194.974L101.541 87.3836C101.878 86.718 104.164 82.5469 109.66 80.3078C115.828 77.7948 119.814 79.4113 120.404 79.6832L164.074 187.337L162.575 211.022L145.328 194.974Z" fill="white" stroke="#060606" stroke-width="2"/>
<path d="M162.859 211.784L157.963 207.227L163.146 205.114L162.859 211.784Z" fill="#060606"/>
<path d="M146.836 194.166C146.836 194.166 153.266 186.569 162.47 187.797" stroke="#060606" stroke-width="2" stroke-miterlimit="10" stroke-linecap="round" stroke-linejoin="round"/>
<path d="M152.291 185.116L111.487 84.9062" stroke="#060606" stroke-width="2" stroke-miterlimit="10" stroke-linecap="round"/>
</svg>
