<svg width="122" height="54" viewBox="0 0 122 54" fill="none" xmlns="http://www.w3.org/2000/svg">
<path fill-rule="evenodd" clip-rule="evenodd" d="M94.8687 0.0962934C95.8716 -0.16872 97.1384 0.0962942 97.6135 1.10335C97.9302 1.95139 97.508 2.90544 96.9801 3.59447C95.0271 5.97959 92.7045 8.0467 90.1708 9.84879C89.6958 10.2198 88.904 10.3258 88.5873 9.74278C88.2706 9.37177 88.6401 8.89474 88.8512 8.52372C90.5931 6.35061 92.2295 4.01849 93.5491 1.52737C93.9186 0.997339 94.2881 0.361307 94.8687 0.0962934Z" fill="white"/>
<path fill-rule="evenodd" clip-rule="evenodd" d="M0.541816 3.54114C-0.144388 3.43513 -0.197192 2.26907 0.489012 2.11006C1.17522 2.05706 1.86143 2.05706 2.54764 2.11006C5.66195 2.37508 8.77627 2.26907 11.8906 2.11006C14.477 2.05706 17.2219 1.89805 19.65 3.01111C21.6558 3.85915 23.2921 5.66124 23.7144 7.83435C24.1367 9.95446 24.0311 12.2866 22.9754 14.1947C21.9197 16.1558 19.8611 17.4278 17.7497 18.0639C15.3216 18.9119 12.6824 18.9649 10.1487 19.2299C9.93754 21.7211 10.0959 24.2122 10.0431 26.6503C10.0431 28.0284 10.1487 29.6715 11.3099 30.6255C12.5768 31.6326 14.2659 31.5796 15.7966 31.8446C15.8494 32.3216 16.0606 32.9046 15.6383 33.2226C12.524 33.5407 9.46247 32.7456 6.34816 32.9576C4.4479 33.0106 2.54764 33.3816 0.700165 33.2226C0.11953 32.9576 0.119543 31.6856 0.911317 31.6856C2.07259 31.4735 3.44498 31.4735 4.28953 30.4665C5.13409 29.3534 4.92297 27.8694 5.02854 26.5973C5.02854 21.244 5.02854 15.8908 5.02854 10.5375C4.92297 8.62939 5.18688 6.50929 4.02561 4.8132C3.28662 3.75315 1.75587 3.85915 0.541816 3.54114ZM10.6765 4.33618C10.0431 4.8132 10.0959 5.71425 10.0959 6.40328C10.1487 9.95446 10.0431 13.5056 10.1487 17.0568C12.1545 17.2158 14.3187 17.1628 16.2189 16.2618C17.6441 15.5727 18.4887 14.0887 18.647 12.5516C18.911 10.4315 18.9637 8.09937 18.0136 6.13827C17.2218 4.49518 15.3216 3.96516 13.6852 3.91215C12.6823 4.01816 11.6267 3.85915 10.6765 4.33618Z" fill="white"/>
<path fill-rule="evenodd" clip-rule="evenodd" d="M48.2592 2.4283C49.1037 2.21629 50.1595 2.26929 50.7929 2.90533C51.8486 3.80637 51.9542 5.55546 51.0568 6.61551C49.7372 8.15259 46.6756 7.30455 46.4117 5.23744C46.2534 4.01838 47.0451 2.74632 48.2592 2.4283Z" fill="white"/>
<path fill-rule="evenodd" clip-rule="evenodd" d="M35.9608 12.2853C37.386 11.4373 39.1807 11.3313 40.817 11.6493C42.7173 12.0203 43.773 14.6174 42.6117 16.2075C41.9255 17.1616 40.5003 17.2146 39.5502 16.7375C38.5473 16.1545 39.2335 14.6704 38.2834 14.1404C37.386 13.8224 36.4887 14.1934 35.8025 14.8294C34.6412 15.9425 33.8494 17.4796 33.7966 19.0696C33.7966 22.1438 33.7966 25.165 33.7966 28.2391C33.8494 29.0872 33.7438 30.1472 34.5356 30.7832C35.5913 31.6843 37.0693 31.6313 38.3361 31.9493C38.7584 32.2673 38.7056 33.1154 38.1778 33.2214C36.2247 33.3804 34.2189 33.0094 32.2659 32.9563C30.0489 32.9033 27.8319 33.3274 25.615 33.2214C25.4566 32.7973 25.2455 31.9493 25.9317 31.8433C27.0929 31.5783 28.5181 31.4723 29.1516 30.3592C29.5738 29.1402 29.4683 27.8151 29.4683 26.596C29.4683 23.5219 29.521 20.4477 29.3627 17.4266C29.2571 16.4725 29.1515 15.3595 28.307 14.7764C27.5152 14.2994 26.6179 14.3524 25.7205 14.1404C25.1927 13.8754 25.2983 12.8153 25.9845 12.7623C27.9903 12.5503 30.0489 12.2853 32.0547 11.9673C32.5298 11.9143 33.2688 11.8083 33.3744 12.4443C33.4799 13.6104 33.2688 14.7234 33.3216 15.8895C33.8494 14.5114 34.6412 13.1333 35.9608 12.2853Z" fill="white"/>
<path fill-rule="evenodd" clip-rule="evenodd" d="M82.675 16.7389C84.1002 13.9827 86.9506 11.9686 90.0649 11.5976C92.018 11.3856 94.1294 11.5446 95.8713 12.5517C98.1938 13.8767 99.7246 16.3679 99.9885 19.018C100.041 19.76 100.2 20.5551 99.883 21.2441C99.619 21.5091 99.2495 21.4561 98.9328 21.4561C94.6572 21.4561 90.3817 21.4561 86.1061 21.4561C85.9477 23.6822 86.3172 26.0674 87.6368 27.9225C88.587 29.3005 90.1705 30.2016 91.8068 30.4136C94.3933 30.7316 97.1381 30.3606 99.3551 28.8765C99.6718 29.1415 100.094 29.5125 99.9885 29.9896C98.7217 31.7917 96.7159 33.0637 94.4989 33.3817C91.4374 33.7528 88.1119 33.5937 85.5254 31.8447C83.3085 30.4136 81.8833 27.9755 81.461 25.4313C80.9332 22.5162 81.1971 19.336 82.675 16.7389ZM87.7424 14.7248C86.5812 16.1029 86.2116 17.958 86.2116 19.707C88.8509 19.813 91.4901 19.707 94.1294 19.76C94.5517 19.707 95.1323 19.813 95.3434 19.389C95.8185 17.2159 94.974 14.6718 93.0209 13.5587C91.279 12.7107 88.9565 13.1877 87.7424 14.7248Z" fill="white"/>
<path fill-rule="evenodd" clip-rule="evenodd" d="M45.3564 12.7627C47.1511 12.6037 48.893 12.1267 50.6877 11.9677C51.1627 11.8617 51.6906 12.1797 51.6378 12.6567C51.6378 17.109 51.6378 21.5082 51.6378 25.9604C51.6906 27.4445 51.5322 28.9816 51.9017 30.4656C52.324 31.7377 53.802 31.7377 54.9105 32.0557C54.9105 32.4797 55.1216 33.1688 54.541 33.2748C52.9574 33.3808 51.3739 32.9568 49.7903 33.0098C47.8373 32.9568 45.8842 33.4338 43.8784 33.2748C43.5089 33.0098 43.5617 32.4267 43.7728 32.0557C44.723 31.6847 45.8842 31.7907 46.676 31.0487C47.3622 30.4656 47.3094 29.5116 47.3622 28.6635C47.3622 25.2184 47.3622 21.7732 47.3622 18.328C47.2567 17.215 47.3622 15.9959 46.6232 15.0949C45.937 14.3528 44.7757 14.3528 43.8784 14.1408C43.8256 13.7168 43.6673 13.2398 43.984 12.9217C44.3535 12.7627 44.8813 12.8157 45.3564 12.7627Z" fill="white"/>
<path fill-rule="evenodd" clip-rule="evenodd" d="M56.1773 12.4448C58.0248 12.2328 59.8195 12.7629 61.6669 12.7099C63.5672 12.8159 65.4674 12.2328 67.3677 12.4448C67.4205 12.8689 67.4205 13.2929 67.3149 13.7169C66.4704 13.9819 65.4147 13.8759 64.7285 14.5649C64.0422 15.307 64.4118 16.314 64.6757 17.1621C65.9953 20.7133 67.4733 24.2644 69.1096 27.6566C69.2152 28.0276 69.6902 28.1336 69.743 27.7096C71.3266 24.2114 72.6462 20.5542 73.7547 16.8441C73.9658 16.049 74.1769 15.042 73.5963 14.3529C72.9629 13.9289 72.1711 13.9289 71.4849 13.7169C71.3266 13.2929 71.2738 12.7099 71.6961 12.4448C73.0685 12.2858 74.3881 12.8159 75.7605 12.7099C77.0274 12.7629 78.2942 12.3388 79.6138 12.4448C80.0889 12.6568 79.9305 13.2929 79.825 13.7169C78.1886 13.8229 76.7634 14.936 76.1828 16.473C73.7019 22.1973 71.4321 27.9746 68.7929 33.6459C68.4234 33.8049 67.9483 33.6989 67.526 33.7519C64.7284 28.2396 62.1948 22.6214 59.8195 16.8971C59.45 16.102 59.1333 15.254 58.4471 14.6179C57.8136 13.9819 56.9163 13.9289 56.1245 13.7169C56.1773 13.2929 56.1245 12.8689 56.1773 12.4448Z" fill="white"/>
<path fill-rule="evenodd" clip-rule="evenodd" d="M121.736 3.8058C119.836 8.47004 118.094 13.2403 117.038 18.1695C115.93 23.3108 114.98 28.5581 114.557 33.8053C113.027 33.8053 111.443 33.8053 109.912 33.8053C110.387 28.9821 112.235 24.4238 114.082 20.0246C115.719 16.0494 117.619 12.1802 119.414 8.31103C116.51 8.36403 113.607 8.36403 110.704 8.36403C109.596 8.36403 108.382 8.78806 107.854 9.84811C107.009 11.4912 106.956 13.3993 106.745 15.2014C106.587 15.2014 106.323 15.2014 106.165 15.2014C106.481 10.9612 106.851 6.72095 107.273 2.48074C112.182 2.53374 117.091 2.42773 122 2.42773C122 2.79875 121.947 3.32878 121.736 3.8058Z" fill="white"/>
<path fill-rule="evenodd" clip-rule="evenodd" d="M31.6319 49.9709C31.9486 50.6069 32.107 50.978 32.107 51.031C31.9486 51.19 31.7375 51.349 31.5264 51.561C31.2624 51.773 30.9457 51.985 30.5762 52.25C30.2067 52.515 29.8372 52.7271 29.5733 52.8331C29.3094 52.9391 29.0982 52.9921 28.9399 52.9921C28.6232 52.9921 28.3593 52.8861 28.0953 52.727C27.8314 52.568 27.6203 52.303 27.4619 51.985C27.4619 51.932 27.4091 51.879 27.4091 51.826C27.3563 51.773 27.3563 51.72 27.3036 51.667C27.1452 51.508 26.9341 51.296 26.7757 51.137C26.6701 51.031 26.5118 50.819 26.3006 50.5009C26.0895 50.1829 25.7728 49.7059 25.4033 49.1229C25.2449 48.8579 25.0866 48.5398 24.8754 48.2748C24.7171 48.0098 24.5059 47.6918 24.2948 47.4268C24.242 47.4798 24.1892 47.6918 24.1365 47.9568C24.0837 48.2218 24.0309 48.5928 23.9781 49.0699C23.9781 49.1229 23.9781 49.2819 23.9253 49.4409C23.8725 49.5999 23.8725 49.7589 23.8725 49.8119C23.8725 49.8649 23.8725 49.9179 23.9253 49.9709C23.9253 50.0769 23.9781 50.1299 23.9781 50.1829C23.9781 50.4479 23.9253 50.766 23.8725 51.296C23.8198 51.773 23.767 52.144 23.767 52.409C23.767 52.621 23.7142 52.7271 23.6614 52.8331C23.6086 52.9391 23.503 52.9921 23.3447 52.9921C23.1863 52.9921 23.0808 52.9391 22.9752 52.9391C22.8696 52.9921 22.764 52.9921 22.6585 52.9921C22.5529 52.9921 22.5001 52.9391 22.4473 52.8331C22.3946 52.7271 22.3945 52.568 22.3945 52.356C22.3945 52.303 22.3946 52.144 22.4473 51.985C22.5001 51.826 22.5001 51.667 22.5001 51.614C22.5001 51.561 22.5001 51.455 22.4473 51.349C22.4473 51.243 22.3945 51.137 22.3945 51.084C22.3945 51.031 22.3946 50.819 22.4473 50.5009C22.5001 50.1829 22.5529 49.7059 22.6057 49.1229C22.6585 48.5398 22.7112 48.0098 22.764 47.6918C22.8168 47.3208 22.8696 47.1088 22.8696 47.0558C22.8696 47.0028 22.9224 46.9498 22.9752 46.8438C23.028 46.7908 23.028 46.6847 23.028 46.5787L22.8696 45.9427C22.9224 45.5717 23.028 45.0947 23.0808 44.4056C23.1863 43.7166 23.2919 42.8685 23.3975 41.8615C23.4502 41.2785 23.503 40.8015 23.5558 40.4834C23.6086 40.1654 23.6086 39.9534 23.6086 39.9004C23.7142 39.5824 23.8725 39.3174 24.0837 39.1054C24.2948 38.8934 24.5587 38.7343 24.9282 38.6283C24.981 38.5753 25.0338 38.5753 25.0866 38.5223C25.1394 38.4693 25.2449 38.4163 25.2977 38.3633C25.4033 38.3633 25.5088 38.4693 25.6672 38.7874C25.8256 39.0524 25.8784 39.2644 25.8784 39.4234C25.8784 39.4764 25.8784 39.5824 25.8784 39.6884C25.8784 39.7944 25.8256 39.9004 25.7728 40.0594C25.72 40.2184 25.6672 40.3774 25.6672 40.4834C25.6144 40.5894 25.6144 40.6424 25.6144 40.6954C25.5089 41.1195 25.3505 41.6495 25.1922 42.2325C25.0338 42.8686 24.8754 43.6106 24.7171 44.4586C24.7171 44.5116 24.6643 44.6176 24.6643 44.7236C24.6643 44.8297 24.6115 44.9357 24.5587 45.0947C24.5059 45.2007 24.5059 45.3597 24.5059 45.4657C24.5059 45.5717 24.4532 45.6777 24.4532 45.7307C24.4532 45.8367 24.5059 45.9427 24.5587 46.0487C24.7699 45.9427 25.1394 45.6777 25.6144 45.1477C26.0895 44.6176 26.7229 43.8756 27.5147 42.9216C28.3065 41.9675 28.8871 41.1725 29.3094 40.5364C29.6789 39.9004 29.89 39.4764 29.89 39.2644C29.89 39.1584 29.8372 39.0524 29.7317 38.9464C29.6261 38.7873 29.5733 38.6813 29.5733 38.5753C29.5733 38.3633 29.6789 38.2043 29.8372 38.0983C29.9956 37.9393 30.3123 37.8863 30.629 37.7803C30.6818 37.7803 30.8401 37.7273 30.9985 37.5683C31.1569 37.4623 31.3152 37.3563 31.4208 37.3563C31.5263 37.3563 31.6319 37.4093 31.7375 37.4093C31.843 37.3563 32.0014 37.2503 32.107 37.1973C32.2125 37.3033 32.3181 37.4623 32.3709 37.5683C32.4237 37.7273 32.4237 37.8863 32.4237 38.0453C32.4237 38.4163 32.3709 38.7343 32.3181 38.9994C32.2126 39.2644 32.107 39.4764 31.8958 39.6354C31.843 39.6884 31.7903 39.7414 31.7375 39.7944C31.6847 39.8474 31.6319 39.9004 31.5791 40.0064C31.4736 40.2714 31.3152 40.5364 31.104 40.8545C30.8929 41.1725 30.629 41.4905 30.3651 41.8615C29.7317 42.6565 29.151 43.3456 28.5704 43.9816C28.0425 44.5646 27.5675 45.0947 27.0924 45.5187C26.934 45.6777 26.7757 45.8367 26.6701 45.9427C26.5646 46.0487 26.5118 46.1547 26.5118 46.2607C26.6174 46.5257 26.7757 46.7377 26.8285 46.9498C26.9868 47.3738 27.198 47.7978 27.4091 48.2218C27.6202 48.6458 27.7786 49.0699 27.9898 49.4939C28.3065 50.1299 28.6232 50.6069 28.8871 50.925C29.151 51.243 29.415 51.402 29.6789 51.402C29.7317 51.402 29.8372 51.349 29.9956 51.296C30.1539 51.19 30.4179 51.084 30.7346 50.925C30.7874 50.819 30.9457 50.713 31.1569 50.5539C31.5263 50.0769 31.6319 49.9709 31.6319 49.9709ZM31.5791 49.9709C31.6847 49.8119 31.8431 49.6529 31.9486 49.4939C32.4765 49.0169 32.9515 48.5928 33.321 48.1688C33.6905 47.7448 33.9017 47.3738 34.06 47.0028L33.9544 46.4727C34.06 46.2607 34.2712 46.0487 34.6934 45.8367C35.0629 45.5717 35.3796 45.4657 35.6436 45.4657C35.9075 45.4657 36.1186 45.5187 36.277 45.6777C36.4354 45.8367 36.6465 45.9957 36.8048 46.1547C36.9104 46.2077 36.9632 46.2607 36.9632 46.2607C37.2799 46.4727 37.491 46.7908 37.6494 47.2148C37.8077 47.5858 37.8605 48.1158 37.8605 48.6458C37.8605 48.9639 37.755 49.3879 37.491 49.9179C37.2799 50.5009 37.1215 50.925 37.1215 51.19C37.1215 51.243 37.1215 51.243 37.1743 51.296C37.1743 51.296 37.2271 51.349 37.2799 51.349C37.3855 51.349 37.491 51.296 37.6494 51.243C37.8077 51.137 37.9133 51.031 38.0717 50.872C38.4412 50.5009 38.7051 50.2889 38.8107 50.2359C38.9162 50.1829 38.969 50.1299 39.1274 50.0239C39.1801 50.1829 39.2857 50.3419 39.3385 50.5009C39.4441 50.6599 39.4969 50.872 39.6024 51.031C39.5497 51.084 39.4441 51.137 39.3913 51.243C39.2857 51.349 39.1802 51.402 39.0746 51.508C38.8107 51.72 38.4939 51.932 38.0717 52.197C37.6494 52.462 37.1743 52.7801 36.5937 53.0981C36.4353 53.2041 36.277 53.2571 36.0658 53.3631C35.7491 53.3631 35.538 53.3101 35.3796 53.2041C35.2213 53.0981 35.1685 52.9391 35.1685 52.727C35.1685 52.621 35.1685 52.568 35.2213 52.462C35.2741 52.356 35.3269 52.25 35.3796 52.091C35.4324 51.985 35.4852 51.879 35.538 51.773C35.5908 51.667 35.6436 51.561 35.6963 51.455C35.8547 50.978 35.9603 50.5539 36.0658 50.1299C36.1714 49.7059 36.1714 49.3349 36.1714 49.0169C36.1714 48.6458 36.1186 48.3278 36.0131 48.1158C35.9075 47.9038 35.6963 47.7978 35.4324 47.7448C35.2741 47.8508 35.0629 47.9568 34.9046 48.1158C34.6934 48.2748 34.5351 48.4868 34.3239 48.7518C34.1128 49.0169 33.9016 49.2289 33.7433 49.4409C33.5849 49.5999 33.4266 49.7059 33.321 49.8119C33.2682 49.9179 33.1627 50.0769 33.0043 50.1829C32.846 50.3419 32.6348 50.5009 32.4237 50.6599C32.4237 50.7129 32.3709 50.713 32.3709 50.819C32.3181 50.872 32.3181 50.925 32.2126 51.031C32.1598 50.872 32.107 50.6599 32.0014 50.5009C31.7375 50.2889 31.6847 50.1299 31.5791 49.9709ZM39.4441 49.4409L40.447 48.7518C40.4998 48.6988 40.5526 48.6458 40.6053 48.5928C40.6581 48.5398 40.7109 48.4338 40.7637 48.3278C40.8165 48.2218 40.8693 48.1688 40.9748 48.0628C41.0804 48.0098 41.1332 47.9568 41.2916 47.9038C41.3444 47.8508 41.4499 47.7448 41.5555 47.6388C41.6611 47.5328 41.8194 47.3738 41.9778 47.2678C42.0833 47.2148 42.1889 47.1618 42.2945 47.0558C42.4 46.9498 42.5584 46.8438 42.7167 46.7378C43.4029 46.1017 43.9836 45.6247 44.5114 45.3067C45.0393 44.9887 45.4616 44.8297 45.8311 44.8297C46.0422 44.8297 46.1478 44.8827 46.2533 44.9357C46.3589 45.0417 46.4117 45.1477 46.4117 45.3067C46.4117 45.4657 46.4117 45.6247 46.3061 45.7307C46.2534 45.8367 46.1478 45.9427 46.0422 46.0487C45.8839 46.2077 45.6727 46.3137 45.4616 46.5257C45.356 46.6847 45.1976 46.8438 45.0393 47.0028C44.8809 47.1618 44.6698 47.3738 44.4587 47.5328C44.4059 47.6388 44.3003 47.6918 44.2475 47.7978C44.1947 47.8508 44.1419 47.9038 44.0364 48.0098C43.9308 48.1158 43.7724 48.2218 43.6141 48.3278C43.5613 48.4868 43.3502 48.6988 43.139 48.9639C42.8751 49.2289 42.5584 49.5469 42.1361 49.9179C42.0833 49.9709 41.9778 50.0769 41.8722 50.2889C41.7138 50.5009 41.5555 50.7129 41.3443 51.031L41.3971 51.137C41.5555 51.084 41.7138 50.978 41.925 50.872C42.0833 50.7659 42.2945 50.5539 42.5056 50.3419C42.7695 50.1299 42.9807 49.9179 43.139 49.7589C43.2974 49.5999 43.4029 49.4939 43.5085 49.4939C43.5613 49.4409 43.6141 49.4409 43.6669 49.3879C43.7197 49.3349 43.7725 49.3349 43.8252 49.2819C44.1947 48.8579 44.5114 48.5398 44.7754 48.3808C45.0921 48.1688 45.356 48.0628 45.6199 48.0628C45.7783 48.0628 45.8838 48.1158 45.9894 48.2218C46.095 48.3278 46.095 48.5398 46.1478 48.8049C46.1478 49.1759 46.1478 49.5469 46.1478 49.8649C46.1478 50.1299 46.2006 50.3419 46.3589 50.5009C46.5173 50.7129 46.6756 50.766 46.8868 50.766C46.9395 50.766 47.0451 50.766 47.0979 50.713C47.1507 50.66 47.2035 50.6069 47.309 50.5539C47.3618 50.5009 47.4146 50.3949 47.4674 50.3419C47.5202 50.2889 47.573 50.2359 47.6258 50.1829C47.6785 50.1829 47.6785 50.1299 47.7313 50.0769C47.7841 50.0239 47.8369 49.9709 47.8897 49.9179C47.9953 50.1299 48.1008 50.3419 48.1536 50.5009C48.2064 50.6599 48.2592 50.819 48.312 50.925C48.1536 51.084 47.9952 51.243 47.7841 51.402C47.6258 51.561 47.4146 51.72 47.2563 51.879C47.0451 52.038 46.834 52.197 46.6228 52.25C46.4117 52.356 46.2005 52.356 45.9894 52.356C45.5143 52.356 45.1449 52.197 44.8809 51.932C44.617 51.667 44.4586 51.243 44.4059 50.6599C44.4059 50.6069 44.4059 50.5009 44.3531 50.4479C44.3531 50.3949 44.3003 50.2889 44.2475 50.2359C44.1947 50.2889 44.1419 50.2889 44.1419 50.3419C44.0891 50.3949 44.0364 50.4479 43.9836 50.5009C43.878 50.5539 43.7724 50.6599 43.6141 50.766C43.4557 50.872 43.2974 51.031 43.0862 51.19C42.8223 51.455 42.6112 51.667 42.4 51.879C42.2417 52.038 42.0833 52.197 42.0305 52.25C41.8722 52.356 41.7138 52.515 41.5027 52.621C41.2915 52.727 41.0804 52.8861 40.8165 52.9921C40.6581 53.0981 40.4998 53.1511 40.3942 53.2041C40.2886 53.2571 40.1831 53.2571 40.1303 53.2571C39.7608 53.2571 39.4969 53.1511 39.3385 52.9921C39.1802 52.8331 39.0746 52.515 39.0746 52.144C39.0746 51.932 39.1274 51.773 39.2329 51.561C39.3385 51.402 39.4441 51.19 39.6024 51.031C39.6024 50.925 39.6024 50.872 39.6024 50.766C39.6024 50.7129 39.6024 50.7129 39.5496 50.6599C39.5496 50.6069 39.4969 50.5539 39.4969 50.5009C39.4441 50.3949 39.3913 50.2889 39.3385 50.1299C39.2857 49.9709 39.2329 49.8649 39.1274 49.7059C39.1801 49.6529 39.1802 49.5999 39.2329 49.5469C39.2857 49.7059 39.3913 49.5999 39.4441 49.4409ZM47.7313 49.9709L47.7841 49.9179C47.8369 49.8119 47.8897 49.7059 47.9952 49.5999C48.1008 49.4939 48.2592 49.3349 48.4175 49.2289C48.6815 49.0699 48.8398 48.9639 48.9982 48.8579C49.1565 48.7519 49.2093 48.6988 49.2621 48.6458C49.3149 48.5398 49.3676 48.4868 49.4204 48.4338C49.526 48.3808 49.5788 48.2748 49.7372 48.1688C49.8427 48.0628 50.0011 47.9568 50.1594 47.7978C50.2122 47.7448 50.265 47.6918 50.3178 47.6388C50.3706 47.5328 50.4233 47.4798 50.4761 47.3738C50.5817 47.3208 50.6873 47.2148 50.7929 47.1088C50.8984 47.0028 51.0568 46.8438 51.2151 46.6847C51.4263 46.4727 51.6374 46.2607 51.8486 45.9957C52.0597 45.7307 52.3236 45.5187 52.6403 45.2537C52.7459 45.2007 52.8515 45.1477 52.9043 45.1477C53.0098 45.0947 53.0626 45.0947 53.1682 45.0947C53.4849 45.0947 53.7488 45.2007 53.9071 45.3597C54.0655 45.5187 54.1711 45.7307 54.1711 46.0487C54.1711 46.1017 54.1711 46.2607 54.1183 46.4197C54.0655 46.5787 54.0655 46.7907 54.0127 47.0558C53.9072 47.7978 53.8544 48.2748 53.8016 48.4338C53.7488 48.5928 53.5905 49.1229 53.3265 49.9709C53.2737 50.1299 53.221 50.2889 53.1682 50.5009C53.1154 50.7129 53.0098 50.978 52.957 51.243C52.957 51.296 53.0098 51.296 53.0626 51.349C53.1154 51.349 53.221 51.296 53.3265 51.19C53.4849 51.084 53.6432 50.925 53.8544 50.713C54.1183 50.4479 54.3294 50.2889 54.4878 50.1829C54.6462 50.0769 54.7517 49.9709 54.7517 49.9709C54.8573 50.1829 54.9101 50.3419 55.0157 50.5539C55.0684 50.713 55.174 50.872 55.2268 51.031C55.1212 51.084 55.0684 51.137 54.9628 51.243C54.9101 51.296 54.8045 51.402 54.7517 51.508C54.5934 51.614 54.435 51.72 54.2239 51.879C54.0127 52.038 53.8016 52.144 53.5376 52.303C53.4321 52.409 53.2737 52.568 53.0626 52.727C52.8515 52.8861 52.6403 53.0451 52.4292 53.2571L52.218 53.3101C52.1125 53.4691 52.0069 53.5751 51.9013 53.6281C51.7958 53.6811 51.743 53.7341 51.6374 53.7871C51.5318 53.8401 51.3735 53.8931 51.2679 53.8931C51.1623 53.9461 51.004 53.9991 50.8984 53.9991C50.7928 53.9991 50.7401 53.9461 50.7401 53.8401C50.6873 53.7871 50.6873 53.6811 50.6873 53.5221C50.5817 53.3101 50.4761 53.0981 50.4234 52.8331C50.3706 52.568 50.3178 52.303 50.3178 51.932C50.3178 51.879 50.3178 51.826 50.3178 51.72C50.3178 51.667 50.3178 51.614 50.3178 51.561C50.265 51.349 50.265 51.243 50.265 51.19C50.265 50.978 50.3706 50.7659 50.5289 50.6069C50.6873 50.4479 50.8984 50.3949 51.1096 50.3949C51.2151 50.3949 51.3207 50.4479 51.3735 50.5539C51.4263 50.6599 51.479 50.713 51.5318 50.713C51.5846 50.713 51.6374 50.6069 51.6902 50.3949C51.743 50.1829 51.7958 49.8649 51.8486 49.4939C51.9013 49.1229 51.9541 48.8579 51.9541 48.5928C51.9541 48.3278 51.9541 48.1158 51.9541 48.0098C51.9541 47.9038 51.9541 47.8508 51.9013 47.7978C51.8485 47.7448 51.7957 47.7448 51.6902 47.7448C51.5846 47.7448 51.2679 47.9568 50.7401 48.4338C50.2122 48.9109 49.4732 49.5469 48.5231 50.4479C48.4703 50.5009 48.4703 50.5539 48.4175 50.6599C48.3647 50.7129 48.312 50.819 48.2064 50.925C48.1536 50.819 48.1008 50.6599 48.048 50.5009C47.9425 50.3949 47.8369 50.1829 47.7313 49.9709ZM54.7517 49.9709C54.8045 49.9179 54.8045 49.8649 54.8573 49.8119C54.9101 49.7589 54.9629 49.6529 55.0157 49.5999C55.0684 49.5469 55.174 49.4409 55.3323 49.3349C55.4379 49.2289 55.5963 49.0699 55.7546 48.9639C55.913 48.8049 56.0713 48.6458 56.2297 48.4338C56.4408 48.2218 56.652 47.9568 56.9159 47.6388C57.0215 47.5328 57.1798 47.3738 57.391 47.1618C57.5493 46.9498 57.7604 46.7377 58.0244 46.4197C58.2355 46.1547 58.4467 45.9957 58.7106 45.8897C58.9745 45.7837 59.1857 45.7307 59.5024 45.7307C59.7663 45.7307 59.9774 45.8367 60.083 45.9957C60.1886 46.1547 60.2941 46.4197 60.2941 46.7378C60.2941 46.8968 60.2413 47.2678 60.083 47.7448C59.9774 48.2218 59.7663 48.8579 59.5024 49.7059C59.4496 49.8649 59.344 50.0239 59.2912 50.1299C59.2384 50.2359 59.2384 50.2889 59.1856 50.3949C59.1856 50.4479 59.1856 50.5539 59.1856 50.5539C59.1856 50.6069 59.1857 50.66 59.2384 50.713C59.2912 50.713 59.2912 50.6599 59.344 50.6069C59.3968 50.5539 59.3968 50.5009 59.4496 50.4479C59.5024 50.3419 59.6079 50.2359 59.7135 50.0769C59.8191 49.9709 59.9774 49.8119 60.1358 49.6529C60.1886 49.5469 60.2941 49.3879 60.3997 49.2819C60.5053 49.1759 60.6108 49.0169 60.7692 48.9639C60.822 48.9109 60.822 48.8579 60.8748 48.8049C60.9276 48.7519 60.9803 48.6458 61.0331 48.5928C61.1387 48.4868 61.2443 48.3808 61.4026 48.2748C61.561 48.1688 61.7193 48.0628 61.8777 47.9568C62.0888 47.8508 62.2472 47.7448 62.4055 47.6918C62.5639 47.6388 62.7222 47.5858 62.8278 47.5858C63.039 47.5858 63.2501 47.6388 63.4612 47.7448C63.6196 47.8508 63.7779 48.0098 63.9363 48.2748C64.0946 48.7519 64.253 49.1759 64.3586 49.5469C64.4641 49.7589 64.5169 49.9709 64.6225 50.0769C64.7281 50.1829 64.8336 50.2359 64.9392 50.2359C65.0448 50.2359 65.0976 50.2359 65.2031 50.1829C65.2559 50.1299 65.3615 50.0769 65.4143 50.0239L65.8893 51.084C65.7838 51.19 65.6254 51.296 65.5198 51.402C65.3615 51.508 65.2559 51.614 65.1503 51.72C64.992 51.879 64.8336 51.985 64.6753 52.038C64.5169 52.091 64.3586 52.144 64.2002 52.144C64.0419 52.144 63.8835 52.091 63.7252 52.038C63.5668 51.985 63.4084 51.826 63.3029 51.72C63.2501 51.667 63.1445 51.561 63.0917 51.402C62.9862 51.243 62.8806 51.031 62.775 50.819C62.6694 50.713 62.5639 50.6069 62.4583 50.4479C62.3527 50.2889 62.1944 50.0769 62.036 49.8649L61.9305 49.8119C61.7721 49.8649 61.6665 49.9179 61.5082 50.0239C61.3498 50.1299 61.2443 50.2359 61.0859 50.3949C60.7692 50.7129 60.5053 50.872 60.3469 50.978C60.1886 51.031 60.083 51.137 60.0302 51.243C59.9247 51.402 59.7663 51.667 59.5024 51.932C59.2384 52.197 58.9217 52.568 58.5522 52.9391C58.4466 53.0451 58.3411 53.1511 58.2355 53.2041C58.13 53.3101 58.0244 53.3631 57.9188 53.4691C57.8133 53.5751 57.7077 53.6281 57.6021 53.6281C57.4965 53.6811 57.3382 53.6811 57.1798 53.6811C56.8631 53.6811 56.7047 53.5751 56.7047 53.3631C56.652 53.1511 56.652 52.9391 56.652 52.727C56.7575 52.409 56.9159 52.038 57.0215 51.561C57.1798 51.084 57.3382 50.5539 57.4965 49.9179C57.4965 49.8649 57.4965 49.8119 57.5493 49.7589C57.5493 49.7059 57.6021 49.5999 57.6549 49.4939C57.7077 49.3879 57.7077 49.3349 57.7604 49.2289C57.7604 49.1759 57.7604 49.0699 57.7604 49.0169C57.7604 48.9639 57.7605 48.9109 57.7077 48.9109C57.6549 48.8579 57.6021 48.8579 57.5493 48.8579C57.4965 48.8579 57.3909 48.9109 57.2326 49.0169C57.127 49.1229 56.9687 49.2289 56.8103 49.4409C56.5992 49.6529 56.4408 49.8649 56.2825 49.9709C56.1769 50.0769 56.0713 50.1829 56.0185 50.1829C55.9658 50.2359 55.8602 50.2889 55.7546 50.3949C55.6491 50.5009 55.5435 50.6069 55.4379 50.713C55.4379 50.766 55.3851 50.7659 55.3851 50.872C55.3323 50.925 55.3323 50.978 55.2268 51.084C55.174 50.978 55.1212 50.819 55.0684 50.6599C54.9629 50.3949 54.9101 50.1829 54.7517 49.9709ZM65.5198 49.9709C65.5726 49.9179 65.6254 49.8649 65.6782 49.7589C65.731 49.6529 65.7838 49.5999 65.8893 49.4939L66.7339 48.9109C66.8395 48.8049 66.9978 48.6458 67.209 48.4338C67.4201 48.2218 67.684 48.0098 68.0007 47.6918C68.0535 47.5858 68.1063 47.5328 68.2119 47.4268C68.3175 47.3208 68.423 47.2148 68.5286 47.1088C68.6342 47.0028 68.7397 46.8968 68.8453 46.8438C68.9509 46.7378 69.0564 46.6847 69.162 46.5787C69.2676 46.4727 69.3731 46.3667 69.4787 46.2607C69.5843 46.1547 69.6899 46.0487 69.7954 45.9427C69.901 45.8367 70.0593 45.7307 70.1649 45.6777C70.2705 45.6247 70.4289 45.5717 70.5872 45.5717C70.7456 45.5717 70.8511 45.5717 70.9567 45.6247C71.0622 45.6777 71.0623 45.7307 71.1151 45.7837C71.0623 45.9427 70.9567 46.1547 70.9039 46.3137L70.9567 46.4197C71.2734 46.3137 71.5373 46.2077 71.7485 46.1547C71.9596 46.1017 72.0652 46.0487 72.118 46.0487C72.6458 46.0487 73.0681 46.2077 73.332 46.5257C73.5959 46.8438 73.7543 47.3738 73.7543 48.0628C73.7543 48.1688 73.7543 48.3278 73.7015 48.5398C73.6487 48.6988 73.6487 48.9109 73.5432 49.1229C73.4904 49.3349 73.3848 49.5469 73.2792 49.7059C73.1737 49.8649 73.1209 49.9709 73.0153 50.0239C73.0681 50.1299 73.0681 50.1829 73.1209 50.2359C73.1737 50.2889 73.2264 50.2889 73.2792 50.2889C73.332 50.2889 73.3848 50.2889 73.4376 50.2359C73.4904 50.1829 73.5959 50.1299 73.6487 50.0769C73.7015 50.2359 73.8071 50.3949 73.8599 50.6069C73.9126 50.7659 74.0182 50.978 74.071 51.137C73.9126 51.243 73.8071 51.402 73.7015 51.508C73.5959 51.614 73.4376 51.72 73.2792 51.826C73.1209 51.985 72.9625 52.091 72.8042 52.144C72.6458 52.197 72.4875 52.25 72.3291 52.25C72.1708 52.25 72.0124 52.197 71.9068 52.144C71.8013 52.038 71.6957 51.932 71.6429 51.773C71.4318 52.038 71.2206 52.25 70.9567 52.462C70.6928 52.674 70.3761 52.8331 70.0594 52.9921C69.8482 53.0981 69.6899 53.1511 69.5315 53.2041C69.3732 53.2571 69.2148 53.2571 69.1092 53.2571C69.0564 53.2571 69.0037 53.2571 68.8981 53.3101C68.7925 53.3631 68.6869 53.3631 68.6342 53.3631C68.2119 53.3631 67.8424 53.2041 67.4729 52.8331C67.1034 52.462 66.945 52.038 66.945 51.614C66.945 51.455 66.9978 51.19 67.0506 50.872C67.1562 50.5539 67.1562 50.3949 67.1562 50.3419C67.1562 50.2889 67.1562 50.2359 67.1034 50.2359C67.0506 50.1829 66.9978 50.1829 66.945 50.1829C66.8923 50.1829 66.8395 50.2359 66.6811 50.3419C66.5228 50.4479 66.3644 50.6069 66.1005 50.819C66.1005 50.872 66.0477 50.872 65.9949 50.978C65.9421 51.031 65.9421 51.084 65.8366 51.19C65.7838 51.031 65.731 50.819 65.6254 50.6599C65.6782 50.2889 65.6254 50.1299 65.5198 49.9709ZM70.9039 47.9038C70.8511 47.9038 70.7983 47.9568 70.7456 48.0098C70.6928 48.0628 70.5872 48.1688 70.5344 48.2748C70.4288 48.4338 70.3233 48.6458 70.1649 48.8579C70.0593 48.9639 70.0066 49.0169 69.901 49.0699C69.7954 49.1229 69.6899 49.1759 69.5843 49.1759C69.5315 49.1759 69.4259 49.2819 69.3204 49.3879C69.2148 49.5469 69.162 49.7059 69.0564 49.9709C68.9509 50.1829 68.8981 50.3949 68.8981 50.5539C68.8453 50.713 68.8453 50.872 68.8453 50.978C68.8453 51.19 68.8981 51.349 69.0037 51.455C69.1092 51.561 69.2676 51.614 69.4787 51.614C69.8482 51.614 70.1649 51.508 70.4288 51.349C70.6928 51.137 71.0095 50.872 71.2206 50.5009C71.3262 50.3419 71.4318 50.2359 71.5373 50.0769C71.5901 50.0239 71.6429 49.9709 71.6957 49.8649C71.7485 49.7589 71.7485 49.6529 71.8013 49.4939L72.0124 48.8579C71.9596 48.6458 71.9068 48.4338 71.8013 48.3278C71.7485 48.2218 71.6957 48.1158 71.6429 48.0628C71.5901 48.0628 71.5373 48.0098 71.379 48.0098C71.3262 47.9568 71.1678 47.9568 70.9039 47.9038Z" fill="white"/>
<path fill-rule="evenodd" clip-rule="evenodd" d="M73.6489 49.9717L73.7017 49.9187L73.7545 49.8127C73.9129 49.6537 74.0184 49.4946 74.124 49.4416C74.2295 49.3356 74.2823 49.2826 74.3351 49.2296C74.3879 49.1766 74.4407 49.1236 74.599 49.0706C74.7046 49.0176 74.9158 48.9116 75.1269 48.8586L75.2852 48.7526C75.338 48.6466 75.4436 48.5406 75.5492 48.3816C75.7075 48.2226 75.8659 48.0636 76.0242 47.8516C76.077 47.7986 76.1298 47.7456 76.1826 47.6926C76.2354 47.6396 76.341 47.5866 76.4465 47.4805C76.6049 47.3215 76.816 47.1095 76.9744 46.9505C77.1327 46.7915 77.3439 46.5795 77.5022 46.4205C77.555 46.3675 77.7134 46.2085 77.9245 46.0495C78.1356 45.8905 78.3996 45.6255 78.7691 45.3074C78.8219 45.2544 78.9274 45.2014 79.033 45.1484C79.1914 45.0954 79.3497 44.9894 79.5608 44.8834C79.6664 44.8304 79.7192 44.7774 79.772 44.6714C79.8248 44.5654 79.8248 44.4594 79.8248 44.3004C79.8776 44.1944 79.9303 44.0884 79.9831 43.9294C80.0359 43.7704 80.0887 43.6113 80.1415 43.4523C80.1943 43.2403 80.2998 43.0283 80.2998 42.8693C80.3526 42.7103 80.3526 42.6043 80.4054 42.5513C80.511 42.2333 80.7221 41.8093 80.9332 41.3852C81.1444 40.9082 81.4083 40.4312 81.725 39.7952C81.8834 39.4771 82.0417 39.1591 82.2529 38.7881C82.3584 38.5761 82.5168 38.4701 82.6751 38.3641C82.8335 38.2581 82.9919 38.2051 83.1502 38.2051C83.3086 38.2051 83.4141 38.2581 83.4669 38.3641C83.5197 38.4701 83.5725 38.6291 83.5725 38.8411C83.5725 39.1591 83.5725 39.4771 83.5197 39.7952C83.4669 40.1132 83.4141 40.3782 83.2558 40.6432C83.2558 40.6962 83.203 40.7492 83.203 40.8552C83.203 40.9612 83.1502 41.0672 83.1502 41.2262C83.1502 41.3322 83.0974 41.4382 83.0446 41.5442C82.9919 41.6503 82.9391 41.7563 82.8863 41.8093C82.8863 41.8623 82.8863 41.9153 82.8863 42.0213C82.8863 42.0743 82.8335 42.1803 82.8335 42.2863L82.6751 42.4983C82.6751 42.5513 82.6751 42.6043 82.6751 42.6573V42.8693C82.6751 42.9223 82.6223 43.0283 82.5696 43.1343C82.5168 43.2403 82.464 43.4523 82.3584 43.7174C82.2529 43.9824 82.1473 44.1944 82.0945 44.3004C82.0417 44.4594 81.9889 44.5654 81.9889 44.5654C81.9362 44.6184 81.9361 44.6714 81.8834 44.7244C81.8306 44.8304 81.7778 44.8834 81.725 44.9894L81.7778 45.2544L81.0388 47.8516C81.0388 48.1166 81.0388 48.3816 81.0388 48.5936C81.0388 48.8056 81.0916 48.9646 81.0916 49.0706C81.1444 49.1766 81.1972 49.3356 81.2499 49.5476C81.3555 49.7067 81.4611 49.9187 81.5667 50.1307C81.6722 50.2897 81.725 50.3957 81.8834 50.4487C81.9889 50.5017 82.0945 50.5547 82.2529 50.5547C82.4112 50.5547 82.5168 50.5017 82.6751 50.4487C82.8335 50.3957 82.9918 50.2367 83.0974 50.0777C83.203 50.2897 83.2558 50.4487 83.3613 50.6077C83.4669 50.7667 83.5197 50.9257 83.5725 51.0847C83.5197 51.0847 83.4669 51.1907 83.3086 51.2967C83.203 51.4027 83.0446 51.6148 82.8335 51.8798C82.7279 52.0388 82.5696 52.1448 82.4112 52.1978C82.2529 52.2508 82.0417 52.3038 81.7778 52.3038C81.1972 52.3038 80.7749 52.1448 80.4054 51.8798C80.0359 51.5618 79.8247 51.1377 79.6664 50.5547C79.6136 50.4487 79.6136 50.3427 79.5608 50.2367C79.5608 50.1307 79.508 50.0777 79.508 49.9717C79.4553 49.8127 79.3497 49.6537 79.2441 49.4947C79.1913 49.5477 79.1385 49.6007 79.1385 49.6537C79.033 49.7067 78.9274 49.8127 78.8218 49.9187C78.7163 50.0247 78.6107 50.1837 78.5051 50.3427C78.5051 50.3957 78.4524 50.5017 78.3996 50.6077C78.3468 50.7137 78.2412 50.8727 78.1356 50.9787C77.8717 51.2437 77.6606 51.5618 77.3966 51.8268C77.1327 52.0918 76.9216 52.4098 76.6577 52.6748C76.341 53.0458 76.0242 53.3108 75.7075 53.5228C75.4436 53.6819 75.1797 53.7879 74.9685 53.7879C74.5991 53.7879 74.3351 53.6819 74.124 53.5228C73.9656 53.3638 73.86 53.0458 73.86 52.6748C73.86 52.5158 73.9128 52.2508 74.0712 51.9328C74.1768 51.6148 74.2824 51.4027 74.2824 51.2437L74.2295 51.0847L73.6489 49.9717ZM79.2969 46.7385C79.2969 46.6855 79.2969 46.6325 79.2441 46.5795C79.1385 46.6855 78.9802 46.8445 78.8218 46.9505C78.6635 47.1095 78.4524 47.2685 78.2412 47.4275C78.1884 47.5335 78.0829 47.7456 77.8717 48.0106C77.6606 48.2756 77.3967 48.5936 77.0799 48.9646C76.9744 49.0706 76.8688 49.2826 76.7104 49.5476C76.5521 49.8127 76.341 50.1307 76.1298 50.5547C76.0243 50.7137 75.9715 50.9257 75.8659 51.1377C75.8659 51.1907 75.9187 51.2437 75.9714 51.2967C76.1826 51.2437 76.4465 51.0317 76.816 50.7137C77.1327 50.3957 77.5022 49.9187 77.9773 49.3356C78.4524 48.6996 78.7691 48.1696 79.033 47.7456C79.1914 47.3215 79.2969 47.0035 79.2969 46.7385ZM83.4141 49.4416L84.417 48.7526C84.4698 48.6996 84.5226 48.6466 84.5754 48.5936C84.6282 48.5406 84.681 48.4346 84.7338 48.3286C84.7865 48.2226 84.8393 48.1696 84.9449 48.0636C85.0505 48.0106 85.1033 47.9576 85.2616 47.9046C85.3144 47.8516 85.42 47.7456 85.5255 47.6396C85.6311 47.5336 85.7895 47.3745 85.9478 47.2685C86.0534 47.2155 86.1589 47.1625 86.2645 47.0565C86.3701 46.9505 86.5285 46.8445 86.6868 46.7385C87.373 46.1025 87.9536 45.6255 88.4815 45.3074C89.0093 44.9894 89.4316 44.8304 89.8011 44.8304C90.0122 44.8304 90.1178 44.8834 90.2234 44.9364C90.3289 45.0424 90.3818 45.1484 90.3818 45.3074C90.3818 45.4664 90.329 45.6255 90.2762 45.7315C90.2234 45.8375 90.1178 45.9435 90.0123 46.0495C89.8539 46.2085 89.6427 46.3145 89.4316 46.5265C89.326 46.6855 89.1677 46.8445 89.0093 47.0035C88.851 47.1625 88.6398 47.3745 88.4287 47.5336C88.3759 47.6396 88.2703 47.6926 88.2176 47.7986C88.1648 47.8516 88.112 47.9046 88.0064 48.0106C87.9009 48.1166 87.7425 48.2226 87.5841 48.3286C87.5313 48.4876 87.3202 48.6996 87.1091 48.9646C86.8452 49.2296 86.5284 49.5477 86.1062 49.9187C86.0534 49.9717 85.9478 50.0777 85.8422 50.2897C85.6839 50.5017 85.5255 50.7137 85.3144 51.0317L85.3672 51.1377C85.5255 51.0847 85.6839 50.9787 85.895 50.8727C86.0534 50.7667 86.2645 50.5547 86.4757 50.3427C86.7396 50.1307 86.9507 49.9187 87.1091 49.7597C87.2674 49.6007 87.373 49.4947 87.4786 49.4947C87.5314 49.4416 87.5841 49.4416 87.6369 49.3886C87.6897 49.3356 87.7425 49.3356 87.7953 49.2826C88.1648 48.8586 88.4815 48.5406 88.7454 48.3816C89.0621 48.1696 89.3261 48.0636 89.59 48.0636C89.7483 48.0636 89.8539 48.1166 89.9595 48.2226C90.065 48.3286 90.065 48.5406 90.1178 48.8056C90.1178 49.1766 90.1178 49.5477 90.1178 49.8657C90.1178 50.1307 90.1706 50.3427 90.329 50.5017C90.4873 50.7137 90.6457 50.7667 90.8568 50.7667C90.9096 50.7667 91.0152 50.7667 91.068 50.7137C91.1207 50.6607 91.1735 50.6077 91.2791 50.5547C91.3319 50.5017 91.3847 50.3957 91.4375 50.3427C91.4902 50.2897 91.543 50.2367 91.5958 50.1837C91.6486 50.1837 91.6486 50.1307 91.7014 50.0777C91.7542 50.0247 91.8069 49.9717 91.8597 49.9187C91.9653 50.1307 92.0709 50.3427 92.1237 50.5017C92.1764 50.6607 92.2292 50.8197 92.282 50.9257C92.1236 51.0847 91.9653 51.2437 91.7542 51.4027C91.5958 51.5618 91.3847 51.7208 91.2263 51.8798C91.0152 52.0388 90.804 52.1978 90.5929 52.2508C90.3817 52.3568 90.1706 52.3568 89.9595 52.3568C89.4844 52.3568 89.1149 52.1978 88.851 51.9328C88.5871 51.6678 88.4287 51.2437 88.3759 50.6607C88.3759 50.6077 88.3759 50.5017 88.3231 50.4487C88.3231 50.3957 88.2703 50.2897 88.2176 50.2367C88.1648 50.2897 88.112 50.2897 88.112 50.3427C88.0592 50.3957 88.0064 50.4487 87.9536 50.5017C87.8481 50.5547 87.7425 50.6607 87.5841 50.7667C87.4258 50.8727 87.2674 51.0317 87.0563 51.1907C86.7924 51.4557 86.5812 51.6678 86.3701 51.8798C86.2117 52.0388 86.0534 52.1978 86.0006 52.2508C85.8422 52.3568 85.6839 52.5158 85.4727 52.6218C85.2616 52.7278 85.0505 52.8868 84.7865 52.9928C84.6282 53.0988 84.4698 53.1518 84.3643 53.2048C84.2587 53.2578 84.1531 53.2578 84.1003 53.2578C83.7308 53.2578 83.4669 53.1518 83.3086 52.9928C83.1502 52.8338 83.0446 52.5158 83.0446 52.1448C83.0446 51.9328 83.0974 51.7738 83.203 51.5618C83.3086 51.4027 83.4141 51.1907 83.5725 51.0317C83.5725 50.9257 83.5725 50.8727 83.5725 50.7667C83.5725 50.7137 83.5725 50.7137 83.5197 50.6607C83.5197 50.6077 83.4669 50.5547 83.4669 50.5017C83.4141 50.3957 83.3613 50.2897 83.3086 50.1307C83.2558 49.9717 83.203 49.8657 83.1502 49.7067C83.203 49.6537 83.203 49.6007 83.2558 49.5476C83.2558 49.7067 83.3614 49.6007 83.4141 49.4416ZM91.7014 49.9717C91.807 49.8127 91.9653 49.6537 92.0708 49.4947C92.5987 49.0176 93.0738 48.5936 93.4433 48.1696C93.8128 47.7456 94.0239 47.3745 94.1822 47.0035L94.0767 46.4735C94.1823 46.2615 94.3934 46.0495 94.8157 45.8375C95.1852 45.5724 95.5019 45.4664 95.7658 45.4664C96.0297 45.4664 96.2409 45.5195 96.3992 45.6785C96.5576 45.8375 96.7687 45.9965 96.9271 46.1555C97.0326 46.2085 97.0854 46.2615 97.0854 46.2615C97.4021 46.4735 97.6133 46.7915 97.7716 47.2155C97.93 47.5866 97.9828 48.1166 97.9828 48.6466C97.9828 48.9646 97.8772 49.3886 97.6133 49.9187C97.4021 50.5017 97.2438 50.9257 97.2438 51.1907C97.2438 51.2437 97.2438 51.2437 97.2966 51.2967C97.2966 51.2967 97.3494 51.3497 97.4021 51.3497C97.5077 51.3497 97.6133 51.2967 97.7716 51.2437C97.93 51.1377 98.0356 51.0317 98.1939 50.8727C98.5634 50.5017 98.8273 50.2897 98.9329 50.2367C99.0385 50.1837 99.0913 50.1307 99.2496 50.0247C99.3024 50.1837 99.408 50.3427 99.4607 50.5017C99.5663 50.6607 99.6191 50.8727 99.7247 51.0317C99.6719 51.0847 99.5663 51.1377 99.5135 51.2437C99.408 51.3497 99.3024 51.4027 99.1968 51.5088C98.9329 51.7208 98.6162 51.9328 98.1939 52.1978C97.7716 52.4628 97.2966 52.7808 96.7159 53.0988C96.5576 53.2048 96.3992 53.2578 96.1881 53.3638C95.8714 53.3638 95.6602 53.3108 95.5019 53.2048C95.3435 53.0988 95.2908 52.9398 95.2908 52.7278C95.2908 52.6218 95.2907 52.5688 95.3435 52.4628C95.3963 52.3568 95.4491 52.2508 95.5019 52.0918C95.5547 51.9858 95.6075 51.8798 95.6603 51.7738C95.713 51.6678 95.7658 51.5618 95.8186 51.4557C95.977 50.9787 96.0825 50.5547 96.1881 50.1307C96.2937 49.7067 96.2936 49.3356 96.2936 49.0176C96.2936 48.6466 96.2409 48.3286 96.0825 48.1166C95.977 47.9046 95.7658 47.7986 95.5019 47.7456C95.3435 47.8516 95.1324 47.9576 94.974 48.1166C94.7629 48.2756 94.6045 48.4876 94.3934 48.7526C94.1823 49.0176 93.9711 49.2296 93.8128 49.4416C93.6544 49.6007 93.496 49.7067 93.3905 49.8127C93.3377 49.9187 93.2321 50.0777 93.0738 50.1837C92.9154 50.3427 92.7043 50.5017 92.4932 50.6607C92.4932 50.7137 92.4404 50.7137 92.4404 50.8197C92.3876 50.8727 92.3876 50.9257 92.282 51.0317C92.2292 50.8727 92.1764 50.6607 92.0708 50.5017C91.8597 50.2897 91.7542 50.1307 91.7014 49.9717Z" fill="white"/>
</svg>
