<svg width="170" height="40" viewBox="0 0 170 40" fill="none" xmlns="http://www.w3.org/2000/svg">
<path d="M57.9272 23.0551H53.8646L56.2462 9.20626H51.2029L51.9033 5.26953H66.1225L65.4221 9.20626H60.3788L57.9272 23.0551Z" fill="white"/>
<path d="M74.6682 5.19922C75.7889 5.19922 76.8396 5.41012 77.8202 5.83191C78.8009 6.2537 79.6414 6.81609 80.3419 7.51908C81.0423 8.22206 81.6027 9.13595 82.023 10.1201C82.4432 11.1043 82.6533 12.1588 82.6533 13.2836C82.6533 14.6896 82.3732 16.0252 81.8128 17.2203C81.2525 18.4154 80.552 19.4699 79.6414 20.3838C78.7308 21.2976 77.7502 22.0006 76.5594 22.4927C75.4387 22.9848 74.2479 23.266 72.9871 23.266C71.8664 23.266 70.8157 23.0551 69.8351 22.6333C68.8544 22.2115 68.0139 21.6491 67.3134 20.9461C66.613 20.2432 66.0526 19.3293 65.6323 18.3451C65.2121 17.3609 65.002 16.3064 65.002 15.1816C65.002 13.7757 65.2821 12.44 65.8425 11.2449C66.4028 10.0498 67.1033 8.99535 68.0139 8.08147C68.9245 7.16758 69.9051 6.4646 71.0959 5.9725C72.2866 5.41011 73.4074 5.19922 74.6682 5.19922ZM73.3373 19.259C73.9677 19.259 74.5981 19.1184 75.2286 18.8372C75.859 18.556 76.4193 18.1342 76.9097 17.6421C77.4 17.15 77.7502 16.5173 78.1004 15.8143C78.3806 15.1113 78.5207 14.3381 78.5207 13.4945C78.5207 12.8618 78.3806 12.2291 78.1705 11.737C77.9603 11.1746 77.6802 10.7528 77.2599 10.331C76.9097 9.90923 76.4193 9.62804 75.929 9.41715C75.4387 9.20625 74.8783 9.06565 74.318 9.06565C73.6876 9.06565 73.0571 9.20625 72.4267 9.48744C71.7963 9.76864 71.236 10.1904 70.7456 10.6825C70.2553 11.1746 69.8351 11.8073 69.5549 12.5103C69.2747 13.2133 69.1346 13.9866 69.1346 14.8301C69.1346 15.4628 69.2747 16.0955 69.4848 16.5876C69.695 17.15 69.9751 17.5718 70.3954 17.9936C70.7456 18.4154 71.236 18.6966 71.7263 18.9075C72.2166 19.1887 72.777 19.259 73.3373 19.259Z" fill="white"/>
<path d="M93.7198 5.19922C94.8405 5.19922 95.8912 5.41012 96.8718 5.83191C97.8524 6.2537 98.693 6.81609 99.3934 7.51908C100.094 8.22206 100.654 9.13595 101.075 10.1201C101.495 11.1043 101.705 12.1588 101.705 13.2836C101.705 14.6896 101.425 16.0252 100.864 17.2203C100.304 18.4154 99.6035 19.4699 98.693 20.3838C97.7824 21.2976 96.8017 22.0006 95.6109 22.4927C94.4902 22.9848 93.2995 23.266 92.0387 23.266C90.9179 23.266 89.8672 23.0551 88.8866 22.6333C87.906 22.2115 87.0655 21.6491 86.365 20.9461C85.6645 20.2432 85.1042 19.3293 84.6839 18.3451C84.2636 17.3609 84.0535 16.3064 84.0535 15.1816C84.0535 13.7757 84.3337 12.44 84.894 11.2449C85.4544 10.0498 86.1549 8.99535 87.0655 8.08147C87.976 7.16758 88.9566 6.4646 90.1474 5.9725C91.3382 5.41011 92.529 5.19922 93.7198 5.19922ZM92.4589 19.259C93.0893 19.259 93.7197 19.1184 94.3501 18.8372C94.9805 18.556 95.5409 18.1342 96.0312 17.6421C96.5216 17.15 96.8718 16.5173 97.222 15.8143C97.5022 15.1113 97.6423 14.3381 97.6423 13.4945C97.6423 12.8618 97.5022 12.2291 97.2921 11.737C97.0819 11.1746 96.8017 10.7528 96.3815 10.331C96.0312 9.90923 95.5409 9.62804 95.0506 9.41715C94.5603 9.20625 93.9999 9.06565 93.4396 9.06565C92.8092 9.06565 92.1787 9.20625 91.5483 9.48744C90.9179 9.76864 90.3576 10.1904 89.8673 10.6825C89.3769 11.1746 88.9567 11.8073 88.6765 12.5103C88.3963 13.2133 88.2562 13.9866 88.2562 14.8301C88.2562 15.4628 88.3963 16.0955 88.6064 16.5876C88.8165 17.15 89.0968 17.5718 89.517 17.9936C89.8673 18.4154 90.3576 18.6966 90.8479 18.9075C91.2681 19.1887 91.8285 19.259 92.4589 19.259Z" fill="white"/>
<path d="M105.698 5.33789H109.761L107.379 19.1164H115.364L114.664 23.0532H102.616L105.698 5.33789Z" fill="white"/>
<path d="M130.494 13.9163C130.844 14.1975 131.194 14.4787 131.545 14.8302C131.825 15.1114 132.035 15.5331 132.245 15.9549C132.455 16.447 132.595 16.9391 132.595 17.5718C132.595 18.3451 132.455 19.0481 132.105 19.6808C131.825 20.3135 131.334 20.9462 130.844 21.4382C130.284 21.9303 129.653 22.3521 128.953 22.6333C128.252 22.9145 127.412 23.0551 126.571 23.0551H117.886L120.968 5.26953H128.603C129.303 5.26953 129.934 5.41013 130.564 5.69132C131.124 5.97252 131.615 6.32401 132.035 6.7458C132.455 7.1676 132.735 7.65969 132.945 8.22208C133.156 8.78447 133.296 9.34686 133.296 9.90925C133.296 10.6825 133.156 11.3152 132.875 11.8073C132.595 12.2994 132.245 12.7212 131.965 13.0727C131.475 13.4242 130.984 13.7054 130.494 13.9163ZM126.151 19.6105C126.852 19.6105 127.482 19.3996 127.972 19.0481C128.463 18.6263 128.743 18.1342 128.743 17.4312C128.743 16.9391 128.603 16.5173 128.252 16.0955C127.902 15.6738 127.482 15.4629 126.922 15.4629H123.349L122.579 19.6808H126.151V19.6105ZM123.84 12.2994H126.992C127.622 12.2994 128.112 12.1588 128.603 11.8073C129.093 11.4558 129.303 10.9637 129.303 10.4013C129.303 9.97955 129.163 9.55776 128.883 9.20626C128.603 8.85477 128.182 8.71417 127.692 8.71417H124.61L123.84 12.2994Z" fill="white"/>
<path d="M144.433 5.19922C145.554 5.19922 146.604 5.41012 147.585 5.83191C148.566 6.2537 149.406 6.81609 150.107 7.51908C150.807 8.22206 151.368 9.13595 151.788 10.1201C152.208 11.1043 152.418 12.1588 152.418 13.2836C152.418 14.6896 152.138 16.0252 151.578 17.2203C151.017 18.4154 150.317 19.4699 149.406 20.3838C148.496 21.2976 147.515 22.0006 146.324 22.4927C145.204 22.9848 144.013 23.266 142.752 23.266C141.631 23.266 140.581 23.0551 139.6 22.6333C138.619 22.2115 137.779 21.6491 137.078 20.9461C136.378 20.2432 135.818 19.3293 135.397 18.3451C134.977 17.3609 134.767 16.3064 134.767 15.1816C134.767 13.7757 135.047 12.44 135.607 11.2449C136.168 10.0498 136.868 8.99535 137.779 8.08147C138.689 7.16758 139.67 6.4646 140.861 5.9725C142.052 5.41011 143.242 5.19922 144.433 5.19922ZM143.172 19.259C143.803 19.259 144.433 19.1184 145.064 18.8372C145.694 18.556 146.254 18.1342 146.745 17.6421C147.235 17.15 147.585 16.5173 147.935 15.8143C148.216 15.1113 148.356 14.3381 148.356 13.4945C148.356 12.8618 148.216 12.2291 148.005 11.737C147.795 11.1746 147.515 10.7528 147.095 10.331C146.745 9.90923 146.254 9.62804 145.764 9.41715C145.274 9.20625 144.713 9.06565 144.153 9.06565C143.523 9.06565 142.892 9.20625 142.262 9.48744C141.631 9.76864 141.071 10.1904 140.581 10.6825C140.09 11.1746 139.67 11.8073 139.39 12.5103C139.11 13.2133 138.97 13.9866 138.97 14.8301C138.97 15.4628 139.11 16.0955 139.32 16.5876C139.53 17.15 139.81 17.5718 140.23 17.9936C140.581 18.4154 141.071 18.6966 141.561 18.9075C141.982 19.1887 142.542 19.259 143.172 19.259Z" fill="white"/>
<path d="M158.723 5.33789L161.034 11.1024L165.517 5.33789H170L163.135 14.0549L167.198 23.0532H162.785L160.193 17.0075L155.43 23.0532H150.877L158.092 14.0549L154.31 5.33789H158.723Z" fill="white"/>
<path d="M6.58434 10.123L0.980713 40H9.52625L15.0598 10.0527L6.58434 10.123Z" fill="white"/>
<path d="M21.0136 8.50615L22.6246 0.0702977L9.5962 0C4.90316 0 0.910589 3.58524 0 8.50615H21.0136Z" fill="white"/>
<path d="M22.695 8.50615H32.7815L31.4506 16.0984H21.294L19.753 24.464L29.7695 24.5343L28.929 29.174V29.2443L28.5788 31.3533H12.8186L11.2075 40H27.458H28.5788C32.5013 40 35.8635 37.1178 36.5639 33.2513L38.175 24.0422C38.3851 22.7065 38.245 21.5114 37.7547 20.5975C38.6653 19.8243 39.2957 18.6995 39.5759 17.2232L41.1169 8.50615H46.7906C45.95 3.58524 41.8874 0 37.1943 0H24.236" fill="white"/>
<path d="M55.6165 30.8569C55.7566 30.9272 55.8967 30.9975 55.9668 31.1381C56.0368 31.2084 56.1769 31.349 56.2469 31.4896C56.317 31.6302 56.387 31.7708 56.387 31.9817C56.387 32.1926 56.317 32.4035 56.2469 32.6144C56.1769 32.8253 56.0368 32.9659 55.8267 33.1065C55.6866 33.2471 55.4764 33.3877 55.2663 33.458C55.0562 33.5283 54.846 33.5986 54.6359 33.5986H52.1143L53.0949 28.1855H55.2663C55.4764 28.1855 55.6866 28.2558 55.8267 28.3261C55.9667 28.3964 56.1769 28.4667 56.2469 28.6073C56.387 28.7479 56.4571 28.8885 56.5271 29.0291C56.5972 29.1697 56.5972 29.3806 56.5972 29.5212C56.5972 29.8024 56.5271 30.0133 56.4571 30.1539C56.317 30.2945 56.2469 30.4351 56.1069 30.5757C55.9668 30.7163 55.7566 30.7866 55.6165 30.8569ZM53.0949 31.0678L52.7447 33.0362H54.6359C54.776 33.0362 54.9161 33.0362 55.0562 32.9659C55.1963 32.8956 55.3364 32.8253 55.4064 32.755C55.5465 32.6847 55.6165 32.5441 55.6866 32.4035C55.7566 32.2629 55.7566 32.1223 55.7566 32.052C55.7566 31.9114 55.7566 31.8411 55.6866 31.7005C55.6165 31.5599 55.5465 31.4896 55.4764 31.4193C55.4064 31.349 55.2663 31.2787 55.1963 31.2084C55.0562 31.1381 54.9861 31.1381 54.846 31.1381H53.0949V31.0678ZM53.5152 28.7479L53.1649 30.5054H54.9161C55.0562 30.5054 55.1962 30.5054 55.3363 30.4351C55.4764 30.3648 55.6165 30.2945 55.6866 30.2242C55.7566 30.1539 55.8967 30.0133 55.8967 29.943C55.9668 29.8024 55.9668 29.7321 55.9668 29.5915C55.9668 29.3806 55.8967 29.24 55.7566 29.0291C55.6165 28.8182 55.3364 28.7479 55.0562 28.7479H53.5152V28.7479Z" fill="white"/>
<path d="M60.3096 28.1855C60.6599 28.1855 60.94 28.2558 61.2202 28.3261C61.5004 28.4667 61.7105 28.6073 61.9207 28.8182C62.1308 29.0291 62.2709 29.3103 62.411 29.5915C62.5511 29.8727 62.5511 30.2242 62.5511 30.5757C62.5511 30.9975 62.481 31.4193 62.3409 31.8411C62.2008 32.1926 61.9907 32.5441 61.7105 32.8253C61.4304 33.1065 61.1502 33.3174 60.8 33.458C60.4497 33.5986 60.0995 33.6688 59.7493 33.6688C59.399 33.6688 59.1188 33.5985 58.8386 33.5282C58.5585 33.3876 58.3483 33.2471 58.1382 33.0362C57.9281 32.8253 57.788 32.5441 57.6479 32.2629C57.5078 31.9817 57.5078 31.6302 57.5078 31.2787C57.5078 30.8569 57.5778 30.4351 57.7179 30.0133C57.858 29.6618 58.0682 29.3103 58.3484 29.0291C58.6285 28.7479 58.9087 28.537 59.2589 28.3964C59.6092 28.2558 59.9594 28.1855 60.3096 28.1855ZM59.8193 33.1065C60.0995 33.1065 60.3796 33.0362 60.5898 32.8956C60.87 32.755 61.0801 32.6144 61.2902 32.4035C61.5004 32.1926 61.6405 31.9114 61.7806 31.6302C61.9207 31.349 61.9907 30.9975 61.9907 30.646C61.9907 30.3648 61.9207 30.0836 61.8506 29.8727C61.7806 29.6618 61.6405 29.4509 61.5004 29.24C61.3603 29.0994 61.1501 28.9588 60.94 28.8182C60.7299 28.7479 60.5197 28.6776 60.2396 28.6776C59.9594 28.6776 59.6792 28.7479 59.4691 28.8885C59.1889 29.0291 58.9788 29.1697 58.7686 29.3806C58.5585 29.5915 58.4184 29.8727 58.2783 30.1539C58.1382 30.4351 58.0682 30.7866 58.0682 31.1381C58.0682 31.4193 58.1382 31.7005 58.2083 31.9114C58.2783 32.1223 58.4184 32.3332 58.5585 32.5441C58.6986 32.6847 58.9087 32.8253 59.1188 32.9659C59.329 33.0362 59.6092 33.1065 59.8193 33.1065Z" fill="white"/>
<path d="M66.1231 30.855C66.2632 30.9253 66.4032 30.9956 66.4733 31.1362C66.5433 31.2065 66.6834 31.3471 66.7535 31.4877C66.8235 31.6283 66.8935 31.7688 66.8935 31.9797C66.8935 32.1906 66.8235 32.4015 66.7535 32.6124C66.6834 32.8233 66.5433 32.9639 66.3332 33.1748C66.1931 33.3154 65.983 33.456 65.7028 33.5263C65.4927 33.5966 65.2125 33.6669 65.0024 33.6669C64.7222 33.6669 64.442 33.5966 64.2318 33.5263C64.0217 33.456 63.8116 33.3154 63.6715 33.1748C63.5314 33.0342 63.3913 32.8233 63.3213 32.6827C63.2512 32.4718 63.1812 32.2609 63.1812 32.05H63.7415C63.8116 32.4015 63.8816 32.6827 64.0917 32.8233C64.3019 33.0342 64.6521 33.1045 65.0724 33.1045C65.2825 33.1045 65.4226 33.1045 65.5627 33.0342C65.7028 32.9639 65.8429 32.8936 65.983 32.8233C66.1231 32.753 66.1931 32.6124 66.2632 32.4718C66.3332 32.3312 66.3332 32.1906 66.3332 32.05C66.3332 31.8392 66.2632 31.6282 66.053 31.4174C65.9129 31.2065 65.6327 31.1362 65.2825 31.1362H64.7222L64.7922 30.5738H65.4226C65.6327 30.5738 65.7728 30.5738 65.9129 30.5035C66.053 30.4332 66.1931 30.3629 66.2632 30.2926C66.3332 30.2223 66.4032 30.0817 66.4733 30.0114C66.5433 29.8708 66.5433 29.8005 66.5433 29.6599C66.5433 29.449 66.4733 29.2381 66.2632 29.0975C66.053 28.9569 65.7729 28.8163 65.3526 28.8163C65.0024 28.8163 64.7222 28.8866 64.512 29.0975C64.3019 29.3084 64.1618 29.5193 64.0917 29.8005H63.5314C63.6715 29.3787 63.8816 29.0272 64.2318 28.6757C64.5821 28.3945 65.0023 28.2539 65.4926 28.2539C65.7728 28.2539 65.983 28.3242 66.1931 28.3945C66.4032 28.4648 66.5433 28.5351 66.6834 28.6757C66.8235 28.8163 66.9636 28.9569 67.0336 29.0975C67.1037 29.2381 67.1737 29.449 67.1737 29.5896C67.1737 29.8708 67.1037 30.0817 67.0336 30.2223C66.8936 30.3629 66.8235 30.5035 66.6834 30.6441C66.5433 30.7144 66.3332 30.7847 66.1231 30.855Z" fill="white"/>
<path d="M70.3962 33.5986L69.2054 29.4509L68.505 33.5986H67.9446L68.9252 28.1855H69.4156L70.7464 32.8956L73.6883 28.1855H74.2487L73.2681 33.5986H72.7077L73.4081 29.4509L70.8165 33.5986H70.3962Z" fill="white"/>
<path d="M77.8909 28.1855C78.2412 28.1855 78.5213 28.2558 78.8015 28.3261C79.0817 28.4667 79.2918 28.6073 79.502 28.8182C79.7121 29.0291 79.8522 29.3103 79.9923 29.5915C80.1324 29.8727 80.1324 30.2242 80.1324 30.5757C80.1324 30.9975 80.0623 31.4193 79.9223 31.8411C79.7822 32.1926 79.572 32.5441 79.2918 32.8253C79.0117 33.1065 78.7315 33.3174 78.3813 33.458C78.031 33.5986 77.6808 33.6688 77.3306 33.6688C76.9803 33.6688 76.7002 33.5985 76.42 33.5282C76.1398 33.3876 75.9297 33.2471 75.7195 33.0362C75.5094 32.8253 75.3693 32.5441 75.2292 32.2629C75.0891 31.9817 75.0891 31.6302 75.0891 31.2787C75.0891 30.8569 75.1591 30.4351 75.2992 30.0133C75.4393 29.6618 75.6495 29.3103 75.9297 29.0291C76.2098 28.7479 76.49 28.537 76.8402 28.3964C77.1905 28.2558 77.5407 28.1855 77.8909 28.1855ZM77.4006 33.1065C77.6808 33.1065 77.961 33.0362 78.1711 32.8956C78.4513 32.755 78.6614 32.6144 78.8716 32.4035C79.0817 32.1926 79.2218 31.9114 79.3619 31.6302C79.502 31.349 79.572 30.9975 79.572 30.646C79.572 30.3648 79.502 30.0836 79.4319 29.8727C79.3619 29.6618 79.2218 29.4509 79.0817 29.24C78.9416 29.0994 78.7315 28.9588 78.5214 28.8182C78.3112 28.7479 78.1011 28.6776 77.8209 28.6776C77.5407 28.6776 77.2605 28.7479 77.0504 28.8885C76.7702 29.0291 76.5601 29.1697 76.3499 29.3806C76.1398 29.5915 75.9997 29.8727 75.8596 30.1539C75.7195 30.4351 75.6495 30.7866 75.6495 31.1381C75.6495 31.4193 75.7195 31.7005 75.7896 31.9114C75.8596 32.1223 75.9997 32.3332 76.1398 32.5441C76.2799 32.6847 76.49 32.8253 76.7001 32.9659C76.9803 33.0362 77.1905 33.1065 77.4006 33.1065Z" fill="white"/>
<path d="M80.7627 33.5986H79.9922L83.0742 30.7163L81.253 28.1855H81.9534L83.7747 30.7866L80.7627 33.5986ZM84.7553 28.2558L84.335 30.8569L87.0668 28.2558H87.8373L85.0355 30.8569L87.0668 33.6688H86.3663L84.335 30.8569L83.8447 33.6688H83.2843L84.265 28.2558H84.7553Z" fill="white"/>
<path d="M93.1608 28.2539L92.1802 33.6669H91.6199L92.0401 31.1362H88.748L88.3277 33.6669H87.8374L88.8181 28.2539H89.3784L88.9581 30.5738H92.2502L92.6705 28.2539H93.1608Z" fill="white"/>
<path d="M96.803 28.1855C97.1533 28.1855 97.4334 28.2558 97.7136 28.3261C97.9938 28.4667 98.2039 28.6073 98.4141 28.8182C98.6242 29.0291 98.7643 29.3103 98.9044 29.5915C99.0445 29.8727 99.0445 30.2242 99.0445 30.5757C99.0445 30.9975 98.9745 31.4193 98.8344 31.8411C98.6943 32.1926 98.4841 32.5441 98.2039 32.8253C97.9238 33.1065 97.6436 33.3174 97.2934 33.458C96.9431 33.5986 96.5929 33.6688 96.2427 33.6688C95.8925 33.6688 95.6123 33.5985 95.3321 33.5282C95.0519 33.3876 94.8418 33.2471 94.6316 33.0362C94.4215 32.8253 94.2814 32.5441 94.1413 32.2629C94.0012 31.9817 94.0012 31.6302 94.0012 31.2787C94.0012 30.8569 94.0713 30.4351 94.2113 30.0133C94.3514 29.6618 94.5616 29.3103 94.8418 29.0291C95.122 28.7479 95.4021 28.537 95.7524 28.3964C96.1026 28.2558 96.4528 28.1855 96.803 28.1855ZM96.3127 33.1065C96.5929 33.1065 96.8731 33.0362 97.0832 32.8956C97.3634 32.755 97.5736 32.6144 97.7837 32.4035C97.9938 32.1926 98.1339 31.9114 98.274 31.6302C98.4141 31.349 98.4841 30.9975 98.4841 30.646C98.4841 30.3648 98.4141 30.0836 98.344 29.8727C98.274 29.6618 98.1339 29.4509 97.9938 29.24C97.8537 29.0994 97.6436 28.9588 97.4335 28.8182C97.2233 28.7479 97.0132 28.6776 96.733 28.6776C96.4528 28.6776 96.1726 28.7479 95.9625 28.8885C95.6823 29.0291 95.4722 29.1697 95.262 29.3806C95.0519 29.5915 94.9118 29.8727 94.7717 30.1539C94.6317 30.4351 94.5616 30.7866 94.5616 31.1381C94.5616 31.4193 94.6316 31.7005 94.7017 31.9114C94.7717 32.1223 94.9118 32.3332 95.0519 32.5441C95.192 32.6847 95.4021 32.8253 95.6123 32.9659C95.8224 33.0362 96.1026 33.1065 96.3127 33.1065Z" fill="white"/>
<path d="M104.438 30.0836C104.438 29.943 104.368 29.8024 104.228 29.5915C104.158 29.4509 104.018 29.3103 103.878 29.1697C103.738 29.0291 103.598 28.9588 103.387 28.8182C103.177 28.7479 102.967 28.6776 102.757 28.6776C102.477 28.6776 102.197 28.7479 101.986 28.8182C101.706 28.9588 101.496 29.0994 101.286 29.3103C101.076 29.5212 100.936 29.8024 100.796 30.0836C100.656 30.3648 100.586 30.7163 100.586 31.1381C100.586 31.4193 100.656 31.7005 100.726 31.9114C100.796 32.1223 100.936 32.3332 101.076 32.5441C101.216 32.6847 101.426 32.8253 101.636 32.9659C101.846 33.0362 102.057 33.1065 102.337 33.1065C102.757 33.1065 103.107 32.9659 103.457 32.755C103.808 32.5441 104.088 32.1926 104.298 31.7708H104.858C104.718 32.052 104.578 32.3332 104.438 32.5441C104.298 32.755 104.088 32.9659 103.878 33.1065C103.668 33.2471 103.387 33.3876 103.177 33.5282C102.897 33.5985 102.617 33.6688 102.407 33.6688C102.057 33.6688 101.776 33.5985 101.496 33.5282C101.216 33.3876 101.006 33.2471 100.796 33.0362C100.586 32.8253 100.445 32.5441 100.305 32.2629C100.165 31.9817 100.165 31.6302 100.165 31.2787C100.165 30.8569 100.235 30.4351 100.375 30.0133C100.516 29.6618 100.726 29.3103 101.006 29.0291C101.286 28.7479 101.566 28.537 101.916 28.3964C102.267 28.2558 102.617 28.1855 102.967 28.1855C103.527 28.1855 104.018 28.3261 104.438 28.6776C104.788 29.0291 105.068 29.4509 105.209 30.0133H104.438V30.0836Z" fill="white"/>
<path d="M105.839 28.2539H110.041L109.971 28.8163H108.15L107.31 33.6669H106.749L107.59 28.8163H105.769L105.839 28.2539Z" fill="white"/>
<path d="M115.505 28.2539L114.524 33.6669H113.964L114.734 29.2381L110.602 33.6669H110.111L111.092 28.2539H111.652L110.882 32.6827L115.015 28.2539H115.505Z" fill="white"/>
<path d="M122.299 30.8569C122.439 30.9272 122.58 30.9975 122.65 31.1381C122.72 31.2084 122.86 31.349 122.93 31.4896C123 31.6302 123.07 31.7708 123.07 31.9817C123.07 32.1926 123 32.4035 122.93 32.6144C122.86 32.8253 122.72 32.9659 122.51 33.1065C122.369 33.2471 122.159 33.3877 121.949 33.458C121.739 33.5283 121.529 33.5986 121.319 33.5986H118.797L119.778 28.1855H121.949C122.159 28.1855 122.369 28.2558 122.51 28.3261C122.65 28.3964 122.86 28.4667 122.93 28.6073C123.07 28.7479 123.14 28.8885 123.21 29.0291C123.28 29.1697 123.28 29.3806 123.28 29.5212C123.28 29.8024 123.21 30.0133 123.14 30.1539C123 30.2945 122.93 30.4351 122.79 30.5757C122.65 30.7163 122.51 30.7866 122.299 30.8569ZM119.778 31.0678L119.428 33.0362H121.319C121.459 33.0362 121.599 33.0362 121.739 32.9659C121.879 32.8956 122.019 32.8253 122.089 32.755C122.229 32.6847 122.299 32.5441 122.369 32.4035C122.439 32.2629 122.439 32.1223 122.439 32.052C122.439 31.9114 122.439 31.8411 122.369 31.7005C122.299 31.5599 122.229 31.4896 122.159 31.4193C122.089 31.349 121.949 31.2787 121.879 31.2084C121.739 31.1381 121.669 31.1381 121.529 31.1381H119.778V31.0678ZM120.198 28.7479L119.848 30.5054H121.599C121.739 30.5054 121.879 30.5054 122.019 30.4351C122.159 30.3648 122.299 30.2945 122.369 30.2242C122.439 30.1539 122.58 30.0133 122.58 29.943C122.58 29.8727 122.65 29.7321 122.65 29.5915C122.65 29.3806 122.58 29.24 122.439 29.0291C122.299 28.8182 122.019 28.7479 121.739 28.7479H120.198V28.7479Z" fill="white"/>
<path d="M127.763 30.7866L127.273 33.5986H126.712L127.693 28.1855H128.253L127.763 30.7866L130.635 28.1855H131.405L128.464 30.7866L130.635 33.5986H129.934L127.763 30.7866Z" fill="white"/>
<path d="M134.978 30.8569C135.118 30.9272 135.258 30.9975 135.328 31.1381C135.398 31.2084 135.538 31.349 135.608 31.4896C135.678 31.6302 135.748 31.7708 135.748 31.9817C135.748 32.1926 135.678 32.4035 135.608 32.6144C135.538 32.8253 135.398 32.9659 135.188 33.1065C135.048 33.2471 134.838 33.3877 134.627 33.458C134.417 33.5283 134.207 33.5986 133.997 33.5986H131.475L132.456 28.1855H134.627C134.838 28.1855 135.048 28.2558 135.188 28.3261C135.328 28.3964 135.538 28.4667 135.608 28.6073C135.748 28.7479 135.818 28.8885 135.888 29.0291C135.958 29.1697 135.958 29.3806 135.958 29.5212C135.958 29.8024 135.888 30.0133 135.818 30.1539C135.678 30.2945 135.608 30.4351 135.468 30.5757C135.328 30.7163 135.188 30.7866 134.978 30.8569ZM132.456 31.0678L132.106 33.0362H133.997C134.137 33.0362 134.277 33.0362 134.417 32.9659C134.557 32.8956 134.697 32.8253 134.767 32.755C134.908 32.6847 134.978 32.5441 135.048 32.4035C135.118 32.2629 135.118 32.1223 135.118 32.052C135.118 31.9114 135.118 31.8411 135.048 31.7005C134.978 31.5599 134.908 31.4896 134.838 31.4193C134.767 31.349 134.627 31.2787 134.557 31.2084C134.417 31.1381 134.347 31.1381 134.207 31.1381H132.456V31.0678ZM132.876 28.7479L132.526 30.5054H134.277C134.417 30.5054 134.557 30.5054 134.697 30.4351C134.838 30.3648 134.978 30.2945 135.048 30.2242C135.118 30.1539 135.258 30.0133 135.258 29.943C135.328 29.8024 135.328 29.7321 135.328 29.5915C135.328 29.3806 135.258 29.24 135.118 29.0291C134.978 28.8182 134.697 28.7479 134.417 28.7479H132.876V28.7479Z" fill="white"/>
<path d="M139.53 28.1855C139.881 28.1855 140.231 28.2558 140.511 28.3964C140.791 28.537 140.931 28.6776 141.071 28.8885C141.211 29.0994 141.281 29.3103 141.352 29.5212C141.422 29.7321 141.422 30.0133 141.352 30.2242L140.791 33.6688H140.371V32.8956H140.301C140.161 33.0362 140.021 33.1768 139.811 33.3173C139.67 33.4579 139.46 33.5283 139.25 33.5986C139.04 33.6688 138.76 33.7391 138.55 33.7391C138.27 33.7391 138.059 33.6688 137.849 33.5986C137.639 33.5283 137.429 33.3876 137.289 33.3173C137.149 33.1768 137.009 33.0362 136.939 32.8253C136.869 32.6847 136.799 32.4738 136.799 32.2629C136.799 31.8411 136.869 31.5599 137.079 31.2787C137.289 31.0678 137.569 30.8569 137.919 30.7163C138.27 30.5757 138.69 30.5054 139.18 30.4351C139.67 30.3648 140.161 30.3648 140.791 30.3648L140.861 30.2242C140.861 30.0133 140.861 29.8727 140.861 29.6618C140.791 29.5212 140.721 29.3103 140.651 29.1697C140.511 29.0291 140.371 28.9588 140.231 28.8182C140.021 28.7479 139.811 28.6776 139.6 28.6776C139.25 28.6776 138.9 28.7479 138.69 28.9588C138.48 29.1697 138.27 29.3806 138.129 29.6618H137.569C137.639 29.4509 137.709 29.24 137.849 29.0994C137.989 28.8885 138.129 28.7479 138.34 28.6073C138.55 28.4667 138.69 28.3261 138.97 28.2558C139.04 28.1855 139.25 28.1855 139.53 28.1855ZM137.359 32.1223C137.359 32.4035 137.499 32.6847 137.709 32.8253C137.919 32.9659 138.27 33.1065 138.69 33.1065C138.9 33.1065 139.11 33.0362 139.39 32.9659C139.6 32.8956 139.811 32.755 139.951 32.6144C140.091 32.4738 140.301 32.3332 140.371 32.1223C140.511 31.9114 140.581 31.7708 140.581 31.5599L140.721 30.9272H139.951C139.46 30.9272 139.04 30.9975 138.76 31.0678C138.41 31.1381 138.199 31.2084 137.989 31.349C137.779 31.4896 137.639 31.5599 137.569 31.7708C137.359 31.8411 137.359 31.9817 137.359 32.1223Z" fill="white"/>
<path d="M147.376 33.0362L147.026 35.0045H146.465L146.675 33.5986H142.192L141.982 35.0045H141.422L141.772 33.0362H142.052C142.192 32.9659 142.332 32.8956 142.473 32.755C142.613 32.6847 142.683 32.5441 142.823 32.3332C142.963 32.1926 143.033 31.9817 143.103 31.7005L144.084 28.1855H147.446L146.605 33.0362H147.376ZM143.663 31.7708C143.593 31.9817 143.523 32.1926 143.383 32.4035C143.313 32.5441 143.173 32.6847 143.103 32.8253C142.963 32.9659 142.893 33.0362 142.753 33.1065H146.045L146.815 28.8182H144.504L143.663 31.7708Z" fill="white"/>
<path d="M153.68 30.5757C153.68 31.0678 153.61 31.5599 153.4 31.9114C153.26 32.2629 152.98 32.6144 152.7 32.8956C152.419 33.1767 152.139 33.3876 151.789 33.4579C151.439 33.5985 151.159 33.6688 150.878 33.6688C150.528 33.6688 150.248 33.5985 150.038 33.5282C149.828 33.3876 149.618 33.247 149.477 33.1065C149.337 32.9659 149.197 32.8253 149.127 32.6847L149.057 32.4738H148.987L148.427 35.4966H147.866L149.127 28.1855H149.477V28.9588H149.548C149.688 28.8182 149.828 28.6776 150.038 28.537C150.178 28.3964 150.388 28.3261 150.598 28.2558C150.808 28.1855 151.089 28.1152 151.369 28.1152C151.719 28.1152 151.999 28.1855 152.279 28.3261C152.559 28.4667 152.77 28.6073 152.98 28.8182C153.19 29.0291 153.33 29.3103 153.4 29.5915C153.68 29.943 153.68 30.2242 153.68 30.5757ZM150.948 33.1065C151.229 33.1065 151.509 33.0362 151.719 32.8956C151.999 32.755 152.209 32.6144 152.419 32.4035C152.63 32.1926 152.77 31.9114 152.91 31.6302C153.05 31.349 153.12 30.9975 153.12 30.646C153.12 30.3648 153.05 30.0836 152.98 29.8727C152.91 29.6618 152.77 29.4509 152.63 29.24C152.489 29.0994 152.279 28.9588 152.069 28.8182C151.859 28.7479 151.649 28.6776 151.369 28.6776C151.089 28.6776 150.808 28.7479 150.598 28.8885C150.318 29.0291 150.108 29.1697 149.898 29.3806C149.688 29.5915 149.548 29.8727 149.407 30.1539C149.267 30.4351 149.197 30.7866 149.197 31.1381C149.197 31.4193 149.267 31.7005 149.337 31.9114C149.407 32.1223 149.548 32.3332 149.688 32.5441C149.828 32.6847 150.038 32.8252 150.248 32.9658C150.528 33.0361 150.738 33.1065 150.948 33.1065Z" fill="white"/>
<path d="M157.252 28.1855C157.603 28.1855 157.953 28.2558 158.233 28.3964C158.513 28.537 158.653 28.6776 158.793 28.8885C158.933 29.0994 159.003 29.3103 159.073 29.5212C159.144 29.7321 159.144 30.0133 159.073 30.2242L158.513 33.6688H158.163V32.8956H158.093C157.953 33.0362 157.813 33.1768 157.603 33.3173C157.462 33.4579 157.252 33.5283 157.042 33.5986C156.832 33.6688 156.552 33.7391 156.342 33.7391C156.062 33.7391 155.851 33.6688 155.641 33.5986C155.431 33.5283 155.221 33.3876 155.081 33.3173C154.941 33.1768 154.801 33.0362 154.731 32.8253C154.661 32.6847 154.591 32.4738 154.591 32.2629C154.591 31.8411 154.661 31.5599 154.871 31.2787C155.081 31.0678 155.361 30.8569 155.711 30.7163C156.062 30.5757 156.482 30.5054 156.972 30.4351C157.462 30.3648 157.953 30.3648 158.583 30.3648L158.653 30.2242C158.653 30.0133 158.653 29.8727 158.653 29.6618C158.583 29.5212 158.513 29.3103 158.443 29.1697C158.303 29.0291 158.163 28.9588 158.023 28.8182C157.813 28.7479 157.603 28.6776 157.392 28.6776C157.042 28.6776 156.692 28.7479 156.482 28.9588C156.272 29.1697 156.062 29.3806 155.921 29.6618H155.361C155.431 29.4509 155.501 29.24 155.641 29.0994C155.781 28.8885 155.921 28.7479 156.132 28.6073C156.342 28.4667 156.482 28.3261 156.762 28.2558C156.762 28.1855 156.972 28.1855 157.252 28.1855ZM155.081 32.1223C155.081 32.4035 155.221 32.6847 155.431 32.8253C155.641 32.9659 155.992 33.1065 156.412 33.1065C156.622 33.1065 156.832 33.0362 157.112 32.9659C157.322 32.8956 157.532 32.755 157.673 32.6144C157.813 32.4738 158.023 32.3332 158.093 32.1223C158.233 31.9114 158.303 31.7708 158.303 31.5599L158.443 30.9272H157.673C157.182 30.9272 156.762 30.9975 156.482 31.0678C156.132 31.1381 155.921 31.2084 155.711 31.349C155.501 31.4896 155.361 31.5599 155.291 31.7708C155.081 31.8411 155.081 31.9817 155.081 32.1223Z" fill="white"/>
<path d="M160.264 28.2539H164.467L164.397 28.8163H162.575L161.735 33.6669H161.174L162.015 28.8163H160.194L160.264 28.2539Z" fill="white"/>
<path d="M169.16 32.2629C169.02 32.4035 168.88 32.6144 168.74 32.755C168.6 32.8956 168.389 33.0361 168.249 33.1767C168.039 33.3173 167.829 33.3876 167.619 33.5282C167.409 33.5985 167.129 33.6688 166.848 33.6688C166.498 33.6688 166.218 33.5985 165.938 33.4579C165.658 33.3173 165.377 33.1767 165.237 32.9658C165.027 32.7549 164.887 32.4738 164.747 32.1926C164.607 31.9114 164.607 31.5599 164.607 31.2084C164.607 30.7866 164.677 30.3648 164.817 29.943C164.957 29.5212 165.167 29.24 165.447 28.9588C165.728 28.6776 166.008 28.4667 166.358 28.3261C166.708 28.1855 167.059 28.1152 167.409 28.1152C167.759 28.1152 168.039 28.1855 168.249 28.2558C168.529 28.3964 168.74 28.537 168.95 28.7479C169.16 28.9588 169.3 29.1697 169.44 29.4509C169.58 29.7321 169.58 30.0133 169.58 30.3648C169.58 30.5054 169.58 30.5757 169.58 30.646C169.58 30.7163 169.58 30.7866 169.51 30.8569C169.51 30.9272 169.44 30.9975 169.44 31.0678H165.167C165.167 31.349 165.237 31.6302 165.307 31.8411C165.377 32.052 165.518 32.2629 165.658 32.4738C165.798 32.6144 166.008 32.755 166.218 32.8956C166.428 32.9659 166.708 33.0361 166.988 33.0361C167.129 33.0361 167.269 33.0361 167.409 32.9658C167.549 32.8955 167.689 32.8253 167.829 32.755C167.969 32.6847 168.109 32.6144 168.179 32.4738C168.319 32.4035 168.389 32.2629 168.459 32.1926H169.16V32.2629ZM167.409 28.7479C166.848 28.7479 166.358 28.8885 165.938 29.24C165.518 29.5915 165.237 30.0133 165.097 30.646H168.95V30.4351C168.95 30.2242 168.88 30.0133 168.81 29.8024C168.74 29.5915 168.6 29.4509 168.459 29.3103C168.319 29.1697 168.109 29.0291 167.969 28.9588C167.759 28.7479 167.549 28.7479 167.409 28.7479Z" fill="white"/>
</svg>
