<svg width="148" height="40" viewBox="0 0 148 40" fill="none" xmlns="http://www.w3.org/2000/svg">
<path d="M27.9775 21.4844C27.3981 23.3813 26.6118 25.237 25.6599 26.9689C25.1632 27.8349 24.6252 28.7009 24.0044 29.4844C23.3836 30.2679 22.6386 31.0101 21.7695 31.5462C21.3556 31.8349 20.7762 32.0823 20.1968 31.9998C19.6174 31.9586 19.1207 31.7112 18.7069 31.3813C17.8791 30.7627 17.2583 29.938 16.6789 29.072C15.6028 27.34 14.8165 25.5256 14.2371 23.6287C14.6509 24.5359 14.982 25.072 15.4373 25.9792C15.8925 26.8452 16.3892 27.7112 16.9272 28.5359C17.4652 29.3607 18.086 30.1442 18.8724 30.6802C19.2449 30.9689 19.7001 31.1339 20.114 31.1751C20.5693 31.2163 20.9417 31.0514 21.3556 30.804C22.1834 30.3091 22.8869 29.6081 23.5077 28.8658C24.1285 28.1236 24.6666 27.2988 25.2046 26.4741C26.2393 24.7833 27.2326 23.34 27.9775 21.4844Z" fill="white"/>
<path d="M12.8715 20.6585C12.4991 19.9163 12.1266 19.1328 11.7955 18.3905C11.423 17.6482 11.0505 16.8647 10.8436 16.04C10.6366 15.2152 10.4711 14.3492 10.5125 13.4833C10.5539 12.6173 10.7608 11.6688 11.2988 10.8853C11.8369 10.1018 12.706 9.60698 13.5751 9.31832C14.4442 9.02966 15.3134 8.90595 16.2239 8.94719C17.1344 8.98842 17.9621 9.19461 18.7899 9.31832C19.5762 9.44203 20.3626 9.5245 21.1489 9.44203H21.0662C22.2664 9.15337 23.4252 9.02966 24.6254 9.0709C25.8257 9.11213 27.0673 9.31832 28.1433 10.0606C28.6814 10.4317 29.0952 10.9266 29.3436 11.5039C29.5919 12.0812 29.6746 12.6998 29.6746 13.3183C29.6333 14.5142 29.3022 15.6688 28.8469 16.6998C29.1366 15.5864 29.3436 14.4317 29.2194 13.3183C29.178 12.7822 29.0125 12.2462 28.7641 11.7513C28.5158 11.2977 28.1433 10.9266 27.6881 10.6379C26.7776 10.1018 25.6601 9.97811 24.5427 9.97811C23.4252 9.97811 22.3078 10.1843 21.2317 10.4317H21.1903H21.1489C20.2798 10.5142 19.3693 10.473 18.5002 10.3492C17.631 10.1843 16.8447 10.0194 16.0583 9.97811C15.272 9.93688 14.4856 10.0193 13.7407 10.2255C12.9957 10.4317 12.3335 10.8029 11.8783 11.3802C11.423 11.9575 11.1747 12.6998 11.1333 13.4833C11.0505 14.2668 11.1333 15.0915 11.2988 15.875C11.3816 16.2874 11.4644 16.6585 11.5885 17.0709L12.0024 18.2668C12.3335 19.0503 12.6232 19.8338 12.8715 20.6585Z" fill="white"/>
<path d="M28.888 23.2583V19.1758L26.0737 21.815L27.9775 21.4851L28.888 23.2583Z" fill="white"/>
<path d="M31.2472 40H8.8982C3.97315 40 0 36 0 31.134V8.86598C0 3.95876 4.01453 0 8.8982 0H31.2885C36.2136 0 40.1867 4 40.1867 8.86598V31.1753C40.1867 36.0412 36.1722 40 31.2472 40ZM8.8982 1.52577C4.84227 1.52577 1.53132 4.82474 1.53132 8.86598V31.1753C1.53132 35.2165 4.84227 38.5155 8.8982 38.5155H31.2885C35.3445 38.5155 38.6554 35.2165 38.6554 31.1753V8.86598C38.6554 4.82474 35.3445 1.52577 31.2885 1.52577H8.8982Z" fill="white"/>
<path d="M57.0319 16.8659C57.363 17.3607 57.5699 17.8968 57.5699 18.4741C57.5699 18.969 57.4458 19.4638 57.1974 19.9174C56.9491 20.3711 56.618 20.7834 56.1214 21.1133C55.1695 21.7731 54.052 22.1443 52.8104 22.1443C52.1896 22.1443 51.6102 22.0618 51.0308 21.8968C50.4514 21.7319 49.9547 21.4845 49.4995 21.1546C48.7131 20.5772 48.2579 19.8762 48.0923 19.0927L48.9614 18.5979C49.0028 19.3401 49.3753 19.9587 50.0375 20.4123C50.3686 20.701 50.7825 20.9071 51.2791 21.0308C51.7344 21.1546 52.2724 21.237 52.769 21.237C53.8451 21.237 54.7556 20.9484 55.5006 20.4123C56.2041 19.8762 56.5766 19.2577 56.5766 18.5566C56.5766 18.1443 56.4525 17.7319 56.1628 17.402C55.9144 17.0308 55.542 16.7422 55.0453 16.4535C54.5901 16.2061 53.8037 16.0412 52.6449 15.9174C52.5621 15.9174 52.1896 15.835 51.6102 15.7525C51.0308 15.67 50.5341 15.5051 50.0789 15.2989C49.4167 14.969 48.8787 14.5566 48.5062 14.0205C48.1337 13.4845 47.9268 12.9071 47.9268 12.2886C47.9268 11.7937 48.0509 11.3401 48.2992 10.8865C48.5476 10.4329 48.92 10.0618 49.3753 9.73188C49.8306 9.40198 50.3272 9.15456 50.9066 8.98961C51.486 8.82466 52.0655 8.74219 52.6863 8.74219C53.9279 8.74219 55.0453 9.07208 55.9972 9.77312C56.7836 10.3504 57.2388 11.0515 57.363 11.835L56.4939 12.3298C56.4939 11.9999 56.3697 11.67 56.2042 11.3401C56.0386 11.0102 55.7489 10.7628 55.4178 10.4741C55.0453 10.1855 54.6314 9.9793 54.1762 9.85559C53.7209 9.73188 53.2243 9.6494 52.6863 9.6494C52.1896 9.6494 51.693 9.73188 51.1963 9.85559C50.6997 9.9793 50.2858 10.1855 49.9547 10.4741C49.5822 10.7216 49.3339 11.0102 49.127 11.3401C48.92 11.67 48.8373 11.9999 48.8373 12.3298C48.8373 12.7422 49.0028 13.1546 49.2925 13.5669C49.6236 13.9793 49.9961 14.3092 50.4514 14.5154C50.7411 14.6391 51.0308 14.7628 51.4033 14.804C51.7344 14.8453 52.1896 14.9278 52.7276 15.0102C52.8104 15.0102 53.0587 15.0515 53.4312 15.0927C53.8037 15.1339 54.1762 15.2164 54.5073 15.2989C54.8798 15.3814 55.1695 15.5051 55.4178 15.6288C56.2041 15.9174 56.7008 16.3711 57.0319 16.8659Z" fill="white"/>
<path d="M72.0139 8.82444V9.77289H66.7991V21.9791H65.8472V9.73166H60.5911V8.7832H72.0139V8.82444Z" fill="white"/>
<path d="M81.243 22.1054C80.0428 22.1054 78.9253 21.8167 77.8907 21.1982C76.856 20.5796 76.0697 19.7961 75.4488 18.7652C74.8694 17.7343 74.5383 16.6209 74.5383 15.3838C74.5383 14.1879 74.828 13.0332 75.4488 12.0023C76.0283 10.9714 76.856 10.1466 77.8907 9.56932C78.9253 8.95077 80.0428 8.66211 81.243 8.66211C82.4432 8.66211 83.5607 8.95077 84.5954 9.56932C85.63 10.1879 86.4164 10.9714 87.0372 12.0023C87.6166 13.0332 87.9477 14.1466 87.9477 15.3838C87.9477 16.5796 87.658 17.7343 87.0372 18.7652C86.4578 19.7961 85.63 20.6209 84.5954 21.1982C83.5607 21.7755 82.4432 22.1054 81.243 22.1054ZM81.243 9.61056C80.2083 9.61056 79.2564 9.85798 78.3459 10.3941C77.4768 10.9301 76.7732 11.6312 76.2352 12.4972C75.6972 13.3631 75.4488 14.3528 75.4488 15.3838C75.4488 16.4147 75.6972 17.4044 76.2352 18.2704C76.7732 19.1363 77.4768 19.8374 78.3459 20.3734C79.2151 20.9095 80.167 21.157 81.243 21.157C82.2777 21.157 83.2296 20.9095 84.1401 20.3734C85.0092 19.8374 85.7128 19.1363 86.2508 18.2704C86.7475 17.4044 87.0372 16.4147 87.0372 15.3838C87.0372 14.3528 86.7889 13.3631 86.2508 12.4972C85.7542 11.6312 85.0506 10.9301 84.1401 10.3941C83.2296 9.85798 82.2777 9.61056 81.243 9.61056Z" fill="white"/>
<path d="M104.585 21.9405V11.5487L98.7497 19.8374L92.8314 11.5075V21.8992H91.9209V8.66211L98.7497 18.2704L105.496 8.66211V21.9817H104.585V21.9405Z" fill="white"/>
<path d="M111.994 18.5985L110.421 21.9387H109.386L115.594 8.61914L121.471 21.9387H120.478L118.988 18.5985H111.994ZM115.553 10.8872L112.366 17.6913H118.574L115.553 10.8872Z" fill="white"/>
<path d="M125.362 21.9378V8.7832H130.08C130.866 8.7832 131.57 8.94815 132.232 9.27805C132.894 9.60795 133.391 10.0616 133.805 10.6389C134.177 11.2162 134.384 11.8347 134.384 12.4945C134.384 13.1543 134.177 13.7729 133.805 14.3502C133.432 14.9275 132.894 15.3811 132.232 15.711C131.57 16.0409 130.866 16.2059 130.08 16.2059H126.314V21.8966H125.362V21.9378ZM126.272 15.2987H130.039C130.659 15.2987 131.197 15.175 131.735 14.9275C132.232 14.6801 132.646 14.3502 132.977 13.8966C133.267 13.4842 133.432 13.0306 133.432 12.4945C133.432 11.9997 133.267 11.5049 132.977 11.0925C132.687 10.6801 132.273 10.3502 131.735 10.0616C131.239 9.81413 130.659 9.69042 130.039 9.69042H126.231L126.272 15.2987Z" fill="white"/>
<path d="M138.481 21.9378V8.7832H143.199C143.986 8.7832 144.689 8.94815 145.351 9.27805C146.014 9.60795 146.51 10.0616 146.924 10.6389C147.297 11.2162 147.504 11.8347 147.504 12.4945C147.504 13.1543 147.297 13.7729 146.924 14.3502C146.552 14.9275 146.014 15.3811 145.351 15.711C144.689 16.0409 143.986 16.2059 143.199 16.2059H139.433V21.8966H138.481V21.9378ZM139.392 15.2987H143.158C143.779 15.2987 144.317 15.175 144.855 14.9275C145.351 14.6801 145.765 14.3502 146.096 13.8966C146.386 13.4842 146.552 13.0306 146.552 12.4945C146.552 11.9997 146.386 11.5049 146.096 11.0925C145.807 10.6801 145.393 10.3502 144.855 10.0616C144.358 9.81413 143.779 9.69042 143.158 9.69042H139.35L139.392 15.2987Z" fill="white"/>
<path d="M49.3332 30.0197L48.7538 31.2568H48.3813L50.6576 26.3496L52.8098 31.2568H52.4373L51.8992 30.0197H49.3332ZM50.6576 27.2156L49.4988 29.7311H51.7751L50.6576 27.2156Z" fill="white"/>
<path d="M56.9075 31.2564V26.4316H58.6457C58.9354 26.4316 59.1837 26.5141 59.4321 26.6378C59.6804 26.7615 59.8459 26.9265 60.0115 27.1327C60.1357 27.3389 60.2184 27.5863 60.2184 27.8337C60.2184 28.0811 60.1357 28.2873 60.0115 28.5347C59.8873 28.7409 59.6804 28.9059 59.4321 29.0296C59.1837 29.1533 58.9354 29.2358 58.6457 29.2358H57.2386V31.3389H56.9075V31.2564ZM57.2386 28.8234H58.6457C58.8527 28.8234 59.0596 28.7822 59.2665 28.6997C59.4735 28.6172 59.5976 28.4935 59.7218 28.3286C59.8459 28.1636 59.8873 27.9987 59.8873 27.8337C59.8873 27.6275 59.8459 27.4626 59.7218 27.2976C59.5976 27.1327 59.4735 27.009 59.2665 26.9265C59.0596 26.844 58.8527 26.8028 58.6457 26.8028H57.2386V28.8234Z" fill="white"/>
<path d="M64.3157 31.2564V26.4316H66.0539C66.3436 26.4316 66.592 26.5141 66.8403 26.6378C67.0886 26.7615 67.2541 26.9265 67.4197 27.1327C67.5439 27.3389 67.6266 27.5863 67.6266 27.8337C67.6266 28.0811 67.5439 28.2873 67.4197 28.5347C67.2955 28.7409 67.0886 28.9059 66.8403 29.0296C66.592 29.1533 66.3436 29.2358 66.0539 29.2358H64.6468V31.3389H64.3157V31.2564ZM64.6468 28.8234H66.0539C66.2609 28.8234 66.4678 28.7822 66.6747 28.6997C66.8817 28.6172 67.0058 28.4935 67.13 28.3286C67.2541 28.1636 67.2955 27.9987 67.2955 27.8337C67.2955 27.6275 67.2541 27.4626 67.13 27.2976C67.0058 27.1327 66.8817 27.009 66.6747 26.9265C66.4678 26.844 66.2609 26.8028 66.0539 26.8028H64.6468V28.8234Z" fill="white"/>
<path d="M77.228 31.2564V26.4316H80.3734V26.7615H77.5591V28.6584H79.7526V28.9883H77.5591V31.2151H77.228V31.2564Z" fill="white"/>
<path d="M86.5816 31.2981C86.1263 31.2981 85.7125 31.1744 85.34 30.9682C84.9675 30.762 84.6778 30.4321 84.4295 30.0609C84.2226 29.6898 84.0984 29.2774 84.0984 28.8238C84.0984 28.3702 84.2226 27.9579 84.4295 27.5867C84.6364 27.2156 84.9675 26.9269 85.34 26.6795C85.7125 26.4733 86.1263 26.3496 86.5816 26.3496C87.0369 26.3496 87.4507 26.4733 87.8232 26.6795C88.1957 26.8857 88.4854 27.2156 88.7337 27.5867C88.9407 27.9579 89.0648 28.3702 89.0648 28.8238C89.0648 29.2774 88.9407 29.6898 88.7337 30.0609C88.5268 30.4321 88.1957 30.7207 87.8232 30.9682C87.4093 31.2156 86.9955 31.2981 86.5816 31.2981ZM86.5816 26.7207C86.2091 26.7207 85.8366 26.8032 85.5055 27.0094C85.1744 27.2156 84.9261 27.463 84.7192 27.7929C84.5123 28.1228 84.4295 28.4939 84.4295 28.8651C84.4295 29.2362 84.5123 29.6073 84.7192 29.9372C84.9261 30.2671 85.1744 30.5146 85.5055 30.7207C85.8366 30.9269 86.1677 31.0094 86.5816 31.0094C86.9541 31.0094 87.3266 30.9269 87.6577 30.7207C87.9888 30.5146 88.2371 30.2671 88.444 29.9372C88.651 29.6073 88.7337 29.2362 88.7337 28.8651C88.7337 28.4939 88.651 28.1228 88.444 27.7929C88.2371 27.463 87.9888 27.2156 87.6577 27.0094C87.3266 26.8032 86.9541 26.7207 86.5816 26.7207Z" fill="white"/>
<path d="M95.9764 31.2564L93.9485 28.8234H94.5279C94.9004 28.8234 95.1901 28.7822 95.4384 28.6997C95.6039 28.6172 95.7695 28.4935 95.8937 28.3286C96.0178 28.1636 96.1006 27.9987 96.1006 27.7925C96.1006 27.6275 96.0592 27.4626 95.935 27.2976C95.8109 27.1327 95.6867 27.009 95.4798 26.9265C95.2729 26.844 95.0659 26.7615 94.8176 26.7615H93.4104V31.2564H93.0793V26.4316H94.7762C95.0245 26.4316 95.2315 26.4729 95.4384 26.5554C95.6453 26.6378 95.8109 26.7203 95.9764 26.844C96.1006 26.9677 96.2248 27.1327 96.3075 27.2976C96.3903 27.4626 96.4317 27.6275 96.4317 27.7925C96.4317 28.0811 96.3489 28.3286 96.1834 28.5347C96.0178 28.7409 95.8109 28.9059 95.604 28.9883C95.4384 29.0708 95.3142 29.1121 95.1487 29.1121C94.9831 29.1121 94.859 29.1533 94.6934 29.1533L96.4317 31.2564H95.9764V31.2564Z" fill="white"/>
<path d="M107.565 31.2564H106.158V26.4316H107.565C107.896 26.4316 108.227 26.5141 108.517 26.6378C108.806 26.7615 109.055 26.9265 109.262 27.1739C109.469 27.3801 109.634 27.6688 109.717 27.9574C109.841 28.2461 109.883 28.5347 109.883 28.8646C109.883 29.1945 109.841 29.4832 109.717 29.7718C109.593 30.0605 109.469 30.3079 109.262 30.5554C109.055 30.8028 108.806 30.9677 108.517 31.0914C108.227 31.2151 107.896 31.2564 107.565 31.2564ZM106.489 30.9265H107.565C108.186 30.9265 108.641 30.7203 109.055 30.3079C109.22 30.1017 109.345 29.8956 109.469 29.6481C109.551 29.4007 109.593 29.1121 109.593 28.8646C109.593 28.576 109.551 28.3285 109.469 28.0811C109.386 27.8337 109.262 27.6275 109.055 27.4213C108.682 27.009 108.186 26.8028 107.565 26.8028H106.489V30.9265Z" fill="white"/>
<path d="M114.021 31.2564V26.4316H117.167V26.7615H114.352V28.6584H116.546V28.9883H114.352V30.8853H117.167V31.2151H114.021V31.2564Z" fill="white"/>
<path d="M121.802 27.3393V31.2568H121.471V26.3496L124.823 30.3496V26.3908H125.154V31.2981L121.802 27.3393Z" fill="white"/>
<path d="M133.39 26.4316V26.7615H131.486V31.2564H131.155V26.7615H129.21V26.4316H133.39Z" fill="white"/>
<path d="M137.405 30.0197L136.825 31.2568H136.453L138.729 26.3496L140.881 31.2568H140.509L139.971 30.0197H137.405ZM138.729 27.2156L137.57 29.7311H139.846L138.729 27.2156Z" fill="white"/>
<path d="M144.937 31.2564V26.4316H145.268V30.9265H148V31.2564H144.937V31.2564Z" fill="white"/>
</svg>
