<svg width="137" height="41" viewBox="0 0 137 41" fill="none" xmlns="http://www.w3.org/2000/svg">
<path d="M40.5399 0.546385V24.9152H38.0679V19.3967C36.0355 23.0575 32.2452 25.4616 27.521 25.4616C20.5447 25.4616 14.8318 19.9431 14.8318 12.7308C14.8318 5.51849 20.5447 0 27.521 0C32.2452 0 35.9805 2.4041 38.0679 6.06488V0.546385H40.5399ZM38.013 12.7308C38.013 6.93909 33.5086 2.34946 27.6858 2.34946C21.863 2.34946 17.3037 6.93909 17.3037 12.7308C17.3037 18.5225 21.863 23.1121 27.6858 23.1121C33.5086 23.1121 38.013 18.5225 38.013 12.7308Z" fill="white"/>
<path d="M69.7083 18.5225C69.7083 22.5111 66.1926 25.4616 60.9192 25.4616C56.0302 25.4616 52.7893 23.1667 51.6357 20.0523L53.7231 18.8503C54.602 21.4729 57.2387 23.1121 60.9192 23.1121C64.325 23.1121 67.2363 21.5822 67.2363 18.5225C67.2363 11.9112 52.4047 15.6813 52.4047 6.93909C52.4047 3.1144 55.7556 0 60.7544 0C64.7095 0 67.7307 1.91235 69.104 4.86283L67.0716 6.01024C66.0279 3.49687 63.501 2.29482 60.8093 2.29482C57.6233 2.29482 54.9317 3.93397 54.9317 6.88446C54.8767 13.4411 69.7083 9.61639 69.7083 18.5225Z" fill="white"/>
<path d="M136.616 0.546385V24.9152H134.144V19.3967C132.111 23.0575 128.321 25.4616 123.597 25.4616C116.62 25.4616 110.907 19.9431 110.907 12.7308C110.907 5.51849 116.62 0 123.597 0C128.321 0 132.056 2.4041 134.144 6.06488V0.546385H136.616ZM134.089 12.7308C134.089 6.93909 129.584 2.34946 123.762 2.34946C117.939 2.34946 113.379 6.93909 113.379 12.7308C113.379 18.5225 117.939 23.1121 123.762 23.1121C129.584 23.1121 134.089 18.5225 134.089 12.7308Z" fill="white"/>
<path d="M103.107 0.546875H78.5525V2.84169H89.7036V24.9157H92.0108V2.84169H103.107V0.546875Z" fill="white"/>
<path d="M2.47172 15.572C3.77625 15.572 4.83375 14.5201 4.83375 13.2225C4.83375 11.9249 3.77625 10.873 2.47172 10.873C1.16718 10.873 0.109619 11.9249 0.109619 13.2225C0.109619 14.5201 1.16718 15.572 2.47172 15.572Z" fill="white"/>
<path d="M4.99879 33.33V38.0836H4.50439V36.9908C4.11987 37.7011 3.35085 38.1929 2.47194 38.1929C1.09864 38.1929 0 37.1001 0 35.7341C0 34.3135 1.09864 33.2754 2.47194 33.2754C3.40578 33.2754 4.11987 33.7671 4.50439 34.4774V33.3847H4.99879V33.33ZM4.50439 35.6795C4.50439 34.5321 3.6255 33.6579 2.47194 33.6579C1.31837 33.6579 0.439415 34.5321 0.439415 35.6795C0.439415 36.8269 1.31837 37.7011 2.47194 37.7011C3.6255 37.7011 4.50439 36.8269 4.50439 35.6795Z" fill="white"/>
<path d="M13.4033 35.6794C13.4033 37.1 12.3047 38.1381 10.9314 38.1381C9.99755 38.1381 9.28346 37.6464 8.89894 36.9361V39.9412H8.40454V33.2753H8.89894V34.3681C9.28346 33.6578 10.0525 33.166 10.9314 33.166C12.3047 33.2207 13.4033 34.2588 13.4033 35.6794ZM12.909 35.6794C12.909 34.532 12.03 33.6578 10.8765 33.6578C9.72291 33.6578 8.84402 34.532 8.84402 35.6794C8.84402 36.8268 9.72291 37.701 10.8765 37.701C12.03 37.701 12.909 36.8268 12.909 35.6794Z" fill="white"/>
<path d="M19.5008 38.0856L17.9077 36.0093L16.3147 38.0856H15.7104L17.6331 35.6268L15.8203 33.332H16.4245L17.9077 35.2444L19.4458 33.332H19.9951L18.1824 35.6268L20.105 38.0856H19.5008Z" fill="white"/>
<path d="M26.9168 33.332V38.0856H26.4224V34.1516L23.4012 38.0856H22.9617V33.332H23.4561V37.266L26.5322 33.332H26.9168V33.332Z" fill="white"/>
<path d="M33.6182 33.7671H31.8604V38.0836H31.366V33.7671H29.6082V33.2754H33.5633V33.7671H33.6182Z" fill="white"/>
<path d="M40.7593 35.6793C40.7593 35.734 40.7593 35.8432 40.7593 35.8979H36.4197C36.5296 36.9907 37.3536 37.7009 38.4522 37.7009C39.2213 37.7009 39.8255 37.3185 40.1002 36.8267L40.5396 37.0999C40.1551 37.7556 39.3861 38.1927 38.4522 38.1927C36.9691 38.1927 35.9253 37.1546 35.9253 35.734C35.9253 34.3134 36.9141 33.2752 38.3972 33.2752C39.8255 33.2206 40.7593 34.4226 40.7593 35.6793ZM36.3648 35.4608H40.21C40.1001 34.3134 39.2762 33.6577 38.3423 33.6577C37.2986 33.6577 36.4746 34.4226 36.3648 35.4608Z" fill="white"/>
<path d="M46.8018 38.0856L44.2749 35.7361V38.0856H43.7805V33.332H44.2749V35.5176L46.6919 33.332H47.3511L44.7693 35.6268L47.4609 38.0856H46.8018Z" fill="white"/>
<path d="M53.6685 33.7671H51.9107V38.0836H51.4163V33.7671H49.6584V33.2754H53.6136V33.7671H53.6685Z" fill="white"/>
<path d="M60.4802 33.332L58.3928 38.5227C58.0083 39.4515 57.2942 40.0526 56.4702 39.9979V39.5608C57.1294 39.6155 57.6237 39.1237 57.8984 38.4681L58.0083 38.1949L55.811 33.332H56.3054L58.2281 37.5938L59.876 33.332H60.4802V33.332Z" fill="white"/>
<path d="M68.2254 35.6794C68.2254 37.1 67.1267 38.1381 65.7534 38.1381C64.8196 38.1381 64.1055 37.6464 63.721 36.9361V39.9412H63.2266V33.2753H63.721V34.3681C64.1055 33.6578 64.8745 33.166 65.7534 33.166C67.1267 33.2207 68.2254 34.2588 68.2254 35.6794ZM67.7859 35.6794C67.7859 34.532 66.907 33.6578 65.7534 33.6578C64.5998 33.6578 63.721 34.532 63.721 35.6794C63.721 36.8268 64.5998 37.701 65.7534 37.701C66.8521 37.701 67.7859 36.8268 67.7859 35.6794Z" fill="white"/>
<path d="M76.0256 33.33V38.0836H75.5313V36.9908C75.1468 37.7011 74.3777 38.1929 73.4988 38.1929C72.1255 38.1929 71.0269 37.1001 71.0269 35.7341C71.0269 34.3135 72.1255 33.2754 73.4988 33.2754C74.4326 33.2754 75.1468 33.7671 75.5313 34.4774V33.3847H76.0256V33.33ZM75.5313 35.6795C75.5313 34.5321 74.6524 33.6579 73.4988 33.6579C72.3452 33.6579 71.4663 34.5321 71.4663 35.6795C71.4663 36.8269 72.3452 37.7011 73.4988 37.7011C74.6524 37.7011 75.5313 36.8269 75.5313 35.6795Z" fill="white"/>
<path d="M88.7151 38.1384L87.9461 37.3188C87.5066 37.8105 86.8474 38.1384 85.9685 38.1384C84.6502 38.1384 83.7712 37.4281 83.7712 36.2807C83.7712 35.4611 84.2106 34.6961 85.0896 34.3137C84.76 33.9858 84.5402 33.5487 84.5402 33.0023C84.5402 31.9096 85.4191 31.2539 86.4628 31.2539C87.2868 31.2539 88.0559 31.7457 88.3305 32.5106L87.8911 32.7838C87.6714 32.1828 87.122 31.7457 86.4628 31.7457C85.6938 31.7457 85.0896 32.2374 85.0896 33.0023C85.0896 33.5487 85.4192 33.9312 85.8037 34.3683L87.8911 36.5538C88.0559 36.226 88.2207 35.7343 88.2756 35.2425L88.7151 35.5157C88.6052 36.0621 88.4404 36.5538 88.2207 36.9363L89.1545 37.9198L88.7151 38.1384ZM87.5615 36.991L85.4192 34.7508C84.5952 35.0786 84.2656 35.6796 84.2656 36.3353C84.2656 37.2095 84.9248 37.7559 85.9135 37.7559C86.5727 37.7013 87.177 37.4281 87.5615 36.991Z" fill="white"/>
<path d="M101.129 37.5918V39.3403H100.635V38.0836H96.5152V39.3403H96.0208V37.5918H96.5701C96.8997 37.1547 97.1194 36.6083 97.1194 35.6795V33.2754H100.47V37.5918H101.129ZM99.9759 37.5918V33.7671H97.5589V35.6795C97.5589 36.5537 97.394 37.1001 97.1743 37.5918H99.9759Z" fill="white"/>
<path d="M108.051 33.332V38.0856H107.557V34.1516L104.536 38.0856H104.096V33.332H104.591V37.266L107.667 33.332H108.051V33.332Z" fill="white"/>
<path d="M114.643 36.7722C114.643 37.4825 114.039 38.1382 112.885 38.1382C111.786 38.1382 111.237 37.6464 111.017 36.9908L111.402 36.7722C111.567 37.3186 112.006 37.7011 112.83 37.7011C113.654 37.7011 114.094 37.3186 114.094 36.7722C114.094 36.2805 113.709 35.898 113.05 35.898H112.391V35.4062H112.885C113.489 35.4062 113.874 35.0784 113.874 34.532C113.874 34.0403 113.434 33.6578 112.72 33.6578C112.061 33.6578 111.622 33.931 111.402 34.4228L111.017 34.2042C111.292 33.6032 111.841 33.2207 112.72 33.2207C113.709 33.2207 114.313 33.8217 114.313 34.532C114.313 35.0238 114.093 35.4062 113.654 35.6248C114.313 35.7887 114.643 36.2258 114.643 36.7722Z" fill="white"/>
<path d="M122.333 33.33V38.0836H121.839V36.9908C121.454 37.7011 120.685 38.1929 119.806 38.1929C118.433 38.1929 117.334 37.1001 117.334 35.7341C117.334 34.3135 118.433 33.2754 119.806 33.2754C120.74 33.2754 121.454 33.7671 121.839 34.4774V33.3847H122.333V33.33ZM121.839 35.6795C121.839 34.5321 120.96 33.6579 119.806 33.6579C118.653 33.6579 117.774 34.5321 117.774 35.6795C117.774 36.8269 118.653 37.7011 119.806 37.7011C120.96 37.7011 121.839 36.8269 121.839 35.6795Z" fill="white"/>
<path d="M129.639 33.329V38.0825H129.145V34.1485L126.124 38.0825H125.684V33.329H126.178V37.2629L129.255 33.329H129.639V33.329ZM126.453 32.0723H128.87V32.5094H126.453V32.0723Z" fill="white"/>
<path d="M137 33.332V38.0856H136.506V35.9547H133.54V38.0856H133.045V33.332H133.54V35.4629H136.506V33.332H137V33.332Z" fill="white"/>
</svg>
