<svg width="147" height="40" viewBox="0 0 147 40" fill="none" xmlns="http://www.w3.org/2000/svg">
<path d="M147 37.7344H112.2V38.0925H147V37.7344Z" fill="white"/>
<path d="M34.8399 37.7344H0.0397949V38.0925H34.8399V37.7344Z" fill="white"/>
<path d="M103.007 35.8877V39.1665L100.381 35.8877H100.023V39.9414H100.441V36.6627L103.067 39.9414H103.425V35.8877H103.007ZM90.8303 39.2857C90.5318 39.5241 90.1737 39.5838 89.7559 39.5838C88.7412 39.5838 88.0248 38.8684 88.0248 37.9146C88.0248 36.9608 88.7412 36.2454 89.7559 36.2454C90.2334 36.2454 90.6513 36.3646 91.0094 36.7223L91.2482 36.4243C90.89 36.007 90.3528 35.8281 89.7559 35.8281C88.5024 35.8281 87.607 36.7223 87.607 37.9146C87.607 39.1068 88.5024 40.001 89.7559 40.001C90.2931 40.001 90.89 39.8222 91.2482 39.4645V37.9146H90.8303V39.2857ZM78.5936 39.9414H79.0115V35.8877H78.5936V39.9414ZM68.5655 40.001C69.5802 40.001 70.0578 39.4645 70.0578 38.8684C70.0578 37.3781 67.5507 38.0338 67.5507 36.9608C67.5507 36.5435 67.9089 36.2454 68.6252 36.2454C68.9833 36.2454 69.4012 36.3646 69.7593 36.6031L69.8787 36.2454C69.5802 36.007 69.1027 35.8877 68.6252 35.8877C67.6104 35.8877 67.1329 36.4243 67.1329 37.0204C67.1329 38.5107 69.6399 37.855 69.6399 38.928C69.6399 39.3453 69.2818 39.6434 68.5655 39.6434C68.0283 39.6434 67.491 39.4049 67.2522 39.1665L67.0732 39.5241C67.3717 39.7626 67.9686 40.001 68.5655 40.001ZM56.3885 39.5838V38.0934H58.4776V37.7357H56.3885V36.2454H58.7761V35.8877H55.9706V39.9414H58.8358V39.5838H56.3885V39.5838ZM44.0324 39.5838V36.2454H45.2262C46.3007 36.2454 47.0169 36.9012 47.0169 37.9146C47.0169 38.8684 46.3007 39.5838 45.2262 39.5838H44.0324ZM43.6145 39.9414H45.2859C46.5991 39.9414 47.4944 39.1068 47.4944 37.9146C47.4944 36.7223 46.5991 35.8877 45.2859 35.8877H43.6145V39.9414Z" fill="white"/>
<path d="M138.046 0C128.555 0 127.302 9.77656 127.302 9.77656C136.494 9.0612 138.046 0 138.046 0Z" fill="white"/>
<path d="M75.1911 9.83579C75.3105 10.2531 75.788 10.4915 76.3849 10.4319C76.8028 10.4319 77.2206 10.1935 77.5787 9.89541C78.295 9.23967 78.5338 8.46469 78.1757 7.51088C78.1757 7.51088 78.1757 7.45127 78.116 7.39165C77.7578 6.43784 76.9818 5.96094 75.8477 5.96094C74.8329 5.96094 73.8779 6.31862 73.0422 7.1532C72.6841 7.51088 72.3856 7.98779 72.0872 8.52431C71.9678 8.82237 71.7887 9.23966 71.6096 9.83579C71.1321 9.71657 70.6545 9.71657 70.2367 9.71657C68.7444 9.71657 67.3716 10.1339 66.118 11.0281C64.5661 12.1607 63.7901 13.651 63.7901 15.3798C63.7901 17.2278 64.6257 18.7182 66.2374 19.8508C65.5211 20.0893 64.9242 20.3873 64.4467 20.8642C63.4319 21.818 63.0737 22.8911 63.3722 24.0833C63.611 25.1564 64.2079 25.8121 65.1629 26.0506C63.79 26.4679 63.1334 27.1832 63.0737 28.2563C63.0737 28.4947 63.1335 28.7332 63.1932 28.912C63.6707 30.7004 65.8196 31.5946 69.6995 31.5946C71.3709 31.5946 72.9228 31.3562 74.236 30.8196C76.6834 29.8658 77.9369 28.3159 77.9369 26.1698C77.9369 25.1564 77.5788 24.3814 76.8625 23.8449C76.1462 23.3084 75.2508 22.9507 74.1764 22.7719C73.1019 22.593 71.6096 22.5334 69.7592 22.5334C69.222 22.5334 68.7444 22.4738 68.3266 22.4142C66.894 22.1757 66.118 21.7584 65.9986 21.1027C65.9389 20.6258 66.2374 20.3277 66.9537 20.0893C67.9684 20.6854 69.1026 20.9239 70.3561 20.9239C71.8484 20.9239 73.2213 20.5066 74.4748 19.6124C76.0268 18.4201 76.8027 16.9894 76.8027 15.201C76.8027 14.3664 76.6237 13.5914 76.2058 12.8761C75.4298 11.3261 74.1166 10.2531 72.2662 9.77618C72.3856 9.18005 72.684 8.70314 73.2213 8.34546C73.9972 7.74933 74.7136 7.68972 75.1314 8.28585C75.1911 8.40508 75.2508 8.58392 75.2508 8.82237C75.1314 9.4185 75.1314 9.71657 75.1911 9.83579ZM67.1328 26.5275C68.6847 26.6467 70.4755 26.7659 72.3856 26.8256C73.2213 26.8852 73.7585 27.1236 74.1166 27.4813C74.5942 28.0774 74.4151 28.7332 73.6391 29.5678C72.6244 30.5812 71.3112 31.1177 69.6995 31.1177C69.4011 31.1177 69.0429 31.1177 68.7444 31.0581C67.3715 30.8196 66.5358 30.1639 66.2971 29.0909C66.0583 28.0178 66.3568 27.2428 67.1328 26.5275ZM72.505 16.6317C72.8631 18.8374 72.6243 20.0893 71.729 20.3277C71.4902 20.3873 71.2515 20.3277 71.0127 20.2085C70.0576 19.7316 69.2817 18.2413 68.6251 15.7971C68.0878 13.7703 67.9684 12.2203 68.3266 11.2665C68.5654 10.6704 68.8638 10.3723 69.2816 10.3127C69.5204 10.3127 69.8189 10.4319 70.177 10.73C70.953 11.4454 71.6096 12.8165 72.1469 14.8433C72.3259 15.4394 72.4453 16.0356 72.505 16.6317Z" fill="white"/>
<path d="M147 23.5478C147 23.7267 146.88 23.7863 146.701 23.7863H138.046C137.867 23.7863 137.807 23.7267 137.747 23.667C137.688 23.6074 137.747 23.4882 137.747 23.4882C137.747 23.4286 137.747 23.4286 137.807 23.369C137.927 23.2498 138.106 23.1901 138.106 23.1901C138.941 23.0709 139.419 22.594 139.478 21.819C139.538 21.4017 139.538 20.8056 139.419 20.0306L138.822 14.4866C138.523 12.1021 137.688 10.9098 136.375 10.9098C136.255 10.9098 136.195 10.9098 136.136 10.9098C135.181 11.029 134.584 11.804 134.405 13.2347C134.285 13.8905 134.285 14.7847 134.285 15.9769V20.0306C134.285 21.6998 134.703 22.7132 135.539 23.0709C135.718 23.1305 135.897 23.1901 136.076 23.2497C136.136 23.2497 136.255 23.3094 136.255 23.369C136.315 23.4286 136.375 23.4882 136.434 23.5478C136.375 23.7267 136.315 23.7863 136.195 23.8459H127.6C127.54 23.8459 127.54 23.8459 127.481 23.8459C127.361 23.7863 127.302 23.7267 127.302 23.6074C127.302 23.4882 127.361 23.4286 127.481 23.369C127.54 23.369 127.481 23.369 127.54 23.369C128.495 23.2498 129.033 22.7728 129.212 21.8786C129.331 21.4614 129.331 20.8652 129.331 20.1499V16.7519C129.331 15.1424 129.092 14.1289 128.674 13.652C128.376 13.4136 127.958 13.1751 127.54 13.0559C127.481 13.0559 127.481 13.0559 127.481 12.9963C127.421 12.9367 127.361 12.8771 127.361 12.7578C127.361 12.579 127.481 12.4598 127.66 12.4598H127.719C129.928 12.4002 131.898 11.6848 133.748 10.1945L133.927 10.0752C133.987 10.0156 134.106 10.0156 134.106 10.0156C134.285 10.0156 134.405 10.1349 134.405 10.3137V10.4925V11.6252C135.3 10.6118 136.434 10.0752 137.927 10.0752C141.389 10.0752 143.358 11.7444 143.896 15.0827L144.493 20.0903C144.731 21.7594 145.269 22.7728 146.104 23.1305C146.283 23.1901 146.462 23.2498 146.641 23.3094L146.821 23.369C146.761 23.2498 147 23.3094 147 23.5478Z" fill="white"/>
<path d="M108.499 19.7307C108.201 20.2076 107.842 20.6249 107.365 20.923C106.171 21.6979 104.918 21.8172 103.485 21.221C101.933 20.5653 100.918 19.2538 100.5 17.3462L105.694 16.75C106.947 16.5712 107.783 16.0347 108.141 15.0213C108.439 14.0078 108.26 13.054 107.484 12.1002C107.365 11.981 107.246 11.8021 107.066 11.6233C105.873 10.4907 104.38 9.89453 102.411 9.89453C100.56 9.89453 99.0082 10.3118 97.7546 11.1464C95.8445 12.5175 95.0088 14.6636 95.2476 17.6442C95.3072 18.1212 95.3669 18.5981 95.546 19.0153C95.8445 20.0288 96.322 20.923 97.0383 21.6979C98.4709 23.1883 100.262 23.9632 102.47 23.9632C106.111 23.9632 108.32 22.5325 109.156 19.6115C109.156 19.4923 109.215 19.3134 109.036 19.2538C108.917 19.2538 108.738 19.4326 108.499 19.7307ZM100.381 12.9348C100.739 11.3252 101.455 10.5503 102.351 10.5503C102.53 10.5503 102.709 10.5503 102.828 10.6099C103.724 10.8483 104.201 11.8022 104.38 13.4713C104.38 13.5905 104.38 13.6502 104.38 13.7694C104.44 15.4982 103.067 16.5116 100.321 16.8693C100.023 15.6174 100.023 14.3059 100.381 12.9348Z" fill="white"/>
<path d="M125.511 19.672C125.511 19.4932 125.392 19.374 125.213 19.374C125.093 19.374 124.974 19.4932 124.974 19.4932L124.914 19.5528C124.914 19.5528 124.854 19.672 124.795 19.7316C124.496 20.2085 124.078 20.6258 123.601 20.9835C122.407 21.7585 121.154 21.8777 119.721 21.2816C118.169 20.6258 117.154 19.3143 116.736 17.4067L121.93 16.8106C123.183 16.6318 124.019 16.0952 124.377 15.0818C124.675 14.0684 124.496 13.1146 123.72 12.1608C123.601 12.0415 123.482 11.8627 123.302 11.6839C122.109 10.5512 120.616 9.95508 118.647 9.95508C116.796 9.95508 115.244 10.3724 113.991 11.207C112.081 12.5781 111.245 14.7241 111.484 17.7048C111.543 18.1817 111.603 18.6586 111.782 19.0759C112.081 20.0893 112.558 20.9835 113.274 21.7585C114.707 23.2488 116.498 24.0238 118.706 24.0238C122.467 23.9642 124.675 22.6527 125.511 19.672ZM116.736 12.9357C117.095 11.3262 117.811 10.5512 118.706 10.5512C118.885 10.5512 119.064 10.5512 119.184 10.6108C120.079 10.8493 120.616 11.8031 120.736 13.4723C120.736 13.5915 120.736 13.6511 120.736 13.7703C120.795 15.4991 119.423 16.5125 116.677 16.8702C116.438 15.6183 116.438 14.3068 116.736 12.9357Z" fill="white"/>
<path d="M45.7634 19.7307C45.7634 19.6115 45.6441 19.4326 45.5247 19.4923C45.4053 19.4923 45.3456 19.5519 45.3456 19.5519C45.2859 19.6115 45.2859 19.6711 45.2262 19.7307C44.9278 20.2076 44.5099 20.6249 44.0324 20.923C42.8386 21.6979 41.5851 21.8172 40.1525 21.221C38.6005 20.5653 37.5857 19.2538 37.1679 17.3462L42.361 16.75C43.6145 16.5712 44.4502 16.0347 44.8083 15.0213C45.1068 14.0078 44.9277 13.054 44.1518 12.1002C44.0324 11.981 43.913 11.8021 43.7339 11.6233C42.5401 10.4907 41.0478 9.89453 39.078 9.89453C37.2276 9.89453 35.6756 10.3118 34.422 11.1464C32.5119 12.5175 31.6763 14.6636 31.915 17.6442C31.9747 18.1212 32.0344 18.5981 32.2135 19.0153C32.512 20.0288 32.9895 20.923 33.7058 21.6979C35.1384 23.1883 36.9291 23.9632 39.1377 23.9632C42.7788 23.9632 44.9277 22.7114 45.7634 19.7903C45.7634 19.7903 45.7634 19.7307 45.7634 19.7307ZM37.0485 12.9348C37.4066 11.3252 38.1229 10.5503 39.0183 10.5503C39.1974 10.5503 39.3764 10.5503 39.4958 10.6099C40.3912 10.8483 40.8688 11.8022 41.0478 13.4713C41.0478 13.5905 41.0478 13.6502 41.0478 13.7694C41.1075 15.4982 39.7346 16.5116 36.9888 16.8693C36.6903 15.6174 36.6903 14.3059 37.0485 12.9348Z" fill="white"/>
<path d="M58.1791 9.83594C57.7613 9.83594 57.3435 9.89555 56.8659 10.0148C56.0899 10.2532 55.3736 10.6705 54.6573 11.3859V10.3128C54.6573 10.2532 54.6573 10.1936 54.6573 10.134C54.5379 9.95516 54.3589 9.95516 54.2395 10.0744C54.1798 10.134 54.1798 10.134 54.1201 10.1936C52.2696 11.6243 50.2401 12.3993 48.0913 12.4589H48.0316C47.9719 12.4589 47.9719 12.4589 47.9122 12.4589C47.7928 12.5185 47.7928 12.5781 47.7928 12.6974C47.7928 12.8166 47.8525 12.9358 47.9719 12.9358C47.9719 12.9358 47.9719 12.9358 48.0316 12.9358C48.0913 12.9358 48.2107 12.9954 48.2704 12.9954C49.2851 13.2935 49.7626 14.4858 49.7626 16.5722V19.9702C49.7626 20.6855 49.7029 21.2817 49.6432 21.699C49.4045 22.5932 48.8673 23.0701 47.9122 23.1893C47.7928 23.1893 47.6138 23.2489 47.6138 23.4277C47.6138 23.547 47.6735 23.6662 47.9122 23.7258H56.5675C56.6868 23.7258 56.8659 23.6662 56.8659 23.4277C56.8659 23.3085 56.8659 23.2489 56.5675 23.1893C56.3287 23.1297 56.1496 23.0701 55.9706 23.0105C55.1349 22.6528 54.717 21.6393 54.717 19.9702V15.7973C54.717 14.8434 54.7767 14.0685 54.8364 13.4127C55.0155 11.8032 55.6721 10.8494 56.6868 10.5513C56.9256 10.5513 57.1046 10.5513 57.3434 10.5513C57.8806 10.7301 58.1791 11.1474 58.2388 11.8628C58.2388 12.1012 58 12.3993 57.7015 12.6378C57.224 12.9954 56.9853 13.3531 56.9853 13.7108C56.9853 14.4262 57.4031 14.9031 58.2388 15.1415C58.3582 15.2011 58.5373 15.2011 58.6567 15.2011C59.6714 15.3204 60.4474 14.9627 60.9249 14.1281C61.5218 13.1147 61.5815 12.1012 61.104 11.1474C60.4474 10.3128 59.552 9.83594 58.1791 9.83594Z" fill="white"/>
<path d="M89.9348 9.83594C89.517 9.83594 89.0992 9.89555 88.6216 10.0148C87.9053 10.2532 87.1294 10.6705 86.4131 11.3859V10.3128C86.4131 10.1936 86.2937 10.0744 86.1743 10.0744C86.1146 10.0744 86.1146 10.0744 86.0549 10.134C86.0549 10.134 86.0549 10.134 85.9952 10.134C85.9355 10.134 85.8759 10.2532 85.8162 10.3128C83.9658 11.7436 81.9362 12.5185 79.7276 12.5781C79.6679 12.5781 79.668 12.5781 79.6083 12.5781C79.5486 12.6378 79.4888 12.6974 79.4888 12.8166C79.4888 12.9358 79.5486 12.9954 79.6679 13.0551H79.7276C79.7873 13.0551 79.847 13.1147 79.9664 13.1147C80.9812 13.4127 81.4587 14.605 81.4587 16.6915V20.0894C81.4587 20.8048 81.399 21.4009 81.3393 21.8182C81.1006 22.7124 80.5633 23.1893 79.6083 23.3085C79.4292 23.3085 79.3098 23.4277 79.3098 23.6066C79.3098 23.7258 79.3695 23.845 79.6083 23.845H88.2635C88.4426 23.845 88.5023 23.7854 88.562 23.6066C88.562 23.4874 88.4426 23.3681 88.2635 23.3085C88.0247 23.2489 87.8457 23.1893 87.6666 23.1297C86.8309 22.772 86.4131 21.7586 86.4131 20.0894V15.9165C86.4131 14.9627 86.4728 14.1877 86.5324 13.532C86.7115 11.9224 87.3681 10.9686 88.3829 10.6705C88.6216 10.6705 88.8007 10.6705 89.0395 10.6705C89.5767 10.8494 89.8751 11.2667 89.9348 11.982C89.9348 12.2205 89.6961 12.5185 89.3977 12.757C88.9201 13.1147 88.6813 13.4723 88.6813 13.83C88.6813 14.5454 89.0991 15.0223 89.9348 15.2607C90.0542 15.3204 90.2333 15.3204 90.3527 15.3204C91.3675 15.4396 92.1434 15.0819 92.6209 14.2473C93.2178 13.2339 93.2776 12.2205 92.8 11.2667C92.2628 10.3128 91.3077 9.83594 89.9348 9.83594Z" fill="white"/>
<path d="M13.9479 19.672C13.9479 19.5528 13.8285 19.4336 13.7091 19.4336C13.7091 19.4336 13.5897 19.4336 13.53 19.4932C13.4703 19.5528 13.4107 19.6124 13.4107 19.6124C13.1122 20.0893 12.6347 20.6258 12.1572 20.9835C10.9633 21.7585 9.70981 21.8777 8.27722 21.2816C6.72525 20.6258 5.71049 19.3143 5.29266 17.4067L10.4858 16.8106C11.7393 16.6318 12.5749 16.0952 12.9331 15.0818C13.2316 14.0684 13.0525 13.1146 12.2765 12.1608C12.1571 12.0415 12.0378 11.8627 11.8587 11.6839C10.6649 10.5512 9.17256 9.95508 7.20275 9.95508C5.35232 9.95508 3.80039 10.3724 2.54687 11.207C0.636749 12.5781 -0.198972 14.7241 0.0397927 17.7048C0.099484 18.1817 0.159175 18.6586 0.338249 19.0759C0.636706 20.0893 1.11424 20.9835 1.83053 21.7585C3.26312 23.2488 5.05385 24.0238 7.26242 24.0238C10.9036 24.0238 13.0525 22.7123 13.8882 19.7913L13.9479 19.672ZM5.17323 12.9357C5.53138 11.3262 6.2477 10.5512 7.14307 10.5512C7.32214 10.5512 7.50125 10.5512 7.62063 10.6108C8.516 10.8493 9.05321 11.8031 9.17259 13.4723C9.17259 13.5915 9.17259 13.6511 9.17259 13.7703C9.23228 15.4991 7.85935 16.5125 5.11355 16.8702C4.87479 15.6183 4.87477 14.3068 5.17323 12.9357Z" fill="white"/>
<path d="M27.1993 10.5521C28.3335 10.5521 28.5125 11.506 27.7366 13.4136L25.528 19.1961L23.0209 13.7116C22.9612 13.5328 22.9016 13.354 22.9016 13.2943C22.3047 11.7444 22.424 10.7906 23.2597 10.5521H23.3194C23.4388 10.4925 23.4985 10.4329 23.4985 10.3137C23.4985 10.1945 23.4388 10.1349 23.3791 10.0752C23.3791 10.0752 23.3194 10.0156 23.2 10.0156H15.3207C15.2014 10.0156 15.082 10.1349 15.082 10.2541C15.082 10.3733 15.2014 10.4925 15.3207 10.4925H15.3805C15.4999 10.4925 15.5595 10.5521 15.7386 10.6118C16.1565 10.9098 16.813 11.9232 17.6487 13.652L21.6481 22.7132C21.9465 23.369 22.5434 23.7863 23.2597 23.7863C23.976 23.7863 24.6326 23.3094 24.8713 22.6536L28.2738 13.7116C28.5126 13.1155 28.6916 12.579 28.9304 12.1617C29.587 11.0887 30.4824 10.4925 31.6165 10.4925C31.7359 10.4925 31.8553 10.3733 31.8553 10.2541C31.8553 10.1349 31.7955 10.0156 31.6762 10.0156H31.5568H27.259C27.259 10.0156 27.1993 10.0156 27.1396 10.0156C27.0203 10.0156 26.9009 10.1349 26.9009 10.2541C26.9606 10.4329 27.0799 10.5521 27.1993 10.5521Z" fill="white"/>
</svg>
