<svg width="136" height="40" viewBox="0 0 136 40" fill="none" xmlns="http://www.w3.org/2000/svg">
<path d="M124.08 7.63008L127.973 11.5264C128.631 12.1842 128.631 13.2468 127.973 13.9046L124.08 17.8009C123.423 18.4587 122.361 18.4587 121.704 17.8009L117.81 13.9046C117.153 13.2468 117.153 12.1842 117.81 11.5264L121.704 7.63008C122.361 6.97226 123.423 6.97226 124.08 7.63008Z" fill="white"/>
<path d="M116.849 0.493361L120.743 4.38965C121.4 5.04747 121.4 6.11009 120.743 6.7679L116.849 10.6642C116.192 11.322 115.13 11.322 114.473 10.6642L110.58 6.7679C109.922 6.11009 109.922 5.04747 110.58 4.38965L114.473 0.493361C115.181 -0.164454 116.243 -0.164454 116.849 0.493361Z" fill="white"/>
<path d="M116.849 14.8645L120.743 18.7607C121.4 19.4186 121.4 20.4812 120.743 21.139L116.849 25.0353C116.192 25.6931 115.13 25.6931 114.473 25.0353L110.58 21.139C109.922 20.4812 109.922 19.4186 110.58 18.7607L114.473 14.8645C115.181 14.2066 116.243 14.2066 116.849 14.8645Z" fill="white"/>
<path d="M124.08 22.1008L127.973 25.9971C128.631 26.6549 128.631 27.7175 127.973 28.3753L124.08 32.2716C123.423 32.9294 122.361 32.9294 121.704 32.2716L117.81 28.3753C117.153 27.7175 117.153 26.6549 117.81 25.9971L121.704 22.1008C122.361 21.443 123.423 21.443 124.08 22.1008Z" fill="white"/>
<path d="M116.849 29.3352L120.743 33.2314C121.4 33.8893 121.4 34.9519 120.743 35.6097L116.849 39.506C116.192 40.1638 115.13 40.1638 114.473 39.506L110.58 35.6097C109.922 34.9519 109.922 33.8893 110.58 33.2314L114.473 29.3352C115.181 28.6773 116.243 28.6773 116.849 29.3352Z" fill="white"/>
<path d="M132.322 19.521L133.636 18.2054C133.889 17.9524 134.294 17.9524 134.496 18.2054L135.81 19.521C136.063 19.774 136.063 20.1788 135.81 20.3812L134.496 21.6969C134.243 21.9499 133.839 21.9499 133.636 21.6969L132.322 20.3812C132.069 20.1282 132.069 19.774 132.322 19.521Z" fill="white"/>
<path d="M4.44917 28.8807V32.6758H3.99409V29.6397L2.42667 32.1698H2.17386L0.60644 29.5891V32.6252H0.151367V28.8301H0.65699L2.27502 31.5625L3.94354 28.8301H4.44917V28.8807Z" fill="white"/>
<path d="M9.25286 30.9571H6.06747C6.11803 31.3619 6.26967 31.6655 6.52248 31.9185C6.77529 32.1715 7.12927 32.2727 7.58434 32.2727C7.83715 32.2727 8.03936 32.2221 8.24161 32.1209C8.44386 32.0197 8.59554 31.9185 8.74723 31.7667L9.05059 32.1209C8.89891 32.3233 8.64613 32.4751 8.39332 32.5763C8.14051 32.6775 7.8371 32.7281 7.53372 32.7281C7.12922 32.7281 6.7753 32.6269 6.47193 32.4751C6.16855 32.3233 5.91573 32.0703 5.76404 31.7667C5.61236 31.4631 5.51123 31.1595 5.51123 30.7547C5.51123 30.3499 5.61236 30.0463 5.76404 29.7427C5.91573 29.4391 6.16857 29.2367 6.42138 29.0343C6.67419 28.8319 7.02814 28.7812 7.38207 28.7812C7.73601 28.7812 8.0394 28.8825 8.34277 29.0343C8.64614 29.1861 8.84836 29.4391 9.00004 29.7427C9.15173 30.0463 9.25286 30.3499 9.25286 30.7547V30.9571ZM6.52248 29.6415C6.26967 29.8945 6.11802 30.1981 6.11802 30.5523H8.79778C8.74722 30.1981 8.64613 29.8439 8.39332 29.6415C8.14051 29.3885 7.83711 29.2873 7.48317 29.2873C7.07867 29.2873 6.77529 29.3885 6.52248 29.6415Z" fill="white"/>
<path d="M14.0562 32.2186V33.5848H13.5506V32.674H10.1123V33.5848H9.60669V32.2186H9.80889C10.0617 32.2186 10.264 32.0162 10.3145 31.662C10.3651 31.3078 10.4663 30.8018 10.5168 30.1439L10.5673 28.8789H13.3989V32.2692H14.0562V32.2186ZM10.9212 31.5102C10.8707 31.8644 10.719 32.1174 10.5673 32.2186H12.9437V29.2837H11.1236L11.0729 30.1439C11.0224 30.7005 10.9718 31.156 10.9212 31.5102Z" fill="white"/>
<path d="M15.0674 28.8789H15.573V31.915L18.1011 28.8789H18.5561V32.674H18.0505V29.6379L15.5224 32.674H15.0674V28.8789Z" fill="white"/>
<path d="M24.0167 32.2186V33.6354H23.5111V32.674H20.0222V28.8789H20.5278V32.2692H22.8538V28.8789H23.3594V32.2692H24.0167V32.2186Z" fill="white"/>
<path d="M24.9778 28.8789H25.4834V31.915L28.0115 28.8789H28.4667V32.674H27.961V29.6379L25.4329 32.674H24.9778V28.8789Z" fill="white"/>
<path d="M29.9832 28.8789H30.4888V30.5487H32.8652V28.8789H33.3708V32.674H32.8652V31.0042H30.4888V32.674H29.9832V28.8789Z" fill="white"/>
<path d="M35.4438 32.4751C35.1404 32.3233 34.9382 32.0703 34.736 31.7667C34.5843 31.4631 34.4832 31.1089 34.4832 30.7547C34.4832 30.4005 34.5843 30.0463 34.736 29.7427C34.8877 29.4391 35.1404 29.2367 35.4438 29.0343C35.7472 28.8825 36.1011 28.7812 36.455 28.7812C36.7584 28.7812 37.0619 28.8319 37.3147 28.9837C37.5675 29.1355 37.7697 29.2873 37.9214 29.5403L37.5169 29.7933C37.4158 29.5909 37.2136 29.4391 37.0619 29.3885C36.8596 29.2873 36.6573 29.2367 36.455 29.2367C36.2022 29.2367 35.9494 29.2873 35.6966 29.4391C35.4944 29.5403 35.2921 29.7427 35.191 29.9451C35.0899 30.1475 34.9888 30.4511 34.9888 30.7041C34.9888 31.0077 35.0393 31.2607 35.191 31.4631C35.2921 31.6655 35.4944 31.8679 35.6966 31.9691C35.8989 32.0703 36.1517 32.1715 36.455 32.1715C36.6573 32.1715 36.9102 32.1209 37.0619 32.0197C37.2641 31.9185 37.4158 31.7667 37.5169 31.6149L37.9214 31.8679C37.7697 32.1209 37.5675 32.3233 37.3147 32.4245C37.0619 32.5763 36.7584 32.6269 36.455 32.6269C36.1011 32.7281 35.7472 32.6269 35.4438 32.4751Z" fill="white"/>
<path d="M40.3484 31.0063H39.4888V32.7267H38.9832V28.9316H39.4888V30.6015H40.3484L41.7136 28.9316H42.2697L40.7528 30.8039L42.3709 32.7773H41.7641L40.3484 31.0063Z" fill="white"/>
<path d="M43.1802 28.8789H43.6858V31.915L46.2139 28.8789H46.6691V32.674H46.1634V29.6379L43.6353 32.674H43.1802V28.8789Z" fill="white"/>
<path d="M48.1855 28.8794H48.6912V31.9154L51.2193 28.8794H51.6743V32.6744H51.1687V29.6384L48.6406 32.6744H48.1855V28.8794ZM49.0956 28.0697C48.8933 27.9179 48.7923 27.6649 48.7923 27.3613H49.1462C49.1462 27.5637 49.1967 27.7155 49.3484 27.8167C49.5001 27.9179 49.6518 27.9685 49.854 27.9685C50.0563 27.9685 50.2079 27.9179 50.3596 27.8167C50.5113 27.7155 50.562 27.5637 50.562 27.3613H50.9159C50.9159 27.6649 50.8147 27.9179 50.6124 28.0697C50.4102 28.2215 50.1575 28.3228 49.8035 28.3228C49.5507 28.3228 49.2978 28.2215 49.0956 28.0697Z" fill="white"/>
<path d="M59.3093 28.8807V32.6758H58.8541V29.6397L57.2868 32.1698H57.034L55.4665 29.5891V32.6252H55.0115V28.8301H55.5171L57.1351 31.5625L58.8036 28.8301H59.3093V28.8807Z" fill="white"/>
<path d="M63.2531 29.2367C63.5059 29.4897 63.6576 29.8439 63.6576 30.3499V32.7281H63.152V32.1209C63.0509 32.3233 62.8486 32.4751 62.6464 32.5763C62.4441 32.6775 62.1408 32.7281 61.8374 32.7281C61.433 32.7281 61.079 32.6269 60.8262 32.4245C60.5734 32.2221 60.4722 31.9691 60.4722 31.6149C60.4722 31.3113 60.5734 31.0077 60.8262 30.8559C61.079 30.6535 61.4329 30.5523 61.9385 30.5523H63.152V30.2993C63.152 29.9957 63.0509 29.7427 62.8992 29.5403C62.6969 29.3885 62.4442 29.2873 62.0903 29.2873C61.8374 29.2873 61.6351 29.3379 61.3823 29.3885C61.1801 29.4897 60.9779 29.5909 60.8262 29.7427L60.5734 29.3379C60.7756 29.1861 60.9778 29.0343 61.2812 28.9331C61.534 28.8319 61.8374 28.7812 62.1407 28.7812C62.5958 28.8319 63.0003 28.9837 63.2531 29.2367ZM62.6464 32.1209C62.8486 31.9691 63.0004 31.8173 63.1015 31.5643V30.9571H61.8879C61.2306 30.9571 60.9273 31.1595 60.9273 31.6149C60.9273 31.8173 61.0284 32.0197 61.1801 32.1209C61.3318 32.2727 61.5846 32.3233 61.8879 32.3233C62.1913 32.3233 62.4441 32.2727 62.6464 32.1209Z" fill="white"/>
<path d="M67.9556 29.0812C68.259 29.233 68.4612 29.486 68.6129 29.7896C68.7646 30.0932 68.8657 30.3968 68.8657 30.8017C68.8657 31.2065 68.7646 31.5101 68.6129 31.8137C68.4612 32.1173 68.2084 32.3197 67.9556 32.5221C67.6522 32.6739 67.3489 32.7751 66.995 32.7751C66.6916 32.7751 66.3882 32.7245 66.1354 32.5727C65.8826 32.4209 65.6803 32.2691 65.5286 32.0161V34.1413H65.0229V28.9294H65.5286V29.6884C65.6803 29.4354 65.8826 29.233 66.1354 29.1318C66.3882 28.98 66.6916 28.9294 66.995 28.9294C67.3489 28.8282 67.6522 28.9294 67.9556 29.0812ZM67.6523 32.0667C67.8545 31.9655 68.0568 31.7631 68.1579 31.5607C68.259 31.3583 68.3601 31.0547 68.3601 30.8017C68.3601 30.498 68.3096 30.245 68.1579 30.0426C68.0568 29.8402 67.8545 29.6378 67.6523 29.5366C67.45 29.4354 67.1972 29.3342 66.9443 29.3342C66.6915 29.3342 66.4388 29.3848 66.2365 29.5366C66.0343 29.6378 65.832 29.8402 65.7309 30.0426C65.6298 30.245 65.5286 30.5486 65.5286 30.8017C65.5286 31.1053 65.5792 31.3583 65.7309 31.5607C65.832 31.7631 66.0343 31.9655 66.2365 32.0667C66.4388 32.1679 66.6915 32.2691 66.9443 32.2691C67.1972 32.2691 67.45 32.2185 67.6523 32.0667Z" fill="white"/>
<path d="M71.394 31.0063H70.5344V32.7267H70.0288V28.9316H70.5344V30.6015H71.394L72.7591 28.9316H73.3154L71.7985 30.8039L73.4165 32.7773H72.8097L71.394 31.0063Z" fill="white"/>
<path d="M77.4105 30.9571H74.2252C74.2757 31.3619 74.4274 31.6655 74.6802 31.9185C74.933 32.1715 75.287 32.2727 75.7421 32.2727C75.9949 32.2727 76.197 32.2221 76.3993 32.1209C76.6015 32.0197 76.7532 31.9185 76.9049 31.7667L77.2083 32.1209C77.0566 32.3233 76.8038 32.4751 76.551 32.5763C76.2982 32.6775 75.9948 32.7281 75.6914 32.7281C75.2869 32.7281 74.933 32.6269 74.6296 32.4751C74.3262 32.3233 74.0734 32.0703 73.9218 31.7667C73.7701 31.4631 73.6689 31.1595 73.6689 30.7547C73.6689 30.3499 73.7701 30.0463 73.9218 29.7427C74.0734 29.4391 74.3263 29.2367 74.5791 29.0343C74.8825 28.8825 75.1858 28.7812 75.5397 28.7812C75.8937 28.7812 76.1971 28.8825 76.5005 29.0343C76.8039 29.1861 77.006 29.4391 77.1577 29.7427C77.3094 30.0463 77.4105 30.3499 77.4105 30.7547V30.9571ZM74.6296 29.6415C74.3768 29.8945 74.2252 30.1981 74.2252 30.5523H76.9049C76.8543 30.1981 76.7533 29.8439 76.5005 29.6415C76.2477 29.3885 75.9443 29.2873 75.5903 29.2873C75.1858 29.2873 74.8824 29.3885 74.6296 29.6415Z" fill="white"/>
<path d="M81.0513 29.3343H79.5849V32.674H79.0793V29.3343H77.613V28.8789H81.0007V29.3343H81.0513Z" fill="white"/>
<path d="M85.248 28.8789V32.674H84.7424V29.3343H82.366V32.674H81.8604V28.8789H85.248Z" fill="white"/>
<path d="M89.7982 28.8789V32.674H89.2926V29.3343H87.4724L87.4218 30.2957C87.3712 31.1054 87.2701 31.7126 87.169 32.1174C87.0173 32.5222 86.7645 32.7752 86.4106 32.7752C86.3094 32.7752 86.2083 32.7752 86.0566 32.7246L86.1073 32.2692C86.2084 32.2692 86.2589 32.3198 86.3095 32.3198C86.5117 32.3198 86.6633 32.2186 86.7645 32.0668C86.8656 31.8644 86.9162 31.662 86.9668 31.409C87.0173 31.156 87.0173 30.8018 87.0679 30.3463L87.1185 28.9801H89.7982V28.8789Z" fill="white"/>
<path d="M94.6017 30.9571H91.4163C91.4669 31.3619 91.6185 31.6655 91.8714 31.9185C92.1242 32.1715 92.4782 32.2727 92.9332 32.2727C93.186 32.2727 93.3882 32.2221 93.5904 32.1209C93.7927 32.0197 93.9444 31.9185 94.096 31.7667L94.3995 32.1209C94.2478 32.3233 93.9949 32.4751 93.7421 32.5763C93.4893 32.6775 93.186 32.7281 92.8826 32.7281C92.4781 32.7281 92.1241 32.6269 91.8207 32.4751C91.5174 32.3233 91.2646 32.0703 91.1129 31.7667C90.9612 31.4631 90.8601 31.1595 90.8601 30.7547C90.8601 30.3499 90.9612 30.0463 91.1129 29.7427C91.2646 29.4391 91.5174 29.2367 91.7703 29.0343C92.0736 28.8825 92.377 28.7812 92.7309 28.7812C93.0848 28.7812 93.3883 28.8825 93.6916 29.0343C93.995 29.1861 94.1972 29.4391 94.3489 29.7427C94.5005 30.0463 94.6017 30.3499 94.6017 30.7547V30.9571ZM91.8207 29.6415C91.5679 29.8945 91.4163 30.1981 91.4163 30.5523H94.096C94.0455 30.1981 93.9445 29.8439 93.6916 29.6415C93.4388 29.3885 93.1354 29.2873 92.7815 29.2873C92.377 29.2873 92.0736 29.3885 91.8207 29.6415Z" fill="white"/>
<path d="M95.7646 28.8794H96.2703V31.9154L98.7984 28.8794H99.2535V32.6744H98.7479V29.6384L96.2198 32.6744H95.7646V28.8794ZM96.7254 28.0697C96.5232 27.9179 96.422 27.6649 96.422 27.3613H96.7759C96.7759 27.5637 96.8265 27.7155 96.9782 27.8167C97.1299 27.9179 97.2816 27.9685 97.4838 27.9685C97.6861 27.9685 97.8378 27.9179 97.9895 27.8167C98.1412 27.7155 98.1917 27.5637 98.1917 27.3613H98.5456C98.5456 27.6649 98.4445 27.9179 98.2423 28.0697C98.04 28.2215 97.7872 28.3228 97.4332 28.3228C97.1804 28.3228 96.8771 28.2215 96.7254 28.0697Z" fill="white"/>
<path d="M101.327 32.4751C101.023 32.3233 100.821 32.0703 100.619 31.7667C100.467 31.4631 100.366 31.1089 100.366 30.7547C100.366 30.4005 100.467 30.0463 100.619 29.7427C100.771 29.4391 101.023 29.2367 101.327 29.0343C101.63 28.8825 101.984 28.7812 102.338 28.7812C102.641 28.7812 102.945 28.8319 103.198 28.9837C103.45 29.1355 103.653 29.2873 103.804 29.5403L103.4 29.7933C103.299 29.5909 103.097 29.4391 102.945 29.3885C102.743 29.2873 102.54 29.2367 102.338 29.2367C102.085 29.2367 101.832 29.2873 101.58 29.4391C101.377 29.5403 101.175 29.7427 101.074 29.9451C100.973 30.1475 100.872 30.4511 100.872 30.7041C100.872 31.0077 100.922 31.2607 101.074 31.4631C101.175 31.6655 101.377 31.8679 101.58 31.9691C101.782 32.0703 102.035 32.1715 102.338 32.1715C102.54 32.1715 102.793 32.1209 102.945 32.0197C103.147 31.9185 103.299 31.7667 103.4 31.6149L103.804 31.8679C103.653 32.1209 103.45 32.3233 103.198 32.4245C102.945 32.5763 102.641 32.6269 102.338 32.6269C101.984 32.7281 101.63 32.6269 101.327 32.4751Z" fill="white"/>
<path d="M12.6406 23.9752V16.7898C12.6406 16.5874 12.3372 16.4862 12.2361 16.6886L8.7978 22.5077C8.64611 22.7607 8.39335 22.9126 8.08997 22.9126H7.58435C7.28098 22.9126 7.02815 22.7607 6.87646 22.5077L3.4382 16.8404C3.33708 16.638 3.03374 16.7392 3.03374 16.9416V23.9752C3.03374 24.1776 2.83147 24.38 2.62922 24.38H0.404462C0.202212 24.38 0 24.1776 0 23.9752V11.0719C0 10.7177 0.303337 10.4141 0.657273 10.4141H2.2753C2.52812 10.4141 2.73035 10.5153 2.83148 10.7177L7.68545 18.7633C7.78657 18.9151 7.9888 18.9151 8.03936 18.7633L12.7923 10.7177C12.8934 10.5153 13.1462 10.4141 13.3484 10.4141H14.9664C15.3203 10.4141 15.6237 10.7177 15.6237 11.0719L15.6743 23.9752C15.6743 24.1776 15.472 24.38 15.2698 24.38H13.0451C12.7923 24.38 12.6406 24.2282 12.6406 23.9752Z" fill="white"/>
<path d="M29.7813 22.4571V23.7728C29.7813 24.127 29.4779 24.4306 29.124 24.4306H19.5677C19.2138 24.4306 18.9104 24.127 18.9104 23.7728V11.0719C18.9104 10.7177 19.2138 10.4141 19.5677 10.4141H28.8207C29.1746 10.4141 29.478 10.7177 29.478 11.0719V12.3875C29.478 12.7417 29.1746 13.0453 28.8207 13.0453H22.6015C22.3487 13.0453 22.1465 13.2477 22.1465 13.5007V15.5754C22.1465 15.8284 22.3487 16.0308 22.6015 16.0308H27.9611C28.3151 16.0308 28.6183 16.3344 28.6183 16.6886V17.903C28.6183 18.2572 28.3151 18.5609 27.9611 18.5609H22.6015C22.3487 18.5609 22.1465 18.7633 22.1465 19.0163V21.2933C22.1465 21.5463 22.3487 21.7487 22.6015 21.7487H29.0735C29.478 21.7993 29.7813 22.1029 29.7813 22.4571Z" fill="white"/>
<path d="M32.3596 11.1225C32.3596 10.7177 32.6629 10.4141 33.0674 10.4141H38.6799C40.1968 10.4141 41.5114 10.7177 42.7249 11.2743C43.8878 11.8309 44.7979 12.6911 45.4552 13.7031C46.1125 14.7658 46.416 15.9802 46.416 17.397C46.416 18.8139 46.1125 20.0283 45.4552 21.0909C44.7979 22.1535 43.8878 22.9632 42.7249 23.5198C41.562 24.0764 40.1968 24.38 38.6799 24.38H33.0674C32.6629 24.38 32.3596 24.0764 32.3596 23.6716V11.1225ZM38.5282 21.7487C39.9439 21.7487 41.0564 21.3439 41.8654 20.5849C42.6744 19.8259 43.1294 18.7633 43.1294 17.397C43.1294 16.0814 42.7249 15.0188 41.8654 14.2092C41.0564 13.4501 39.9439 13.0453 38.5282 13.0453H35.8484C35.6967 13.0453 35.5956 13.1465 35.5956 13.2983V21.4451C35.5956 21.5969 35.6967 21.6981 35.8484 21.6981H38.5282V21.7487Z" fill="white"/>
<path d="M50.2084 24.1769C49.2982 23.9239 48.4892 23.5696 47.9331 23.1648C47.8319 23.0636 47.7813 22.9624 47.8318 22.8106L48.6915 20.8878C48.7421 20.736 48.9442 20.6854 49.0959 20.7866C49.6521 21.1408 50.2589 21.4444 50.9668 21.6468C51.7758 21.8998 52.6353 22.0516 53.4443 22.0516C54.3544 22.0516 55.0623 21.8998 55.4668 21.6468C55.9219 21.3938 56.1241 20.989 56.1241 20.5336C56.1241 20.1794 55.9724 19.9264 55.7196 19.724C55.4668 19.5216 55.1129 19.3192 54.7084 19.2179C54.3039 19.0661 53.7476 18.9143 53.0398 18.7625C51.978 18.5095 51.1184 18.2565 50.4106 18.0035C49.7532 17.7505 49.1465 17.3457 48.6409 16.7891C48.1353 16.2325 47.9331 15.4735 47.9331 14.5626C47.9331 13.753 48.1352 12.994 48.5903 12.3362C49.0453 11.6784 49.7027 11.1724 50.5623 10.7675C51.4218 10.3627 52.5342 10.2109 53.7982 10.2109C54.7083 10.2109 55.5679 10.3121 56.4274 10.5145C57.1859 10.7169 57.8432 10.97 58.4499 11.3242C58.551 11.3748 58.6017 11.5266 58.5511 11.6784L57.7421 13.6012C57.6915 13.753 57.4893 13.8036 57.3376 13.753C56.1241 13.1458 54.9612 12.7916 53.7477 12.7916C52.8376 12.7916 52.1803 12.9434 51.7252 13.247C51.2702 13.5506 51.0679 13.9048 51.0679 14.4108C51.0679 14.8662 51.3207 15.2711 51.8263 15.4735C52.332 15.7265 53.0904 15.9289 54.1016 16.1819C55.1634 16.4349 56.023 16.6879 56.7309 16.9409C57.3882 17.1939 57.9949 17.5987 58.5005 18.1553C59.0062 18.7119 59.2084 19.4204 59.2084 20.3818C59.2084 21.1914 59.0062 21.8998 58.5511 22.5576C58.0961 23.2154 57.4388 23.7215 56.5287 24.1263C55.6185 24.5311 54.5566 24.6829 53.2926 24.6829C52.3319 24.6323 51.2702 24.4805 50.2084 24.1769Z" fill="white"/>
<path d="M63.1017 22.9632C61.9893 21.8499 61.4331 20.2813 61.4331 18.2066V10.9707C61.4331 10.6671 61.6858 10.4141 61.9892 10.4141H64.1634C64.4668 10.4141 64.7197 10.6671 64.7197 10.9707V18.156C64.7197 20.6355 65.7814 21.9005 67.8545 21.9005C68.8657 21.9005 69.6242 21.5969 70.1804 20.9897C70.7366 20.3825 70.9893 19.4211 70.9893 18.156V10.9707C70.9893 10.6671 71.2422 10.4141 71.5456 10.4141H73.6692C73.9725 10.4141 74.2254 10.6671 74.2254 10.9707V18.2572C74.2254 20.3319 73.6692 21.9005 72.5568 23.0138C71.4444 24.127 69.877 24.6836 67.9051 24.6836C65.9332 24.6836 64.2141 24.0764 63.1017 22.9632Z" fill="white"/>
<path d="M86.5627 11.0213C87.4729 11.4261 88.1807 12.0333 88.6863 12.7923C89.192 13.5513 89.4448 14.4622 89.4448 15.4742C89.4448 16.4862 89.192 17.397 88.6863 18.156C88.1807 18.9151 87.4729 19.5223 86.5627 19.9271C85.6526 20.3319 84.5909 20.5343 83.3268 20.5343H80.4953V23.9246C80.4953 24.1776 80.2931 24.38 80.0403 24.38H77.7649C77.5121 24.38 77.3098 24.1776 77.3098 23.9246V10.8695C77.3098 10.6165 77.5121 10.4141 77.7649 10.4141H83.3268C84.5909 10.4141 85.6526 10.6165 86.5627 11.0213ZM85.3998 17.2958C85.9054 16.891 86.1582 16.2838 86.1582 15.5248C86.1582 14.7152 85.9054 14.1585 85.3998 13.7031C84.8942 13.2983 84.1358 13.0959 83.1751 13.0959H81.0009C80.7481 13.0959 80.5459 13.2983 80.5459 13.5513V17.4982C80.5459 17.7512 80.7481 17.9536 81.0009 17.9536H83.1751C84.1358 17.903 84.8942 17.7006 85.3998 17.2958Z" fill="white"/>
<path d="M101.175 11.0213C102.085 11.4261 102.793 12.0333 103.299 12.7923C103.805 13.5513 104.057 14.4622 104.057 15.4742C104.057 16.4862 103.805 17.397 103.299 18.156C102.793 18.9151 102.085 19.5223 101.175 19.9271C100.265 20.3319 99.2033 20.5343 97.9392 20.5343H95.1077V23.874C95.1077 24.1776 94.8549 24.38 94.6021 24.38H92.428C92.1246 24.38 91.9224 24.127 91.9224 23.874V10.9707C91.9224 10.6671 92.1752 10.4647 92.428 10.4647H97.9392C99.2033 10.4141 100.265 10.6165 101.175 11.0213ZM99.9617 17.2958C100.467 16.891 100.72 16.2838 100.72 15.5248C100.72 14.7152 100.467 14.1586 99.9617 13.7031C99.4561 13.2983 98.6977 13.0959 97.737 13.0959H95.4617C95.2595 13.0959 95.1077 13.2477 95.1077 13.4501V17.5488C95.1077 17.7512 95.2595 17.903 95.4617 17.903H97.737C98.7483 17.903 99.4561 17.7006 99.9617 17.2958Z" fill="white"/>
</svg>
