<svg width="138" height="40" viewBox="0 0 138 40" fill="none" xmlns="http://www.w3.org/2000/svg">
<path d="M4.09044 0.0849609H0V4.1993H4.09044V0.0849609Z" fill="white"/>
<path d="M20.405 4.15137H14.669H10.5786H4.09033V8.21841H10.5786V28.6955H14.669V8.21841H20.405V4.15137Z" fill="white"/>
<path d="M36.7201 4.15137H28.5863H24.4958V8.26569V14.4136V18.5279V28.7901H28.5863V18.5279H36.7201V28.7901H40.8106V18.5279V14.4136V8.26569V4.15137H36.7201ZM36.7201 14.3663H28.5863V8.21841H36.7201V14.3663Z" fill="white"/>
<path d="M61.1682 8.21688V4.10254H44.8535V8.16959V24.5796V28.694H48.944H57.0778H61.1682V24.5796V18.4318V14.3174H57.0778H48.944V8.16959H61.1682V8.21688ZM57.0778 18.4791V24.6269H48.944V18.4791H57.0778Z" fill="white"/>
<path d="M93.1397 4.10254H76.825V8.21688H83.3132V28.7413H87.4037V8.21688H93.1397V4.10254Z" fill="white"/>
<path d="M133.91 -8.29697e-05V4.11426H138V-8.29697e-05H133.91Z" fill="white"/>
<path d="M97.1831 4.10254V8.21688V14.3647V18.4791V28.694H101.274V18.4318H109.407V28.694H113.498V18.4318V14.3174V8.16959V4.10254H97.1831ZM101.274 14.3647V8.21688H109.407V14.3647H101.274Z" fill="white"/>
<path d="M133.903 8.21688V4.10254H121.679H117.588V8.21688V14.3647V18.4791V24.6269V28.7413H121.679H129.812H133.903V24.6269V18.4791V14.3647H121.679V8.21688H133.903ZM129.812 18.4791V24.6269H121.679V18.4791H129.812Z" fill="white"/>
<path d="M11.331 37.2103C11.331 38.1561 11.378 38.7709 11.5191 38.96C11.6601 39.1492 12.0363 39.2438 12.7415 39.2438C13.3527 39.2438 13.7759 39.1965 13.9169 39.1019C14.058 38.96 14.152 38.629 14.152 38.0615H14.6692C14.6692 38.9127 14.5752 39.4329 14.3401 39.6694C14.105 39.9059 13.5878 40.0004 12.7885 40.0004C11.9422 40.0004 11.425 39.8586 11.19 39.5275C10.9549 39.1965 10.8608 38.4871 10.8608 37.2575C10.8608 36.0753 10.9549 35.3186 11.19 34.9876C11.425 34.6565 11.9422 34.5146 12.7885 34.5146C13.6348 34.5146 14.152 34.6092 14.3871 34.8457C14.6222 35.0821 14.7162 35.6023 14.7162 36.4536H14.199C14.199 35.8861 14.105 35.5551 13.9639 35.4132C13.8229 35.3186 13.3997 35.224 12.7885 35.224C12.0833 35.224 11.7071 35.3186 11.5661 35.5078C11.425 35.6496 11.331 36.2171 11.331 37.2103Z" fill="white"/>
<path d="M16.3147 34.5146H19.5588V35.224H16.8319V36.7846H19.4648V37.494H16.8319V39.1019H19.5588V39.8113H16.3147V34.5146Z" fill="white"/>
<path d="M21.1108 34.5146H24.6841V35.224H23.1796V39.8113H22.6624V35.224H21.1579V34.5146H21.1108Z" fill="white"/>
<path d="M26.2354 34.5146H26.7525V36.4536H29.0093C29.3384 36.4536 29.5735 36.5955 29.7146 36.8319C29.9026 37.1157 29.9967 37.5413 29.9967 38.1088C29.9967 38.6763 29.9026 39.1019 29.7616 39.3857C29.5735 39.6694 29.3384 39.8113 29.0563 39.8113H26.2824V34.5146H26.2354ZM26.7525 37.2103V39.1492H29.0093C29.1504 39.1492 29.2914 39.0546 29.3855 38.9127C29.4795 38.7709 29.5265 38.4871 29.5265 38.1561C29.5265 37.825 29.4795 37.5886 29.3855 37.4467C29.2914 37.3048 29.1974 37.2103 29.0563 37.2103H26.7525Z" fill="white"/>
<path d="M35.0273 34.5146H38.6006V35.224H37.096V39.8113H36.5789V35.224H35.0743V34.5146H35.0273Z" fill="white"/>
<path d="M42.5029 34.5146L44.2895 39.8113H43.7253L43.3022 38.629H40.8573L40.4812 39.8113H39.917L41.7036 34.5146H42.5029ZM43.1141 37.9669L42.1738 35.1767H42.0327L41.0924 37.9669H43.1141Z" fill="white"/>
<path d="M45.8413 34.5146H49.3205V35.224H46.3585V36.7373H48.6153C48.9444 36.7373 49.1795 36.8319 49.3675 37.0684C49.6026 37.3048 49.6966 37.7305 49.6966 38.2979C49.6966 38.8654 49.6026 39.2911 49.3675 39.5275C49.1795 39.7167 48.9444 39.8586 48.6153 39.8586H45.8413V34.5146ZM49.1325 38.2979C49.1325 38.0142 49.0854 37.825 48.9914 37.6832C48.8974 37.5413 48.7563 37.4467 48.6153 37.4467H46.3585V39.1019H48.6153C48.7563 39.1019 48.8974 39.0073 48.9914 38.8654C49.0854 38.7709 49.1325 38.5344 49.1325 38.2979Z" fill="white"/>
<path d="M53.74 34.5146L55.5266 39.8113H54.9624L54.5392 38.629H52.0944L51.7183 39.8113H51.1541L52.9407 34.5146H53.74ZM54.3042 37.9669L53.3638 35.1767H53.2228L52.2824 37.9669H54.3042Z" fill="white"/>
<path d="M57.5483 34.5146V36.359C57.5483 36.5955 57.5954 36.7846 57.7364 36.9738C57.8775 37.1157 58.0655 37.2103 58.2536 37.2103H60.3223V34.5146H60.8395V39.8113H60.3223V37.9196H58.2536C57.8774 37.9196 57.5483 37.7777 57.3133 37.4467C57.1252 37.163 56.9841 36.7846 56.9841 36.359V34.5146H57.5483Z" fill="white"/>
<path d="M62.6262 34.5146H63.1434V36.7846H66.0584V34.5146H66.5756V39.8113H66.0584V37.494H63.1434V39.8113H62.6262V34.5146Z" fill="white"/>
<path d="M68.4089 34.5146H68.9261V36.4536H71.1829C71.512 36.4536 71.7471 36.5955 71.8881 36.8319C72.0762 37.1157 72.1703 37.5413 72.1703 38.1088C72.1703 38.6763 72.0762 39.1019 71.9352 39.3857C71.7941 39.6694 71.512 39.8113 71.2299 39.8113H68.5029V34.5146H68.4089ZM68.9261 37.2103V39.1492H71.1829C71.3239 39.1492 71.465 39.0546 71.512 38.9127C71.606 38.7709 71.6531 38.4871 71.6531 38.1561C71.6531 37.825 71.606 37.5886 71.512 37.4467C71.418 37.3048 71.3239 37.2103 71.1829 37.2103H68.9261ZM73.3457 39.8113H72.8285V34.5146H73.3457V39.8113Z" fill="white"/>
<path d="M78.5648 34.5146H79.2701L77.5304 37.163L79.2701 39.8113H78.6118L77.1543 37.5886L75.6968 39.8113H75.0386L76.7782 37.163L75.0386 34.5146H75.7438L77.1543 36.7373L78.5648 34.5146Z" fill="white"/>
<path d="M85.241 34.5146L86.9806 38.8654L88.7202 34.5146H89.6135V39.8113H89.1433V35.224H89.0493L87.1686 39.8113H86.8395L84.9589 35.224H84.8649V39.8113H84.3477V34.5146H85.241Z" fill="white"/>
<path d="M93.9861 34.5146L95.7727 39.8113H95.2085L94.7853 38.629H92.3405L91.9643 39.8113H91.4001L93.1868 34.5146H93.9861ZM94.5973 37.9669L93.6569 35.1767H93.5159L92.5756 37.9669H94.5973Z" fill="white"/>
<path d="M97.2771 34.5146H100.38V35.224H97.7943V39.8113H97.2771V34.5146Z" fill="white"/>
<path d="M104.283 34.5146L106.07 39.8113H105.505L105.082 38.629H102.637L102.261 39.8113H101.697L103.484 34.5146H104.283ZM104.847 37.9669L103.907 35.1767H103.766L102.825 37.9669H104.847Z" fill="white"/>
<path d="M111.335 36.7835C111.288 36.9727 111.194 37.1145 111.053 37.2091C111.194 37.3037 111.288 37.4456 111.335 37.6347C111.382 37.8239 111.429 38.0604 111.429 38.3441C111.429 38.8643 111.335 39.1954 111.194 39.4318C111.053 39.621 110.865 39.7629 110.536 39.8574C110.348 39.9047 110.019 39.9047 109.502 39.9047C108.702 39.9047 108.138 39.8101 107.95 39.5737C107.715 39.3372 107.621 38.817 107.621 37.9658H108.138C108.138 38.5333 108.232 38.8643 108.373 39.0062C108.514 39.1008 108.89 39.1481 109.549 39.1481C110.113 39.1481 110.489 39.1008 110.677 38.9589C110.865 38.8643 110.959 38.6279 110.959 38.2968C110.959 37.9658 110.865 37.7293 110.724 37.5874C110.63 37.4929 110.442 37.4456 110.207 37.4456H108.655V36.7362H110.207C110.442 36.7362 110.63 36.6889 110.771 36.5943C110.912 36.4525 111.006 36.2633 111.006 35.9323C111.006 35.6012 110.912 35.3648 110.724 35.2702C110.536 35.1756 110.16 35.1283 109.596 35.1283C108.937 35.1283 108.561 35.1756 108.42 35.3175C108.279 35.4121 108.185 35.7904 108.185 36.3579H107.668C107.668 35.5066 107.762 34.9864 107.997 34.75C108.232 34.5135 108.749 34.4189 109.596 34.4189C110.019 34.4189 110.301 34.4189 110.489 34.4662C110.818 34.5135 111.053 34.6554 111.241 34.8919C111.429 35.1283 111.523 35.5066 111.523 35.9795C111.382 36.3106 111.382 36.5943 111.335 36.7835Z" fill="white"/>
<path d="M117.259 39.8113H116.742V35.224L113.827 39.8113H113.122V34.5146H113.639V39.1492L116.554 34.5146H117.306V39.8113H117.259Z" fill="white"/>
<path d="M119.093 34.5146H119.61V36.7846H122.525V34.5146H123.042V39.8113H122.525V37.494H119.61V39.8113H119.093V34.5146V34.5146Z" fill="white"/>
<path d="M126.85 39.9047C126.145 39.9047 125.628 39.8101 125.346 39.6683C125.064 39.5264 124.876 39.2426 124.829 38.8643C124.782 38.5806 124.735 38.0131 124.735 37.1618C124.735 36.3106 124.782 35.7431 124.829 35.4593C124.923 35.0337 125.064 34.7973 125.393 34.6554C125.675 34.5135 126.192 34.4189 126.897 34.4189C127.603 34.4189 128.073 34.5135 128.355 34.6554C128.637 34.7973 128.825 35.081 128.872 35.4593C128.919 35.7431 128.966 36.3106 128.966 37.1618C128.966 38.0131 128.919 38.5806 128.872 38.8643C128.778 39.2899 128.637 39.5264 128.355 39.6683C128.026 39.8574 127.556 39.9047 126.85 39.9047ZM126.85 39.1954C127.65 39.1954 128.073 39.1008 128.214 38.9116C128.355 38.7224 128.402 38.1549 128.402 37.1618C128.402 36.1687 128.355 35.6012 128.214 35.4121C128.073 35.2229 127.603 35.1283 126.85 35.1283C126.051 35.1283 125.581 35.2229 125.487 35.4121C125.346 35.6012 125.299 36.1687 125.299 37.1618C125.299 38.1549 125.346 38.7224 125.487 38.9116C125.581 39.1008 126.051 39.1954 126.85 39.1954Z" fill="white"/>
<path d="M134.42 38.2975C134.42 38.8177 134.326 39.1961 134.138 39.4798C133.95 39.7163 133.668 39.8581 133.339 39.8581H130.612V34.5615H133.198C133.527 34.5615 133.809 34.7034 133.997 34.9399C134.185 35.1763 134.279 35.5546 134.279 36.0748C134.279 36.5951 134.138 36.9261 133.903 37.1152C134.044 37.2098 134.185 37.3044 134.232 37.4936C134.373 37.6827 134.42 37.9665 134.42 38.2975ZM133.809 36.0276C133.809 35.7911 133.762 35.6019 133.668 35.4601C133.574 35.3182 133.433 35.2236 133.198 35.2236H131.082V36.7369H133.198C133.433 36.7369 133.574 36.6896 133.668 36.5478C133.762 36.4532 133.809 36.264 133.809 36.0276ZM131.129 37.4463V39.1015H133.339C133.527 39.1015 133.668 39.0069 133.762 38.865C133.856 38.7232 133.903 38.534 133.903 38.2502C133.903 38.0138 133.856 37.8246 133.762 37.6355C133.668 37.4936 133.527 37.399 133.339 37.399H131.129V37.4463Z" fill="white"/>
</svg>
