<svg width="490" height="127" viewBox="0 0 490 127" fill="none" xmlns="http://www.w3.org/2000/svg">
<path d="M135.571 1C101.238 1.33333 32.1711 6.6 30.5711 25C28.5711 48 137.571 44 169.571 44C201.571 44 256.071 37.5 256.071 25C256.071 1 145.071 4 120.571 6" stroke="#46B4F2" stroke-width="2"/>
<path d="M24.5671 27.8682C25.0466 27.5942 25.2132 26.9834 24.9392 26.5039C24.6651 26.0243 24.0543 25.8577 23.5748 26.1318L24.5671 27.8682ZM193.571 125L193.541 126L193.571 125ZM488.071 91L488.965 91.4472C489.166 91.0464 489.075 90.5612 488.744 90.2599C488.412 89.9585 487.92 89.9146 487.54 90.1524L488.071 91ZM464.074 119.417C464.029 119.967 464.438 120.451 464.988 120.497C465.538 120.542 466.022 120.133 466.068 119.583L464.074 119.417ZM459.358 92.0422C458.829 91.8835 458.272 92.1837 458.113 92.7127C457.955 93.2416 458.255 93.7991 458.784 93.9578L459.358 92.0422ZM23.5748 26.1318C9.4472 34.2047 1.24969 44.216 0.131312 54.9353C-0.99043 65.6868 5.04822 76.7249 18.4092 86.7377C45.106 106.745 101.748 123.248 193.541 126L193.601 124C101.895 121.252 45.7869 104.755 19.6086 85.1373C6.53202 75.3376 1.1018 64.9069 2.12051 55.1428C3.14259 45.3465 10.6949 35.7953 24.5671 27.8682L23.5748 26.1318ZM193.541 126C210.312 126.502 268.595 127.628 330.387 123.812C361.281 121.904 393.073 118.76 421.001 113.68C448.899 108.605 473.057 101.579 488.602 91.8476L487.54 90.1524C472.335 99.6712 448.494 106.646 420.643 111.712C392.823 116.773 361.117 119.911 330.263 121.816C268.557 125.626 210.341 124.502 193.601 124L193.541 126ZM487.54 90.1524C480.814 94.3634 475.242 97.9573 471.221 102.343C467.154 106.781 464.692 112.004 464.074 119.417L466.068 119.583C466.65 112.596 468.938 107.794 472.696 103.695C476.5 99.5438 481.828 96.0877 488.602 91.8476L487.54 90.1524ZM487.177 90.5528C487.211 90.4833 487.248 90.4362 487.27 90.4106C487.293 90.3844 487.309 90.3701 487.313 90.3668C487.319 90.3618 487.303 90.3764 487.248 90.4076C487.139 90.4702 486.957 90.5551 486.689 90.6569C486.157 90.8588 485.391 91.0885 484.426 91.3258C482.503 91.799 479.877 92.282 476.952 92.6321C471.065 93.3369 464.153 93.4805 459.358 92.0422L458.784 93.9578C463.989 95.5195 471.244 95.3298 477.19 94.6179C480.182 94.2597 482.889 93.7635 484.904 93.2679C485.908 93.0209 486.761 92.7688 487.399 92.5267C487.715 92.4065 488.005 92.2788 488.243 92.1427C488.362 92.0746 488.487 91.9932 488.602 91.8964C488.708 91.8065 488.859 91.6596 488.965 91.4472L487.177 90.5528Z" fill="#46B4F2"/>
</svg>
