<svg width="701" height="532" viewBox="0 0 701 532" fill="none" xmlns="http://www.w3.org/2000/svg">
<path d="M402.332 195.699L403.313 195.503L403.032 194.102L401.812 194.845L402.332 195.699ZM516.198 172.544L515.437 171.895L516.198 172.544ZM560.978 269.003L560.947 268.003L560.978 269.003ZM612.076 171.66C611.586 171.405 610.983 171.597 610.728 172.087C610.474 172.578 610.666 173.181 611.156 173.435L612.076 171.66ZM185.222 476L185.277 475.001L185.222 476ZM131.222 451.5L131.911 452.224L131.222 451.5ZM401.812 194.845C399.988 195.956 398.621 197.062 397.725 198.166C396.825 199.275 396.342 200.456 396.46 201.666C396.578 202.876 397.275 203.895 398.271 204.725C399.264 205.551 400.622 206.25 402.243 206.838C408.696 209.177 420.272 210.08 433.845 209.003C461 206.847 496.885 196.699 516.958 173.194L515.437 171.895C495.877 194.8 460.646 204.869 433.686 207.009C420.201 208.079 408.97 207.149 402.925 204.958C401.421 204.413 400.299 203.811 399.551 203.188C398.806 202.568 398.501 201.989 398.451 201.472C398.4 200.955 398.583 200.282 399.277 199.427C399.975 198.568 401.131 197.602 402.852 196.553L401.812 194.845ZM516.958 173.194C520.971 168.495 522.69 162.013 522.604 154.633C522.517 147.249 520.624 138.879 517.309 130.279C510.678 113.082 498.292 94.796 482.899 81.3795C467.515 67.9713 448.996 59.3195 430.128 61.6871C411.22 64.0598 392.278 77.4556 375.985 107.452L377.743 108.406C393.853 78.7453 412.331 65.936 430.377 63.6715C448.464 61.402 466.433 69.6808 481.585 82.8872C496.728 96.0852 508.926 114.098 515.442 130.999C518.7 139.448 520.521 147.577 520.604 154.657C520.687 161.741 519.031 167.687 515.437 171.895L516.958 173.194ZM375.985 107.452C359.706 137.424 356.481 161.854 361.946 181.25C367.412 200.651 381.514 214.815 399.469 224.372C417.418 233.925 439.279 238.912 460.442 239.953C481.599 240.994 502.149 238.096 517.479 231.794L516.719 229.945C501.728 236.106 481.488 238.986 460.54 237.955C439.597 236.925 418.039 231.99 400.409 222.606C382.785 213.226 369.149 199.439 363.871 180.708C358.593 161.973 361.62 138.091 377.743 108.406L375.985 107.452ZM517.479 231.794C548.049 219.229 566.013 196.91 571.965 178.225C574.933 168.906 574.954 160.344 571.855 154.359C570.296 151.347 567.952 149.003 564.838 147.586C561.733 146.173 557.929 145.711 553.481 146.342L553.762 148.322C557.922 147.732 561.326 148.185 564.01 149.407C566.685 150.624 568.71 152.634 570.079 155.278C572.836 160.603 572.945 168.557 570.059 177.618C564.303 195.691 546.791 217.584 516.719 229.945L517.479 231.794ZM553.481 146.342C549.074 146.968 539.946 149.541 528.164 153.497C516.351 157.463 501.793 162.846 486.483 169.13C455.889 181.687 422.193 197.883 401.428 213.603C396.231 217.538 391.819 221.461 388.463 225.309C385.112 229.15 382.767 232.968 381.781 236.695C380.785 240.458 381.183 244.104 383.271 247.492C385.337 250.845 389.005 253.861 394.392 256.526C405.152 261.849 423.116 265.937 450.169 268.34C477.249 270.746 513.535 271.47 561.008 270.002L560.947 268.003C513.516 269.469 477.317 268.744 450.346 266.348C423.347 263.95 405.692 259.884 395.279 254.733C390.078 252.16 386.77 249.359 384.974 246.443C383.198 243.562 382.846 240.487 383.714 237.207C384.592 233.89 386.726 230.342 389.97 226.624C393.207 222.912 397.505 219.082 402.636 215.198C423.181 199.644 456.672 183.528 487.242 170.98C502.514 164.712 517.032 159.344 528.801 155.393C540.601 151.431 549.562 148.919 553.762 148.322L553.481 146.342ZM561.008 270.002C589.588 269.119 612.013 265.172 628.35 259.078C644.664 252.993 655.055 244.709 659.3 235.047C663.573 225.318 661.498 214.479 653.53 203.622C645.576 192.784 631.693 181.825 612.076 171.66L611.156 173.435C630.628 183.526 644.216 194.311 651.918 204.805C659.605 215.281 661.37 225.362 657.469 234.243C653.538 243.19 643.74 251.203 627.651 257.204C611.587 263.196 589.396 267.124 560.947 268.003L561.008 270.002ZM185.277 475.001C176.27 474.5 160.247 470.905 147.788 466.183C141.544 463.817 136.315 461.212 133.31 458.644C131.799 457.352 130.979 456.178 130.754 455.165C130.551 454.252 130.794 453.288 131.911 452.224L130.532 450.776C129.024 452.212 128.415 453.857 128.802 455.599C129.167 457.242 130.379 458.769 132.011 460.164C135.292 462.968 140.795 465.672 147.08 468.054C159.679 472.828 175.906 476.483 185.166 476.998L185.277 475.001ZM131.911 452.224C132.744 451.431 133.414 451.076 133.916 450.971C134.369 450.876 134.745 450.969 135.114 451.258C135.519 451.576 135.942 452.158 136.325 453.079C136.704 453.99 137.015 455.165 137.239 456.582C138.138 462.274 137.557 471.373 135.048 481.343C130.019 501.327 117.429 524.171 94.4749 530.031L94.9696 531.969C119.016 525.83 131.902 502.04 136.987 481.831C139.535 471.705 140.17 462.319 139.214 456.27C138.974 454.752 138.629 453.413 138.172 452.312C137.719 451.222 137.127 450.294 136.348 449.684C135.534 449.045 134.559 448.792 133.505 449.013C132.499 449.224 131.506 449.848 130.532 450.776L131.911 452.224ZM401.352 195.896C412.731 252.686 414.538 325.622 385.621 382.748C371.174 411.287 349.058 435.887 316.604 452.586C284.141 469.289 241.272 478.119 185.277 475.001L185.166 476.998C241.422 480.131 284.665 471.269 317.519 454.364C350.383 437.454 372.787 412.529 387.405 383.651C416.617 325.944 414.73 252.479 403.313 195.503L401.352 195.896Z" fill="#46B4F2"/>
<path d="M424.197 1C384.074 45.7015 316.888 133.572 369.134 127.441C434.441 119.778 333.279 41.8699 302.546 127.441C271.813 213.013 503.59 129.996 431.88 76.354C360.17 22.7122 317.913 66.1365 326.877 127.441C335.84 188.746 402.428 179.806 424.197 165.757C445.966 151.708 451.088 105.729 399.867 87.8486" stroke="#46B4F2" stroke-width="2" stroke-linecap="round"/>
<path d="M412.721 80.6117L263.51 112.081C255.734 113.721 250.785 121.396 252.463 129.229L271.194 216.667C272.667 223.544 279.392 227.948 286.223 226.508L348.466 213.38L350.398 222.397L324.145 227.934C320.529 228.696 318.233 232.261 319.013 235.901C319.793 239.541 323.351 241.871 326.967 241.108L407.634 224.095C411.25 223.333 413.545 219.768 412.766 216.128C411.986 212.488 408.428 210.158 404.811 210.921L378.545 216.46C378.523 216.324 378.508 216.187 378.479 216.052L376.634 207.44L437.162 194.674C444.938 193.034 449.887 185.359 448.209 177.527L429.85 91.8239C428.165 83.9932 420.503 78.9705 412.721 80.6117Z" fill="#46B4F2"/>
<path d="M358.732 220.508L351.15 222.108C346.119 223.169 341.164 219.966 340.088 214.944L331.216 173.519C329.88 167.282 333.868 161.157 340.125 159.837L345.489 158.706C351.746 157.386 357.899 161.371 359.235 167.609L367.635 206.828C368.976 213.057 364.989 219.189 358.732 220.508Z" fill="white" stroke="#060606" stroke-width="2" stroke-miterlimit="10"/>
<path d="M308.937 229.084C308.168 225.489 310.461 221.964 314.064 221.203L394.428 204.233C398.031 203.472 401.569 205.766 402.338 209.361C403.107 212.957 400.814 216.482 397.211 217.243L316.847 234.213C313.25 234.966 309.705 232.673 308.937 229.084Z" fill="white" stroke="#060606" stroke-width="2" stroke-miterlimit="10"/>
<path d="M422.58 189.119L280.011 219.189C271.215 221.044 262.563 215.442 260.685 206.674L243.873 128.192C241.734 118.208 248.123 108.398 258.14 106.285L398.495 76.682C408.512 74.5692 418.37 80.9526 420.509 90.9373L436.846 167.205C438.986 177.196 432.597 187.006 422.58 189.119Z" fill="white" stroke="#060606" stroke-width="2" stroke-miterlimit="10"/>
<path d="M413.684 181.618L285.064 208.746C278.301 210.172 271.642 205.865 270.196 199.118L255.66 131.257C253.954 123.293 259.054 115.47 267.044 113.785L393.443 87.1252C401.433 85.4399 409.291 90.5291 410.997 98.4932L425.059 164.141C426.767 172.111 421.673 179.932 413.684 181.618Z" fill="white" stroke="#060606" stroke-width="2" stroke-miterlimit="10"/>
<path d="M275.026 200.998L259.228 127.168C257.912 121.018 261.843 114.975 268.006 113.674L263.74 114.575C257.577 115.876 253.645 121.919 254.961 128.069L270.761 201.905C271.875 207.112 277.012 210.442 282.231 209.34L286.497 208.439C281.271 209.536 276.14 206.204 275.026 200.998Z" fill="#060606"/>
<path fill-rule="evenodd" clip-rule="evenodd" d="M418.594 180.488C411.126 178.487 403.449 182.919 401.448 190.387L400.546 193.755C398.77 193.279 396.944 194.333 396.468 196.109L393.667 206.566C393.191 208.342 394.245 210.168 396.021 210.645L396.021 210.645C394.245 210.169 392.419 211.224 391.943 213L389.357 222.652C388.882 224.429 389.936 226.255 391.712 226.731L372.28 299.266C370.279 306.734 374.711 314.411 382.18 316.413L434.744 330.5C442.212 332.501 449.889 328.07 451.89 320.601L473.477 240.022C475.253 240.498 477.079 239.444 477.555 237.668L480.356 227.211C480.832 225.434 479.778 223.608 478.001 223.132L481.058 211.723C483.059 204.254 478.626 196.577 471.158 194.575L418.594 180.488Z" fill="#46B4F2"/>
<rect x="0.70714" y="1.2248" width="4.66012" height="15.4856" rx="2.33006" transform="matrix(0.965914 0.258864 -0.258774 0.965938 393.179 183.749)" fill="white" stroke="#060606" stroke-width="2"/>
<rect x="0.70714" y="1.2248" width="4.66012" height="15.4856" rx="2.33006" transform="matrix(0.965914 0.258864 -0.258774 0.965938 470.634 213.127)" fill="white" stroke="#060606" stroke-width="2"/>
<rect x="0.70714" y="1.2248" width="4.66012" height="14.653" rx="2.33006" transform="matrix(0.965914 0.258864 -0.258774 0.965938 388.655 200.64)" fill="white" stroke="#060606" stroke-width="2"/>
<rect x="0.70714" y="1.2248" width="80.419" height="138.718" rx="13" transform="matrix(0.965914 0.258864 -0.258774 0.965938 400.921 167.721)" fill="white" stroke="#060606" stroke-width="2"/>
<rect x="0.70714" y="1.2248" width="73.7589" height="132.056" rx="10" transform="matrix(0.965914 0.258864 -0.258774 0.965938 403.276 171.8)" fill="white" stroke="#060606" stroke-width="2"/>
<rect x="0.70714" y="1.2248" width="30.4677" height="2.99503" rx="1.49751" transform="matrix(0.965914 0.258864 -0.258774 0.965938 424.183 177.403)" fill="#060606" stroke="#060606" stroke-width="2"/>
<rect x="0.70714" y="1.2248" width="52.946" height="16.3183" rx="8.15914" transform="matrix(0.965914 0.258864 -0.258774 0.965938 385.345 277.336)" fill="white" stroke="#060606" stroke-width="2"/>
<ellipse rx="5.8276" ry="5.82854" transform="matrix(0.965914 0.258864 -0.258774 0.965938 426.578 298.162)" fill="#060606"/>
<path d="M419.545 217.024C419.152 216.919 418.843 216.741 418.617 216.492C418.392 216.243 418.249 215.945 418.19 215.598C418.133 215.249 418.156 214.873 418.26 214.469C418.374 214.06 418.545 213.721 418.773 213.451C419.001 213.178 419.274 212.993 419.593 212.895C419.912 212.794 420.266 212.796 420.654 212.9C421.05 213.006 421.368 213.194 421.608 213.466C421.85 213.737 421.981 214.056 422 214.42L421.434 214.447C421.405 214.188 421.308 213.968 421.142 213.787C420.979 213.603 420.769 213.478 420.514 213.409C420.227 213.332 419.971 213.335 419.748 213.417C419.524 213.497 419.336 213.641 419.181 213.851C419.027 214.06 418.908 214.317 418.824 214.62C418.704 215.089 418.711 215.495 418.847 215.836C418.984 216.176 419.262 216.401 419.682 216.514C419.947 216.585 420.189 216.585 420.407 216.514C420.628 216.442 420.818 216.301 420.978 216.093L421.47 216.396C421.233 216.704 420.949 216.913 420.62 217.021C420.292 217.127 419.934 217.128 419.545 217.024Z" fill="#060606"/>
<path d="M421.961 217.555L423.007 213.647L423.485 213.775L423.233 214.716L423.172 214.567C423.246 214.463 423.332 214.372 423.427 214.295C423.524 214.214 423.621 214.154 423.72 214.113C423.846 214.051 423.982 214.015 424.129 214.006C424.277 213.994 424.421 214.002 424.56 214.032C424.7 214.059 424.823 214.102 424.929 214.162L424.795 214.661C424.663 214.587 424.509 214.537 424.335 214.511C424.161 214.485 423.987 214.511 423.814 214.588C423.657 214.655 423.526 214.75 423.423 214.875C423.32 214.998 423.237 215.136 423.173 215.289C423.109 215.44 423.056 215.593 423.015 215.747L422.492 217.698L421.961 217.555Z" fill="#060606"/>
<path d="M426.122 218.787C425.741 218.685 425.433 218.512 425.199 218.268C424.967 218.024 424.814 217.729 424.742 217.381C424.67 217.033 424.689 216.653 424.799 216.241C424.914 215.814 425.089 215.465 425.324 215.195C425.559 214.924 425.837 214.741 426.157 214.646C426.48 214.552 426.829 214.555 427.206 214.656C427.592 214.759 427.897 214.937 428.122 215.188C428.347 215.437 428.486 215.746 428.537 216.114C428.589 216.482 428.547 216.893 428.412 217.349L427.869 217.203L427.92 217.015C428.046 216.506 428.038 216.094 427.898 215.78C427.759 215.466 427.49 215.255 427.089 215.148C426.67 215.036 426.311 215.086 426.014 215.298C425.719 215.511 425.504 215.87 425.369 216.374C425.237 216.866 425.245 217.278 425.394 217.61C425.546 217.941 425.827 218.161 426.237 218.271C426.517 218.346 426.778 218.347 427.02 218.275C427.264 218.201 427.48 218.058 427.666 217.847L428.11 218.171C427.865 218.47 427.566 218.673 427.214 218.781C426.865 218.886 426.501 218.888 426.122 218.787ZM425.141 216.472L425.26 216.027L428.245 216.827L428.126 217.272L425.141 216.472Z" fill="#060606"/>
<path d="M429.75 219.759C429.455 219.68 429.222 219.561 429.05 219.401C428.881 219.242 428.77 219.061 428.719 218.858C428.667 218.655 428.669 218.45 428.725 218.243C428.781 218.031 428.872 217.861 428.997 217.734C429.124 217.605 429.274 217.513 429.447 217.455C429.623 217.399 429.815 217.372 430.024 217.373C430.235 217.378 430.464 217.394 430.713 217.422C430.965 217.448 431.208 217.479 431.445 217.514C431.684 217.547 431.894 217.573 432.075 217.593L431.856 217.659C431.966 217.275 431.968 216.969 431.861 216.741C431.754 216.513 431.506 216.347 431.118 216.243C430.85 216.171 430.607 216.171 430.389 216.242C430.174 216.313 429.993 216.469 429.849 216.71L429.372 216.419C429.555 216.093 429.808 215.87 430.129 215.749C430.451 215.629 430.828 215.626 431.26 215.742C431.617 215.838 431.902 215.987 432.114 216.188C432.329 216.388 432.455 216.629 432.491 216.91C432.509 217.036 432.506 217.171 432.483 217.315C432.46 217.459 432.429 217.603 432.39 217.748L431.74 220.176L431.266 220.049L431.529 219.068L431.651 219.163C431.428 219.463 431.153 219.663 430.826 219.764C430.499 219.865 430.14 219.864 429.75 219.759ZM429.934 219.316C430.183 219.382 430.412 219.396 430.621 219.356C430.831 219.317 431.013 219.235 431.168 219.111C431.323 218.985 431.444 218.828 431.53 218.642C431.593 218.524 431.645 218.391 431.688 218.242C431.731 218.091 431.763 217.978 431.783 217.903L431.957 218.062C431.77 218.038 431.567 218.009 431.348 217.976C431.132 217.944 430.917 217.916 430.703 217.893C430.492 217.87 430.299 217.858 430.123 217.858C430.004 217.859 429.884 217.875 429.765 217.905C429.647 217.933 429.541 217.985 429.448 218.061C429.358 218.137 429.294 218.246 429.256 218.386C429.226 218.499 429.224 218.616 429.251 218.737C429.281 218.859 429.349 218.971 429.456 219.075C429.565 219.179 429.724 219.259 429.934 219.316Z" fill="#060606"/>
<path d="M434.81 220.999C434.578 220.986 434.356 220.945 434.144 220.878C433.934 220.812 433.756 220.715 433.609 220.588C433.464 220.461 433.372 220.299 433.332 220.102C433.301 219.939 433.301 219.782 433.333 219.633C433.368 219.482 433.412 219.312 433.463 219.121L434.421 215.542L434.95 215.684L433.997 219.241C433.953 219.405 433.917 219.543 433.89 219.654C433.866 219.764 433.865 219.868 433.888 219.964C433.932 220.149 434.044 220.283 434.223 220.364C434.405 220.447 434.643 220.503 434.935 220.532L434.81 220.999ZM433.173 216.86L433.295 216.404L435.857 217.09L435.735 217.546L433.173 216.86Z" fill="#060606"/>
<path d="M436.898 216.574L437.058 215.977L437.59 216.12L437.43 216.717L436.898 216.574ZM435.652 221.224L436.699 217.316L437.231 217.459L436.184 221.367L435.652 221.224Z" fill="#060606"/>
<path d="M440.091 222.414L440.625 220.42C440.684 220.203 440.716 219.998 440.724 219.807C440.732 219.612 440.708 219.435 440.653 219.276C440.6 219.114 440.512 218.977 440.387 218.863C440.265 218.75 440.101 218.666 439.896 218.611C439.708 218.561 439.533 218.549 439.371 218.575C439.211 218.602 439.065 218.664 438.933 218.76C438.804 218.855 438.691 218.983 438.594 219.143C438.497 219.303 438.419 219.494 438.359 219.716L438.005 219.532C438.112 219.131 438.272 218.813 438.485 218.578C438.698 218.343 438.947 218.189 439.23 218.115C439.514 218.041 439.815 218.046 440.133 218.132C440.367 218.194 440.561 218.285 440.716 218.404C440.872 218.524 440.994 218.661 441.082 218.817C441.172 218.973 441.233 219.14 441.265 219.32C441.298 219.496 441.308 219.679 441.294 219.866C441.28 220.051 441.25 220.232 441.203 220.408L440.627 222.558L440.091 222.414ZM437.265 221.657L438.312 217.748L438.793 217.877L438.536 218.84L438.59 218.855L437.801 221.8L437.265 221.657Z" fill="#060606"/>
<circle cx="309.995" cy="303.247" r="34.0053" fill="#46B4F2"/>
<ellipse cx="304.885" cy="298.861" rx="31.8846" ry="31.8614" fill="white" stroke="#060606" stroke-width="2"/>
<mask id="path-21-inside-1_309_334" fill="white">
<path fill-rule="evenodd" clip-rule="evenodd" d="M304.763 291.663C311.071 291.663 316.739 288.92 320.639 284.563C324.012 288.331 326.063 293.307 326.063 298.763C326.063 304.4 323.873 309.526 320.297 313.336C316.411 309.196 310.889 306.61 304.763 306.61C298.637 306.61 293.115 309.196 289.229 313.336C285.653 309.526 283.463 304.4 283.463 298.763C283.463 293.307 285.514 288.331 288.887 284.563C292.787 288.92 298.455 291.663 304.763 291.663Z"/>
</mask>
<path d="M320.639 284.563L322.13 283.229L320.639 281.564L319.149 283.229L320.639 284.563ZM320.297 313.336L318.839 314.705L320.297 316.259L321.755 314.705L320.297 313.336ZM289.229 313.336L287.771 314.705L289.229 316.259L290.687 314.705L289.229 313.336ZM288.887 284.563L290.377 283.229L288.887 281.564L287.396 283.229L288.887 284.563ZM319.149 283.229C315.612 287.181 310.479 289.663 304.763 289.663V293.663C311.664 293.663 317.866 290.66 322.13 285.897L319.149 283.229ZM328.063 298.763C328.063 292.796 325.818 287.35 322.13 283.229L319.149 285.897C322.206 289.312 324.063 293.818 324.063 298.763H328.063ZM321.755 314.705C325.665 310.539 328.063 304.929 328.063 298.763H324.063C324.063 303.872 322.08 308.514 318.839 311.968L321.755 314.705ZM304.763 308.61C310.314 308.61 315.315 310.951 318.839 314.705L321.755 311.968C317.507 307.442 311.464 304.61 304.763 304.61V308.61ZM290.687 314.705C294.211 310.951 299.212 308.61 304.763 308.61V304.61C298.062 304.61 292.019 307.442 287.771 311.968L290.687 314.705ZM281.463 298.763C281.463 304.929 283.861 310.539 287.771 314.705L290.687 311.968C287.446 308.514 285.463 303.872 285.463 298.763H281.463ZM287.396 283.229C283.708 287.35 281.463 292.796 281.463 298.763H285.463C285.463 293.818 287.32 289.312 290.377 285.897L287.396 283.229ZM304.763 289.663C299.047 289.663 293.914 287.181 290.377 283.229L287.396 285.897C291.66 290.66 297.862 293.663 304.763 293.663V289.663Z" fill="#060606" mask="url(#path-21-inside-1_309_334)"/>
<circle cx="304.763" cy="298.763" r="20.3" stroke="#060606" stroke-width="2"/>
<path d="M313.105 298.763C313.105 304.54 312.076 309.722 310.453 313.423C309.641 315.275 308.7 316.71 307.705 317.669C306.716 318.624 305.723 319.063 304.763 319.063C303.803 319.063 302.811 318.624 301.821 317.669C300.827 316.71 299.885 315.275 299.073 313.423C297.45 309.722 296.421 304.54 296.421 298.763C296.421 292.986 297.45 287.804 299.073 284.103C299.885 282.252 300.827 280.816 301.821 279.857C302.811 278.902 303.803 278.463 304.763 278.463C305.723 278.463 306.716 278.902 307.705 279.857C308.7 280.816 309.641 282.252 310.453 284.103C312.076 287.804 313.105 292.986 313.105 298.763Z" stroke="#060606" stroke-width="2"/>
<rect x="284.211" y="298.389" width="41.1053" height="1.49474" fill="#060606"/>
</svg>
