<svg width="385" height="518" viewBox="0 0 385 518" fill="none" xmlns="http://www.w3.org/2000/svg">
<path d="M140.591 1C100.468 45.7015 33.2826 133.572 85.5283 127.441C150.835 119.778 49.673 41.8699 18.9402 127.441C-11.7925 213.013 219.984 129.996 148.274 76.354C76.5642 22.7122 34.3072 66.1365 43.2709 127.441C52.2346 188.746 118.822 179.806 140.591 165.757C162.36 151.708 167.482 105.729 116.261 87.8486" stroke="#46B4F2" stroke-linecap="round"/>
<path d="M139.514 167.125C139.837 165.963 139.459 164.736 138.603 163.747C139.846 163.341 140.801 162.488 141.125 161.321C141.707 159.225 140.017 156.928 137.353 156.189C134.689 155.45 132.056 156.552 131.474 158.649C131.151 159.812 131.529 161.038 132.384 162.027C131.142 162.433 130.187 163.286 129.863 164.453C129.54 165.616 129.918 166.842 130.773 167.831C129.531 168.237 128.576 169.09 128.252 170.257C127.929 171.42 128.307 172.646 129.162 173.635C127.92 174.041 126.964 174.894 126.641 176.061C126.318 177.224 126.696 178.45 127.551 179.439C126.309 179.845 125.353 180.698 125.03 181.865C124.707 183.027 125.085 184.254 125.94 185.243C124.697 185.649 123.742 186.502 123.419 187.669C123.096 188.831 123.474 190.058 124.329 191.046C123.086 191.453 122.131 192.306 121.808 193.473C121.485 194.635 121.863 195.862 122.718 196.85C121.475 197.257 120.52 198.11 120.197 199.277C119.874 200.439 120.252 201.666 121.107 202.654C119.864 203.061 118.909 203.914 118.586 205.081C118.004 207.177 119.693 209.474 122.357 210.213C125.022 210.952 127.655 209.85 128.236 207.757C128.558 206.594 128.181 205.368 127.325 204.379C128.568 203.972 129.523 203.119 129.847 201.953C130.169 200.79 129.792 199.564 128.936 198.575C130.179 198.168 131.134 197.315 131.458 196.149C131.78 194.986 131.403 193.76 130.547 192.771C131.79 192.364 132.745 191.511 133.069 190.345C133.392 189.182 133.014 187.956 132.158 186.967C133.401 186.56 134.356 185.707 134.68 184.541C135.003 183.378 134.625 182.152 133.769 181.163C135.012 180.756 135.967 179.903 136.291 178.737C136.614 177.574 136.236 176.348 135.38 175.359C136.623 174.952 137.578 174.099 137.902 172.933C138.225 171.77 137.847 170.544 136.991 169.555C138.235 169.145 139.191 168.288 139.514 167.125Z" fill="#060606" stroke="#060606" stroke-miterlimit="10"/>
<path d="M170.077 232.266L128.479 220.73C125.844 219.999 124.294 217.293 125.017 214.686L139.844 161.27C140.568 158.663 143.292 157.141 145.927 157.872L187.528 169.409C190.163 170.14 191.713 172.847 190.99 175.454L176.163 228.87C175.436 231.476 172.712 232.997 170.077 232.266Z" fill="#46B4F2"/>
<path d="M134.045 164.476C136.045 164.99 138.176 163.709 138.805 161.615C139.435 159.521 138.323 157.407 136.323 156.894C134.323 156.38 132.192 157.661 131.563 159.754C130.934 161.848 132.045 163.962 134.045 164.476Z" fill="#46B4F2"/>
<path d="M132.471 170.148C134.471 170.662 136.603 169.381 137.232 167.287C137.861 165.193 136.75 163.079 134.749 162.566C132.749 162.052 130.618 163.333 129.989 165.426C129.36 167.52 130.471 169.634 132.471 170.148Z" fill="#46B4F2"/>
<path d="M130.896 175.82C132.896 176.334 135.027 175.053 135.656 172.959C136.285 170.866 135.174 168.752 133.174 168.238C131.174 167.724 129.043 169.005 128.413 171.099C127.784 173.192 128.896 175.306 130.896 175.82Z" fill="#46B4F2"/>
<path d="M129.323 181.489C131.323 182.002 133.454 180.722 134.084 178.628C134.713 176.534 133.601 174.42 131.601 173.906C129.601 173.393 127.47 174.673 126.841 176.767C126.212 178.861 127.323 180.975 129.323 181.489Z" fill="#46B4F2"/>
<path d="M127.748 187.161C129.748 187.675 131.879 186.394 132.509 184.3C133.138 182.206 132.026 180.093 130.026 179.579C128.026 179.065 125.895 180.346 125.266 182.44C124.637 184.533 125.748 186.647 127.748 187.161Z" fill="#46B4F2"/>
<path d="M126.174 192.832C128.174 193.346 130.305 192.065 130.934 189.972C131.563 187.878 130.452 185.764 128.452 185.25C126.452 184.736 124.321 186.017 123.691 188.111C123.062 190.205 124.174 192.319 126.174 192.832Z" fill="#46B4F2"/>
<path d="M124.601 198.501C126.601 199.015 128.732 197.734 129.361 195.64C129.99 193.546 128.879 191.432 126.879 190.919C124.879 190.405 122.747 191.686 122.118 193.779C121.489 195.873 122.6 197.987 124.601 198.501Z" fill="#46B4F2"/>
<path d="M123.026 204.173C125.026 204.687 127.158 203.406 127.787 201.312C128.416 199.219 127.305 197.105 125.304 196.591C123.304 196.077 121.173 197.358 120.544 199.452C119.915 201.546 121.026 203.659 123.026 204.173Z" fill="#46B4F2"/>
<path d="M121.452 209.842C123.452 210.356 125.584 209.075 126.213 206.981C126.842 204.888 125.731 202.774 123.731 202.26C121.731 201.746 119.599 203.027 118.97 205.121C118.341 207.214 119.452 209.328 121.452 209.842Z" fill="#46B4F2"/>
<path d="M133.837 162.003C135.837 162.517 137.969 161.236 138.598 159.142C139.227 157.049 138.116 154.935 136.116 154.421C134.116 153.907 131.984 155.188 131.355 157.282C130.726 159.376 131.837 161.489 133.837 162.003Z" stroke="white" stroke-miterlimit="10"/>
<path d="M132.264 167.675C134.264 168.189 136.395 166.908 137.024 164.814C137.653 162.721 136.542 160.607 134.542 160.093C132.542 159.579 130.411 160.86 129.781 162.954C129.152 165.047 130.264 167.161 132.264 167.675Z" stroke="white" stroke-miterlimit="10"/>
<path d="M130.688 173.347C132.688 173.861 134.819 172.58 135.449 170.487C136.078 168.393 134.966 166.279 132.966 165.765C130.966 165.251 128.835 166.532 128.206 168.626C127.577 170.72 128.688 172.834 130.688 173.347Z" stroke="white" stroke-miterlimit="10"/>
<path d="M129.115 179.016C131.115 179.53 133.247 178.249 133.876 176.155C134.505 174.061 133.394 171.948 131.394 171.434C129.394 170.92 127.262 172.201 126.633 174.295C126.004 176.388 127.115 178.502 129.115 179.016Z" stroke="white" stroke-miterlimit="10"/>
<path d="M127.541 184.688C129.541 185.202 131.672 183.921 132.301 181.827C132.93 179.734 131.819 177.62 129.819 177.106C127.819 176.592 125.687 177.873 125.058 179.967C124.429 182.061 125.54 184.174 127.541 184.688Z" stroke="white" stroke-miterlimit="10"/>
<path d="M125.966 190.36C127.966 190.873 130.098 189.593 130.727 187.499C131.356 185.405 130.245 183.291 128.245 182.777C126.245 182.264 124.113 183.544 123.484 185.638C122.855 187.732 123.966 189.846 125.966 190.36Z" stroke="white" stroke-miterlimit="10"/>
<path d="M124.393 196.028C126.393 196.542 128.524 195.261 129.154 193.167C129.783 191.074 128.671 188.96 126.671 188.446C124.671 187.932 122.54 189.213 121.911 191.307C121.282 193.4 122.393 195.514 124.393 196.028Z" stroke="white" stroke-miterlimit="10"/>
<path d="M122.819 201.7C124.819 202.214 126.95 200.933 127.579 198.84C128.208 196.746 127.097 194.632 125.097 194.118C123.097 193.604 120.966 194.885 120.336 196.979C119.707 199.073 120.819 201.187 122.819 201.7Z" stroke="white" stroke-miterlimit="10"/>
<path d="M121.245 207.369C123.245 207.883 125.376 206.602 126.005 204.509C126.635 202.415 125.523 200.301 123.523 199.787C121.523 199.273 119.392 200.554 118.763 202.648C118.134 204.742 119.245 206.856 121.245 207.369Z" stroke="white" stroke-miterlimit="10"/>
<path d="M166.562 225.249L125.377 213.828C122.768 213.104 121.239 210.404 121.963 207.797L136.79 154.381C137.513 151.774 140.216 150.246 142.825 150.97L184.013 162.392C186.622 163.116 188.15 165.817 187.427 168.423L172.6 221.84C171.873 224.446 169.17 225.973 166.562 225.249Z" fill="white" stroke="#060606" stroke-miterlimit="10"/>
<path d="M177.777 170.061L143.76 160.712L143.437 161.865L177.454 171.215L177.777 170.061Z" fill="#060606"/>
<path d="M176.816 173.527L142.799 164.178L142.477 165.331L176.494 174.68L176.816 173.527Z" fill="#060606"/>
<path d="M175.608 177.882L141.591 168.533L141.268 169.686L175.286 179.035L175.608 177.882Z" fill="#060606"/>
<path d="M102.886 219.325L102.476 219.61L102.494 219.637L102.516 219.662L102.886 219.325ZM81.6392 168.05L81.3922 168.484L81.3922 168.484L81.6392 168.05ZM122.617 138.343L122.129 138.454L122.617 138.343ZM72.4237 123.187C72.3462 123.452 72.4983 123.729 72.7634 123.807C73.0284 123.884 73.3061 123.732 73.3835 123.467L72.4237 123.187ZM256.592 285.471L256.158 285.721L256.592 285.471ZM102.516 219.662C103.204 220.417 103.847 220.959 104.449 221.281C105.052 221.605 105.655 221.727 106.218 221.56C106.782 221.392 107.199 220.968 107.497 220.422C107.794 219.879 107.997 219.176 108.123 218.362C108.626 215.122 107.987 209.611 106.241 203.346C102.747 190.811 94.7165 174.903 81.8862 167.615L81.3922 168.484C93.8801 175.578 101.81 191.173 105.278 203.614C107.012 209.837 107.605 215.182 107.135 218.209C107.018 218.961 106.84 219.539 106.62 219.942C106.4 220.344 106.162 220.533 105.934 220.601C105.706 220.669 105.381 220.646 104.921 220.4C104.459 220.152 103.903 219.7 103.256 218.989L102.516 219.662ZM81.8862 167.615C79.3165 166.155 76.1231 165.935 72.6785 166.644C69.2318 167.352 65.4906 168.998 61.7735 171.33C54.34 175.994 46.9258 183.455 42.0633 191.886C37.2039 200.312 34.8536 209.78 37.6903 218.417C40.5332 227.073 48.5348 234.745 64.0492 239.671L64.3518 238.718C49.0197 233.849 41.3483 226.35 38.6404 218.105C35.9262 209.841 38.1472 200.677 42.9296 192.386C47.7088 184.099 55.007 176.756 62.305 172.177C65.9535 169.888 69.5828 168.301 72.8799 167.623C76.1791 166.945 79.1029 167.184 81.3922 168.484L81.8862 167.615ZM64.0492 239.671C79.5504 244.593 91.2697 243.898 99.8419 239.579C108.416 235.26 113.748 227.364 116.571 218.08C119.393 208.801 119.722 198.1 118.27 188.085C116.819 178.073 113.582 168.7 109.232 162.081L108.396 162.63C112.646 169.096 115.844 178.32 117.281 188.229C118.716 198.135 118.384 208.682 115.614 217.789C112.845 226.894 107.654 234.524 99.392 238.686C91.1279 242.85 79.6971 243.591 64.3518 238.718L64.0492 239.671ZM109.232 162.081C100.557 148.884 88.4767 142.477 79.1918 141.376C74.5618 140.827 70.5507 141.59 68.0296 143.59C66.7608 144.596 65.8769 145.911 65.4986 147.504C65.1213 149.092 65.2545 150.921 65.9577 152.951L66.9026 152.624C66.2468 150.731 66.1476 149.098 66.4715 147.735C66.7942 146.376 67.5449 145.25 68.651 144.373C70.8795 142.606 74.5788 141.836 79.074 142.369C88.0398 143.433 99.8689 149.657 108.396 162.63L109.232 162.081ZM65.9577 152.951C66.6543 154.963 68.6934 159.01 71.6208 164.174C74.5563 169.353 78.4052 175.69 82.744 182.298C91.4139 195.503 102.069 209.834 111.319 218.147C113.635 220.228 115.873 221.943 117.981 223.169C120.084 224.393 122.086 225.149 123.924 225.275C125.779 225.402 127.454 224.884 128.852 223.594C130.235 222.318 131.31 220.321 132.063 217.554C133.566 212.025 133.831 203.232 132.477 190.335C131.122 177.424 128.137 160.351 123.104 138.233L122.129 138.454C127.157 160.552 130.133 177.583 131.483 190.44C132.834 203.31 132.55 211.949 131.098 217.291C130.372 219.959 129.367 221.758 128.174 222.859C126.996 223.946 125.598 224.387 123.992 224.277C122.367 224.166 120.517 223.488 118.484 222.305C116.454 221.124 114.272 219.457 111.988 217.404C102.84 209.182 92.2429 194.943 83.58 181.749C79.2524 175.158 75.4149 168.839 72.4908 163.681C69.5586 158.508 67.565 154.537 66.9026 152.624L65.9577 152.951ZM123.104 138.233C120.074 124.916 116.176 114.76 111.831 107.651C107.492 100.553 102.665 96.4252 97.7523 95.3072C92.8032 94.1808 87.9189 96.139 83.5705 100.859C79.2302 105.571 75.3786 113.072 72.4237 123.187L73.3835 123.467C76.3157 113.43 80.1104 106.091 84.3059 101.537C88.4933 96.9914 93.0343 95.259 97.5304 96.2822C102.063 97.3137 106.701 101.176 110.977 108.172C115.247 115.158 119.114 125.201 122.129 138.454L123.104 138.233ZM256.158 285.721C265.541 302.016 262.879 318.299 256.989 328.84C254.038 334.12 250.305 337.912 246.923 339.56C245.235 340.383 243.675 340.653 242.355 340.361C241.052 340.072 239.911 339.22 239.068 337.644L238.186 338.116C239.145 339.909 240.51 340.976 242.138 341.337C243.749 341.694 245.546 341.344 247.361 340.459C250.988 338.692 254.851 334.716 257.862 329.328C263.894 318.531 266.61 301.87 257.025 285.222L256.158 285.721ZM239.068 337.644C238.885 337.302 238.831 336.993 238.868 336.705C238.907 336.414 239.044 336.105 239.313 335.779C239.862 335.114 240.903 334.443 242.446 333.824C245.516 332.592 250.344 331.652 256.41 331.229C268.528 330.384 285.446 331.612 302.789 336.557C320.131 341.502 337.868 350.156 351.659 364.14C365.442 378.115 375.306 397.436 376.882 423.768L377.88 423.709C376.289 397.136 366.325 377.586 352.371 363.438C338.426 349.297 320.519 340.573 303.063 335.595C285.607 330.618 268.573 329.378 256.341 330.231C250.231 330.657 245.284 331.608 242.073 332.896C240.476 333.537 239.25 334.284 238.542 335.143C238.182 335.579 237.945 336.058 237.877 336.575C237.809 337.097 237.918 337.615 238.186 338.116L239.068 337.644ZM103.297 219.04C102.359 217.69 101.989 216.526 102.046 215.539C102.101 214.567 102.575 213.688 103.493 212.905C105.365 211.308 108.986 210.199 114.057 209.733C124.152 208.807 139.587 210.464 156.94 215.261C191.649 224.855 233.837 246.951 256.158 285.721L257.025 285.222C234.521 246.135 192.048 223.927 157.206 214.297C139.785 209.481 124.222 207.796 113.965 208.738C108.86 209.206 104.967 210.334 102.844 212.144C101.765 213.065 101.122 214.182 101.047 215.482C100.974 216.768 101.462 218.152 102.476 219.61L103.297 219.04Z" fill="#46B4F2"/>
<path d="M194.904 234.741C201.179 230.858 204.463 223.192 202.465 215.683C200.023 206.502 190.615 201.042 181.449 203.486C172.284 205.93 166.834 215.352 169.276 224.532C171.273 232.038 177.931 237.057 185.304 237.301C185.788 238.185 186.514 238.889 187.373 239.352L193.138 269.398C193.794 271.864 196.768 273.211 199.783 272.407C202.798 271.603 204.709 268.954 204.053 266.488L193.913 237.874C194.567 236.977 194.924 235.883 194.904 234.741Z" fill="#46B4F2"/>
<path d="M194.234 266.425C191.334 267.198 188.472 265.902 187.842 263.532L181.78 231.95C181.149 229.58 180.84 227.758 183.739 226.985C186.639 226.212 186.994 228.127 187.625 230.498L198.34 260.73C198.969 263.104 197.13 265.653 194.234 266.425Z" fill="white" stroke="#060606" stroke-miterlimit="10"/>
<path d="M185.876 235.006C188.507 234.304 190.071 231.6 189.37 228.965C188.67 226.331 185.969 224.764 183.339 225.465C180.709 226.167 179.144 228.871 179.845 231.506C180.546 234.14 183.246 235.707 185.876 235.006Z" fill="white" stroke="#060606" stroke-miterlimit="10"/>
<path d="M185.092 232.074C193.912 229.723 199.157 220.655 196.807 211.821C194.458 202.988 185.403 197.733 176.583 200.085C167.764 202.437 162.519 211.505 164.868 220.338C167.218 229.172 176.272 234.426 185.092 232.074Z" fill="white" stroke="#060606" stroke-miterlimit="10"/>
<path d="M183.726 226.941C189.715 225.344 193.277 219.186 191.681 213.188C190.086 207.19 183.938 203.622 177.949 205.219C171.96 206.816 168.399 212.973 169.994 218.972C171.589 224.97 177.738 228.538 183.726 226.941Z" fill="white" stroke="#060606" stroke-miterlimit="10"/>
<path d="M184.305 225.219C178.315 226.817 172.167 223.249 170.572 217.25C170.065 215.343 170.079 213.423 170.528 211.633C169.567 213.868 169.317 216.43 169.991 218.966C171.587 224.965 177.735 228.533 183.725 226.936C187.811 225.846 190.765 222.634 191.724 218.799C190.41 221.855 187.763 224.297 184.305 225.219Z" fill="#060606"/>
<path fill-rule="evenodd" clip-rule="evenodd" d="M239.628 162.637C239.629 162.638 239.63 162.64 239.63 162.641C239.631 162.642 239.632 162.643 239.632 162.644L239.787 162.917L239.764 162.93C240.881 165.957 234.892 172.26 226.032 177.282C217.172 182.304 208.687 184.204 206.664 181.691L206.641 181.704L203.823 176.732L203.846 176.719C202.729 173.692 208.718 167.388 217.578 162.366C226.439 157.344 234.923 155.445 236.947 157.958L236.969 157.945L237.11 158.194C237.115 158.203 237.121 158.212 237.126 158.221C237.131 158.23 237.136 158.24 237.141 158.249L239.628 162.637Z" fill="#46B4F2"/>
<mask id="path-34-inside-1_310_336" fill="white">
<path fill-rule="evenodd" clip-rule="evenodd" d="M236.269 160.015C236.269 160.016 236.27 160.017 236.271 160.018C236.271 160.019 236.272 160.02 236.272 160.022L236.427 160.294L236.405 160.307C237.521 163.334 231.532 169.638 222.672 174.66C213.812 179.681 205.328 181.581 203.304 179.068L203.281 179.081L200.463 174.109L200.486 174.096C199.37 171.069 205.358 164.766 214.218 159.744C223.079 154.722 231.563 152.822 233.587 155.335L233.609 155.323L233.75 155.571C233.755 155.58 233.761 155.589 233.766 155.599C233.771 155.608 233.776 155.617 233.781 155.626L236.269 160.015Z"/>
</mask>
<path fill-rule="evenodd" clip-rule="evenodd" d="M236.269 160.015C236.269 160.016 236.27 160.017 236.271 160.018C236.271 160.019 236.272 160.02 236.272 160.022L236.427 160.294L236.405 160.307C237.521 163.334 231.532 169.638 222.672 174.66C213.812 179.681 205.328 181.581 203.304 179.068L203.281 179.081L200.463 174.109L200.486 174.096C199.37 171.069 205.358 164.766 214.218 159.744C223.079 154.722 231.563 152.822 233.587 155.335L233.609 155.323L233.75 155.571C233.755 155.58 233.761 155.589 233.766 155.599C233.771 155.608 233.776 155.617 233.781 155.626L236.269 160.015Z" fill="white"/>
<path d="M236.269 160.015L235.399 160.508L236.269 160.015ZM236.272 160.022L235.402 160.515L236.272 160.022ZM236.427 160.294L236.92 161.164L237.79 160.671L237.297 159.801L236.427 160.294ZM236.405 160.307L235.911 159.437L235.172 159.856L235.466 160.653L236.405 160.307ZM203.304 179.068L204.083 178.441L203.55 177.779L202.811 178.198L203.304 179.068ZM203.281 179.081L202.411 179.574L202.904 180.444L203.774 179.951L203.281 179.081ZM200.463 174.109L199.97 173.239L199.1 173.732L199.593 174.602L200.463 174.109ZM200.486 174.096L200.979 174.966L201.718 174.547L201.424 173.75L200.486 174.096ZM233.587 155.335L232.808 155.962L233.341 156.624L234.08 156.205L233.587 155.335ZM233.609 155.323L234.479 154.83L233.986 153.96L233.116 154.453L233.609 155.323ZM233.75 155.571L232.88 156.064L232.884 156.071L232.888 156.078L233.75 155.571ZM233.781 155.626L232.904 156.105L232.907 156.112L232.911 156.12L233.781 155.626ZM237.141 159.525C237.14 159.524 237.139 159.523 237.139 159.522C237.138 159.521 237.138 159.522 237.139 159.522L235.399 160.508C235.399 160.509 235.4 160.51 235.4 160.511C235.401 160.512 235.401 160.511 235.401 160.511L237.141 159.525ZM237.142 159.528C237.143 159.529 237.143 159.529 237.142 159.528C237.142 159.528 237.141 159.526 237.141 159.525L235.401 160.511C235.4 160.511 235.4 160.511 235.401 160.512C235.401 160.512 235.402 160.513 235.402 160.515L237.142 159.528ZM235.402 160.515L235.557 160.788L237.297 159.801L237.142 159.528L235.402 160.515ZM235.934 159.424L235.911 159.437L236.898 161.177L236.92 161.164L235.934 159.424ZM223.165 175.529C227.658 172.983 231.455 170.095 234.003 167.426C235.274 166.094 236.268 164.783 236.872 163.565C237.463 162.372 237.762 161.099 237.343 159.961L235.466 160.653C235.605 161.029 235.574 161.679 235.08 162.677C234.598 163.648 233.75 164.794 232.556 166.045C230.174 168.54 226.546 171.314 222.179 173.79L223.165 175.529ZM202.525 179.695C203.286 180.64 204.532 181.037 205.859 181.143C207.214 181.25 208.85 181.071 210.645 180.665C214.244 179.85 218.672 178.076 223.165 175.529L222.179 173.79C217.812 176.265 213.567 177.952 210.203 178.714C208.517 179.096 207.098 179.235 206.017 179.149C204.907 179.061 204.334 178.753 204.083 178.441L202.525 179.695ZM202.811 178.198L202.788 178.211L203.774 179.951L203.797 179.938L202.811 178.198ZM204.151 178.588L201.333 173.616L199.593 174.602L202.411 179.574L204.151 178.588ZM200.956 174.979L200.979 174.966L199.993 173.226L199.97 173.239L200.956 174.979ZM213.725 158.874C209.232 161.42 205.436 164.308 202.888 166.978C201.616 168.309 200.623 169.62 200.019 170.839C199.428 172.031 199.128 173.305 199.548 174.442L201.424 173.75C201.286 173.374 201.316 172.725 201.811 171.727C202.292 170.755 203.14 169.609 204.334 168.359C206.716 165.864 210.344 163.089 214.712 160.614L213.725 158.874ZM234.366 154.708C233.605 153.764 232.359 153.366 231.032 153.261C229.677 153.153 228.041 153.332 226.246 153.739C222.647 154.554 218.218 156.327 213.725 158.874L214.712 160.614C219.079 158.138 223.323 156.451 226.687 155.689C228.373 155.307 229.792 155.169 230.874 155.255C231.984 155.343 232.557 155.65 232.808 155.962L234.366 154.708ZM234.08 156.205L234.102 156.193L233.116 154.453L233.094 154.465L234.08 156.205ZM232.739 155.816L232.88 156.064L234.62 155.078L234.479 154.83L232.739 155.816ZM234.636 155.106C234.628 155.092 234.62 155.078 234.612 155.064L232.888 156.078C232.891 156.083 232.893 156.087 232.896 156.092L234.636 155.106ZM234.659 155.148C234.652 155.134 234.644 155.12 234.636 155.106L232.896 156.092C232.898 156.096 232.901 156.101 232.904 156.105L234.659 155.148ZM232.911 156.12L235.399 160.508L237.139 159.522L234.651 155.133L232.911 156.12Z" fill="#060606" mask="url(#path-34-inside-1_310_336)"/>
<path d="M233.018 155.293C233.315 155.817 233.306 156.585 232.85 157.627C232.399 158.659 231.547 159.865 230.336 161.168C227.919 163.771 224.153 166.677 219.608 169.253C215.064 171.829 210.636 173.567 207.161 174.304C205.421 174.673 203.948 174.784 202.831 174.642C201.703 174.498 201.039 174.111 200.742 173.587C200.445 173.062 200.454 172.294 200.91 171.253C201.361 170.221 202.214 169.015 203.424 167.711C205.842 165.108 209.608 162.202 214.152 159.627C218.697 157.051 223.125 155.313 226.599 154.576C228.34 154.207 229.812 154.095 230.93 154.238C232.058 154.382 232.721 154.769 233.018 155.293Z" fill="white" stroke="#060606"/>
<path d="M206.172 174.523L208.834 179.219" stroke="#060606"/>
<path d="M212.599 172.34L215.261 177.036" stroke="#060606"/>
<path d="M225.618 165.691L228.28 170.387" stroke="#060606"/>
<path d="M230.755 160.59L233.417 165.286" stroke="#060606"/>
<path d="M219.541 169.135L222.203 173.831" stroke="#060606"/>
</svg>
