<svg width="199" height="61" viewBox="0 0 199 61" fill="none" xmlns="http://www.w3.org/2000/svg">
<path d="M89.2325 4.52385C59.2418 3.25852 -0.38671 3.48858 1.02462 14.5315C2.78877 28.3351 163.327 25.9196 160.974 14.5315C158.622 3.14334 59.8289 4.17861 30.4267 6.93933" stroke="#46B4F2" stroke-linecap="round"/>
<path d="M145.791 3.6428C145.54 3.75804 145.43 4.0549 145.546 4.30584C145.661 4.55679 145.958 4.6668 146.209 4.55156L145.791 3.6428ZM193.796 39.6198L193.381 39.3403L193.796 39.6198ZM156.564 59.0058L156.164 58.706C156.034 58.8801 156.031 59.1186 156.157 59.2958C156.283 59.4731 156.509 59.5484 156.717 59.482L156.564 59.0058ZM163.925 49.0642C163.925 48.788 163.702 48.5642 163.425 48.5642C163.149 48.5642 162.925 48.788 162.925 49.0642H163.925ZM167.516 60.3131C167.689 60.5284 168.004 60.5628 168.219 60.3898C168.435 60.2169 168.469 59.9022 168.296 59.6869L167.516 60.3131ZM146.209 4.55156C158.223 -0.965735 174.349 1.40864 185.312 8.38608C190.786 11.8698 194.922 16.4694 196.634 21.7436C198.339 26.9969 197.662 32.9897 193.381 39.3403L194.21 39.8993C198.642 33.3257 199.396 27.0158 197.585 21.4349C195.781 15.8748 191.453 11.1087 185.849 7.54244C174.658 0.419916 158.172 -2.04283 145.791 3.6428L146.209 4.55156ZM193.381 39.3403C188.552 46.5033 181.581 49.9897 174.652 52.3413C171.179 53.5202 167.754 54.4029 164.594 55.3331C161.456 56.2572 158.583 57.2278 156.309 58.5758L156.819 59.4359C158.975 58.1576 161.741 57.2157 164.877 56.2923C167.992 55.3751 171.476 54.4754 174.974 53.2883C181.987 50.9079 189.203 47.3276 194.21 39.8993L193.381 39.3403ZM156.964 59.3057C157.254 58.9193 157.799 58.4334 158.52 57.7983C159.222 57.1804 160.056 56.4506 160.85 55.6134C162.432 53.945 163.925 51.7779 163.925 49.0642H162.925C162.925 51.393 161.645 53.3213 160.124 54.9254C159.367 55.7244 158.567 56.4251 157.86 57.0475C157.172 57.6528 156.531 58.2169 156.164 58.706L156.964 59.3057ZM156.717 59.482C157.492 59.2338 159.689 58.7551 161.976 58.7028C163.117 58.6766 164.257 58.7574 165.242 59.0138C166.231 59.2709 167.018 59.6925 167.516 60.3131L168.296 59.6869C167.613 58.8368 166.598 58.3331 165.494 58.046C164.387 57.758 163.147 57.6757 161.953 57.703C159.57 57.7576 157.277 58.2526 156.412 58.5296L156.717 59.482Z" fill="#46B4F2"/>
</svg>
