<svg width="238" height="244" viewBox="0 0 238 244" fill="none" xmlns="http://www.w3.org/2000/svg">
<path d="M112.525 189.032C152.648 144.322 206.029 46.4534 167.588 62.5673C126 80 203.443 148.155 234.176 62.5673C264.908 -23.0201 33.1322 60.0125 104.842 113.664C176.552 167.316 218.809 123.884 209.845 62.5673C200.881 1.25097 134.294 10.1929 112.525 24.2446C90.7555 38.2963 85.6334 84.2835 136.855 102.167" stroke="#46B4F2" stroke-width="2" stroke-linecap="round"/>
<path fill-rule="evenodd" clip-rule="evenodd" d="M121.594 89.5017C114.126 87.5002 106.449 91.9321 104.448 99.4007L103.546 102.768C101.77 102.292 99.9442 103.346 99.4683 105.123L96.667 115.579C96.1911 117.356 97.2452 119.182 99.0215 119.658L99.0213 119.659C97.245 119.183 95.4193 120.237 94.9434 122.013L92.3575 131.666C91.8817 133.442 92.9358 135.268 94.712 135.744L75.28 208.279C73.2792 215.748 77.7116 223.425 85.18 225.426L137.744 239.513C145.212 241.515 152.889 237.083 154.89 229.614L176.477 149.036C178.253 149.512 180.079 148.457 180.555 146.681L183.356 136.224C183.832 134.448 182.778 132.622 181.001 132.146L184.058 120.736C186.059 113.267 181.627 105.59 174.158 103.589L121.594 89.5017Z" fill="#46B4F2"/>
<rect x="0.70714" y="1.2248" width="4.66012" height="15.4856" rx="2.33006" transform="matrix(0.965914 0.258864 -0.258774 0.965938 96.1794 92.7625)" fill="white" stroke="#060606" stroke-width="2"/>
<rect x="0.70714" y="1.2248" width="4.66012" height="15.4856" rx="2.33006" transform="matrix(0.965914 0.258864 -0.258774 0.965938 173.635 122.141)" fill="white" stroke="#060606" stroke-width="2"/>
<rect x="0.70714" y="1.2248" width="4.66012" height="14.653" rx="2.33006" transform="matrix(0.965914 0.258864 -0.258774 0.965938 91.6545 109.654)" fill="white" stroke="#060606" stroke-width="2"/>
<rect x="0.70714" y="1.2248" width="80.419" height="138.718" rx="13" transform="matrix(0.965914 0.258864 -0.258774 0.965938 103.921 76.7342)" fill="white" stroke="#060606" stroke-width="2"/>
<rect x="0.70714" y="1.2248" width="73.7589" height="132.056" rx="10" transform="matrix(0.965914 0.258864 -0.258774 0.965938 106.276 80.8142)" fill="white" stroke="#060606" stroke-width="2"/>
<rect x="0.70714" y="1.2248" width="30.4677" height="2.99503" rx="1.49751" transform="matrix(0.965914 0.258864 -0.258774 0.965938 127.183 86.4168)" fill="#060606" stroke="#060606" stroke-width="2"/>
<rect x="0.70714" y="1.2248" width="52.946" height="16.3183" rx="8.15914" transform="matrix(0.965914 0.258864 -0.258774 0.965938 88.345 186.349)" fill="white" stroke="#060606" stroke-width="2"/>
<ellipse rx="5.8276" ry="5.82854" transform="matrix(0.965914 0.258864 -0.258774 0.965938 129.578 207.176)" fill="#060606"/>
<path d="M122.545 126.038C122.152 125.932 121.843 125.755 121.617 125.506C121.392 125.257 121.249 124.959 121.19 124.612C121.133 124.263 121.156 123.887 121.259 123.482C121.374 123.074 121.545 122.734 121.773 122.464C122.001 122.192 122.274 122.006 122.593 121.908C122.912 121.808 123.265 121.809 123.654 121.913C124.049 122.019 124.367 122.208 124.608 122.479C124.85 122.751 124.981 123.069 125 123.434L124.434 123.461C124.405 123.202 124.307 122.982 124.141 122.8C123.979 122.617 123.769 122.491 123.514 122.423C123.226 122.346 122.971 122.348 122.747 122.431C122.524 122.511 122.336 122.655 122.181 122.865C122.027 123.074 121.908 123.33 121.824 123.634C121.703 124.103 121.711 124.508 121.847 124.85C121.984 125.189 122.262 125.415 122.682 125.527C122.947 125.599 123.189 125.599 123.407 125.528C123.628 125.455 123.818 125.315 123.977 125.107L124.47 125.41C124.232 125.718 123.949 125.927 123.62 126.035C123.292 126.141 122.933 126.142 122.545 126.038Z" fill="#060606"/>
<path d="M124.96 126.569L126.007 122.66L126.485 122.789L126.233 123.729L126.172 123.581C126.246 123.477 126.331 123.386 126.427 123.308C126.524 123.228 126.621 123.168 126.72 123.127C126.845 123.065 126.982 123.029 127.129 123.019C127.277 123.007 127.421 123.016 127.56 123.046C127.7 123.073 127.823 123.116 127.929 123.175L127.795 123.675C127.662 123.6 127.509 123.55 127.335 123.524C127.161 123.498 126.987 123.524 126.814 123.602C126.656 123.668 126.526 123.764 126.423 123.889C126.32 124.011 126.237 124.149 126.172 124.303C126.109 124.454 126.056 124.606 126.015 124.761L125.492 126.711L124.96 126.569Z" fill="#060606"/>
<path d="M129.122 127.8C128.741 127.698 128.433 127.525 128.199 127.281C127.966 127.038 127.814 126.743 127.742 126.395C127.669 126.047 127.689 125.667 127.799 125.254C127.913 124.827 128.088 124.479 128.324 124.208C128.559 123.938 128.837 123.755 129.157 123.66C129.48 123.565 129.829 123.568 130.206 123.669C130.592 123.773 130.897 123.95 131.122 124.202C131.347 124.451 131.486 124.76 131.537 125.128C131.588 125.496 131.547 125.907 131.412 126.362L130.869 126.217L130.919 126.029C131.045 125.519 131.038 125.108 130.897 124.793C130.759 124.48 130.49 124.269 130.089 124.162C129.669 124.049 129.311 124.099 129.014 124.312C128.719 124.525 128.504 124.883 128.368 125.388C128.237 125.88 128.245 126.292 128.394 126.624C128.546 126.954 128.827 127.174 129.237 127.284C129.517 127.359 129.778 127.361 130.019 127.288C130.264 127.214 130.48 127.072 130.665 126.86L131.11 127.185C130.864 127.484 130.566 127.687 130.214 127.794C129.865 127.9 129.501 127.902 129.122 127.8ZM128.141 125.486L128.26 125.04L131.245 125.841L131.126 126.286L128.141 125.486Z" fill="#060606"/>
<path d="M132.749 128.772C132.455 128.694 132.222 128.574 132.05 128.414C131.881 128.255 131.77 128.074 131.719 127.872C131.667 127.669 131.669 127.464 131.724 127.257C131.781 127.044 131.872 126.875 131.996 126.748C132.124 126.619 132.274 126.526 132.447 126.469C132.623 126.413 132.815 126.385 133.024 126.387C133.235 126.392 133.464 126.408 133.713 126.436C133.964 126.462 134.208 126.492 134.445 126.527C134.684 126.56 134.894 126.587 135.075 126.607L134.856 126.672C134.966 126.288 134.968 125.982 134.861 125.755C134.754 125.527 134.506 125.361 134.118 125.257C133.85 125.185 133.607 125.185 133.389 125.255C133.173 125.327 132.993 125.483 132.849 125.723L132.372 125.433C132.555 125.107 132.807 124.884 133.129 124.763C133.451 124.643 133.828 124.64 134.26 124.756C134.617 124.851 134.902 125 135.114 125.202C135.329 125.402 135.455 125.642 135.491 125.923C135.508 126.05 135.506 126.185 135.483 126.329C135.46 126.472 135.429 126.617 135.39 126.761L134.74 129.19L134.266 129.062L134.528 128.082L134.65 128.177C134.428 128.476 134.153 128.677 133.826 128.778C133.499 128.879 133.14 128.877 132.749 128.772ZM132.934 128.329C133.183 128.396 133.412 128.41 133.621 128.37C133.831 128.331 134.013 128.249 134.168 128.125C134.323 127.998 134.444 127.842 134.53 127.656C134.593 127.538 134.645 127.405 134.688 127.256C134.731 127.104 134.762 126.991 134.782 126.917L134.957 127.076C134.77 127.051 134.566 127.023 134.348 126.99C134.131 126.958 133.917 126.93 133.703 126.907C133.492 126.884 133.299 126.872 133.123 126.871C133.004 126.873 132.884 126.889 132.765 126.919C132.646 126.947 132.541 126.998 132.448 127.074C132.358 127.151 132.294 127.259 132.256 127.399C132.226 127.513 132.224 127.63 132.251 127.751C132.281 127.872 132.349 127.985 132.456 128.089C132.565 128.193 132.724 128.273 132.934 128.329Z" fill="#060606"/>
<path d="M137.809 130.012C137.578 129.999 137.356 129.959 137.144 129.892C136.934 129.825 136.756 129.728 136.609 129.601C136.464 129.475 136.372 129.313 136.332 129.116C136.3 128.952 136.301 128.796 136.333 128.647C136.368 128.496 136.411 128.325 136.462 128.135L137.421 124.556L137.95 124.697L136.997 128.255C136.953 128.419 136.917 128.556 136.89 128.668C136.865 128.778 136.865 128.881 136.888 128.978C136.932 129.163 137.043 129.296 137.223 129.378C137.405 129.46 137.642 129.516 137.935 129.545L137.809 130.012ZM136.172 125.873L136.295 125.417L138.856 126.104L138.734 126.56L136.172 125.873Z" fill="#060606"/>
<path d="M139.898 125.588L140.057 124.991L140.589 125.133L140.429 125.731L139.898 125.588ZM138.652 130.238L139.699 126.33L140.231 126.472L139.184 130.381L138.652 130.238Z" fill="#060606"/>
<path d="M143.091 131.428L143.625 129.434C143.683 129.217 143.716 129.012 143.724 128.82C143.732 128.626 143.708 128.449 143.653 128.289C143.6 128.128 143.512 127.99 143.387 127.877C143.265 127.764 143.101 127.68 142.896 127.625C142.708 127.574 142.533 127.562 142.37 127.589C142.211 127.616 142.065 127.678 141.933 127.774C141.804 127.869 141.691 127.996 141.594 128.156C141.497 128.316 141.418 128.508 141.359 128.729L141.005 128.545C141.112 128.145 141.272 127.827 141.485 127.592C141.698 127.357 141.946 127.202 142.23 127.128C142.514 127.054 142.815 127.06 143.133 127.145C143.367 127.208 143.561 127.299 143.715 127.418C143.872 127.537 143.994 127.675 144.082 127.83C144.172 127.986 144.233 128.154 144.265 128.333C144.298 128.51 144.307 128.692 144.293 128.88C144.28 129.065 144.25 129.246 144.202 129.422L143.627 131.571L143.091 131.428ZM140.265 130.67L141.312 126.762L141.793 126.891L141.535 127.854L141.59 127.868L140.801 130.814L140.265 130.67Z" fill="#060606"/>
<path d="M85.8308 14.297L86.9662 12.2266L88.1016 14.297C92.6608 22.608 99.5173 29.4423 107.855 33.9867L109.932 35.1184L107.855 36.2502C99.5173 40.7946 92.6608 47.6288 88.1016 55.9399L86.9662 58.0103L85.8308 55.9399C81.2716 47.6288 74.4152 40.7946 66.0772 36.2502L64 35.1184L66.0772 33.9867C74.4123 29.4423 81.2687 22.608 85.8308 14.297Z" fill="#46B4F2"/>
<path d="M101.593 3.83344L102.05 3L102.508 3.83344C104.345 7.18183 107.108 9.93658 110.47 11.7701L111.307 12.2263L110.47 12.6825C107.111 14.5132 104.347 17.2679 102.508 20.6193L102.05 21.4527L101.593 20.6193C99.756 17.2709 96.9923 14.5161 93.6301 12.6825L92.7939 12.2263L93.6301 11.7701C96.9923 9.9395 99.756 7.18476 101.593 3.83344Z" fill="#46B4F2"/>
<path d="M76.8308 14.297L77.9662 12.2266L79.1016 14.297C83.6608 22.608 90.5173 29.4423 98.8553 33.9867L100.932 35.1184L98.8553 36.2502C90.5173 40.7946 83.6608 47.6288 79.1016 55.9399L77.9662 58.0103L76.8308 55.9399C72.2716 47.6288 65.4152 40.7946 57.0772 36.2502L55 35.1184L57.0772 33.9867C65.4152 29.4423 72.2716 22.608 76.8308 14.297Z" fill="white" stroke="#060606" stroke-width="2" stroke-miterlimit="10"/>
<path d="M94.889 3.83344L95.3466 3L95.8043 3.83344C97.6409 7.18183 100.405 9.93658 103.767 11.7701L104.603 12.2263L103.767 12.6825C100.408 14.5132 97.6439 17.2679 95.8043 20.6193L95.3466 21.4527L94.889 20.6193C93.0524 17.2709 90.2887 14.5161 86.9265 12.6825L86.0903 12.2263L86.9265 11.7701C90.2857 9.9395 93.0494 7.18476 94.889 3.83344Z" fill="white" stroke="#060606" stroke-width="2" stroke-miterlimit="10"/>
<path d="M26 157.748C14.6996 157.748 5.5 166.777 5.5 177.963C5.5 189.149 14.6996 198.179 26 198.179C37.3004 198.179 46.5 189.149 46.5 177.963C46.5 166.777 37.3004 157.748 26 157.748Z" fill="#46B4F2" stroke="#46B4F2" stroke-width="3"/>
<path d="M21.013 155C9.97955 155 1.00003 163.768 1.00002 174.627C1.00002 185.486 9.97955 194.254 21.013 194.254C32.0464 194.254 41.0259 185.486 41.0259 174.627C41.0259 163.768 32.0464 155 21.013 155Z" fill="white" stroke="#060606" stroke-width="2"/>
<path fill-rule="evenodd" clip-rule="evenodd" d="M33.4897 174.284C33.4897 181.351 27.6741 187.079 20.5002 187.079C13.3262 187.079 7.51058 181.351 7.51058 174.284C7.51058 167.218 13.3262 161.489 20.5002 161.489C27.6741 161.489 33.4897 167.218 33.4897 174.284ZM20.5002 185.294C26.6731 185.294 31.6772 180.365 31.6772 174.284C31.6772 168.204 26.6731 163.274 20.5002 163.274C14.3272 163.274 9.32308 168.204 9.32308 174.284C9.32308 180.365 14.3272 185.294 20.5002 185.294Z" fill="#060606"/>
<path fill-rule="evenodd" clip-rule="evenodd" d="M33.4897 174.284C33.4897 174.777 33.084 175.177 32.5835 175.177L8.41683 175.177C7.91632 175.177 7.51058 174.777 7.51058 174.284C7.51058 173.791 7.91632 173.391 8.41683 173.391L32.5835 173.391C33.084 173.391 33.4897 173.791 33.4897 174.284Z" fill="#060606"/>
<path fill-rule="evenodd" clip-rule="evenodd" d="M23.04 185.864C22.3549 186.578 21.497 187.079 20.5002 187.079C19.5033 187.079 18.6454 186.578 17.9604 185.864C17.2772 185.153 16.7036 184.171 16.241 183.032C15.3138 180.748 14.7606 177.655 14.7606 174.284C14.7606 170.913 15.3138 167.82 16.241 165.536C16.7036 164.397 17.2772 163.415 17.9604 162.704C18.6454 161.99 19.5033 161.489 20.5002 161.489C21.497 161.489 22.3549 161.99 23.04 162.704C23.7232 163.415 24.2967 164.397 24.7593 165.536C25.6865 167.82 26.2397 170.913 26.2397 174.284C26.2397 177.655 25.6865 180.748 24.7593 183.032C24.2967 184.171 23.7232 185.153 23.04 185.864ZM23.0764 182.369C23.8985 180.344 24.4272 177.486 24.4272 174.284C24.4272 171.082 23.8985 168.224 23.0764 166.199C22.6644 165.185 22.1964 164.423 21.7231 163.93C21.2516 163.439 20.838 163.274 20.5002 163.274C20.1623 163.274 19.7487 163.439 19.2772 163.93C18.8039 164.423 18.336 165.185 17.9239 166.199C17.1018 168.224 16.5731 171.082 16.5731 174.284C16.5731 177.486 17.1018 180.344 17.9239 182.369C18.336 183.383 18.8039 184.145 19.2772 184.638C19.7487 185.129 20.1623 185.294 20.5002 185.294C20.838 185.294 21.2516 185.129 21.7231 184.638C22.1964 184.145 22.6644 183.383 23.0764 182.369Z" fill="#060606"/>
<path fill-rule="evenodd" clip-rule="evenodd" d="M29.6848 183.162C29.3308 183.511 28.757 183.511 28.4031 183.162C26.3795 181.169 23.5865 179.938 20.4998 179.938C17.413 179.938 14.62 181.169 12.5963 183.162C12.2424 183.511 11.6686 183.511 11.3147 183.162C10.9608 182.814 10.9608 182.249 11.3147 181.9C13.6644 179.585 16.913 178.152 20.4998 178.152C24.0865 178.152 27.3351 179.585 29.6848 181.9C30.0387 182.249 30.0387 182.814 29.6848 183.162Z" fill="#060606"/>
<path fill-rule="evenodd" clip-rule="evenodd" d="M29.6848 166.668C27.3351 168.982 24.0865 170.416 20.4998 170.416C16.913 170.416 13.6644 168.982 11.3147 166.668C10.9608 166.319 10.9608 165.754 11.3147 165.405C11.6686 165.057 12.2424 165.057 12.5963 165.405C14.62 167.399 17.413 168.63 20.4998 168.63C23.5865 168.63 26.3795 167.399 28.4031 165.405C28.757 165.057 29.3308 165.057 29.6848 165.405C30.0387 165.754 30.0387 166.319 29.6848 166.668Z" fill="#060606"/>
</svg>
