<svg width="193" height="226" viewBox="0 0 193 226" fill="none" xmlns="http://www.w3.org/2000/svg">
<path d="M6.42437 177.037C41.4616 133.592 59.5996 74.471 24.6338 84.7005C2.65802 91.1296 69.9248 113.358 104.605 89.5859C131.227 71.3365 87.7902 -45.8436 23.3351 21.8711C-41.12 89.5859 49.9578 134.249 94.7961 128.486C139.634 122.723 157.832 82.382 134.03 79.5006C110.227 76.6191 -137.719 101.856 117.215 161.623C193.81 179.58 212.995 147.391 168.156 106.57" stroke="#4695F2" stroke-width="2" stroke-linecap="round"/>
<rect width="100.772" height="67.238" rx="11" transform="matrix(0.959814 -0.280637 0.280541 0.959842 17.2183 68.3893)" fill="#4695F2"/>
<rect x="1.24036" y="0.679205" width="98.7719" height="65.238" rx="10" transform="matrix(0.959814 -0.280637 0.280541 0.959842 20.0558 59.6558)" fill="white" stroke="#060606" stroke-width="2"/>
<path d="M32.6604 66.6451L78.9861 81.6217L109.952 44.0461" stroke="#060606" stroke-width="2" stroke-linecap="round"/>
<path d="M50.5778 68.2528C50.976 66.8255 52.7338 66.3115 53.8379 67.2996L54.2117 67.6341C54.9329 68.2795 56.0127 68.3158 56.7757 67.7204L57.1235 67.4489C58.2642 66.5587 59.9433 67.1369 60.2941 68.5406L60.5033 69.3779C60.7249 70.2647 61.5195 70.8884 62.4335 70.8929L63.1935 70.8967C64.582 70.9035 65.541 72.2886 65.059 73.5908L64.7055 74.5458C64.3993 75.3731 64.6712 76.3032 65.3747 76.8353L66.1868 77.4494C67.2942 78.2869 67.2321 79.9706 66.0659 80.7244L65.4276 81.137C64.66 81.6332 64.3264 82.5868 64.6172 83.4533L64.8919 84.2715C65.3523 85.6431 64.2489 87.0348 62.8085 86.8994L62.3692 86.8581C61.4057 86.7674 60.5155 87.3798 60.2554 88.312L60.1206 88.7952C59.7224 90.2226 57.9647 90.7365 56.8605 89.7484L56.4867 89.4139C55.7656 88.7686 54.6858 88.7323 53.9228 89.3277L53.5749 89.5991C52.4342 90.4893 50.7551 89.9111 50.4044 88.5074L50.1951 87.6701C49.9735 86.7833 49.179 86.1597 48.2649 86.1552L47.5049 86.1514C46.1164 86.1445 45.1574 84.7595 45.6394 83.4572L45.9929 82.5022C46.2991 81.675 46.0272 80.7448 45.3237 80.2128L44.5117 79.5986C43.4042 78.7611 43.4663 77.0775 44.6325 76.3237L45.2708 75.911C46.0385 75.4148 46.3721 74.4613 46.0812 73.5948L45.8066 72.7766C45.3462 71.4049 46.4495 70.0132 47.89 70.1487L48.3292 70.19C49.2928 70.2806 50.183 69.6683 50.443 68.736L50.5778 68.2528Z" fill="#4695F2" stroke="#060606" stroke-width="2"/>
<path d="M92.3661 84.2222L143.082 208.832L160.735 225.258L162.269 201.016L111.677 76.3555C111.677 76.3555 107.514 74.1383 100.655 76.9324C94.5374 79.4299 92.3661 84.2222 92.3661 84.2222Z" fill="#4695F2"/>
<path d="M100.659 82.7084L96.5252 72.5447C97.227 71.3557 99.4624 68.1387 104.003 66.288C109.122 64.2013 112.584 65.0743 113.693 65.4709L117.842 75.7049L100.659 82.7084Z" fill="white" stroke="#060606" stroke-width="2"/>
<mask id="path-8-inside-1_34_22" fill="white">
<path d="M103.716 65.5829C109.612 63.1796 113.484 64.5446 114.272 64.8815L118.827 76.1195L100.243 83.6954L95.6848 72.4895C96.1518 71.6151 98.4684 67.7222 103.716 65.5829ZM103.535 65.1384C97.3586 67.6564 95.1568 72.4715 95.1568 72.4715L99.9785 84.3264L119.456 76.3864L114.648 64.5261C114.648 64.5261 110.458 62.3163 103.535 65.1384Z"/>
</mask>
<path d="M103.716 65.5829C109.612 63.1796 113.484 64.5446 114.272 64.8815L118.827 76.1195L100.243 83.6954L95.6848 72.4895C96.1518 71.6151 98.4684 67.7222 103.716 65.5829ZM103.535 65.1384C97.3586 67.6564 95.1568 72.4715 95.1568 72.4715L99.9785 84.3264L119.456 76.3864L114.648 64.5261C114.648 64.5261 110.458 62.3163 103.535 65.1384Z" fill="#060606"/>
<path d="M114.272 64.8815L116.125 64.1287L115.815 63.3655L115.058 63.0419L114.272 64.8815ZM118.827 76.1195L119.58 77.9722L121.43 77.2181L120.68 75.3668L118.827 76.1195ZM100.243 83.6954L98.3905 84.4504L99.144 86.303L100.996 85.548L100.243 83.6954ZM95.6848 72.4895L93.9215 71.5474L93.4793 72.3753L93.8328 73.2445L95.6848 72.4895ZM95.1568 72.4715L93.3387 71.6401L92.9793 72.4261L93.3048 73.2265L95.1568 72.4715ZM99.9785 84.3264L98.1265 85.0814L98.88 86.934L100.732 86.179L99.9785 84.3264ZM119.456 76.3864L120.21 78.239L122.059 77.4849L121.309 75.6335L119.456 76.3864ZM114.648 64.5261L116.501 63.7732L116.5 63.7711L114.648 64.5261ZM104.47 67.4355C109.775 65.2729 113.084 66.5496 113.485 66.7211L115.058 63.0419C113.884 62.5395 109.449 61.0862 102.963 63.7302L104.47 67.4355ZM112.419 65.6343L116.974 76.8723L120.68 75.3668L116.125 64.1287L112.419 65.6343ZM118.073 74.2669L99.489 81.8428L100.996 85.548L119.58 77.9722L118.073 74.2669ZM102.095 82.9404L97.5368 71.7345L93.8328 73.2445L98.3905 84.4504L102.095 82.9404ZM97.4481 73.4316C97.8024 72.7682 99.8266 69.3283 104.47 67.4355L102.963 63.7302C97.1102 66.1161 94.5012 70.4619 93.9215 71.5474L97.4481 73.4316ZM102.782 63.2857C99.3497 64.6849 97.0088 66.7291 95.5227 68.4354C94.7803 69.2878 94.2486 70.0587 93.8964 70.6293C93.7201 70.9149 93.588 71.1515 93.4965 71.3244C93.4507 71.411 93.415 71.4817 93.3889 71.5349C93.3758 71.5615 93.3652 71.5837 93.3568 71.6013C93.3526 71.6101 93.3491 71.6177 93.346 71.6242C93.3445 71.6274 93.3432 71.6304 93.3419 71.633C93.3413 71.6343 93.3408 71.6356 93.3402 71.6368C93.34 71.6374 93.3396 71.6382 93.3394 71.6385C93.3391 71.6393 93.3387 71.6401 95.1568 72.4715C96.9749 73.303 96.9746 73.3037 96.9742 73.3045C96.9741 73.3047 96.9738 73.3054 96.9736 73.3058C96.9732 73.3067 96.9728 73.3075 96.9725 73.3083C96.9718 73.3097 96.9712 73.3109 96.9708 73.3118C96.97 73.3137 96.9696 73.3144 96.9698 73.314C96.9702 73.3132 96.9726 73.3081 96.9772 73.2988C96.9863 73.2802 97.004 73.245 97.0304 73.195C97.0835 73.0948 97.1717 72.9355 97.2983 72.7303C97.552 72.3194 97.9568 71.7291 98.5369 71.063C99.6959 69.7322 101.544 68.1098 104.289 66.991L102.782 63.2857ZM93.3048 73.2265L98.1265 85.0814L101.831 83.5714L97.0088 71.7165L93.3048 73.2265ZM100.732 86.179L120.21 78.239L118.702 74.5338L99.225 82.4738L100.732 86.179ZM121.309 75.6335L116.501 63.7732L112.795 65.279L117.603 77.1393L121.309 75.6335ZM114.648 64.5261C115.581 62.7563 115.58 62.7557 115.579 62.7551C115.578 62.7549 115.577 62.7544 115.577 62.754C115.575 62.7532 115.573 62.7523 115.572 62.7515C115.568 62.7497 115.565 62.7479 115.561 62.7459C115.553 62.7419 115.544 62.7374 115.535 62.7325C115.515 62.7225 115.491 62.7107 115.463 62.6972C115.406 62.6701 115.333 62.6364 115.243 62.5977C115.062 62.5205 114.815 62.4237 114.505 62.3225C113.883 62.12 113.005 61.9 111.896 61.7842C109.666 61.5514 106.557 61.7468 102.782 63.2857L104.289 66.991C107.437 65.7079 109.883 65.5971 111.479 65.7637C112.283 65.8476 112.885 66.0036 113.265 66.1273C113.455 66.1892 113.59 66.243 113.666 66.2756C113.704 66.2918 113.727 66.3028 113.735 66.3067C113.739 66.3087 113.74 66.3089 113.736 66.3072C113.735 66.3063 113.732 66.305 113.728 66.3031C113.727 66.3022 113.724 66.3011 113.722 66.2999C113.721 66.2993 113.72 66.2987 113.719 66.298C113.718 66.2977 113.717 66.2971 113.717 66.297C113.716 66.2964 113.715 66.2959 114.648 64.5261Z" fill="#060606" mask="url(#path-8-inside-1_34_22)"/>
<path d="M121.727 84.6117L104.1 91.7972L99.8638 81.3819C99.9157 81.2913 99.9784 81.1856 100.052 81.067C100.332 80.6184 100.769 79.9858 101.391 79.2759C102.635 77.8567 104.61 76.1334 107.527 74.9417C110.832 73.5943 113.443 73.457 115.196 73.6349C116.075 73.7243 116.745 73.8937 117.185 74.0352C117.299 74.072 117.398 74.1069 117.481 74.1381L121.727 84.6117ZM99.6679 81.7477L99.6686 81.7462L99.6683 81.7468L99.6679 81.7477ZM117.795 74.2698L117.794 74.2696C117.795 74.2702 117.796 74.2703 117.795 74.2698Z" fill="white" stroke="#060606" stroke-width="2"/>
<path d="M145.328 194.974L101.54 87.3833C101.878 86.7177 104.163 82.5466 109.659 80.3076C115.828 77.7945 119.814 79.4111 120.404 79.6829L164.073 187.337L162.575 211.022L145.328 194.974Z" fill="white" stroke="#060606" stroke-width="2"/>
<path d="M162.859 211.783L157.964 207.226L163.147 205.114L162.859 211.783Z" fill="#060606"/>
<path d="M146.837 194.165C146.837 194.165 153.266 186.569 162.47 187.797" stroke="#060606" stroke-width="2" stroke-miterlimit="10" stroke-linecap="round" stroke-linejoin="round"/>
<path d="M152.291 185.116L111.487 84.9061" stroke="#060606" stroke-width="2" stroke-miterlimit="10" stroke-linecap="round"/>
</svg>
