<svg width="341" height="295" viewBox="0 0 341 295" fill="none" xmlns="http://www.w3.org/2000/svg">
<path d="M0 44H248.5C296.273 44 335 82.7274 335 130.5V130.5C335 178.273 296.273 217 248.5 217H0V44Z" fill="#B87FFF"/>
<path fill-rule="evenodd" clip-rule="evenodd" d="M49.2439 86.6257C55.3501 92.7023 64.6081 95.7407 77.0176 95.7407C89.2302 95.7407 98.3897 92.7023 104.496 86.6257C110.602 80.549 113.655 72.6101 113.655 62.809C113.655 55.6252 111.818 49.3555 108.144 44L45.3717 44C42.0438 49.3314 40.3799 55.601 40.3799 62.809C40.3799 72.6101 43.3345 80.549 49.2439 86.6257ZM111.199 217H44.5976C44.7404 209.237 44.8119 202.043 44.8119 195.418C44.8119 170.915 44.024 143.472 42.4481 113.089H113.36C111.784 142.296 110.996 169.739 110.996 195.418C110.996 202.17 111.064 209.364 111.199 217ZM209.731 217H142.29C142.436 209.073 142.509 201.29 142.509 193.654C142.509 168.563 141.722 141.708 140.146 113.089C153.146 113.677 163.094 113.971 169.988 113.971C177.276 113.971 187.223 113.677 199.83 113.089L208.398 156.311C212.929 140.63 220.02 129.064 229.672 121.616C239.324 113.971 250.551 110.148 263.355 110.148C275.174 110.148 285.416 112.795 294.083 118.087C302.75 123.184 309.251 130.143 313.584 138.964C318.115 147.784 320.38 157.684 320.38 168.661V178.867C306.298 199.708 283.373 214.082 256.988 216.604C257.096 208.846 257.15 201.294 257.15 193.948C257.15 185.323 254.983 178.462 250.65 173.365C246.513 168.269 241.195 165.72 234.695 165.72C228.195 165.72 222.679 168.661 218.149 174.541C213.618 180.226 210.959 188.067 210.171 198.064C209.976 205.43 209.83 211.742 209.731 217Z" fill="white"/>
<path d="M172.394 232.102C183.849 233.945 195.649 228.208 201.015 217.218C207.575 203.785 202.027 187.603 188.622 181.072C175.217 174.542 159.035 180.137 152.475 193.571C147.111 204.556 149.847 217.38 158.354 225.262C158.017 226.812 158.154 228.398 158.697 229.831L134.582 271.507C132.82 275.116 134.965 279.78 139.374 281.928C143.783 284.076 148.783 282.893 150.546 279.284L167.989 234.809C169.69 234.415 171.242 233.481 172.394 232.102Z" fill="#B87FFF"/>
<path d="M135.164 273.45C130.924 271.384 128.861 266.897 130.554 263.428L155.895 219.628C157.588 216.159 159.097 213.674 163.337 215.74C167.576 217.806 166.026 220.449 164.332 223.918L145.909 270.905C144.208 274.376 139.399 275.514 135.164 273.45Z" fill="white" stroke="#060606" stroke-miterlimit="10"/>
<path d="M157.603 227.485C161.452 229.359 166.098 227.753 167.981 223.897C169.864 220.041 168.271 215.396 164.423 213.522C160.575 211.647 155.929 213.253 154.045 217.109C152.162 220.965 153.755 225.611 157.603 227.485Z" fill="white" stroke="#060606" stroke-miterlimit="10"/>
<path d="M159.683 223.199C172.585 229.484 188.164 224.098 194.478 211.169C200.792 198.241 195.451 182.665 182.548 176.38C169.645 170.095 154.067 175.481 147.752 188.41C141.438 201.339 146.78 216.914 159.683 223.199Z" fill="white" stroke="#060606" stroke-miterlimit="10"/>
<path d="M163.352 215.686C172.114 219.953 182.692 216.296 186.979 207.517C191.266 198.738 187.64 188.162 178.878 183.894C170.117 179.627 159.539 183.284 155.251 192.063C150.964 200.842 154.591 211.418 163.352 215.686Z" fill="white" stroke="#060606" stroke-miterlimit="10"/>
<path d="M165.816 214.233C157.053 209.964 153.426 199.388 157.714 190.607C159.077 187.816 161.074 185.547 163.452 183.88C160.006 185.55 157.068 188.339 155.255 192.051C150.967 200.832 154.594 211.408 163.357 215.677C169.335 218.589 176.155 217.809 181.248 214.235C176.538 216.517 170.875 216.697 165.816 214.233Z" fill="#060606"/>
<circle cx="190.8" cy="259.4" r="18.2" fill="#B87FFF"/>
<ellipse cx="188.065" cy="257.053" rx="17.065" ry="17.0526" fill="white" stroke="#060606"/>
<mask id="path-11-inside-1_268_2047" fill="white">
<path fill-rule="evenodd" clip-rule="evenodd" d="M188 253.2C191.377 253.2 194.41 251.732 196.497 249.4C198.303 251.417 199.4 254.08 199.4 257C199.4 260.017 198.228 262.761 196.314 264.8C194.235 262.584 191.279 261.2 188 261.2C184.722 261.2 181.766 262.584 179.686 264.8C177.773 262.761 176.6 260.017 176.6 257C176.6 254.08 177.698 251.417 179.503 249.4C181.591 251.732 184.624 253.2 188 253.2Z"/>
</mask>
<path d="M196.497 249.4L197.243 248.733L196.497 247.9L195.752 248.733L196.497 249.4ZM196.314 264.8L195.585 265.484L196.314 266.261L197.044 265.484L196.314 264.8ZM179.686 264.8L178.957 265.484L179.686 266.261L180.415 265.484L179.686 264.8ZM179.503 249.4L180.248 248.733L179.503 247.9L178.758 248.733L179.503 249.4ZM195.752 248.733C193.847 250.862 191.08 252.2 188 252.2V254.2C191.673 254.2 194.973 252.602 197.243 250.067L195.752 248.733ZM200.4 257C200.4 253.825 199.206 250.926 197.243 248.733L195.752 250.067C197.4 251.907 198.4 254.336 198.4 257H200.4ZM197.044 265.484C199.124 263.267 200.4 260.281 200.4 257H198.4C198.4 259.753 197.332 262.254 195.585 264.116L197.044 265.484ZM188 262.2C190.992 262.2 193.687 263.461 195.585 265.484L197.044 264.116C194.783 261.707 191.567 260.2 188 260.2V262.2ZM180.415 265.484C182.314 263.461 185.009 262.2 188 262.2V260.2C184.434 260.2 181.218 261.707 178.957 264.116L180.415 265.484ZM175.6 257C175.6 260.281 176.876 263.267 178.957 265.484L180.415 264.116C178.669 262.254 177.6 259.753 177.6 257H175.6ZM178.758 248.733C176.795 250.926 175.6 253.825 175.6 257H177.6C177.6 254.336 178.601 251.907 180.248 250.067L178.758 248.733ZM188 252.2C184.92 252.2 182.154 250.862 180.248 248.733L178.758 250.067C181.027 252.602 184.328 254.2 188 254.2V252.2Z" fill="#060606" mask="url(#path-11-inside-1_268_2047)"/>
<circle cx="188" cy="257" r="10.9" stroke="#060606"/>
<path d="M192.5 257C192.5 260.095 191.949 262.874 191.078 264.86C190.642 265.854 190.136 266.627 189.599 267.144C189.065 267.659 188.525 267.9 188 267.9C187.475 267.9 186.935 267.659 186.401 267.144C185.864 266.627 185.358 265.854 184.922 264.86C184.051 262.874 183.5 260.095 183.5 257C183.5 253.904 184.051 251.126 184.922 249.14C185.358 248.146 185.864 247.373 186.401 246.856C186.935 246.341 187.475 246.1 188 246.1C188.525 246.1 189.065 246.341 189.599 246.856C190.136 247.373 190.642 248.146 191.078 249.14C191.949 251.126 192.5 253.904 192.5 257Z" stroke="#060606"/>
<rect x="176.961" y="257.137" width="22.3529" height="0.745098" fill="#060606"/>
<path fill-rule="evenodd" clip-rule="evenodd" d="M257.875 63.9058L212.697 77.2006C208.133 78.5437 203.327 75.9206 201.964 71.3354L193.563 43.0779C192.201 38.4966 194.795 33.6915 199.363 32.3473L250.699 17.2404C255.263 15.8973 260.069 18.5204 261.432 23.1056L268.101 45.5358L289.166 39.3378C294.225 37.8493 299.553 40.76 301.062 45.837L308.919 72.2607C310.433 77.3366 307.554 82.6617 302.491 84.1513L276.162 91.898C271.103 93.3864 265.776 90.4758 264.266 85.3987L257.875 63.9058Z" fill="#B87FFF"/>
<path d="M257.21 58.2844L205.974 73.268C201.419 74.6002 196.609 71.9548 195.232 67.3528L186.749 38.9968C185.372 34.3948 187.949 29.5891 192.508 28.2558L243.744 13.2722C248.299 11.94 253.109 14.5854 254.486 19.1873L262.97 47.5474C264.342 52.1465 261.765 56.9522 257.21 58.2844Z" fill="white" stroke="#060606" stroke-miterlimit="10"/>
<path d="M295.513 80.4626L269.256 88.1387C264.211 89.6136 258.883 86.681 257.36 81.5904L249.431 55.0962C247.907 50.0056 250.764 44.6804 255.809 43.2055L282.066 35.5294C287.111 34.0545 292.439 36.9871 293.962 42.0777L301.891 68.5719C303.418 73.6613 300.562 78.9865 295.513 80.4626Z" fill="white" stroke="#060606" stroke-miterlimit="10"/>
<path d="M201.616 41.2746C201.388 41.4965 200.845 41.862 200.08 42.0846C198.362 42.5844 196.889 41.7285 196.358 39.9626C195.823 38.1848 196.636 36.547 198.496 36.006C199.108 35.828 199.696 35.8256 200.021 35.8866L200.03 36.7664C199.739 36.6952 199.312 36.6769 198.747 36.8412C197.44 37.2213 197.029 38.4051 197.391 39.6102C197.793 40.9465 198.888 41.5233 200.017 41.1946C200.606 41.0234 200.948 40.7553 201.202 40.5384L201.616 41.2746Z" fill="#060606"/>
<path d="M202.108 33.2746L202.605 34.9297L204.082 34.4992L204.322 35.297L202.844 35.7275L203.777 38.8354C203.992 39.5498 204.313 39.8966 204.887 39.7291C205.157 39.6506 205.346 39.5568 205.464 39.4834L205.747 40.2557C205.572 40.3971 205.274 40.5489 204.875 40.6651C204.394 40.8052 203.961 40.7631 203.629 40.5491C203.242 40.3249 202.983 39.8437 202.779 39.1649L201.836 36.0214L200.956 36.2776L200.717 35.4798L201.596 35.2236L201.181 33.8423L202.108 33.2746Z" fill="#060606"/>
<path d="M205.831 35.9212C205.627 35.2423 205.44 34.6621 205.244 34.1364L206.147 33.8732L206.522 34.9945L206.569 34.9808C206.595 34.1314 207.07 33.4619 207.762 33.2603C207.88 33.2261 207.965 33.2141 208.066 33.2106L208.363 34.1992C208.251 34.2061 208.141 34.225 208.001 34.266C207.273 34.4779 206.925 35.188 207.02 36.0152C207.04 36.1649 207.066 36.3385 207.12 36.5172L208.043 39.5901L207.022 39.8874L205.831 35.9212V35.9212Z" fill="#060606"/>
<path d="M208.427 30.2922L209.449 29.9924L211.963 38.4249L210.941 38.7247L208.427 30.2922Z" fill="#060606"/>
<path d="M274.037 64.7839L275.592 60.6322C275.746 60.25 275.899 59.907 276.065 59.5213L276.057 59.4974L272.973 60.3945L272.718 59.547L277.062 58.2836L277.248 58.9435L275.714 63.0372C275.575 63.4279 275.426 63.7829 275.257 64.1566L275.264 64.1805L278.596 63.2116L278.847 64.0471L274.22 65.3927L274.037 64.7839V64.7839Z" fill="#060606"/>
<path d="M316.952 44.0873L279.146 121.59L278.862 137.049L291.102 127.42L328.984 49.955C328.984 49.955 328.26 47.0177 323.986 44.9336C320.172 43.0768 316.952 44.0873 316.952 44.0873Z" fill="#B87FFF"/>
<path d="M311.728 43.1591L314.901 36.6542C315.72 36.4817 318.306 36.1169 321.247 37.5512C324.565 39.1686 325.619 41.2979 325.878 41.9637L322.68 48.4992L311.728 43.1591Z" fill="white" stroke="#060606"/>
<mask id="path-26-inside-2_268_2047" fill="white">
<path d="M321.399 37.2398C325.07 39.0297 326.076 41.4624 326.253 41.9827L322.839 48.9589L311.267 43.3167L314.664 36.353C315.282 36.2027 318.131 35.6466 321.399 37.2398ZM321.534 36.9636C317.688 35.0883 314.447 36.0931 314.447 36.0931L310.853 43.4601L322.981 49.3734L326.584 42.0106C326.584 42.0106 325.845 39.0654 321.534 36.9636Z"/>
</mask>
<path d="M321.399 37.2398C325.07 39.0297 326.076 41.4624 326.253 41.9827L322.839 48.9589L311.267 43.3167L314.664 36.353C315.282 36.2027 318.131 35.6466 321.399 37.2398ZM321.534 36.9636C317.688 35.0883 314.447 36.0931 314.447 36.0931L310.853 43.4601L322.981 49.3734L326.584 42.0106C326.584 42.0106 325.845 39.0654 321.534 36.9636Z" fill="#060606"/>
<path d="M326.253 41.9827L327.151 42.422L327.332 42.0518L327.2 41.6615L326.253 41.9827ZM322.839 48.9589L322.401 49.8576L323.298 50.2953L323.737 49.3982L322.839 48.9589ZM311.267 43.3167L310.368 42.8784L309.93 43.7772L310.828 44.2154L311.267 43.3167ZM314.664 36.353L314.428 35.3816L313.971 35.4927L313.765 35.9148L314.664 36.353ZM314.447 36.0931L314.151 35.1381L313.738 35.2662L313.548 35.6549L314.447 36.0931ZM310.853 43.4601L309.954 43.0218L309.515 43.9206L310.414 44.3588L310.853 43.4601ZM322.981 49.3734L322.543 50.2722L323.44 50.7099L323.879 49.8127L322.981 49.3734ZM326.584 42.0106L327.482 42.4499L327.482 42.4488L326.584 42.0106ZM320.961 38.1386C324.346 39.789 325.197 41.983 325.306 42.304L327.2 41.6615C326.956 40.9418 325.795 38.2705 321.838 36.3411L320.961 38.1386ZM325.355 41.5434L321.941 48.5195L323.737 49.3982L327.151 42.422L325.355 41.5434ZM323.277 48.0601L311.705 42.4179L310.828 44.2154L322.401 49.8576L323.277 48.0601ZM312.166 43.7549L315.563 36.7913L313.765 35.9148L310.368 42.8784L312.166 43.7549ZM314.901 37.3245C315.402 37.2025 317.986 36.6882 320.961 38.1386L321.838 36.3411C318.277 34.605 315.161 35.2029 314.428 35.3816L314.901 37.3245ZM321.973 36.0649C319.883 35.046 317.951 34.8069 316.535 34.8253C315.828 34.8345 315.248 34.9079 314.838 34.9811C314.633 35.0177 314.469 35.0543 314.353 35.0831C314.295 35.0975 314.249 35.1099 314.215 35.1194C314.198 35.1241 314.184 35.1282 314.173 35.1313C314.168 35.1329 314.163 35.1343 314.16 35.1354C314.158 35.136 314.156 35.1365 314.155 35.1369C314.154 35.1372 314.153 35.1374 314.153 35.1376C314.152 35.1377 314.152 35.1378 314.152 35.1379C314.151 35.138 314.151 35.1381 314.447 36.0931C314.743 37.0482 314.743 37.0483 314.742 37.0484C314.742 37.0484 314.742 37.0486 314.741 37.0486C314.741 37.0488 314.741 37.0489 314.74 37.049C314.74 37.0492 314.739 37.0493 314.739 37.0494C314.738 37.0496 314.738 37.0496 314.739 37.0493C314.741 37.0488 314.746 37.0474 314.753 37.0452C314.769 37.0409 314.796 37.0336 314.834 37.0242C314.91 37.0053 315.03 36.9781 315.189 36.9498C315.507 36.8931 315.977 36.8325 316.561 36.8249C317.728 36.8098 319.339 37.0059 321.096 37.8623L321.973 36.0649ZM313.548 35.6549L309.954 43.0218L311.751 43.8983L315.346 36.5314L313.548 35.6549ZM310.414 44.3588L322.543 50.2722L323.419 48.4747L311.291 42.5613L310.414 44.3588ZM323.879 49.8127L327.482 42.4499L325.685 41.5713L322.083 48.9342L323.879 49.8127ZM326.584 42.0106C327.554 41.7672 327.553 41.7666 327.553 41.766C327.553 41.7658 327.553 41.7652 327.553 41.7648C327.553 41.7639 327.553 41.763 327.552 41.7621C327.552 41.7602 327.551 41.7581 327.551 41.7558C327.55 41.7513 327.548 41.7461 327.547 41.7401C327.543 41.7282 327.539 41.7135 327.534 41.6961C327.524 41.6611 327.51 41.6153 327.491 41.5596C327.453 41.448 327.397 41.2966 327.315 41.1131C327.153 40.746 326.892 40.2502 326.485 39.6887C325.668 38.5607 324.28 37.1899 321.973 36.0649L321.096 37.8623C323.099 38.8391 324.235 39.9918 324.865 40.8618C325.182 41.2993 325.375 41.6712 325.486 41.922C325.542 42.0474 325.576 42.1425 325.596 42.2003C325.606 42.2292 325.612 42.2487 325.614 42.258C325.616 42.2626 325.616 42.2646 325.616 42.264C325.616 42.2637 325.616 42.2627 325.615 42.261C325.615 42.2602 325.615 42.2592 325.615 42.258C325.614 42.2574 325.614 42.2568 325.614 42.2561C325.614 42.2558 325.614 42.2553 325.614 42.2551C325.614 42.2545 325.613 42.254 326.584 42.0106Z" fill="#060606" mask="url(#path-26-inside-2_268_2047)"/>
<path d="M320.089 54.1639L308.859 48.6885L312.108 42.0288C312.187 42.011 312.289 41.99 312.411 41.9687C312.751 41.9093 313.248 41.8475 313.862 41.8413C315.089 41.829 316.78 42.0393 318.621 42.9353C320.701 43.9494 321.902 45.1535 322.581 46.0849C322.921 46.5519 323.132 46.9531 323.256 47.2317C323.301 47.3316 323.334 47.4156 323.358 47.4813L320.089 54.1639ZM311.905 42.0797C311.905 42.0798 311.905 42.0798 311.905 42.0797L311.905 42.0797Z" fill="white" stroke="#060606"/>
<path d="M277.403 112.436L310.045 45.5198C310.508 45.3968 313.48 44.7062 316.904 46.3762C320.748 48.2505 321.683 50.8464 321.806 51.2448L289.083 118.132L277.125 127.539L277.403 112.436Z" fill="white" stroke="#060606"/>
<path d="M276.876 128.004L276.956 123.719L280.183 125.292L276.876 128.004Z" fill="#060606"/>
<path d="M278.437 112.817C278.437 112.817 284.813 112.643 288.165 117.561" stroke="#060606" stroke-miterlimit="10" stroke-linecap="round" stroke-linejoin="round"/>
<path d="M285.091 111.553L315.498 49.2109" stroke="#060606" stroke-miterlimit="10" stroke-linecap="round"/>
<path d="M285.893 6.72309L286.368 5.85742L286.843 6.72309C288.749 10.198 291.616 13.0554 295.103 14.9555L295.972 15.4286L295.103 15.9018C291.616 17.8019 288.749 20.6593 286.843 24.1342L286.368 24.9998L285.893 24.1342C283.986 20.6593 281.119 17.8019 277.632 15.9018L276.764 15.4286L277.632 14.9555C281.118 13.0554 283.985 10.198 285.893 6.72309Z" fill="#B87FFF"/>
<path d="M292.484 2.34847L292.676 2L292.867 2.34847C293.635 3.74845 294.791 4.90022 296.197 5.66685L296.546 5.85758L296.197 6.04832C294.792 6.81373 293.636 7.9655 292.867 9.3667L292.676 9.71517L292.484 9.3667C291.716 7.96672 290.56 6.81495 289.154 6.04832L288.805 5.85758L289.154 5.66685C290.56 4.90144 291.716 3.74967 292.484 2.34847Z" fill="#B87FFF"/>
<path d="M280.129 6.72309L280.604 5.85742L281.079 6.72309C282.985 10.198 285.853 13.0554 289.34 14.9555L290.208 15.4286L289.34 15.9018C285.853 17.8019 282.985 20.6593 281.079 24.1342L280.604 24.9998L280.129 24.1342C278.223 20.6593 275.355 17.8019 271.869 15.9018L271 15.4286L271.869 14.9555C275.355 13.0554 278.223 10.198 280.129 6.72309Z" fill="white" stroke="#060606" stroke-miterlimit="10"/>
<path d="M287.681 2.34847L287.872 2L288.064 2.34847C288.832 3.74845 289.988 4.90022 291.394 5.66685L291.743 5.85758L291.394 6.04832C289.989 6.81373 288.833 7.9655 288.064 9.3667L287.872 9.71517L287.681 9.3667C286.913 7.96672 285.757 6.81495 284.351 6.04832L284.002 5.85758L284.351 5.66685C285.756 4.90144 286.912 3.74967 287.681 2.34847Z" fill="white" stroke="#060606" stroke-miterlimit="10"/>
</svg>
