<svg width="1260" height="428" viewBox="0 0 1260 428" fill="none" xmlns="http://www.w3.org/2000/svg">
<path d="M0 191.87C0 115.707 61.7422 53.9648 137.905 53.9648H1102.08C1178.24 53.9648 1239.99 115.707 1239.99 191.87V191.87C1239.99 268.033 1178.24 329.775 1102.08 329.775H137.905C61.742 329.775 0 268.033 0 191.87V191.87Z" fill="#B87FFF"/>
<path fill-rule="evenodd" clip-rule="evenodd" d="M784.596 121.922C794.322 131.61 809.067 136.454 828.833 136.454C848.284 136.454 862.873 131.61 872.599 121.922C882.325 112.234 887.188 99.5773 887.188 83.9517C887.188 72.4987 884.262 62.5031 878.409 53.9648L778.428 53.9648C773.128 62.4645 770.478 72.4601 770.478 83.9517C770.478 99.5773 775.184 112.234 784.596 121.922ZM883.275 329.775H777.195C777.423 317.399 777.537 305.93 777.537 295.367C777.537 256.303 776.282 212.551 773.772 164.111H886.717C884.207 210.676 882.952 254.428 882.952 295.367C882.952 306.131 883.06 317.601 883.275 329.775ZM1040.21 329.775H932.797C933.029 317.136 933.145 304.73 933.145 292.554C933.145 252.553 931.891 209.738 929.381 164.111C950.087 165.049 965.931 165.518 976.912 165.518C988.52 165.518 1004.36 165.049 1024.44 164.111L1038.09 233.02C1045.31 208.019 1056.6 189.581 1071.97 177.706C1087.35 165.518 1105.23 159.424 1125.62 159.424C1144.45 159.424 1160.76 163.643 1174.57 172.08C1188.37 180.206 1198.72 191.3 1205.63 205.363C1212.84 219.426 1216.45 235.208 1216.45 252.709V268.951C1194.02 302.162 1157.51 325.079 1115.48 329.132C1115.65 316.768 1115.74 304.731 1115.74 293.023C1115.74 279.272 1112.29 268.334 1105.39 260.209C1098.8 252.084 1090.33 248.021 1079.97 248.021C1069.62 248.021 1060.84 252.709 1053.62 262.084C1046.4 271.147 1042.17 283.648 1040.91 299.586C1040.6 311.33 1040.37 321.393 1040.21 329.775Z" fill="white"/>
<path d="M1108.53 120.849C1108.81 119.273 1108.15 117.704 1106.9 116.508C1108.48 115.813 1109.64 114.567 1109.92 112.987C1110.42 110.147 1107.9 107.332 1104.29 106.696C1100.68 106.06 1097.34 107.848 1096.84 110.688C1096.57 112.264 1097.22 113.833 1098.47 115.029C1096.89 115.723 1095.73 116.97 1095.46 118.55C1095.18 120.125 1095.83 121.695 1097.09 122.89C1095.5 123.585 1094.35 124.832 1094.07 126.412C1093.79 127.987 1094.45 129.557 1095.7 130.752C1094.11 131.447 1092.96 132.694 1092.68 134.273C1092.4 135.849 1093.06 137.418 1094.31 138.614C1092.72 139.308 1091.57 140.555 1091.29 142.135C1091.02 143.71 1091.67 145.28 1092.93 146.475C1091.34 147.17 1090.19 148.417 1089.91 149.997C1089.63 151.572 1090.28 153.142 1091.54 154.337C1089.95 155.032 1088.8 156.279 1088.52 157.858C1088.24 159.434 1088.9 161.003 1090.15 162.199C1088.56 162.893 1087.41 164.14 1087.13 165.72C1086.86 167.295 1087.51 168.865 1088.76 170.06C1087.18 170.755 1086.02 172.002 1085.75 173.582C1085.24 176.422 1087.77 179.237 1091.37 179.873C1094.98 180.508 1098.32 178.72 1098.82 175.885C1099.09 174.31 1098.44 172.74 1097.19 171.545C1098.77 170.85 1099.93 169.603 1100.2 168.023C1100.48 166.448 1099.83 164.878 1098.57 163.683C1100.16 162.988 1101.31 161.741 1101.59 160.162C1101.87 158.586 1101.21 157.017 1099.96 155.821C1101.55 155.126 1102.7 153.88 1102.98 152.3C1103.26 150.725 1102.6 149.155 1101.35 147.96C1102.94 147.265 1104.09 146.018 1104.37 144.438C1104.64 142.863 1103.99 141.293 1102.73 140.098C1104.32 139.403 1105.47 138.156 1105.75 136.577C1106.03 135.001 1105.38 133.432 1104.12 132.236C1105.71 131.541 1106.86 130.295 1107.14 128.715C1107.42 127.14 1106.76 125.57 1105.51 124.375C1107.1 123.675 1108.25 122.424 1108.53 120.849Z" fill="#060606" stroke="#060606" stroke-width="2" stroke-miterlimit="10"/>
<path d="M1159.82 204.064L1104.04 194.234C1100.5 193.612 1098.14 190.243 1098.77 186.712L1111.53 114.358C1112.16 110.827 1115.53 108.469 1119.06 109.091L1174.85 118.922C1178.38 119.544 1180.74 122.913 1180.12 126.444L1167.35 198.798C1166.73 202.328 1163.36 204.687 1159.82 204.064Z" fill="#B87FFF"/>
<path d="M1100.39 114.814C1103.09 115.237 1105.74 113.275 1106.3 110.433C1106.87 107.59 1105.13 104.943 1102.43 104.52C1099.73 104.097 1097.08 106.058 1096.51 108.901C1095.95 111.743 1097.68 114.391 1100.39 114.814Z" stroke="white" stroke-width="2" stroke-miterlimit="10"/>
<path d="M1099.03 122.496C1101.74 122.919 1104.39 120.958 1104.95 118.115C1105.51 115.272 1103.78 112.625 1101.08 112.202C1098.37 111.779 1095.72 113.74 1095.16 116.583C1094.6 119.425 1096.33 122.073 1099.03 122.496Z" stroke="white" stroke-width="2" stroke-miterlimit="10"/>
<path d="M1097.68 130.18C1100.38 130.603 1103.03 128.642 1103.59 125.799C1104.16 122.956 1102.42 120.309 1099.72 119.886C1097.02 119.463 1094.37 121.424 1093.8 124.267C1093.24 127.11 1094.97 129.757 1097.68 130.18Z" stroke="white" stroke-width="2" stroke-miterlimit="10"/>
<path d="M1096.32 137.857C1099.03 138.28 1101.67 136.319 1102.24 133.476C1102.8 130.634 1101.07 127.986 1098.37 127.563C1095.66 127.14 1093.01 129.102 1092.45 131.944C1091.88 134.787 1093.62 137.434 1096.32 137.857Z" stroke="white" stroke-width="2" stroke-miterlimit="10"/>
<path d="M1094.97 145.542C1097.67 145.965 1100.32 144.003 1100.88 141.161C1101.45 138.318 1099.71 135.671 1097.01 135.247C1094.31 134.824 1091.66 136.786 1091.09 139.628C1090.53 142.471 1092.26 145.119 1094.97 145.542Z" stroke="white" stroke-width="2" stroke-miterlimit="10"/>
<path d="M1093.61 153.224C1096.31 153.647 1098.96 151.685 1099.53 148.843C1100.09 146 1098.36 143.353 1095.65 142.93C1092.95 142.507 1090.3 144.468 1089.74 147.311C1089.17 150.153 1090.91 152.801 1093.61 153.224Z" stroke="white" stroke-width="2" stroke-miterlimit="10"/>
<path d="M1092.26 160.902C1094.96 161.325 1097.61 159.364 1098.17 156.521C1098.74 153.678 1097 151.031 1094.3 150.608C1091.6 150.185 1088.95 152.146 1088.38 154.989C1087.82 157.831 1089.55 160.479 1092.26 160.902Z" stroke="white" stroke-width="2" stroke-miterlimit="10"/>
<path d="M1090.9 168.585C1093.6 169.008 1096.25 167.047 1096.82 164.204C1097.38 161.362 1095.65 158.714 1092.94 158.291C1090.24 157.868 1087.59 159.83 1087.03 162.672C1086.46 165.515 1088.2 168.162 1090.9 168.585Z" stroke="white" stroke-width="2" stroke-miterlimit="10"/>
<path d="M1089.54 176.264C1092.25 176.687 1094.9 174.725 1095.46 171.882C1096.03 169.04 1094.29 166.392 1091.59 165.969C1088.88 165.546 1086.24 167.508 1085.67 170.35C1085.11 173.193 1086.84 175.84 1089.54 176.264Z" stroke="white" stroke-width="2" stroke-miterlimit="10"/>
<path d="M1151.6 194.087L1095.82 184.258C1092.28 183.635 1089.92 180.267 1090.55 176.735L1103.31 104.382C1103.94 100.851 1107.31 98.492 1110.84 99.1146L1166.63 108.945C1170.16 109.568 1172.52 112.936 1171.9 116.467L1159.13 188.821C1158.51 192.351 1155.14 194.71 1151.6 194.087Z" fill="white" stroke="#060606" stroke-width="2" stroke-miterlimit="10"/>
<path d="M1159.62 120.22L1113.55 112.214L1113.41 113.01L1159.47 121.016L1159.62 120.22Z" fill="#060606"/>
<path d="M1158.71 125.359L1112.64 117.354L1112.5 118.149L1158.57 126.155L1158.71 125.359Z" fill="#060606"/>
<path d="M1157.8 130.497L1111.74 122.491L1111.6 123.287L1157.66 131.293L1157.8 130.497Z" fill="#060606"/>
<path fill-rule="evenodd" clip-rule="evenodd" d="M1136.18 68.4967L1082.61 81.0883C1077.24 82.3513 1071.79 79.1871 1070.45 74.0138L1062.2 42.1327C1060.86 36.9639 1064.13 31.7471 1069.51 30.4831L1129.94 16.2777C1135.31 15.0148 1140.75 18.1789 1142.09 23.3522L1148.37 47.5897L1173.37 41.7207C1179.3 40.3285 1185.3 43.8204 1186.78 49.5179L1194.47 79.1707C1195.95 84.8671 1192.34 90.6175 1186.41 92.0108L1155.55 99.2569C1149.62 100.649 1143.61 97.1572 1142.13 91.4597L1136.18 68.4967Z" fill="#B87FFF"/>
<path d="M1134.02 62.7825L1074.31 76.2455C1069 77.4424 1063.53 74.1456 1062.1 68.8746L1053.27 36.396C1051.84 31.125 1054.98 25.8872 1060.29 24.6892L1120 11.2262C1125.31 10.0293 1130.78 13.3261 1132.21 18.5971L1141.04 51.0802C1142.47 56.3477 1139.33 61.5855 1134.02 62.7825Z" fill="white" stroke="#060606" stroke-width="2" stroke-miterlimit="10"/>
<path d="M1177.25 87.7895L1146.9 94.6208C1141.07 95.9334 1135.06 92.3144 1133.49 86.54L1125.3 56.4866C1123.73 50.7121 1127.19 44.964 1133.02 43.6514L1163.36 36.82C1169.19 35.5074 1175.2 39.1264 1176.77 44.9009L1184.96 74.9542C1186.53 80.7277 1183.08 86.4759 1177.25 87.7895Z" fill="white" stroke="#060606" stroke-width="2" stroke-miterlimit="10"/>
<path d="M1070.13 40.9984C1069.87 41.2271 1069.26 41.5902 1068.4 41.7757C1066.47 42.1926 1064.83 41.1187 1064.25 39.1078C1063.67 37.0834 1064.6 35.3247 1066.69 34.8736C1067.38 34.7251 1068.04 34.7704 1068.4 34.8649L1068.4 35.846C1068.08 35.7429 1067.6 35.6876 1066.97 35.8247C1065.5 36.1416 1065.02 37.4271 1065.41 38.7994C1065.85 40.3211 1067.07 41.0531 1068.34 40.779C1069 40.6362 1069.39 40.3653 1069.68 40.1445L1070.13 40.9984Z" fill="#060606"/>
<path d="M1071.14 31.9831L1071.66 33.8481L1073.29 33.4933L1073.54 34.3923L1071.92 34.7471L1072.9 38.2491C1073.13 39.0541 1073.48 39.4625 1074.11 39.3245C1074.4 39.2597 1074.61 39.1715 1074.74 39.1003L1075.04 39.9746C1074.85 40.1164 1074.52 40.2595 1074.08 40.3553C1073.56 40.4708 1073.08 40.3893 1072.72 40.1264C1072.3 39.8479 1072.02 39.2963 1071.81 38.5315L1070.81 34.9893L1069.84 35.2005L1069.59 34.3016L1070.56 34.0903L1070.12 32.5339L1071.14 31.9831Z" fill="#060606"/>
<path d="M1075.54 34.984C1075.33 34.218 1075.13 33.5623 1074.92 32.9659L1075.91 32.7487L1076.31 34.017L1076.36 34.0057C1076.4 33.07 1076.93 32.3695 1077.7 32.203C1077.83 32.1748 1077.92 32.1685 1078.03 32.1728L1078.35 33.2883C1078.22 33.2868 1078.1 33.2987 1077.95 33.3326C1077.14 33.5075 1076.75 34.2633 1076.85 35.1842C1076.87 35.3511 1076.9 35.5449 1076.95 35.7465L1077.93 39.2138L1076.81 39.4593L1075.54 34.984V34.984Z" fill="#060606"/>
<path d="M1078.91 28.9243L1079.96 28.6815L1082.44 38.0637L1081.39 38.3065L1078.91 28.9243Z" fill="#060606"/>
<path d="M1153.27 68.8812L1155.07 64.3741C1155.24 63.9601 1155.42 63.5897 1155.61 63.1727L1155.6 63.1455L1152.13 63.8941L1151.85 62.9272L1156.74 61.8728L1156.95 62.6247L1155.18 67.0688C1155.02 67.4936 1154.84 67.8776 1154.65 68.2809L1154.66 68.3082L1158.41 67.4995L1158.69 68.4528L1153.47 69.5758L1153.27 68.8812V68.8812Z" fill="#060606"/>
<path d="M965.559 336.225C977.789 327.004 982.741 310.351 976.601 294.926C969.096 276.069 947.863 266.209 929.172 272.9C910.481 279.592 901.414 300.301 908.92 319.158C915.056 334.577 930.378 343.979 945.982 343.234C947.229 345.009 948.941 346.364 950.869 347.187L970.739 409.285C972.755 414.351 979.37 416.671 985.518 414.47C991.666 412.269 995.014 406.382 992.998 401.316L964.275 342.972C965.424 340.977 965.895 338.618 965.559 336.225Z" fill="#B87FFF"/>
<path d="M975.586 409.929C969.784 412.028 963.541 409.812 961.642 404.98L941.179 340.214C939.28 335.382 938.182 331.64 943.984 329.54C949.786 327.441 951.001 331.369 952.901 336.201L982.648 397.372C984.544 402.213 981.381 407.832 975.586 409.929Z" fill="white" stroke="#060606" stroke-width="2" stroke-miterlimit="10"/>
<path d="M951.302 346.476C956.784 344.525 959.443 338.49 957.24 332.996C955.037 327.501 948.807 324.629 943.324 326.579C937.841 328.53 935.182 334.565 937.385 340.06C939.588 345.554 945.819 348.427 951.302 346.476Z" fill="white" stroke="#060606" stroke-width="2" stroke-miterlimit="10"/>
<path d="M949.953 341.345C968.337 334.804 977.253 314.568 969.866 296.145C962.48 277.723 941.588 268.091 923.204 274.631C904.82 281.172 895.905 301.409 903.291 319.831C910.678 338.254 931.569 347.886 949.953 341.345Z" fill="white" stroke="#060606" stroke-width="2" stroke-miterlimit="10"/>
<path d="M945.661 330.638C958.144 326.197 964.198 312.456 959.182 299.946C954.166 287.437 939.981 280.897 927.497 285.338C915.014 289.779 908.961 303.52 913.976 316.03C918.992 328.539 933.177 335.08 945.661 330.638Z" fill="white" stroke="#060606" stroke-width="2" stroke-miterlimit="10"/>
<path d="M946.275 326.831C933.742 331.291 919.503 324.725 914.467 312.165C912.866 308.172 912.391 304.062 912.889 300.153C911.401 305.104 911.536 310.629 913.665 315.938C918.7 328.499 932.94 335.064 945.473 330.605C954.022 327.563 959.562 320.175 960.625 311.802C958.59 318.57 953.51 324.257 946.275 326.831Z" fill="#060606"/>
<path d="M1000.16 362.574C1011.58 362.574 1020.84 353.332 1020.84 341.927C1020.84 330.522 1011.58 321.28 1000.16 321.28C988.748 321.28 979.489 330.522 979.489 341.927C979.489 353.332 988.748 362.574 1000.16 362.574Z" fill="#B87FFF" stroke="#B87FFF" stroke-width="3"/>
<path d="M995.164 355.079C1006.3 355.079 1015.34 346.06 1015.34 334.932C1015.34 323.804 1006.3 314.785 995.164 314.785C984.023 314.785 974.989 323.804 974.989 334.932C974.989 346.06 984.023 355.079 995.164 355.079Z" fill="white" stroke="#060606" stroke-width="2"/>
<path fill-rule="evenodd" clip-rule="evenodd" d="M982.118 334.932C982.118 327.738 987.958 321.906 995.163 321.906C1002.37 321.906 1008.21 327.738 1008.21 334.932C1008.21 342.126 1002.37 347.958 995.163 347.958C987.958 347.958 982.118 342.126 982.118 334.932ZM995.163 323.724C988.964 323.724 983.938 328.742 983.938 334.932C983.938 341.122 988.964 346.14 995.163 346.14C1001.36 346.14 1006.39 341.122 1006.39 334.932C1006.39 328.742 1001.36 323.724 995.163 323.724Z" fill="#060606"/>
<path fill-rule="evenodd" clip-rule="evenodd" d="M982.118 334.932C982.118 334.43 982.526 334.023 983.028 334.023H1007.3C1007.8 334.023 1008.21 334.43 1008.21 334.932C1008.21 335.434 1007.8 335.841 1007.3 335.841H983.028C982.526 335.841 982.118 335.434 982.118 334.932Z" fill="#060606"/>
<path fill-rule="evenodd" clip-rule="evenodd" d="M992.612 323.143C993.3 322.417 994.162 321.906 995.163 321.906C996.164 321.906 997.025 322.417 997.713 323.143C998.399 323.867 998.975 324.867 999.44 326.027C1000.37 328.351 1000.93 331.5 1000.93 334.932C1000.93 338.364 1000.37 341.513 999.44 343.838C998.975 344.998 998.399 345.997 997.713 346.721C997.025 347.448 996.164 347.958 995.163 347.958C994.162 347.958 993.3 347.448 992.612 346.721C991.926 345.997 991.35 344.998 990.886 343.838C989.954 341.513 989.399 338.364 989.399 334.932C989.399 331.5 989.954 328.351 990.886 326.027C991.35 324.867 991.926 323.867 992.612 323.143ZM992.576 326.702C991.75 328.763 991.219 331.672 991.219 334.932C991.219 338.192 991.75 341.102 992.576 343.163C992.989 344.196 993.459 344.971 993.935 345.473C994.408 345.973 994.823 346.14 995.163 346.14C995.502 346.14 995.917 345.973 996.391 345.473C996.866 344.971 997.336 344.196 997.75 343.163C998.575 341.102 999.106 338.192 999.106 334.932C999.106 331.672 998.575 328.763 997.75 326.702C997.336 325.669 996.866 324.894 996.391 324.392C995.917 323.892 995.502 323.724 995.163 323.724C994.823 323.724 994.408 323.892 993.935 324.392C993.459 324.894 992.989 325.669 992.576 326.702Z" fill="#060606"/>
<path fill-rule="evenodd" clip-rule="evenodd" d="M985.939 325.894C986.294 325.539 986.871 325.539 987.226 325.894C989.258 327.923 992.063 329.177 995.163 329.177C998.262 329.177 1001.07 327.923 1003.1 325.894C1003.45 325.539 1004.03 325.539 1004.39 325.894C1004.74 326.249 1004.74 326.824 1004.39 327.179C1002.03 329.535 998.764 330.994 995.163 330.994C991.561 330.994 988.298 329.535 985.939 327.179C985.584 326.824 985.584 326.249 985.939 325.894Z" fill="#060606"/>
<path fill-rule="evenodd" clip-rule="evenodd" d="M985.939 342.686C988.298 340.329 991.561 338.87 995.163 338.87C998.764 338.87 1002.03 340.329 1004.39 342.686C1004.74 343.04 1004.74 343.616 1004.39 343.971C1004.03 344.326 1003.45 344.326 1003.1 343.971C1001.07 341.941 998.262 340.688 995.163 340.688C992.063 340.688 989.258 341.941 987.226 343.971C986.871 344.326 986.294 344.326 985.939 343.971C985.584 343.616 985.584 343.04 985.939 342.686Z" fill="#060606"/>
<path d="M1017.29 250.728C1015.77 239.884 1005.78 232.318 994.937 233.742L993.206 221.438C992.598 217.111 977.977 215.591 960.547 218.039C943.118 220.486 929.482 225.975 930.091 230.303L939.022 293.811C939.075 294.189 939.075 294.189 939.103 294.382C939.711 298.709 954.332 300.23 971.762 297.782C989.191 295.334 1002.83 289.845 1002.22 285.518C1002.19 285.324 1002.2 285.252 1002.14 284.946L1000.49 273.214C1011.31 271.596 1018.82 261.572 1017.29 250.728ZM1009.71 251.793C1010.65 258.451 1006.05 264.607 999.422 265.637L996.002 241.319C1002.66 240.483 1008.77 245.135 1009.71 251.793Z" fill="#B87FFF"/>
<path d="M988.764 228.271C977.853 229.803 970.249 239.885 971.782 250.786C973.315 261.687 983.405 269.284 994.316 267.751C1005.23 266.219 1012.83 256.138 1011.3 245.236C1009.76 234.335 999.675 226.739 988.764 228.271ZM993.25 260.17C986.529 261.114 980.31 256.436 979.365 249.717C978.421 243.002 983.103 236.788 989.829 235.843C996.549 234.899 1002.77 239.578 1003.71 246.297C1004.66 253.016 999.975 259.226 993.25 260.17Z" fill="white" stroke="#060606" stroke-width="2" stroke-miterlimit="10"/>
<path d="M987.211 215.946C986.602 211.619 971.981 210.099 954.551 212.547C937.118 214.995 923.482 220.484 924.091 224.811L933.022 288.319C933.075 288.698 933.075 288.698 933.103 288.891C933.711 293.218 948.332 294.739 965.762 292.291C983.191 289.843 996.827 284.354 996.218 280.027C996.191 279.833 996.199 279.76 996.138 279.455L987.206 215.947L987.211 215.946Z" fill="white" stroke="#060606" stroke-width="2" stroke-miterlimit="10"/>
<path d="M956.277 224.941C969.204 223.125 979.497 220.325 979.266 218.686C979.036 217.047 968.369 217.19 955.442 219.006C942.516 220.821 932.223 223.622 932.453 225.261C932.684 226.9 943.35 226.756 956.277 224.941Z" fill="#060606"/>
<path d="M929.327 224.902C929.327 224.902 934.785 228.252 955.226 225.134C975.667 222.017 982.21 217.474 982.21 217.474" stroke="#060606" stroke-width="2" stroke-miterlimit="10"/>
<path d="M940.355 226.46L943.757 250.646" stroke="#060606" stroke-width="2" stroke-miterlimit="10"/>
<path d="M949.353 250.743L939.833 252.08L941.5 263.936L951.02 262.599L949.353 250.743Z" fill="#060606"/>
<path d="M948.535 250.127L939.015 251.464L940.682 263.319L950.202 261.982L948.535 250.127Z" fill="white" stroke="#060606" stroke-width="2" stroke-miterlimit="10"/>
<path d="M1214.6 59.4818L1145.31 218.674L1144.91 249.092L1167.47 227.929L1236.9 68.7967C1236.9 68.7967 1235.54 63.1598 1227.62 59.8513C1220.55 56.905 1214.6 59.4818 1214.6 59.4818Z" fill="#B87FFF"/>
<path d="M1203.74 60.9334L1209.99 46.9346C1211.57 46.4306 1216.65 45.1654 1222.45 47.5247C1228.99 50.1905 1231.05 54.3532 1231.54 55.6298L1225.25 69.6923L1203.74 60.9334Z" fill="white" stroke="#060606" stroke-width="2"/>
<mask id="path-49-inside-1_268_1079" fill="white">
<path d="M1222.76 46.8688C1229.96 49.7851 1231.92 54.5593 1232.27 55.5883L1225.53 70.5605L1202.83 61.3676L1209.54 46.4242C1210.75 45.9909 1216.35 44.2729 1222.76 46.8688ZM1223.03 46.2761C1215.48 43.2206 1209.11 45.9365 1209.11 45.9365L1202.02 61.7453L1225.8 71.3802L1232.91 55.578C1232.91 55.578 1231.48 49.7005 1223.03 46.2761Z"/>
</mask>
<path d="M1222.76 46.8688C1229.96 49.7851 1231.92 54.5593 1232.27 55.5883L1225.53 70.5605L1202.83 61.3676L1209.54 46.4242C1210.75 45.9909 1216.35 44.2729 1222.76 46.8688ZM1223.03 46.2761C1215.48 43.2206 1209.11 45.9365 1209.11 45.9365L1202.02 61.7453L1225.8 71.3802L1232.91 55.578C1232.91 55.578 1231.48 49.7005 1223.03 46.2761Z" fill="#060606"/>
<path d="M1232.27 55.5883L1234.1 56.3345L1234.41 55.6464L1234.18 54.9436L1232.27 55.5883ZM1225.53 70.5605L1224.72 72.3663L1226.55 73.1098L1227.36 71.3068L1225.53 70.5605ZM1202.83 61.3676L1201 60.6233L1200.19 62.4291L1202.02 63.1734L1202.83 61.3676ZM1209.54 46.4242L1208.89 44.5928L1208.06 44.8897L1207.7 45.6799L1209.54 46.4242ZM1209.11 45.9365L1208.35 44.1508L1207.6 44.4681L1207.28 45.1923L1209.11 45.9365ZM1202.02 61.7453L1200.18 61.001L1199.37 62.8068L1201.21 63.5511L1202.02 61.7453ZM1225.8 71.3802L1224.99 73.186L1226.83 73.9295L1227.64 72.1263L1225.8 71.3802ZM1232.91 55.578L1234.75 56.3241L1234.75 56.3223L1232.91 55.578ZM1221.95 48.6746C1228.49 51.3245 1230.14 55.5797 1230.35 56.2329L1234.18 54.9436C1233.71 53.5389 1231.43 48.2457 1223.57 45.063L1221.95 48.6746ZM1230.43 54.842L1223.69 69.8143L1227.36 71.3068L1234.1 56.3345L1230.43 54.842ZM1226.34 68.7547L1203.64 59.5618L1202.02 63.1734L1224.72 72.3663L1226.34 68.7547ZM1204.67 62.1119L1211.38 47.1685L1207.7 45.6799L1201 60.6233L1204.67 62.1119ZM1210.19 48.2557C1211.19 47.8985 1216.21 46.3487 1221.95 48.6746L1223.57 45.063C1216.5 42.1971 1210.32 44.0832 1208.89 44.5928L1210.19 48.2557ZM1223.84 44.4702C1219.68 42.7882 1215.85 42.6936 1213.05 43.0214C1211.65 43.1852 1210.51 43.4551 1209.7 43.6889C1209.29 43.806 1208.97 43.9145 1208.74 43.997C1208.63 44.0383 1208.54 44.0732 1208.47 44.0996C1208.44 44.1127 1208.41 44.1238 1208.39 44.1324C1208.38 44.1367 1208.37 44.1404 1208.36 44.1435C1208.36 44.145 1208.36 44.1464 1208.35 44.1476C1208.35 44.1482 1208.35 44.1488 1208.35 44.1493C1208.35 44.1496 1208.35 44.15 1208.35 44.1501C1208.35 44.1505 1208.35 44.1508 1209.11 45.9365C1209.88 47.7223 1209.88 47.7226 1209.88 47.7229C1209.88 47.723 1209.88 47.7233 1209.88 47.7235C1209.88 47.7239 1209.88 47.7242 1209.88 47.7245C1209.88 47.725 1209.88 47.7254 1209.88 47.7257C1209.87 47.7262 1209.87 47.726 1209.88 47.7253C1209.88 47.7239 1209.89 47.72 1209.9 47.714C1209.93 47.7021 1209.99 47.6816 1210.06 47.6546C1210.21 47.6006 1210.45 47.5208 1210.76 47.4309C1211.38 47.2509 1212.3 47.0328 1213.43 46.8996C1215.71 46.6333 1218.82 46.7084 1222.22 48.0819L1223.84 44.4702ZM1207.28 45.1923L1200.18 61.001L1203.86 62.4896L1210.95 46.6808L1207.28 45.1923ZM1201.21 63.5511L1224.99 73.186L1226.61 69.5743L1202.83 59.9395L1201.21 63.5511ZM1227.64 72.1263L1234.75 56.3241L1231.08 54.8319L1223.97 70.634L1227.64 72.1263ZM1232.91 55.578C1234.87 55.0827 1234.87 55.0816 1234.87 55.0805C1234.87 55.0801 1234.87 55.0789 1234.87 55.0781C1234.87 55.0765 1234.87 55.0748 1234.87 55.0729C1234.87 55.0693 1234.86 55.0653 1234.86 55.0609C1234.86 55.0522 1234.86 55.042 1234.86 55.0304C1234.85 55.0072 1234.84 54.9784 1234.83 54.9442C1234.81 54.8757 1234.78 54.7855 1234.75 54.6758C1234.67 54.4565 1234.56 54.1586 1234.41 53.7992C1234.09 53.0805 1233.58 52.1137 1232.77 51.0389C1231.16 48.877 1228.41 46.3239 1223.84 44.4702L1222.22 48.0819C1226.09 49.6527 1228.29 51.7505 1229.5 53.3835C1230.12 54.2061 1230.49 54.9227 1230.71 55.4131C1230.82 55.6582 1230.89 55.8462 1230.92 55.9617C1230.94 56.0194 1230.96 56.0589 1230.96 56.0782C1230.96 56.0878 1230.96 56.0924 1230.96 56.0917C1230.96 56.0913 1230.96 56.0896 1230.96 56.0865C1230.96 56.085 1230.96 56.0832 1230.96 56.0809C1230.96 56.0798 1230.96 56.0786 1230.96 56.0774C1230.96 56.0767 1230.96 56.0757 1230.96 56.0754C1230.96 56.0743 1230.96 56.0733 1232.91 55.578Z" fill="#060606" mask="url(#path-49-inside-1_268_1079)"/>
<path d="M1220.56 81.2352L1198.59 72.3264L1205.04 57.9272C1205.2 57.8727 1205.42 57.8054 1205.67 57.7326C1206.34 57.5428 1207.31 57.3167 1208.51 57.1809C1210.92 56.9092 1214.21 56.9991 1217.8 58.4506C1221.86 60.096 1224.2 62.3028 1225.52 64.0621C1226.19 64.9447 1226.6 65.7206 1226.84 66.2654C1226.94 66.4776 1227 66.6546 1227.05 66.7889L1220.56 81.2352ZM1204.68 58.0614C1204.68 58.0615 1204.68 58.0615 1204.68 58.0613L1204.68 58.0614Z" fill="white" stroke="#060606" stroke-width="2"/>
<path d="M1142.65 202.429L1202.59 64.8923C1203.45 64.5657 1208.96 62.6634 1215.32 65.3188C1222.47 68.2992 1224.22 73.2312 1224.46 73.9919L1164.36 211.486L1142.26 232.172L1142.65 202.429Z" fill="white" stroke="#060606" stroke-width="2"/>
<path d="M1142.68 232.571L1142.77 223.898L1149.1 226.486L1142.68 232.571Z" fill="#060606"/>
<path d="M1144.39 202.281C1144.39 202.281 1157.26 200.691 1164.11 210.54" stroke="#060606" stroke-width="2" stroke-miterlimit="10" stroke-linecap="round" stroke-linejoin="round"/>
<path d="M1157.51 198.885L1211.8 71.7627" stroke="#060606" stroke-width="2" stroke-miterlimit="10" stroke-linecap="round"/>
</svg>
