<svg width="490" height="127" viewBox="0 0 490 127" fill="none" xmlns="http://www.w3.org/2000/svg">
<path d="M25.4958 27.8682C25.9753 27.5942 26.1419 26.9834 25.8679 26.5039C25.5939 26.0243 24.983 25.8577 24.5035 26.1318L25.4958 27.8682ZM194.5 125L194.47 126L194.5 125ZM489 91L489.894 91.4472C490.095 91.0464 490.004 90.5612 489.672 90.2599C489.341 89.9585 488.849 89.9146 488.469 90.1524L489 91ZM465.003 119.417C464.957 119.967 465.366 120.451 465.917 120.497C466.467 120.542 466.95 120.133 466.996 119.583L465.003 119.417ZM460.287 92.0422C459.758 91.8835 459.201 92.1837 459.042 92.7127C458.883 93.2416 459.183 93.7991 459.712 93.9578L460.287 92.0422ZM24.5035 26.1318C10.3759 34.2047 2.1784 44.216 1.06002 54.9353C-0.0617188 65.6868 5.97693 76.7249 19.3379 86.7377C46.0347 106.745 102.677 123.248 194.47 126L194.53 124C102.824 121.252 46.7156 104.755 20.5373 85.1373C7.46073 75.3376 2.03051 64.9069 3.04923 55.1428C4.0713 45.3465 11.6236 35.7953 25.4958 27.8682L24.5035 26.1318ZM194.47 126C211.24 126.502 269.524 127.628 331.315 123.812C362.21 121.904 394.002 118.76 421.93 113.68C449.828 108.605 473.986 101.579 489.53 91.8476L488.469 90.1524C473.264 99.6712 449.423 106.646 421.572 111.712C393.752 116.773 362.046 119.911 331.192 121.816C269.486 125.626 211.27 124.502 194.53 124L194.47 126ZM488.469 90.1524C481.742 94.3634 476.17 97.9573 472.15 102.343C468.083 106.781 465.621 112.004 465.003 119.417L466.996 119.583C467.579 112.596 469.867 107.794 473.624 103.695C477.429 99.5438 482.757 96.0877 489.53 91.8476L488.469 90.1524ZM488.105 90.5528C488.14 90.4833 488.177 90.4362 488.199 90.4106C488.221 90.3844 488.238 90.3701 488.242 90.3668C488.248 90.3618 488.231 90.3764 488.177 90.4076C488.067 90.4702 487.886 90.5551 487.617 90.6569C487.086 90.8588 486.319 91.0885 485.355 91.3258C483.431 91.799 480.805 92.282 477.881 92.6321C471.994 93.3369 465.081 93.4805 460.287 92.0422L459.712 93.9578C464.918 95.5195 472.172 95.3298 478.119 94.6179C481.111 94.2597 483.818 93.7635 485.832 93.2679C486.836 93.0209 487.69 92.7688 488.327 92.5267C488.644 92.4065 488.934 92.2788 489.171 92.1427C489.29 92.0746 489.416 91.9932 489.531 91.8964C489.637 91.8065 489.788 91.6596 489.894 91.4472L488.105 90.5528Z" fill="#FF6895"/>
<path d="M136.5 1C102.166 1.33333 33.0998 6.6 31.4998 25C29.4998 48 138.5 44 170.5 44C202.5 44 257 37.5 257 25C257 1 146 4 121.5 6" stroke="#FF6895" stroke-width="2"/>
</svg>
