<svg width="385" height="518" viewBox="0 0 385 518" fill="none" xmlns="http://www.w3.org/2000/svg">
<path d="M140.591 1C100.468 45.7015 33.2827 133.572 85.5284 127.441C150.835 119.778 49.6731 41.8699 18.9403 127.441C-11.7924 213.013 219.984 129.996 148.274 76.354C76.5642 22.7122 34.3073 66.1365 43.271 127.441C52.2347 188.746 118.822 179.806 140.591 165.757C162.36 151.708 167.483 105.729 116.261 87.8486" stroke="#FF6895" stroke-linecap="round"/>
<path d="M102.886 219.325L102.476 219.61L102.495 219.637L102.517 219.662L102.886 219.325ZM81.6393 168.05L81.3923 168.484L81.3923 168.484L81.6393 168.05ZM122.617 138.343L122.129 138.454L122.617 138.343ZM72.4237 123.187C72.3463 123.452 72.4984 123.729 72.7634 123.807C73.0285 123.884 73.3062 123.732 73.3836 123.467L72.4237 123.187ZM256.592 285.471L256.159 285.721L256.592 285.471ZM102.517 219.662C103.204 220.417 103.847 220.959 104.449 221.281C105.052 221.605 105.655 221.727 106.218 221.56C106.782 221.392 107.199 220.968 107.497 220.422C107.794 219.879 107.997 219.176 108.124 218.362C108.626 215.122 107.987 209.611 106.241 203.346C102.747 190.811 94.7165 174.903 81.8862 167.615L81.3923 168.484C93.8802 175.578 101.81 191.173 105.278 203.614C107.012 209.837 107.605 215.182 107.135 218.209C107.019 218.961 106.841 219.539 106.62 219.942C106.4 220.344 106.162 220.533 105.934 220.601C105.706 220.669 105.381 220.646 104.921 220.4C104.459 220.152 103.903 219.7 103.256 218.989L102.517 219.662ZM81.8862 167.615C79.3166 166.155 76.1232 165.935 72.6786 166.644C69.2319 167.352 65.4907 168.998 61.7735 171.33C54.3401 175.994 46.9259 183.455 42.0634 191.886C37.2039 200.312 34.8537 209.78 37.6904 218.417C40.5333 227.073 48.5349 234.745 64.0492 239.671L64.3519 238.718C49.0197 233.849 41.3484 226.35 38.6404 218.105C35.9263 209.841 38.1473 200.677 42.9296 192.386C47.7089 184.099 55.007 176.756 62.305 172.177C65.9536 169.888 69.5829 168.301 72.88 167.623C76.1792 166.945 79.1029 167.184 81.3923 168.484L81.8862 167.615ZM64.0492 239.671C79.5505 244.593 91.2697 243.898 99.842 239.579C108.416 235.26 113.748 227.364 116.571 218.08C119.393 208.801 119.722 198.1 118.27 188.085C116.819 178.073 113.582 168.7 109.232 162.081L108.396 162.63C112.646 169.096 115.845 178.32 117.281 188.229C118.716 198.135 118.384 208.682 115.614 217.789C112.845 226.894 107.654 234.524 99.3921 238.686C91.1279 242.85 79.6971 243.591 64.3519 238.718L64.0492 239.671ZM109.232 162.081C100.557 148.884 88.4767 142.477 79.1919 141.376C74.5618 140.827 70.5507 141.59 68.0297 143.59C66.7609 144.596 65.877 145.911 65.4986 147.504C65.1214 149.092 65.2545 150.921 65.9577 152.951L66.9027 152.624C66.2468 150.731 66.1477 149.098 66.4716 147.735C66.7943 146.376 67.545 145.25 68.651 144.373C70.8796 142.606 74.5789 141.836 79.0741 142.369C88.0398 143.433 99.8689 149.657 108.396 162.63L109.232 162.081ZM65.9577 152.951C66.6544 154.963 68.6935 159.01 71.6209 164.174C74.5563 169.353 78.4053 175.69 82.7441 182.298C91.414 195.503 102.07 209.834 111.319 218.147C113.635 220.228 115.873 221.943 117.981 223.169C120.084 224.393 122.087 225.149 123.924 225.275C125.779 225.402 127.454 224.884 128.852 223.594C130.235 222.318 131.31 220.321 132.063 217.554C133.566 212.025 133.831 203.232 132.477 190.335C131.122 177.424 128.137 160.351 123.104 138.233L122.129 138.454C127.158 160.552 130.133 177.583 131.483 190.44C132.834 203.31 132.55 211.949 131.098 217.291C130.372 219.959 129.367 221.758 128.174 222.859C126.996 223.946 125.598 224.387 123.992 224.277C122.367 224.166 120.517 223.488 118.484 222.305C116.455 221.124 114.272 219.457 111.988 217.404C102.84 209.182 92.2429 194.943 83.58 181.749C79.2525 175.158 75.415 168.839 72.4909 163.681C69.5587 158.508 67.5651 154.537 66.9027 152.624L65.9577 152.951ZM123.104 138.233C120.074 124.916 116.176 114.76 111.831 107.651C107.492 100.553 102.665 96.4252 97.7523 95.3072C92.8033 94.1808 87.9189 96.139 83.5705 100.859C79.2303 105.571 75.3786 113.072 72.4237 123.187L73.3836 123.467C76.3158 113.43 80.1104 106.091 84.306 101.537C88.4934 96.9914 93.0343 95.259 97.5304 96.2822C102.063 97.3137 106.701 101.176 110.977 108.172C115.247 115.158 119.114 125.201 122.129 138.454L123.104 138.233ZM256.159 285.721C265.541 302.016 262.879 318.299 256.989 328.84C254.038 334.12 250.305 337.912 246.923 339.56C245.235 340.383 243.675 340.653 242.355 340.361C241.052 340.072 239.911 339.22 239.068 337.644L238.186 338.116C239.145 339.909 240.51 340.976 242.138 341.337C243.749 341.694 245.546 341.344 247.361 340.459C250.988 338.692 254.851 334.716 257.862 329.328C263.894 318.531 266.61 301.87 257.025 285.222L256.159 285.721ZM239.068 337.644C238.885 337.302 238.831 336.993 238.868 336.705C238.907 336.414 239.045 336.105 239.313 335.779C239.862 335.114 240.903 334.443 242.446 333.824C245.516 332.592 250.344 331.652 256.41 331.229C268.528 330.384 285.446 331.612 302.789 336.557C320.131 341.502 337.868 350.156 351.659 364.14C365.442 378.115 375.306 397.436 376.882 423.768L377.88 423.709C376.289 397.136 366.325 377.586 352.371 363.438C338.426 349.297 320.519 340.573 303.063 335.595C285.608 330.618 268.574 329.378 256.341 330.231C250.231 330.657 245.284 331.608 242.073 332.896C240.476 333.537 239.25 334.284 238.542 335.143C238.182 335.579 237.945 336.058 237.877 336.575C237.809 337.097 237.918 337.615 238.186 338.116L239.068 337.644ZM103.297 219.04C102.359 217.69 101.989 216.526 102.046 215.539C102.101 214.567 102.575 213.688 103.493 212.905C105.365 211.308 108.986 210.199 114.057 209.733C124.152 208.807 139.587 210.464 156.94 215.261C191.649 224.855 233.837 246.951 256.159 285.721L257.025 285.222C234.521 246.135 192.048 223.927 157.206 214.297C139.785 209.481 124.222 207.796 113.965 208.738C108.86 209.206 104.967 210.334 102.844 212.144C101.765 213.065 101.122 214.182 101.047 215.482C100.974 216.768 101.462 218.152 102.476 219.61L103.297 219.04Z" fill="#FF6895"/>
<path fill-rule="evenodd" clip-rule="evenodd" d="M164.617 184.881L129.899 195.098C126.391 196.13 122.698 194.114 121.65 190.591L115.194 168.876C114.148 165.355 116.141 161.663 119.651 160.63L159.101 149.021C162.609 147.988 166.302 150.004 167.35 153.528L172.474 170.765L188.663 166.002C192.55 164.858 196.644 167.095 197.804 170.996L203.842 191.302C205.005 195.203 202.793 199.295 198.902 200.44L178.669 206.393C174.782 207.536 170.688 205.3 169.528 201.398L164.617 184.881Z" fill="#FF6895"/>
<path d="M162.095 179.861L122.722 191.376C119.222 192.4 115.525 190.367 114.467 186.83L107.948 165.04C106.89 161.503 108.871 157.81 112.374 156.785L151.747 145.271C155.248 144.247 158.944 146.28 160.002 149.817L166.522 171.61C167.576 175.145 165.596 178.838 162.095 179.861Z" fill="white" stroke="#060606" stroke-miterlimit="10"/>
<path d="M191.53 196.905L171.352 202.804C167.475 203.937 163.381 201.683 162.21 197.772L156.117 177.412C154.947 173.5 157.142 169.407 161.019 168.274L181.196 162.375C185.073 161.242 189.167 163.495 190.338 167.407L196.431 187.767C197.605 191.678 195.41 195.771 191.53 196.905Z" fill="white" stroke="#060606" stroke-miterlimit="10"/>
<path d="M119.373 166.789C119.198 166.96 118.781 167.241 118.193 167.412C116.873 167.796 115.741 167.138 115.333 165.781C114.922 164.415 115.546 163.156 116.975 162.741C117.446 162.604 117.898 162.602 118.148 162.649L118.154 163.325C117.931 163.27 117.603 163.256 117.168 163.383C116.165 163.675 115.848 164.584 116.126 165.51C116.435 166.537 117.277 166.981 118.145 166.728C118.597 166.596 118.86 166.39 119.055 166.224L119.373 166.789Z" fill="#060606"/>
<path d="M119.751 160.642L120.133 161.914L121.269 161.583L121.453 162.196L120.317 162.527L121.034 164.915C121.199 165.464 121.446 165.73 121.887 165.602C122.095 165.541 122.24 165.469 122.331 165.413L122.548 166.006C122.414 166.115 122.184 166.232 121.878 166.321C121.508 166.429 121.175 166.396 120.92 166.232C120.624 166.06 120.424 165.69 120.268 165.168L119.542 162.753L118.866 162.949L118.682 162.336L119.358 162.139L119.04 161.078L119.751 160.642Z" fill="#060606"/>
<path d="M122.613 162.675C122.456 162.154 122.312 161.708 122.161 161.304L122.856 161.102L123.144 161.963L123.18 161.953C123.2 161.3 123.565 160.786 124.097 160.631C124.187 160.604 124.253 160.595 124.33 160.592L124.559 161.352C124.472 161.357 124.388 161.372 124.28 161.403C123.721 161.566 123.453 162.112 123.527 162.748C123.541 162.863 123.562 162.996 123.603 163.133L124.312 165.495L123.528 165.723L122.613 162.675V162.675Z" fill="#060606"/>
<path d="M124.607 158.35L125.393 158.119L127.325 164.599L126.539 164.83L124.607 158.35Z" fill="#060606"/>
<path d="M175.026 184.856L176.221 181.665C176.339 181.371 176.457 181.108 176.584 180.811L176.578 180.793L174.208 181.482L174.012 180.831L177.35 179.86L177.493 180.367L176.314 183.513C176.208 183.814 176.093 184.086 175.963 184.374L175.969 184.392L178.529 183.647L178.722 184.289L175.167 185.323L175.026 184.856V184.856Z" fill="#060606"/>
<path d="M144.493 222.366L145.133 221.199L145.773 222.366C148.343 227.05 152.208 230.901 156.907 233.462L158.078 234.1L156.907 234.737C152.208 237.298 148.343 241.15 145.773 245.833L145.133 247L144.493 245.833C141.924 241.15 138.059 237.298 133.359 234.737L132.189 234.1L133.359 233.462C138.057 230.901 141.922 227.05 144.493 222.366Z" fill="#FF6895"/>
<path d="M153.377 216.47L153.635 216L153.893 216.47C154.928 218.357 156.486 219.909 158.381 220.942L158.852 221.199L158.381 221.456C156.488 222.488 154.93 224.04 153.893 225.929L153.635 226.399L153.377 225.929C152.342 224.042 150.784 222.49 148.889 221.456L148.418 221.199L148.889 220.942C150.784 219.911 152.342 218.358 153.377 216.47Z" fill="#FF6895"/>
<path d="M139.421 222.366L140.061 221.199L140.701 222.366C143.27 227.05 147.135 230.901 151.834 233.462L153.005 234.1L151.834 234.737C147.135 237.298 143.27 241.15 140.701 245.833L140.061 247L139.421 245.833C136.851 241.15 132.986 237.298 128.287 234.737L127.116 234.1L128.287 233.462C132.986 230.901 136.851 227.05 139.421 222.366Z" fill="white" stroke="#060606" stroke-miterlimit="10"/>
<path d="M149.599 216.47L149.857 216L150.115 216.47C151.15 218.357 152.708 219.909 154.603 220.942L155.074 221.199L154.603 221.456C152.71 222.488 151.152 224.04 150.115 225.929L149.857 226.399L149.599 225.929C148.564 224.042 147.006 222.49 145.111 221.456L144.64 221.199L145.111 220.942C147.005 219.911 148.562 218.358 149.599 216.47Z" fill="white" stroke="#060606" stroke-miterlimit="10"/>
<path d="M216.141 154.209L157.145 275.119L156.685 299.228L175.768 284.198L234.884 163.347C234.884 163.347 233.758 158.766 227.101 155.521C221.159 152.629 216.141 154.209 216.141 154.209Z" fill="#FF6895"/>
<path d="M208.862 154.419L214.002 143.891C215.149 143.63 219.38 142.921 224.213 145.276C229.664 147.932 231.27 151.478 231.612 152.422L226.441 162.985L208.862 154.419Z" fill="white" stroke="#060606"/>
<mask id="path-17-inside-1_283_3513" fill="white">
<path d="M224.328 145.041C230.052 147.83 231.618 151.625 231.892 152.437L226.559 163.327L208.518 154.537L213.825 143.666C214.788 143.43 219.234 142.559 224.328 145.041ZM224.539 144.61C218.542 141.688 213.486 143.26 213.486 143.26L207.872 154.761L226.78 163.974L232.408 152.48C232.408 152.48 231.259 147.885 224.539 144.61Z"/>
</mask>
<path d="M224.328 145.041C230.052 147.83 231.618 151.625 231.892 152.437L226.559 163.327L208.518 154.537L213.825 143.666C214.788 143.43 219.234 142.559 224.328 145.041ZM224.539 144.61C218.542 141.688 213.486 143.26 213.486 143.26L207.872 154.761L226.78 163.974L232.408 152.48C232.408 152.48 231.259 147.885 224.539 144.61Z" fill="#060606"/>
<path d="M231.892 152.437L232.791 152.876L232.972 152.506L232.84 152.116L231.892 152.437ZM226.559 163.327L226.12 164.226L227.018 164.663L227.458 163.766L226.559 163.327ZM208.518 154.537L207.619 154.099L207.18 154.997L208.079 155.435L208.518 154.537ZM213.825 143.666L213.588 142.695L213.132 142.806L212.926 143.228L213.825 143.666ZM213.486 143.26L213.19 142.306L212.777 142.434L212.587 142.822L213.486 143.26ZM207.872 154.761L206.973 154.323L206.534 155.222L207.433 155.66L207.872 154.761ZM226.78 163.974L226.341 164.873L227.239 165.31L227.679 164.413L226.78 163.974ZM232.408 152.48L233.306 152.919L233.307 152.918L232.408 152.48ZM223.889 145.94C229.326 148.589 230.737 152.145 230.945 152.757L232.84 152.116C232.498 151.105 230.777 147.071 224.767 144.143L223.889 145.94ZM230.994 151.998L225.661 162.888L227.458 163.766L232.791 152.876L230.994 151.998ZM226.998 162.429L208.956 153.638L208.079 155.435L226.12 164.226L226.998 162.429ZM209.417 154.975L214.724 144.104L212.926 143.228L207.619 154.099L209.417 154.975ZM214.062 144.637C214.909 144.43 219.088 143.601 223.889 145.94L224.767 144.143C219.379 141.517 214.667 142.431 213.588 142.695L214.062 144.637ZM224.977 143.712C221.812 142.169 218.889 141.811 216.75 141.84C215.682 141.855 214.808 141.967 214.194 142.077C213.887 142.132 213.644 142.186 213.474 142.229C213.389 142.25 213.322 142.268 213.275 142.281C213.251 142.288 213.232 142.293 213.217 142.298C213.21 142.3 213.204 142.301 213.2 142.303C213.197 142.304 213.195 142.304 213.194 142.305C213.193 142.305 213.192 142.305 213.191 142.305C213.191 142.305 213.191 142.306 213.19 142.306C213.19 142.306 213.19 142.306 213.486 143.26C213.783 144.215 213.783 144.215 213.782 144.215C213.782 144.215 213.782 144.215 213.782 144.215C213.781 144.216 213.781 144.216 213.781 144.216C213.78 144.216 213.78 144.216 213.78 144.216C213.78 144.216 213.782 144.215 213.785 144.215C213.79 144.213 213.8 144.21 213.814 144.206C213.844 144.198 213.891 144.185 213.956 144.169C214.086 144.136 214.285 144.091 214.546 144.044C215.068 143.951 215.832 143.852 216.777 143.839C218.666 143.813 221.269 144.129 224.1 145.509L224.977 143.712ZM212.587 142.822L206.973 154.323L208.77 155.199L214.385 143.698L212.587 142.822ZM207.433 155.66L226.341 164.873L227.219 163.075L208.31 153.862L207.433 155.66ZM227.679 164.413L233.306 152.919L231.509 152.041L225.882 163.535L227.679 164.413ZM232.408 152.48C233.378 152.237 233.378 152.237 233.378 152.236C233.378 152.236 233.378 152.235 233.378 152.235C233.378 152.234 233.377 152.233 233.377 152.232C233.377 152.23 233.376 152.227 233.375 152.225C233.374 152.219 233.372 152.213 233.37 152.205C233.366 152.19 233.361 152.171 233.354 152.147C233.34 152.1 233.32 152.036 233.293 151.956C233.24 151.797 233.158 151.577 233.039 151.307C232.8 150.767 232.413 150.028 231.804 149.187C230.584 147.5 228.49 145.423 224.977 143.712L224.1 145.509C227.308 147.072 229.149 148.93 230.183 150.359C230.702 151.076 231.021 151.691 231.208 152.114C231.302 152.326 231.362 152.491 231.398 152.596C231.415 152.648 231.427 152.686 231.433 152.708C231.436 152.719 231.438 152.725 231.439 152.728C231.439 152.729 231.439 152.729 231.439 152.728C231.439 152.728 231.439 152.727 231.438 152.726C231.438 152.726 231.438 152.725 231.438 152.725C231.438 152.724 231.438 152.724 231.438 152.724C231.438 152.723 231.437 152.723 232.408 152.48Z" fill="#060606" mask="url(#path-17-inside-1_283_3513)"/>
<path d="M227.681 161.031L222.397 171.821L204.387 163.045L209.644 152.277C209.784 152.242 209.993 152.196 210.263 152.149C210.806 152.053 211.597 151.954 212.571 151.944C214.52 151.923 217.201 152.255 220.118 153.674C223.402 155.274 225.309 157.182 226.393 158.67C226.935 159.416 227.273 160.059 227.474 160.51C227.574 160.735 227.64 160.912 227.681 161.031Z" fill="white" stroke="#060606"/>
<path d="M155.698 262.358L206.636 157.963C207.358 157.771 211.989 156.691 217.324 159.291C223.311 162.21 224.766 166.258 224.957 166.879L173.892 271.228L155.248 285.912L155.698 262.358Z" fill="white" stroke="#060606"/>
<path d="M154.87 286.632L154.999 279.945L160.03 282.397L154.87 286.632Z" fill="#060606"/>
<path d="M157.306 262.943C157.306 262.943 167.254 262.665 172.479 270.341" stroke="#060606" stroke-miterlimit="10" stroke-linecap="round" stroke-linejoin="round"/>
<path d="M167.686 260.969L215.117 163.721" stroke="#060606" stroke-miterlimit="10" stroke-linecap="round"/>
</svg>
