<svg width="182" height="36" viewBox="0 0 182 36" fill="none" xmlns="http://www.w3.org/2000/svg">
<path d="M9.23548 24.1021C9.29329 25.5315 9.75579 26.6807 10.623 27.5496C11.5191 28.4184 12.8343 28.8529 14.5686 28.8529C15.5225 28.8529 16.3753 28.6847 17.1268 28.3483C17.8784 27.984 18.5721 27.4515 19.2081 26.7508C21.6651 27.6757 24.5412 28.4745 27.8365 29.1471C26.8826 31.3053 25.2639 32.987 22.9803 34.1922C20.7256 35.3974 17.7917 36 14.1784 36C9.3511 36 5.78121 34.9069 3.46872 32.7207C1.15624 30.5345 0 27.6617 0 24.1021C0 20.5425 1.15624 17.6697 3.46872 15.4835C5.78121 13.2973 9.3511 12.2042 14.1784 12.2042C17.7917 12.2042 20.7256 12.8068 22.9803 14.012C25.2639 15.2172 26.8826 16.8989 27.8365 19.0571C25.2639 19.5896 22.3877 20.3884 19.2081 21.4535C18.5721 20.7528 17.8784 20.2342 17.1268 19.8979C16.3753 19.5335 15.5225 19.3514 14.5686 19.3514C12.8343 19.3514 11.5191 19.7858 10.623 20.6547C9.75579 21.5235 9.29329 22.6727 9.23548 24.1021Z" fill="white"/>
<path d="M41.1491 18.8468C42.3631 14.6146 45.3838 12.4985 50.2111 12.4985C51.0494 12.4985 51.8588 12.5546 52.6392 12.6667L51.2518 22.0841C49.1705 21.3273 47.4651 20.9489 46.1354 20.9489C44.4877 20.9489 43.2737 21.4254 42.4932 22.3784C41.7128 23.3313 41.3225 24.6066 41.3225 26.2042V26.1622L41.2792 28.9369C41.2792 30.9269 41.337 33.1411 41.4526 35.5796H31.0898C31.321 31.5435 31.4367 27.7317 31.4367 24.1441C31.4367 20.5566 31.321 16.7167 31.0898 12.6246C32.9976 12.7087 34.4573 12.7507 35.4691 12.7507C36.5386 12.7507 37.9983 12.7087 39.8483 12.6246L41.1491 18.8468Z" fill="white"/>
<path d="M77.7387 25.0691H63.6037C63.8349 26.3023 64.3986 27.3113 65.2947 28.0961C66.2197 28.8529 67.5204 29.2312 69.197 29.2312C70.411 29.2312 71.5528 29.007 72.6223 28.5586C73.6919 28.0821 74.5446 27.4234 75.1805 26.5826C77.1172 27.5075 79.6899 28.5025 82.8984 29.5676C82.0023 31.5295 80.3692 33.0991 77.9989 34.2763C75.6575 35.4254 72.5934 36 68.8067 36C63.8927 36 60.2506 34.9069 57.8803 32.7207C55.5389 30.5065 54.3682 27.6056 54.3682 24.018C54.3682 20.5145 55.5389 17.6697 57.8803 15.4835C60.2217 13.2973 63.8638 12.2042 68.8067 12.2042C71.7552 12.2042 74.3133 12.6807 76.4813 13.6336C78.6492 14.5866 80.3113 15.9179 81.4676 17.6276C82.6238 19.3093 83.2019 21.2432 83.2019 23.4294C83.2019 24.1582 83.173 24.7047 83.1152 25.0691H77.7387ZM69.4138 18.5526C67.9685 18.5526 66.7833 18.8188 65.8583 19.3514C64.9333 19.8839 64.283 20.6126 63.9072 21.5375H74.1399C73.793 20.6406 73.2294 19.9259 72.4489 19.3934C71.6684 18.8328 70.6567 18.5526 69.4138 18.5526Z" fill="white"/>
<path d="M114.013 28.6006C114.013 29.5536 114.129 30.2262 114.36 30.6186C114.591 31.011 115.054 31.2913 115.748 31.4595L115.574 35.4114C114.649 35.5516 113.84 35.6496 113.146 35.7057C112.481 35.7618 111.585 35.7898 110.458 35.7898C107.972 35.7898 106.324 35.2573 105.515 34.1922C104.706 33.0991 104.301 31.7117 104.301 30.03V28.979C103.463 31.2773 102.234 32.987 100.615 34.1081C99.0255 35.2292 96.9876 35.7898 94.5017 35.7898C91.6111 35.7898 89.4287 35.2292 87.9545 34.1081C86.5092 32.987 85.7866 31.3193 85.7866 29.1051C85.7866 27.2833 86.408 25.8539 87.651 24.8168C88.894 23.7798 90.8162 23.0651 93.4177 22.6727C91.2209 21.1592 89.024 19.8418 86.8272 18.7207C88.5615 16.5906 90.5416 14.979 92.7674 13.8859C94.9931 12.7648 97.6958 12.2042 100.876 12.2042C105.327 12.2042 108.622 13.1431 110.761 15.021C112.929 16.8709 114.013 19.7297 114.013 23.5976V28.6006ZM101.786 19.6036C100.312 19.6036 99.0111 19.8418 97.8837 20.3183C96.7564 20.7948 95.7447 21.5095 94.8486 22.4625C96.583 22.2663 98.7509 22.1682 101.352 22.1682C102.422 22.1682 103.174 22.042 103.607 21.7898C104.041 21.5375 104.258 21.2152 104.258 20.8228C104.258 20.4865 104.041 20.2062 103.607 19.982C103.174 19.7297 102.567 19.6036 101.786 19.6036ZM97.2333 28.9369C98.8521 28.9369 100.312 28.6426 101.613 28.0541C102.913 27.4374 103.809 26.6386 104.301 25.6577V24.5646C103.607 24.9009 102.841 25.1672 102.003 25.3634C101.165 25.5315 100.153 25.6997 98.9677 25.8679L97.4068 26.1201C95.788 26.4284 94.9787 26.961 94.9787 27.7177C94.9787 28.5305 95.7302 28.9369 97.2333 28.9369Z" fill="white"/>
<path d="M138 20.1502C135.341 19.982 132.913 19.8559 130.716 19.7718L130.672 24.2282C130.672 25.7417 131.005 26.9329 131.67 27.8018C132.363 28.6426 133.577 29.0631 135.312 29.0631C135.977 29.0631 136.613 29.007 137.22 28.8949C137.104 29.9319 137.046 30.983 137.046 32.048C137.046 32.5526 137.075 33.7017 137.133 35.4955C135.861 35.7197 134.791 35.8599 133.924 35.9159C133.057 35.972 131.93 36 130.542 36C127.16 36 124.761 35.2152 123.345 33.6456C121.957 32.048 121.263 29.8338 121.263 27.003L121.307 19.8979C119.948 19.954 118.532 20.038 117.058 20.1502V12.7087C118.561 12.7087 119.833 12.2462 120.873 11.3213C121.914 10.3964 122.535 9.28929 122.738 8H134.531C133.057 9.96196 131.424 11.5315 129.632 12.7087H138V20.1502Z" fill="white"/>
<path d="M146.337 9.75904C144.529 9.75904 143.181 9.31084 142.291 8.41446C141.43 7.51807 141 6.34699 141 4.90121C141 3.48434 141.43 2.31325 142.291 1.38795C143.181 0.46265 144.529 0 146.337 0C148.058 0 149.378 0.477109 150.296 1.43133C151.214 2.35663 151.673 3.51325 151.673 4.90121C151.673 6.34699 151.229 7.51807 150.339 8.41446C149.45 9.31084 148.116 9.75904 146.337 9.75904ZM141.344 36C141.545 31.3446 141.646 27.4988 141.646 24.4627C141.646 20.8482 141.531 16.8 141.301 12.3181H151.63C151.401 16.6265 151.286 20.6747 151.286 24.4627C151.286 27.6434 151.386 31.4892 151.587 36H141.344Z" fill="#FF6895"/>
<path d="M172.317 36C172.489 31.7494 172.575 27.8313 172.575 24.2458C172.575 22.9735 172.259 21.9614 171.628 21.2096C171.025 20.4578 170.251 20.0819 169.304 20.0819C168.357 20.0819 167.554 20.5157 166.894 21.3831C166.234 22.2217 165.847 23.3783 165.732 24.853C165.674 27.0506 165.646 28.612 165.646 29.5374C165.646 31.5036 165.703 33.6578 165.818 36H155.532C155.761 31.8361 155.876 27.9036 155.876 24.2024C155.876 20.5012 155.761 16.5398 155.532 12.3181C157.426 12.4048 158.874 12.4482 159.879 12.4482C160.94 12.4482 162.389 12.4048 164.225 12.3181L165.474 18.694C166.133 16.3807 167.166 14.6747 168.572 13.5759C169.978 12.4482 171.614 11.8843 173.479 11.8843C175.2 11.8843 176.692 12.2747 177.954 13.0554C179.217 13.8072 180.164 14.8337 180.795 16.1349C181.455 17.4361 181.785 18.8964 181.785 20.5157V26.7614C181.785 30.6072 181.857 33.6867 182 36H172.317Z" fill="#FF6895"/>
</svg>
