<svg width="128" height="25" viewBox="0 0 128 25" fill="none" xmlns="http://www.w3.org/2000/svg">
<path d="M6.49528 16.7374C6.53594 17.7301 6.86121 18.5281 7.4711 19.1315C8.10131 19.7349 9.02631 20.0366 10.2461 20.0366C10.917 20.0366 11.5167 19.9198 12.0452 19.6862C12.5738 19.4332 13.0617 19.0634 13.509 18.5768C15.237 19.2191 17.2598 19.7738 19.5773 20.2409C18.9065 21.7397 17.768 22.9075 16.162 23.7444C14.5763 24.5814 12.5128 24.9999 9.97163 24.9999C6.5766 24.9999 4.0659 24.2408 2.43954 22.7226C0.813181 21.2044 0 19.2094 0 16.7374C0 14.2655 0.813181 12.2705 2.43954 10.7523C4.0659 9.2341 6.5766 8.47501 9.97163 8.47501C12.5128 8.47501 14.5763 8.89348 16.162 9.73043C17.768 10.5674 18.9065 11.7352 19.5773 13.2339C17.768 13.6037 15.7452 14.1585 13.509 14.8981C13.0617 14.4115 12.5738 14.0514 12.0452 13.8178C11.5167 13.5648 10.917 13.4383 10.2461 13.4383C9.02631 13.4383 8.10131 13.74 7.4711 14.3434C6.86121 14.9468 6.53594 15.7448 6.49528 16.7374Z" fill="white"/>
<path d="M28.94 13.088C29.7939 10.1489 31.9183 8.67938 35.3133 8.67938C35.9029 8.67938 36.4721 8.71831 37.021 8.79616L36.0452 15.336C34.5815 14.8105 33.382 14.5477 32.4469 14.5477C31.2881 14.5477 30.4342 14.8786 29.8853 15.5404C29.3364 16.2022 29.062 17.0878 29.062 18.1972V18.168L29.0315 20.095C29.0315 21.4769 29.0722 23.0145 29.1535 24.7079H21.8653C22.028 21.9051 22.1093 19.258 22.1093 16.7666C22.1093 14.2753 22.028 11.6087 21.8653 8.76697C23.2071 8.82536 24.2337 8.85455 24.9453 8.85455C25.6975 8.85455 26.7241 8.82536 28.0252 8.76697L28.94 13.088Z" fill="white"/>
<path d="M54.6734 17.4089H44.7322C44.8949 18.2654 45.2913 18.9661 45.9215 19.511C46.5721 20.0366 47.4869 20.2993 48.666 20.2993C49.5198 20.2993 50.3229 20.1436 51.0751 19.8322C51.8272 19.5013 52.427 19.0439 52.8742 18.46C54.2363 19.1023 56.0456 19.7933 58.3022 20.5329C57.672 21.8954 56.5234 22.9853 54.8563 23.8028C53.2097 24.6009 51.0547 24.9999 48.3916 24.9999C44.9355 24.9999 42.374 24.2408 40.707 22.7226C39.0603 21.1849 38.237 19.1704 38.237 16.679C38.237 14.2461 39.0603 12.2705 40.707 10.7523C42.3537 9.2341 44.9152 8.47501 48.3916 8.47501C50.4652 8.47501 52.2643 8.80589 53.789 9.46767C55.3138 10.1294 56.4827 11.054 57.2959 12.2413C58.1091 13.4091 58.5157 14.7521 58.5157 16.2703C58.5157 16.7764 58.4953 17.1559 58.4547 17.4089H54.6734ZM48.8185 12.8836C47.802 12.8836 46.9685 13.0685 46.3179 13.4383C45.6674 13.8081 45.21 14.3142 44.9457 14.9565H52.1424C51.8984 14.3336 51.502 13.8373 50.9531 13.4675C50.4042 13.0782 49.6926 12.8836 48.8185 12.8836Z" fill="white"/>
<path d="M80.1852 19.8614C80.1852 20.5232 80.2665 20.9903 80.4291 21.2628C80.5918 21.5353 80.917 21.7299 81.4049 21.8467L81.283 24.5911C80.6324 24.6884 80.0632 24.7566 79.5753 24.7955C79.1077 24.8344 78.4775 24.8539 77.6846 24.8539C75.9363 24.8539 74.7775 24.4841 74.2083 23.7444C73.6391 22.9853 73.3545 22.0219 73.3545 20.8541V20.1242C72.7649 21.7202 71.9009 22.9075 70.7624 23.6861C69.6443 24.4646 68.2111 24.8539 66.4628 24.8539C64.4298 24.8539 62.8949 24.4646 61.8581 23.6861C60.8416 22.9075 60.3334 21.7494 60.3334 20.2117C60.3334 18.9466 60.7705 17.9539 61.6447 17.2338C62.5188 16.5136 63.8707 16.0173 65.7004 15.7448C64.1554 14.6937 62.6103 13.7789 61.0653 13.0004C62.285 11.5211 63.6776 10.4019 65.243 9.64284C66.8084 8.86428 68.7092 8.47501 70.9454 8.47501C74.0762 8.47501 76.3937 9.12705 77.8981 10.4311C79.4228 11.7157 80.1852 13.7011 80.1852 16.3871V19.8614ZM71.5858 13.6135C70.549 13.6135 69.6342 13.7789 68.8413 14.1098C68.0485 14.4407 67.3369 14.937 66.7067 15.5988C67.9265 15.4626 69.4512 15.3944 71.2808 15.3944C72.033 15.3944 72.5616 15.3068 72.8666 15.1317C73.1715 14.9565 73.324 14.7327 73.324 14.4602C73.324 14.2266 73.1715 14.032 72.8666 13.8762C72.5616 13.7011 72.1347 13.6135 71.5858 13.6135ZM68.3839 20.095C69.5223 20.095 70.549 19.8906 71.4638 19.4818C72.3786 19.0536 73.0089 18.4989 73.3545 17.8177V17.0586C72.8666 17.2922 72.3278 17.4771 71.7383 17.6133C71.1487 17.7301 70.4372 17.8469 69.6037 17.9637L68.5059 18.1388C67.3674 18.3529 66.7982 18.7228 66.7982 19.2483C66.7982 19.8127 67.3268 20.095 68.3839 20.095Z" fill="white"/>
<path d="M97.0549 13.993C95.1846 13.8762 93.477 13.7887 91.9319 13.7303L91.9014 16.825C91.9014 17.8761 92.1352 18.7033 92.6028 19.3067C93.0907 19.8906 93.9445 20.1825 95.1643 20.1825C95.6319 20.1825 96.0791 20.1436 96.506 20.0658C96.4247 20.7859 96.3841 21.5158 96.3841 22.2555C96.3841 22.6058 96.4044 23.4038 96.4451 24.6495C95.5506 24.8052 94.7984 24.9025 94.1885 24.9415C93.5786 24.9804 92.7857 24.9999 91.8099 24.9999C89.4314 24.9999 87.744 24.4549 86.7479 23.3649C85.7721 22.2555 85.2842 20.7178 85.2842 18.752L85.3146 13.8178C84.3592 13.8568 83.363 13.9152 82.3262 13.993V8.82536C83.3833 8.82536 84.2778 8.5042 85.0097 7.86189C85.7416 7.21958 86.1787 6.45076 86.321 5.55542H94.6154C93.5786 6.91789 92.43 8.00787 91.1696 8.82536H97.0549V13.993Z" fill="white"/>
<path d="M102.918 6.77711C101.647 6.77711 100.698 6.46586 100.073 5.84337C99.4675 5.22088 99.1648 4.40763 99.1648 3.40362C99.1648 2.41968 99.4675 1.60643 100.073 0.963855C100.698 0.321285 101.647 0 102.918 0C104.129 0 105.057 0.331325 105.703 0.993976C106.348 1.63655 106.671 2.43976 106.671 3.40362C106.671 4.40763 106.359 5.22088 105.733 5.84337C105.107 6.46586 104.169 6.77711 102.918 6.77711ZM99.4069 25C99.5482 21.7671 99.6188 19.0964 99.6188 16.988C99.6188 14.4779 99.5381 11.6667 99.3767 8.55422H106.641C106.48 11.5462 106.399 14.3574 106.399 16.988C106.399 19.1968 106.47 21.8675 106.611 25H99.4069Z" fill="#FF6895"/>
<path d="M121.19 25C121.311 22.0482 121.371 19.3273 121.371 16.8373C121.371 15.9538 121.149 15.251 120.705 14.7289C120.282 14.2068 119.737 13.9458 119.071 13.9458C118.405 13.9458 117.84 14.247 117.376 14.8494C116.912 15.4317 116.639 16.2349 116.559 17.259C116.518 18.7851 116.498 19.8695 116.498 20.512C116.498 21.8775 116.538 23.3735 116.619 25H109.385C109.546 22.1084 109.627 19.3775 109.627 16.8072C109.627 14.2369 109.546 11.4859 109.385 8.55422C110.717 8.61446 111.736 8.64458 112.442 8.64458C113.189 8.64458 114.208 8.61446 115.499 8.55422L116.377 12.9819C116.841 11.3755 117.568 10.1908 118.556 9.42771C119.545 8.64458 120.695 8.25301 122.007 8.25301C123.218 8.25301 124.267 8.5241 125.155 9.06626C126.043 9.58835 126.709 10.3012 127.152 11.2048C127.617 12.1084 127.849 13.1225 127.849 14.247V18.5843C127.849 21.255 127.899 23.3936 128 25H121.19Z" fill="#FF6895"/>
</svg>
