<svg width="180" height="40" viewBox="0 0 180 40" fill="none" xmlns="http://www.w3.org/2000/svg">
<path d="M13.4292 22.8848H0V26.2889L11.4628 26.3362L0 37.5887L2.494 39.9999L13.9089 28.7474L13.9568 39.9526H17.506V26.9035L13.4292 22.8848Z" fill="white"/>
<path d="M20.3349 0.142578V17.1159H16.5939V4.49229H16.2582L12.9488 17.1159H7.57711L4.26776 4.49229H3.88407V17.1159H0.143066V0.142578H5.65865H6.56992L10.0232 13.7591H10.3589L13.8121 0.142578H14.9632H20.3349Z" fill="white"/>
<path d="M76.1146 11.8199C76.1146 15.9804 73.2848 17.0679 68.2968 17.0679C59.9036 17.0679 59.9036 12.4818 59.9036 10.827H63.6925C63.6925 13.3801 65.9467 13.7583 68.153 13.7583C70.9827 13.7583 72.1338 13.1437 72.1338 11.8199C72.1338 10.6851 70.9827 10.496 67.6254 9.97596C62.5415 9.21949 60.2393 8.17933 60.2393 5.10617C60.2393 2.7422 62.0139 0 67.5774 0C74.1961 0 75.539 3.64052 75.539 6.19361H71.6542C71.6542 5.01162 71.1266 3.30956 67.5774 3.30956C64.6997 3.30956 64.0283 4.3497 64.0283 5.15345C64.0283 6.05176 65.0355 6.38272 67.8652 6.85551C71.7501 7.47015 76.1146 7.99022 76.1146 11.8199Z" fill="white"/>
<path d="M49.2569 17.0686H30.9356C26.1394 17.0686 22.2065 13.2862 22.2065 8.60559C22.2065 3.92493 26.1394 0.142578 30.9356 0.142578H49.2569C54.053 0.142578 57.9859 3.92493 57.9859 8.60559C57.9859 13.2862 54.053 17.0686 49.2569 17.0686ZM30.9356 3.68853C28.1538 3.68853 25.8516 5.91066 25.8516 8.60559C25.8516 11.3478 28.1538 13.5227 30.9356 13.5227H49.2569C52.0387 13.5227 54.3408 11.3005 54.3408 8.60559C54.3408 5.86338 52.0387 3.68853 49.2569 3.68853H30.9356Z" fill="white"/>
<path d="M36.9304 22.9785V26.2881H25.9952V29.7867H36.4028V33.0963H25.9952V39.9518H22.2542V22.9785H36.9304Z" fill="white"/>
<path d="M49.9281 22.9785H53.813V32.1034C53.813 34.4201 53.813 39.9518 46.0432 39.9518C38.2734 39.9518 38.2734 34.7511 38.2734 32.1034V22.9785H42.0144V31.6779C42.0144 34.231 42.1104 36.5477 46.0432 36.5477C49.9761 36.5477 49.9281 33.5218 49.9281 31.6779C49.9281 29.834 49.9281 22.9785 49.9281 22.9785Z" fill="white"/>
<path d="M58.9456 36.595H69.3533V39.9518H55.2046V22.9785H58.9456V36.595Z" fill="white"/>
<path d="M85.3711 22.9785V26.2881H74.4358V29.7867H84.8435V33.0963H74.4358V39.9518H70.6948V22.9785H85.3711Z" fill="white"/>
<path d="M90.5037 22.9785H86.7627V39.9518H90.5037V22.9785Z" fill="white"/>
<path d="M95.8279 36.595H106.236V39.9518H92.0869V22.9785H95.8279V36.595Z" fill="white"/>
<path d="M127.769 22.9785V39.9518H124.028V27.3282H123.645L120.383 39.9518H115.012L111.702 27.3282H111.319V39.9518H107.578V22.9785H113.093H114.004L117.458 36.5477H117.793L121.247 22.9785H122.398H127.769Z" fill="white"/>
<path d="M143.358 22.9785V26.2881H132.95V29.7867H143.358V33.0963H132.95V36.5477H143.358V39.9518H132.95H129.209V22.9785H143.358Z" fill="white"/>
<path d="M158.13 22.9785H161.871V39.9518H156.499L148.969 27.7537H148.537V39.9518H144.796V22.9785H149.832H150.168L157.698 35.1293H158.13V22.9785Z" fill="white"/>
<path d="M163.214 22.9785H180V26.3353H173.477V39.9518H169.736V26.3353H163.214V22.9785Z" fill="white"/>
</svg>
