<svg width="82" height="55" viewBox="0 0 82 55" fill="none" xmlns="http://www.w3.org/2000/svg">
<path d="M0 43.7442V33.7598H1.96463L6.57709 39.3866H5.46669L10.0792 33.7598H12.0438V43.7442H9.90836V40.1904C9.90836 39.3866 9.90835 38.6674 9.95106 37.9482C9.99377 37.2713 10.0792 36.552 10.1646 35.8328L10.3781 36.552L6.449 41.1635H5.50939L1.53754 36.5097L1.79378 35.7905C1.92191 36.5097 1.96461 37.2289 2.00732 37.9059C2.05003 38.5828 2.05002 39.3443 2.05002 40.1481V43.7019H0V43.7442Z" fill="white"/>
<path d="M18.5352 43.7442L23.4893 33.7598H25.6675L30.6216 43.7442H28.3581L25.2404 37.5251C25.155 37.3136 25.0695 37.1443 24.9414 36.9751C24.856 36.8059 24.7706 36.6366 24.6852 36.4251C24.5998 36.2559 24.557 36.0867 24.4716 35.8751C24.3862 35.7059 24.3435 35.4944 24.2581 35.3251H24.7706C24.6851 35.5367 24.6424 35.7482 24.557 35.9174C24.4716 36.129 24.3862 36.2982 24.3008 36.4674C24.2154 36.6366 24.13 36.8482 24.0445 37.0174C23.9591 37.1866 23.8737 37.3982 23.7883 37.5674L20.6706 43.7442H18.5352ZM20.756 41.7981L21.5247 40.0635H27.5466L27.8456 41.7981H20.756Z" fill="white"/>
<path d="M37.0713 43.7442V33.7598H42.9223C43.6484 33.7598 44.289 33.8867 44.8442 34.1405C45.3994 34.3944 45.8265 34.7751 46.1254 35.2405C46.4244 35.7059 46.5525 36.2559 46.5525 36.8905C46.5525 37.5251 46.3817 38.0751 46.04 38.5828C45.6984 39.0905 45.2713 39.4712 44.7161 39.7674C44.1609 40.0635 43.5202 40.1904 42.8369 40.1904H39.164V43.7019H37.0713V43.7442ZM39.164 38.4982H42.6234C42.9223 38.4982 43.2213 38.4135 43.4775 38.2866C43.7338 38.1597 43.9473 37.9905 44.1182 37.7366C44.289 37.5251 44.3744 37.2713 44.3744 36.9751C44.3744 36.679 44.289 36.4674 44.1182 36.2559C43.9473 36.0443 43.7338 35.8751 43.4775 35.7905C43.2213 35.6636 42.9223 35.6213 42.5807 35.6213H39.164V38.4982ZM44.5879 43.7442L41.1713 39.2174L43.4348 38.8789L47.1504 43.7442H44.5879Z" fill="white"/>
<path d="M54.5811 43.7442V33.7598H60.4321C61.1581 33.7598 61.7987 33.8867 62.354 34.1405C62.9092 34.3944 63.3362 34.7751 63.6352 35.2405C63.9342 35.7059 64.0623 36.2559 64.0623 36.8905C64.0623 37.5251 63.8915 38.0751 63.5498 38.5828C63.2081 39.0905 62.7811 39.4712 62.2259 39.7674C61.6706 40.0635 61.03 40.1904 60.3467 40.1904H56.6738V43.7019H54.5811V43.7442ZM56.6738 38.4982H60.1331C60.4321 38.4982 60.7311 38.4135 60.9873 38.2866C61.2436 38.1597 61.4571 37.9905 61.6279 37.7366C61.7988 37.5251 61.8842 37.2713 61.8842 36.9751C61.8842 36.679 61.7988 36.4674 61.6279 36.2559C61.4571 36.0443 61.2436 35.8751 60.9873 35.7905C60.7311 35.6636 60.4321 35.6213 60.0904 35.6213H56.6738V38.4982ZM62.1404 43.7442L58.7237 39.2174L60.9873 38.8789L64.7029 43.7442H62.1404Z" fill="white"/>
<path d="M74.9959 43.7442V39.2597L75.2521 40.3597L69.8281 33.7598H72.6469L76.5761 38.7943H75.5938L79.4375 33.7598H82L77.0885 39.9789L77.174 39.1751V43.7442H74.9959Z" fill="white"/>
<path d="M18.7067 49.7968C18.7067 50.0507 18.664 50.3468 18.664 50.8122V52.9276C18.664 53.7737 18.4931 54.2814 18.1515 54.5775C17.8098 54.916 17.2973 55.0006 16.8275 55.0006C16.4004 55.0006 15.8879 54.916 15.589 54.7045L15.7598 54.1968C16.0161 54.366 16.4004 54.4929 16.8275 54.4929C17.5109 54.4929 18.0234 54.1545 18.0234 53.2237V52.8006C17.8098 53.1391 17.4254 53.3929 16.8702 53.3929C15.9734 53.3929 15.29 52.6314 15.29 51.616C15.29 50.3891 16.1015 49.6699 16.9557 49.6699C17.5963 49.6699 17.9379 50.0084 18.1088 50.3045L18.1515 49.7545H18.7067V49.7968ZM17.9807 51.2353C17.9807 51.1084 17.9806 51.0237 17.9379 50.9391C17.8098 50.5584 17.5109 50.2622 16.9984 50.2622C16.3577 50.2622 15.888 50.8122 15.888 51.616C15.888 52.3353 16.2723 52.9276 16.9557 52.9276C17.3828 52.9276 17.7244 52.6737 17.8952 52.2507C17.9379 52.1237 17.9379 51.9968 17.9379 51.9122V51.2353H17.9807Z" fill="white"/>
<path d="M21.2263 50.9378C21.2263 50.5148 21.2263 50.134 21.1836 49.7956H21.7815L21.8242 50.5148H21.8669C22.0378 50.0071 22.4221 49.7109 22.8919 49.7109C22.9773 49.7109 23.02 49.7109 23.0627 49.7532V50.3879C22.9773 50.3879 22.9346 50.3455 22.8492 50.3455C22.3794 50.3455 22.0377 50.684 21.9523 51.1917C21.9523 51.2763 21.9096 51.4032 21.9096 51.4878V53.434H21.269V50.9378H21.2263Z" fill="white"/>
<path d="M27.2057 53.4353L27.163 52.9699H27.1202C26.9067 53.266 26.5223 53.5199 26.0098 53.5199C25.2838 53.5199 24.8994 53.0122 24.8994 52.4622C24.8994 51.5737 25.6681 51.1084 27.1202 51.1084V51.0237C27.1202 50.7276 27.0349 50.1776 26.3088 50.1776C25.9671 50.1776 25.6254 50.2622 25.3692 50.4314L25.1984 50.0084C25.4973 49.7968 25.9244 49.6699 26.3942 49.6699C27.5046 49.6699 27.8036 50.4314 27.8036 51.1507V52.5045C27.8036 52.8006 27.8036 53.1391 27.8463 53.3929H27.2057V53.4353ZM27.1202 51.5737C26.3942 51.5737 25.5827 51.7007 25.5827 52.3776C25.5827 52.8006 25.8817 53.0122 26.2234 53.0122C26.6932 53.0122 26.9921 52.716 27.1202 52.4199C27.1629 52.3353 27.163 52.293 27.163 52.2083V51.5737H27.1202Z" fill="white"/>
<path d="M30.3227 50.7686C30.3227 50.3879 30.3227 50.0917 30.28 49.7956H30.8779L30.9206 50.3879C31.0915 50.0494 31.5186 49.7109 32.1165 49.7109C32.629 49.7109 33.3977 50.0071 33.3977 51.2763V53.434H32.7144V51.3609C32.7144 50.7686 32.5009 50.3032 31.8602 50.3032C31.4332 50.3032 31.0915 50.5994 30.9633 50.9802C30.9206 51.0648 30.9206 51.1917 30.9206 51.2763V53.4763H30.2373V50.7686H30.3227Z" fill="white"/>
<path d="M39.2067 48.1035V52.5035C39.2067 52.8419 39.2067 53.1804 39.2494 53.4342H38.6515L38.6088 52.7996C38.3952 53.2227 37.9681 53.5188 37.3702 53.5188C36.4734 53.5188 35.79 52.7573 35.79 51.6573C35.79 50.4304 36.5588 49.7112 37.413 49.7112C37.9682 49.7112 38.3525 49.965 38.5234 50.2612V48.1035H39.2067V48.1035ZM38.5661 51.2765C38.5661 51.1919 38.5661 51.065 38.5234 50.9804C38.438 50.5573 38.0536 50.2189 37.5411 50.2189C36.8577 50.2189 36.4307 50.8112 36.4307 51.615C36.4307 52.3342 36.815 52.9688 37.4984 52.9688C37.9255 52.9688 38.3526 52.6727 38.4807 52.165C38.5234 52.0804 38.5234 51.9958 38.5234 51.8688V51.2765H38.5661Z" fill="white"/>
<path d="M44.9714 48.1035H45.6547V50.3881C45.7401 50.2189 45.911 50.0496 46.1245 49.9227C46.3381 49.7958 46.5516 49.7535 46.8079 49.7535C47.3204 49.7535 48.0891 50.0496 48.0891 51.3189V53.4765H47.4058V51.4035C47.4058 50.8112 47.1922 50.3035 46.5516 50.3035C46.1245 50.3035 45.7829 50.5996 45.6547 50.9804C45.612 51.065 45.612 51.1496 45.612 51.2765V53.4765H44.9287V48.1035H44.9714Z" fill="white"/>
<path d="M53.983 51.5725C53.983 52.9263 53.0435 53.5186 52.1466 53.5186C51.1643 53.5186 50.3955 52.7994 50.3955 51.6571C50.3955 50.4302 51.207 49.7109 52.232 49.7109C53.257 49.7109 53.983 50.4725 53.983 51.5725ZM51.0789 51.6148C51.0789 52.4186 51.5487 53.0109 52.1893 53.0109C52.8299 53.0109 53.2997 52.4186 53.2997 51.6148C53.2997 50.9802 53.0007 50.2186 52.1893 50.2186C51.4205 50.2186 51.0789 50.9378 51.0789 51.6148Z" fill="white"/>
<path d="M57.1441 48.7383V49.796H58.0837V50.3036H57.1441V52.2498C57.1441 52.7152 57.2722 52.969 57.6566 52.969C57.8274 52.969 57.9555 52.9267 58.041 52.9267L58.0837 53.4344C57.9555 53.4767 57.742 53.519 57.4858 53.519C57.1868 53.519 56.9305 53.4344 56.7597 53.2228C56.5889 53.0113 56.5035 52.7152 56.5035 52.2921V50.3036H55.9482V49.796H56.5035V48.9075L57.1441 48.7383Z" fill="white"/>
<path d="M60.6885 51.7404C60.6885 52.6288 61.2864 53.0096 61.927 53.0096C62.3968 53.0096 62.6957 52.925 62.952 52.8404L63.0801 53.3058C62.8666 53.3904 62.4395 53.5173 61.8416 53.5173C60.7312 53.5173 60.0479 52.7981 60.0479 51.6981C60.0479 50.5981 60.6885 49.752 61.7562 49.752C62.952 49.752 63.251 50.8096 63.251 51.4442C63.251 51.5712 63.2509 51.6981 63.2082 51.7404H60.6885ZM62.6104 51.275C62.6104 50.8519 62.4395 50.2173 61.6707 50.2173C60.9874 50.2173 60.6884 50.8519 60.6457 51.275H62.6104Z" fill="white"/>
<path d="M66.2829 48.1035H65.5996V53.4342H66.2829V48.1035Z" fill="white"/>
<path d="M53.8553 8.33418C53.6418 8.12264 53.2574 7.69957 52.6168 7.44573C52.4459 7.36111 51.5917 7.06496 50.5667 7.36111C50.3959 7.40342 49.9261 7.57265 49.4563 7.95341C49.4563 7.95341 49.0293 8.33418 48.7303 8.84186C47.8761 10.3649 47.449 15.9495 45.399 19.3763C45.0147 20.0109 44.0324 21.6186 42.0251 22.634C40.4021 23.4801 38.8219 23.5647 37.9678 23.5224C38.6084 23.7763 39.6334 24.1147 40.872 24.1993C43.648 24.4109 45.7407 23.2686 46.424 22.8455C46.9793 22.5071 48.6021 21.4917 49.7126 19.5456C51.6344 16.1187 51.7626 10.0265 52.4459 9.01109C52.6595 8.67263 52.9584 8.5034 52.9584 8.5034C53.2146 8.37648 53.5991 8.33418 53.8553 8.33418Z" fill="white"/>
<path d="M42.367 17.9805C42.2388 18.1498 42.068 18.3613 41.8544 18.5728C41.3419 19.0805 40.8722 19.419 40.6159 19.5459C40.2743 19.7574 39.5909 20.0959 38.6513 20.2651C38.0961 20.3497 37.2419 20.4343 36.2597 20.1805C35.8326 20.0959 34.9784 19.842 34.0815 19.1651C33.7826 18.9536 32.843 18.1921 32.2451 16.8382C31.818 15.9075 31.7753 15.1036 31.7753 14.7652C31.519 10.8306 30.793 5.62685 30.2378 2.79227C30.1097 2.15766 29.8961 1.1846 29.5972 0C30.5368 1.01537 31.4763 2.19997 32.3732 3.5538C32.6295 3.97687 32.8857 4.35763 33.142 4.7807C33.5264 5.41531 34.1243 6.47299 34.7222 7.86912C36.6868 12.2268 36.644 16.2459 39.4201 17.6844C39.7618 17.8536 40.0607 17.9382 40.1889 17.9805C40.5305 18.0651 40.9576 18.1498 41.5128 18.1074C41.8545 18.1074 42.1534 18.0228 42.367 17.9805Z" fill="white"/>
</svg>
