<svg width="168" height="27" viewBox="0 0 168 27" fill="none" xmlns="http://www.w3.org/2000/svg">
<path d="M17.4472 8.4637C19.206 9.93255 20.1206 12.1708 20.1206 15.1785V26.6495H14.3517V24.2014C13.1558 26.0899 11.0452 26.9992 7.87936 26.9992C6.26127 26.9992 4.85424 26.7194 3.65826 26.2298C2.46228 25.7402 1.54773 24.9708 0.914564 24.0615C0.281398 23.1522 0 22.103 0 20.914C0 19.0254 0.773835 17.5566 2.25122 16.5074C3.72861 15.4582 6.05025 14.8987 9.14573 14.8987H14.0703C14.0703 13.6397 13.6482 12.6604 12.8744 11.961C12.0301 11.2615 10.8342 10.9118 9.21606 10.9118C8.09043 10.9118 6.96481 11.0517 5.83919 11.4014C4.71356 11.7511 3.79899 12.1708 3.02512 12.8003L0.773852 8.74348C1.96983 7.97408 3.30653 7.34457 4.92462 6.9249C6.54271 6.50523 8.23114 6.2954 9.91958 6.2954C13.1558 6.22545 15.6884 6.99485 17.4472 8.4637ZM12.1708 22.3828C13.0151 21.8932 13.5779 21.2637 13.9296 20.3544V18.326H9.70853C7.17587 18.326 5.90952 19.0954 5.90952 20.7041C5.90952 21.4735 6.19092 22.0331 6.82409 22.4528C7.45725 22.8724 8.3015 23.0823 9.35677 23.0823C10.4121 23.0823 11.3266 22.8724 12.1708 22.3828Z" fill="white"/>
<path d="M44.6029 6.57422V26.7185H38.412V19.2343C36.5828 20.0737 34.613 20.4933 32.5024 20.4933C29.618 20.4933 27.4371 19.8638 25.9597 18.6748C24.4823 17.4857 23.7788 15.5272 23.7788 12.9392V6.64417H29.9698V12.5895C29.9698 13.7786 30.3215 14.6879 30.9547 15.2474C31.6582 15.807 32.5728 16.0868 33.8391 16.0868C35.4572 16.0868 36.9346 15.7371 38.412 15.1075V6.64417H44.6029V6.57422Z" fill="white"/>
<path d="M54.5227 25.671C52.7639 24.7617 51.3568 23.5726 50.3719 21.9639C49.387 20.4251 48.8945 18.6065 48.8945 16.5781C48.8945 14.5497 49.387 12.801 50.3719 11.1923C51.3568 9.6535 52.7639 8.39449 54.5227 7.48521C56.2815 6.57592 58.3216 6.15625 60.5729 6.15625C62.8242 6.15625 64.794 6.57592 66.5528 7.48521C68.3116 8.39449 69.7186 9.58355 70.7036 11.1923C71.6885 12.7311 72.1809 14.5497 72.1809 16.5781C72.1809 18.6065 71.6885 20.3551 70.7036 21.9639C69.7186 23.5027 68.3116 24.7617 66.5528 25.671C64.794 26.5803 62.7538 26.9999 60.5729 26.9999C58.3216 26.9999 56.2815 26.5803 54.5227 25.671ZM64.4422 20.7049C65.4272 19.7256 65.99 18.3267 65.99 16.648C65.99 14.9694 65.4975 13.5704 64.4422 12.5912C63.4573 11.612 62.1206 11.0524 60.5729 11.0524C58.9548 11.0524 57.6885 11.542 56.6332 12.5912C55.5779 13.5704 55.0855 14.9694 55.0855 16.648C55.0855 18.3267 55.5779 19.7256 56.6332 20.7049C57.6885 21.6841 58.9548 22.2437 60.5729 22.2437C62.1206 22.2437 63.387 21.6841 64.4422 20.7049Z" fill="white"/>
<path d="M76.4722 6.57422H82.5928V14.4081H91.8792V6.57422H98.0702V26.7185H91.8792V19.1644H82.5928V26.7185H76.4722V6.57422Z" fill="white"/>
<path d="M124.522 18.2552H108.412C108.693 19.5142 109.397 20.4935 110.452 21.1929C111.507 21.8924 112.844 22.312 114.462 22.312C115.588 22.312 116.573 22.1721 117.417 21.8224C118.261 21.5426 119.105 20.9831 119.809 20.3536L123.115 23.7109C121.075 25.8792 118.191 26.9984 114.321 26.9984C111.929 26.9984 109.819 26.5787 107.919 25.6694C106.09 24.7601 104.613 23.571 103.628 21.9623C102.643 20.4235 102.15 18.6049 102.15 16.5765C102.15 14.6181 102.643 12.7995 103.628 11.2607C104.613 9.65194 105.949 8.46287 107.708 7.55359C109.467 6.6443 111.366 6.22461 113.477 6.22461C115.588 6.22461 117.417 6.64429 119.105 7.48364C120.794 8.32298 122.13 9.58198 123.115 11.1208C124.1 12.7295 124.593 14.5481 124.593 16.6465C124.593 16.7864 124.593 17.276 124.522 18.2552ZM110.03 11.8202C109.045 12.5896 108.482 13.5689 108.271 14.8978H118.753C118.542 13.6388 117.98 12.5896 116.995 11.8202C116.08 11.0508 114.884 10.7011 113.477 10.7011C112.211 10.7011 111.015 11.0508 110.03 11.8202Z" fill="white"/>
<path d="M146.543 11.334H139.367V26.722H133.246V11.334H126V6.50781H146.543V11.334Z" fill="white"/>
<path d="M156.322 14.4087C156.955 13.5694 157.869 12.5901 159.065 11.6109C159.91 10.8415 160.543 10.212 160.965 9.72239C161.387 9.23277 161.598 8.60326 161.598 7.97375C161.598 7.06447 161.176 6.29509 160.402 5.80547C159.628 5.24591 158.573 4.96612 157.307 4.96612C156.04 4.96612 154.985 5.17595 154 5.66557C153.015 6.15519 152.241 6.85463 151.538 7.69398L146.754 5.03607C147.88 3.42733 149.357 2.23824 151.256 1.32896C153.156 0.489612 155.407 0 157.94 0C160.965 0 163.427 0.629512 165.256 1.81858C167.086 3.00765 168 4.75627 168 6.92458C168 7.97375 167.789 8.81311 167.437 9.65246C167.086 10.4219 166.663 11.0514 166.101 11.6109C165.608 12.1705 164.905 12.8 164.131 13.4295C163.146 14.2688 162.442 14.9683 162.02 15.5279C161.598 16.0874 161.317 16.7869 161.317 17.5563H155.337C155.407 16.2972 155.759 15.2481 156.322 14.4087ZM155.689 26.0196C154.985 25.3901 154.633 24.5508 154.633 23.5716C154.633 22.5923 154.985 21.8229 155.689 21.1934C156.392 20.5639 157.307 20.2142 158.432 20.2142C159.558 20.2142 160.472 20.5639 161.176 21.1934C161.88 21.8229 162.231 22.5923 162.231 23.5716C162.231 24.5508 161.88 25.3202 161.176 26.0196C160.472 26.6491 159.558 26.9989 158.432 26.9989C157.307 26.9989 156.462 26.6491 155.689 26.0196Z" fill="white"/>
</svg>
