<svg width="701" height="532" viewBox="0 0 701 532" fill="none" xmlns="http://www.w3.org/2000/svg">
<path d="M402.332 195.699L403.313 195.503L403.032 194.102L401.812 194.845L402.332 195.699ZM516.198 172.544L515.437 171.895L515.437 171.895L516.198 172.544ZM560.978 269.003L560.947 268.003L560.978 269.003ZM612.076 171.66C611.586 171.405 610.983 171.597 610.728 172.087C610.474 172.578 610.666 173.181 611.156 173.435L612.076 171.66ZM185.222 476L185.277 475.001L185.222 476ZM131.222 451.5L131.911 452.224L131.222 451.5ZM401.812 194.845C399.988 195.956 398.621 197.062 397.725 198.166C396.825 199.275 396.342 200.456 396.46 201.666C396.578 202.876 397.275 203.895 398.271 204.725C399.264 205.551 400.622 206.25 402.243 206.838C408.696 209.177 420.272 210.08 433.845 209.003C461 206.847 496.885 196.699 516.958 173.194L515.437 171.895C495.877 194.8 460.647 204.869 433.686 207.009C420.201 208.079 408.97 207.149 402.925 204.958C401.421 204.413 400.299 203.811 399.551 203.188C398.806 202.568 398.501 201.989 398.451 201.472C398.4 200.955 398.583 200.282 399.277 199.427C399.975 198.568 401.131 197.602 402.852 196.553L401.812 194.845ZM516.958 173.194C520.971 168.495 522.69 162.013 522.604 154.633C522.517 147.249 520.624 138.879 517.309 130.279C510.678 113.082 498.292 94.796 482.899 81.3795C467.515 67.9713 448.996 59.3195 430.128 61.6871C411.22 64.0598 392.278 77.4556 375.985 107.452L377.743 108.406C393.853 78.7453 412.331 65.936 430.377 63.6715C448.464 61.402 466.433 69.6808 481.585 82.8872C496.728 96.0852 508.926 114.098 515.442 130.999C518.7 139.448 520.521 147.577 520.604 154.657C520.687 161.741 519.031 167.687 515.437 171.895L516.958 173.194ZM375.985 107.452C359.706 137.424 356.481 161.854 361.946 181.25C367.412 200.651 381.514 214.815 399.469 224.372C417.418 233.925 439.279 238.911 460.442 239.953C481.599 240.994 502.149 238.096 517.479 231.794L516.719 229.945C501.728 236.106 481.488 238.986 460.54 237.955C439.597 236.925 418.039 231.99 400.409 222.606C382.785 213.226 369.149 199.439 363.871 180.708C358.593 161.973 361.62 138.091 377.743 108.406L375.985 107.452ZM517.479 231.794C548.049 219.229 566.013 196.91 571.965 178.225C574.933 168.906 574.954 160.344 571.855 154.359C570.296 151.347 567.952 149.003 564.838 147.586C561.733 146.173 557.928 145.711 553.481 146.342L553.762 148.322C557.922 147.732 561.326 148.185 564.01 149.407C566.685 150.624 568.71 152.634 570.079 155.278C572.836 160.603 572.945 168.557 570.059 177.618C564.303 195.691 546.791 217.584 516.719 229.945L517.479 231.794ZM553.481 146.342C549.074 146.968 539.946 149.541 528.164 153.497C516.351 157.463 501.793 162.846 486.483 169.13C455.889 181.687 422.193 197.883 401.428 213.603C396.231 217.538 391.819 221.461 388.463 225.309C385.112 229.15 382.767 232.968 381.781 236.695C380.785 240.458 381.183 244.104 383.271 247.492C385.337 250.845 389.005 253.861 394.392 256.526C405.152 261.849 423.116 265.937 450.169 268.34C477.249 270.746 513.535 271.47 561.008 270.002L560.947 268.003C513.516 269.469 477.317 268.744 450.346 266.348C423.347 263.95 405.692 259.884 395.278 254.733C390.078 252.16 386.77 249.359 384.974 246.443C383.198 243.562 382.846 240.487 383.714 237.207C384.592 233.89 386.726 230.342 389.97 226.624C393.207 222.912 397.505 219.082 402.636 215.198C423.181 199.644 456.672 183.528 487.242 170.98C502.514 164.712 517.032 159.344 528.801 155.393C540.601 151.431 549.562 148.919 553.762 148.322L553.481 146.342ZM561.008 270.002C589.588 269.119 612.013 265.172 628.35 259.078C644.664 252.993 655.055 244.709 659.3 235.047C663.573 225.318 661.498 214.479 653.53 203.622C645.576 192.784 631.692 181.825 612.076 171.66L611.156 173.435C630.628 183.526 644.216 194.311 651.918 204.805C659.605 215.281 661.37 225.362 657.469 234.243C653.538 243.19 643.74 251.203 627.651 257.204C611.587 263.196 589.396 267.124 560.947 268.003L561.008 270.002ZM185.277 475.001C176.27 474.5 160.247 470.905 147.788 466.183C141.544 463.817 136.315 461.212 133.31 458.644C131.799 457.352 130.979 456.178 130.754 455.165C130.551 454.252 130.794 453.288 131.911 452.224L130.532 450.776C129.024 452.212 128.415 453.857 128.802 455.599C129.167 457.242 130.379 458.769 132.011 460.164C135.292 462.968 140.795 465.672 147.08 468.054C159.679 472.828 175.906 476.483 185.166 476.998L185.277 475.001ZM131.911 452.224C132.744 451.431 133.414 451.076 133.916 450.971C134.369 450.876 134.745 450.969 135.114 451.258C135.519 451.576 135.942 452.158 136.325 453.079C136.704 453.99 137.015 455.165 137.239 456.582C138.138 462.274 137.557 471.373 135.048 481.343C130.019 501.327 117.429 524.171 94.4749 530.031L94.9696 531.969C119.016 525.83 131.902 502.04 136.987 481.831C139.535 471.705 140.17 462.319 139.214 456.27C138.974 454.752 138.629 453.413 138.172 452.312C137.719 451.222 137.127 450.294 136.348 449.684C135.534 449.045 134.559 448.792 133.505 449.013C132.499 449.224 131.506 449.848 130.532 450.776L131.911 452.224ZM401.352 195.896C412.731 252.686 414.538 325.622 385.621 382.748C371.174 411.287 349.058 435.887 316.604 452.586C284.141 469.289 241.272 478.119 185.277 475.001L185.166 476.998C241.422 480.131 284.665 471.269 317.519 454.364C350.383 437.454 372.787 412.529 387.405 383.651C416.617 325.944 414.73 252.479 403.313 195.503L401.352 195.896Z" fill="#B87FFF"/>
<path d="M424.197 1C384.074 45.7015 316.888 133.572 369.134 127.441C434.441 119.778 333.279 41.8699 302.546 127.441C271.813 213.013 503.59 129.996 431.88 76.354C360.17 22.7122 317.913 66.1365 326.877 127.441C335.84 188.746 402.428 179.806 424.197 165.757C445.966 151.708 451.088 105.729 399.867 87.8486" stroke="#B87FFF" stroke-width="2" stroke-linecap="round"/>
<path d="M350.344 119.912C350.883 117.972 350.252 115.925 348.825 114.276C350.899 113.597 352.492 112.174 353.032 110.228C354.004 106.729 351.184 102.897 346.739 101.664C342.293 100.431 337.9 102.27 336.929 105.768C336.39 107.708 337.021 109.755 338.448 111.404C336.375 112.083 334.781 113.506 334.241 115.452C333.702 117.393 334.333 119.439 335.76 121.089C333.686 121.768 332.093 123.191 331.553 125.137C331.014 127.077 331.645 129.124 333.072 130.773C330.998 131.452 329.405 132.875 328.864 134.821C328.326 136.762 328.956 138.808 330.384 140.458C328.31 141.136 326.716 142.56 326.176 144.506C325.638 146.446 326.268 148.492 327.696 150.142C325.622 150.821 324.028 152.244 323.488 154.19C322.95 156.131 323.58 158.177 325.007 159.827C322.934 160.505 321.34 161.928 320.8 163.875C320.261 165.815 320.892 167.861 322.319 169.511C320.246 170.19 318.652 171.613 318.112 173.559C317.573 175.499 318.204 177.546 319.631 179.195C317.557 179.874 315.964 181.297 315.424 183.244C314.453 186.742 317.272 190.574 321.717 191.807C326.163 193.04 330.556 191.202 331.526 187.709C332.064 185.769 331.434 183.722 330.006 182.073C332.08 181.394 333.674 179.971 334.214 178.025C334.752 176.084 334.122 174.038 332.695 172.388C334.768 171.71 336.362 170.286 336.902 168.34C337.441 166.4 336.81 164.353 335.383 162.704C337.456 162.025 339.05 160.602 339.59 158.656C340.129 156.715 339.498 154.669 338.071 153.019C340.144 152.341 341.738 150.917 342.278 148.971C342.817 147.031 342.186 144.985 340.759 143.335C342.833 142.656 344.426 141.233 344.966 139.287C345.505 137.346 344.874 135.3 343.447 133.65C345.521 132.972 347.114 131.549 347.655 129.602C348.193 127.662 347.563 125.616 346.135 123.966C348.211 123.281 349.806 121.852 350.344 119.912Z" fill="#060606" stroke="#060606" stroke-width="2" stroke-miterlimit="10"/>
<path d="M401.342 228.606L331.931 209.357C327.534 208.138 324.948 203.621 326.156 199.272L350.896 110.142C352.103 105.792 356.648 103.254 361.044 104.473L430.461 123.724C434.857 124.943 437.444 129.459 436.236 133.809L411.496 222.939C410.283 227.287 405.738 229.825 401.342 228.606Z" fill="#B87FFF"/>
<path d="M341.219 115.491C344.557 116.349 348.113 114.212 349.163 110.718C350.213 107.224 348.358 103.697 345.021 102.84C341.684 101.983 338.128 104.12 337.078 107.613C336.028 111.107 337.882 114.634 341.219 115.491Z" fill="#B87FFF"/>
<path d="M338.594 124.955C341.931 125.812 345.487 123.675 346.537 120.181C347.587 116.688 345.732 113.161 342.395 112.303C339.058 111.446 335.502 113.583 334.452 117.077C333.402 120.57 335.256 124.097 338.594 124.955Z" fill="#B87FFF"/>
<path d="M335.964 134.42C339.301 135.277 342.858 133.14 343.908 129.646C344.957 126.153 343.103 122.626 339.766 121.768C336.429 120.911 332.872 123.048 331.822 126.542C330.773 130.035 332.627 133.563 335.964 134.42Z" fill="#B87FFF"/>
<path d="M333.341 143.878C336.678 144.735 340.234 142.598 341.284 139.104C342.334 135.611 340.48 132.083 337.142 131.226C333.805 130.369 330.249 132.506 329.199 136C328.149 139.493 330.004 143.02 333.341 143.878Z" fill="#B87FFF"/>
<path d="M330.712 153.343C334.05 154.201 337.606 152.063 338.656 148.57C339.706 145.076 337.851 141.549 334.514 140.692C331.177 139.834 327.621 141.972 326.571 145.465C325.521 148.959 327.375 152.486 330.712 153.343Z" fill="#B87FFF"/>
<path d="M328.086 162.806C331.423 163.664 334.979 161.526 336.029 158.033C337.079 154.539 335.225 151.012 331.887 150.155C328.55 149.298 324.994 151.435 323.944 154.928C322.894 158.422 324.748 161.949 328.086 162.806Z" fill="#B87FFF"/>
<path d="M325.461 172.265C328.798 173.122 332.354 170.985 333.404 167.492C334.454 163.998 332.599 160.471 329.262 159.614C325.925 158.756 322.369 160.893 321.319 164.387C320.269 167.881 322.123 171.408 325.461 172.265Z" fill="#B87FFF"/>
<path d="M322.834 181.73C326.171 182.587 329.728 180.45 330.777 176.956C331.827 173.463 329.973 169.935 326.636 169.078C323.298 168.221 319.742 170.358 318.692 173.852C317.642 177.345 319.497 180.872 322.834 181.73Z" fill="#B87FFF"/>
<path d="M320.207 191.189C323.545 192.046 327.101 189.909 328.151 186.416C329.201 182.922 327.346 179.395 324.009 178.538C320.672 177.68 317.115 179.817 316.066 183.311C315.016 186.805 316.87 190.332 320.207 191.189Z" fill="#B87FFF"/>
<path d="M340.873 111.366C344.21 112.223 347.767 110.086 348.816 106.592C349.866 103.099 348.012 99.5717 344.675 98.7144C341.338 97.8571 337.781 99.9942 336.731 103.488C335.681 106.981 337.536 110.509 340.873 111.366Z" stroke="white" stroke-width="2" stroke-miterlimit="10"/>
<path d="M338.247 120.829C341.584 121.687 345.141 119.549 346.191 116.056C347.24 112.562 345.386 109.035 342.049 108.178C338.712 107.32 335.155 109.458 334.105 112.951C333.056 116.445 334.91 119.972 338.247 120.829Z" stroke="white" stroke-width="2" stroke-miterlimit="10"/>
<path d="M335.618 130.294C338.955 131.152 342.511 129.015 343.561 125.521C344.611 122.027 342.757 118.5 339.419 117.643C336.082 116.786 332.526 118.923 331.476 122.416C330.426 125.91 332.281 129.437 335.618 130.294Z" stroke="white" stroke-width="2" stroke-miterlimit="10"/>
<path d="M332.994 139.752C336.331 140.61 339.888 138.473 340.938 134.979C341.987 131.485 340.133 127.958 336.796 127.101C333.459 126.244 329.902 128.381 328.852 131.874C327.803 135.368 329.657 138.895 332.994 139.752Z" stroke="white" stroke-width="2" stroke-miterlimit="10"/>
<path d="M330.366 149.218C333.703 150.075 337.26 147.938 338.309 144.444C339.359 140.951 337.505 137.423 334.168 136.566C330.83 135.709 327.274 137.846 326.224 141.34C325.174 144.833 327.029 148.36 330.366 149.218Z" stroke="white" stroke-width="2" stroke-miterlimit="10"/>
<path d="M327.739 158.681C331.076 159.538 334.633 157.401 335.683 153.907C336.732 150.414 334.878 146.887 331.541 146.029C328.204 145.172 324.647 147.309 323.597 150.803C322.548 154.296 324.402 157.824 327.739 158.681Z" stroke="white" stroke-width="2" stroke-miterlimit="10"/>
<path d="M325.114 168.14C328.451 168.997 332.008 166.86 333.057 163.366C334.107 159.872 332.253 156.345 328.916 155.488C325.579 154.631 322.022 156.768 320.972 160.262C319.923 163.755 321.777 167.282 325.114 168.14Z" stroke="white" stroke-width="2" stroke-miterlimit="10"/>
<path d="M322.487 177.604C325.825 178.461 329.381 176.324 330.431 172.83C331.481 169.337 329.626 165.81 326.289 164.952C322.952 164.095 319.396 166.232 318.346 169.726C317.296 173.22 319.15 176.747 322.487 177.604Z" stroke="white" stroke-width="2" stroke-miterlimit="10"/>
<path d="M319.861 187.064C323.198 187.921 326.754 185.784 327.804 182.29C328.854 178.797 327 175.269 323.663 174.412C320.325 173.555 316.769 175.692 315.719 179.186C314.669 182.679 316.524 186.206 319.861 187.064Z" stroke="white" stroke-width="2" stroke-miterlimit="10"/>
<path d="M395.476 216.897L326.755 197.839C322.402 196.632 319.851 192.126 321.059 187.776L345.799 98.6466C347.006 94.2967 351.515 91.7482 355.868 92.9554L424.594 112.015C428.947 113.222 431.498 117.728 430.291 122.078L405.551 211.208C404.338 215.556 399.829 218.104 395.476 216.897Z" fill="white" stroke="#060606" stroke-width="2" stroke-miterlimit="10"/>
<path d="M414.189 124.811L357.428 109.21L356.89 111.135L413.65 126.736L414.189 124.811Z" fill="#060606"/>
<path d="M412.585 130.593L355.825 114.993L355.287 116.918L412.047 132.517L412.585 130.593Z" fill="#060606"/>
<path d="M410.57 137.859L353.81 122.26L353.271 124.185L410.032 139.784L410.57 137.859Z" fill="#060606"/>
<path d="M452.149 218.108C463.248 211.24 469.056 197.682 465.523 184.399C461.203 168.162 444.562 158.504 428.351 162.826C412.14 167.149 402.501 183.814 406.82 200.051C410.352 213.328 422.128 222.205 435.169 222.636C436.025 224.2 437.31 225.446 438.828 226.263L449.026 279.408C450.187 283.77 455.447 286.152 460.779 284.73C466.112 283.308 469.492 278.623 468.331 274.261L450.396 223.65C451.554 222.064 452.185 220.127 452.149 218.108Z" fill="#B87FFF"/>
<path d="M450.963 274.149C445.835 275.516 440.773 273.224 439.657 269.031L428.936 213.172C427.821 208.979 427.273 205.758 432.401 204.391C437.53 203.023 438.158 206.41 439.274 210.603L458.227 264.075C459.338 268.276 456.086 272.783 450.963 274.149Z" fill="white" stroke="#060606" stroke-width="2" stroke-miterlimit="10"/>
<path d="M436.181 218.576C440.834 217.335 443.601 212.552 442.361 207.892C441.122 203.232 436.346 200.461 431.693 201.701C427.041 202.942 424.274 207.725 425.513 212.385C426.753 217.045 431.529 219.817 436.181 218.576Z" fill="white" stroke="#060606" stroke-width="2" stroke-miterlimit="10"/>
<path d="M434.794 213.392C450.393 209.232 459.671 193.194 455.515 177.57C451.359 161.945 435.344 152.651 419.744 156.811C404.144 160.971 394.867 177.01 399.023 192.634C403.179 208.258 419.194 217.552 434.794 213.392Z" fill="white" stroke="#060606" stroke-width="2" stroke-miterlimit="10"/>
<path d="M432.379 204.312C442.971 201.487 449.271 190.597 446.449 179.987C443.627 169.378 432.752 163.067 422.16 165.892C411.567 168.717 405.268 179.607 408.089 190.216C410.911 200.826 421.786 207.136 432.379 204.312Z" fill="white" stroke="#060606" stroke-width="2" stroke-miterlimit="10"/>
<path d="M433.403 201.267C422.808 204.092 411.934 197.782 409.112 187.171C408.215 183.798 408.241 180.402 409.035 177.236C407.335 181.19 406.892 185.721 408.085 190.206C410.907 200.817 421.781 207.128 432.376 204.303C439.603 202.376 444.827 196.694 446.524 189.911C444.2 195.316 439.519 199.636 433.403 201.267Z" fill="#060606"/>
<path fill-rule="evenodd" clip-rule="evenodd" d="M473.039 44.6798L473.074 44.6596L472.828 44.2247L468.883 37.2648L468.637 36.8298L468.601 36.85C465.414 32.8925 452.053 35.8841 438.099 43.7927C424.146 51.7014 414.715 61.6279 416.473 66.3951L416.438 66.4153L416.684 66.8502L420.629 73.8101L420.876 74.2451L420.911 74.2249C424.098 78.1824 437.459 75.1908 451.413 67.2822C465.366 59.3735 474.797 49.447 473.039 44.6798Z" fill="#B87FFF"/>
<mask id="path-34-inside-1_302_3654" fill="white">
<path fill-rule="evenodd" clip-rule="evenodd" d="M467.749 40.5497L467.784 40.5295L467.538 40.0945L463.593 33.1347L463.346 32.6997L463.311 32.7198C460.124 28.7624 446.763 31.754 432.809 39.6626C418.856 47.5712 409.425 57.4978 411.183 62.265L411.148 62.2851L411.394 62.7201L415.339 69.6799L415.585 70.1149L415.621 70.0948C418.808 74.0522 432.169 71.0607 446.123 63.152C460.076 55.2434 469.507 45.3168 467.749 40.5497Z"/>
</mask>
<path fill-rule="evenodd" clip-rule="evenodd" d="M467.749 40.5497L467.784 40.5295L467.538 40.0945L463.593 33.1347L463.346 32.6997L463.311 32.7198C460.124 28.7624 446.763 31.754 432.809 39.6626C418.856 47.5712 409.425 57.4978 411.183 62.265L411.148 62.2851L411.394 62.7201L415.339 69.6799L415.585 70.1149L415.621 70.0948C418.808 74.0522 432.169 71.0607 446.123 63.152C460.076 55.2434 469.507 45.3168 467.749 40.5497Z" fill="white"/>
<path d="M467.784 40.5295L468.77 42.2695L470.51 41.2833L469.524 39.5433L467.784 40.5295ZM467.749 40.5497L466.762 38.8097L465.284 39.6475L465.872 41.2417L467.749 40.5497ZM463.346 32.6997L465.086 31.7135L464.1 29.9736L462.36 30.9598L463.346 32.6997ZM463.311 32.7198L461.753 33.9742L462.819 35.2976L464.297 34.4598L463.311 32.7198ZM411.183 62.265L412.169 64.0049L413.648 63.1671L413.06 61.5729L411.183 62.265ZM411.148 62.2851L410.161 60.5452L408.422 61.5314L409.408 63.2713L411.148 62.2851ZM411.394 62.7201L413.134 61.7339L411.394 62.7201ZM415.585 70.1149L413.846 71.1011L414.832 72.8411L416.572 71.8549L415.585 70.1149ZM415.621 70.0948L417.179 68.8404L416.113 67.517L414.635 68.3548L415.621 70.0948ZM466.798 38.7896L466.762 38.8097L468.735 42.2896L468.77 42.2695L466.798 38.7896ZM465.798 41.0807L466.044 41.5157L469.524 39.5433L469.278 39.1083L465.798 41.0807ZM461.853 34.1209L465.798 41.0807L469.278 39.1083L465.333 32.1485L461.853 34.1209ZM461.606 33.6859L461.853 34.1209L465.333 32.1485L465.086 31.7135L461.606 33.6859ZM464.297 34.4598L464.333 34.4397L462.36 30.9598L462.325 30.9799L464.297 34.4598ZM464.869 31.4655C463.563 29.8438 461.457 29.1989 459.321 29.0292C457.128 28.855 454.507 29.1452 451.656 29.7909C445.938 31.0859 438.925 33.8971 431.823 37.9227L433.795 41.4026C440.646 37.5195 447.291 34.8806 452.539 33.692C455.171 33.0959 457.36 32.886 459.004 33.0167C460.706 33.1519 461.466 33.6171 461.753 33.9742L464.869 31.4655ZM431.823 37.9227C424.721 41.9482 418.706 46.5204 414.658 50.7607C412.639 52.8749 411.043 54.975 410.066 56.9461C409.115 58.8654 408.586 61.0036 409.307 62.957L413.06 61.5729C412.901 61.1428 412.892 60.2525 413.65 58.7227C414.383 57.2446 415.687 55.4749 417.551 53.5229C421.267 49.6311 426.944 45.2856 433.795 41.4026L431.823 37.9227ZM412.134 64.0251L412.169 64.0049L410.197 60.525L410.161 60.5452L412.134 64.0251ZM413.134 61.7339L412.888 61.2989L409.408 63.2713L409.654 63.7063L413.134 61.7339ZM417.079 68.6938L413.134 61.7339L409.654 63.7063L413.599 70.6661L417.079 68.6938ZM417.325 69.1287L417.079 68.6938L413.599 70.6661L413.846 71.1011L417.325 69.1287ZM414.635 68.3548L414.599 68.375L416.572 71.8549L416.607 71.8347L414.635 68.3548ZM414.063 71.3492C415.369 72.9708 417.475 73.6157 419.611 73.7854C421.804 73.9597 424.425 73.6695 427.276 73.0238C432.994 71.7288 440.006 68.9175 447.109 64.892L445.136 61.4121C438.285 65.2951 431.64 67.934 426.393 69.1226C423.76 69.7187 421.572 69.9287 419.928 69.798C418.225 69.6627 417.466 69.1975 417.179 68.8404L414.063 71.3492ZM447.109 64.892C454.211 60.8664 460.226 56.2943 464.274 52.0539C466.293 49.9397 467.888 47.8396 468.865 45.8686C469.817 43.9492 470.346 41.811 469.625 39.8576L465.872 41.2417C466.031 41.6719 466.04 42.5622 465.282 44.092C464.549 45.5701 463.245 47.3398 461.381 49.2917C457.665 53.1836 451.987 57.529 445.136 61.4121L447.109 64.892Z" fill="#060606" mask="url(#path-34-inside-1_302_3654)"/>
<path d="M462.23 32.7579C462.65 33.4986 462.663 34.6289 461.956 36.2434C461.258 37.8377 459.933 39.7172 458.035 41.7611C454.247 45.84 448.335 50.4037 441.192 54.4524C434.048 58.501 427.096 61.2286 421.65 62.3834C418.922 62.9621 416.628 63.1333 414.902 62.9128C413.154 62.6896 412.191 62.0978 411.771 61.3572C411.351 60.6165 411.338 59.4862 412.045 57.8716C412.743 56.2773 414.068 54.3979 415.966 52.354C419.754 48.2751 425.666 43.7114 432.809 39.6627C439.953 35.614 446.905 32.8865 452.351 31.7317C455.079 31.153 457.373 30.9818 459.099 31.2022C460.847 31.4255 461.81 32.0172 462.23 32.7579Z" fill="white" stroke="#060606" stroke-width="2"/>
<path d="M420.138 62.937L424.329 70.3318" stroke="#060606" stroke-width="2"/>
<path d="M430.259 59.4995L434.45 66.8943" stroke="#060606" stroke-width="2"/>
<path d="M450.762 49.0283L454.953 56.4231" stroke="#060606" stroke-width="2"/>
<path d="M458.852 40.9944L463.043 48.3892" stroke="#060606" stroke-width="2"/>
<path d="M441.192 54.4524L445.383 61.8472" stroke="#060606" stroke-width="2"/>
</svg>
