<svg width="385" height="518" viewBox="0 0 385 518" fill="none" xmlns="http://www.w3.org/2000/svg">
<path d="M102.886 219.325L102.476 219.61L102.494 219.637L102.516 219.662L102.886 219.325ZM81.6391 168.05L81.3922 168.484L81.3922 168.484L81.6391 168.05ZM122.617 138.343L122.129 138.454L122.617 138.343ZM72.4236 123.187C72.3462 123.452 72.4983 123.729 72.7633 123.807C73.0284 123.884 73.306 123.732 73.3835 123.467L72.4236 123.187ZM256.592 285.471L256.158 285.721L256.592 285.471ZM102.516 219.662C103.204 220.417 103.847 220.959 104.449 221.281C105.052 221.605 105.655 221.727 106.218 221.56C106.781 221.392 107.199 220.968 107.497 220.422C107.794 219.879 107.997 219.176 108.123 218.362C108.626 215.122 107.987 209.611 106.241 203.346C102.747 190.811 94.7164 174.903 81.8861 167.615L81.3922 168.484C93.8801 175.578 101.81 191.173 105.278 203.614C107.012 209.837 107.605 215.182 107.135 218.209C107.018 218.961 106.84 219.539 106.62 219.942C106.4 220.344 106.162 220.533 105.934 220.601C105.705 220.669 105.381 220.646 104.921 220.4C104.458 220.152 103.903 219.7 103.256 218.989L102.516 219.662ZM81.8861 167.615C79.3165 166.155 76.123 165.935 72.6785 166.644C69.2317 167.352 65.4906 168.998 61.7734 171.33C54.34 175.994 46.9258 183.455 42.0632 191.886C37.2038 200.312 34.8536 209.78 37.6903 218.417C40.5332 227.073 48.5348 234.745 64.0491 239.671L64.3517 238.718C49.0196 233.849 41.3483 226.35 38.6403 218.105C35.9262 209.841 38.1472 200.677 42.9295 192.386C47.7088 184.099 55.0069 176.756 62.3049 172.177C65.9535 169.888 69.5828 168.301 72.8799 167.623C76.1791 166.945 79.1028 167.184 81.3922 168.484L81.8861 167.615ZM64.0491 239.671C79.5503 244.593 91.2696 243.898 99.8419 239.579C108.416 235.26 113.748 227.364 116.571 218.08C119.393 208.801 119.722 198.1 118.27 188.085C116.819 178.073 113.582 168.7 109.232 162.081L108.396 162.63C112.646 169.096 115.844 178.32 117.28 188.229C118.716 198.135 118.384 208.682 115.614 217.789C112.845 226.894 107.654 234.524 99.392 238.686C91.1278 242.85 79.697 243.591 64.3517 238.718L64.0491 239.671ZM109.232 162.081C100.557 148.884 88.4766 142.477 79.1918 141.376C74.5617 140.827 70.5506 141.59 68.0296 143.59C66.7608 144.596 65.8769 145.911 65.4985 147.504C65.1212 149.092 65.2544 150.921 65.9576 152.951L66.9025 152.624C66.2467 150.731 66.1476 149.098 66.4714 147.735C66.7942 146.376 67.5449 145.25 68.6509 144.373C70.8795 142.606 74.5788 141.836 79.074 142.369C88.0397 143.433 99.8688 149.657 108.396 162.63L109.232 162.081ZM65.9576 152.951C66.6542 154.963 68.6934 159.01 71.6208 164.174C74.5562 169.353 78.4051 175.69 82.744 182.298C91.4138 195.503 102.069 209.834 111.319 218.147C113.634 220.228 115.873 221.943 117.981 223.169C120.084 224.393 122.086 225.149 123.923 225.275C125.779 225.402 127.454 224.884 128.852 223.594C130.235 222.318 131.31 220.321 132.062 217.554C133.566 212.025 133.831 203.232 132.477 190.335C131.122 177.424 128.137 160.351 123.104 138.233L122.129 138.454C127.157 160.552 130.133 177.583 131.483 190.44C132.834 203.31 132.55 211.949 131.098 217.291C130.372 219.959 129.367 221.758 128.174 222.859C126.996 223.946 125.598 224.387 123.992 224.277C122.367 224.166 120.517 223.488 118.483 222.305C116.454 221.124 114.272 219.457 111.988 217.404C102.84 209.182 92.2428 194.943 83.5799 181.749C79.2523 175.158 75.4149 168.839 72.4907 163.681C69.5586 158.508 67.565 154.537 66.9025 152.624L65.9576 152.951ZM123.104 138.233C120.074 124.916 116.176 114.76 111.83 107.651C107.492 100.553 102.665 96.4252 97.7522 95.3072C92.8032 94.1808 87.9188 96.139 83.5704 100.859C79.2302 105.571 75.3785 113.072 72.4236 123.187L73.3835 123.467C76.3157 113.43 80.1103 106.091 84.3059 101.537C88.4933 96.9914 93.0342 95.259 97.5303 96.2822C102.063 97.3137 106.701 101.176 110.977 108.172C115.247 115.158 119.114 125.201 122.129 138.454L123.104 138.233ZM256.158 285.721C265.541 302.016 262.878 318.299 256.989 328.84C254.038 334.12 250.305 337.912 246.923 339.56C245.235 340.383 243.675 340.653 242.354 340.361C241.052 340.072 239.911 339.22 239.068 337.644L238.186 338.116C239.145 339.909 240.51 340.976 242.138 341.337C243.749 341.694 245.546 341.344 247.361 340.459C250.988 338.692 254.851 334.716 257.862 329.328C263.894 318.531 266.61 301.87 257.025 285.222L256.158 285.721ZM239.068 337.644C238.885 337.302 238.831 336.993 238.868 336.705C238.906 336.414 239.044 336.105 239.313 335.779C239.862 335.114 240.902 334.443 242.446 333.824C245.516 332.592 250.344 331.652 256.41 331.229C268.528 330.384 285.446 331.612 302.789 336.557C320.131 341.502 337.868 350.156 351.659 364.14C365.442 378.115 375.305 397.436 376.882 423.768L377.88 423.709C376.289 397.136 366.325 377.586 352.371 363.438C338.426 349.297 320.519 340.573 303.063 335.595C285.607 330.618 268.573 329.378 256.341 330.231C250.231 330.657 245.284 331.608 242.073 332.896C240.476 333.537 239.25 334.284 238.542 335.143C238.182 335.579 237.945 336.058 237.877 336.575C237.809 337.097 237.918 337.615 238.186 338.116L239.068 337.644ZM103.297 219.04C102.359 217.69 101.989 216.526 102.046 215.539C102.101 214.567 102.575 213.688 103.493 212.905C105.365 211.308 108.986 210.199 114.057 209.733C124.152 208.807 139.587 210.464 156.94 215.261C191.649 224.855 233.837 246.951 256.158 285.721L257.025 285.222C234.521 246.135 192.048 223.927 157.206 214.297C139.784 209.481 124.222 207.796 113.965 208.738C108.86 209.206 104.967 210.334 102.844 212.144C101.765 213.065 101.122 214.182 101.047 215.482C100.974 216.768 101.462 218.152 102.476 219.61L103.297 219.04Z" fill="#B87FFF"/>
<path d="M140.591 1C100.468 45.7015 33.2825 133.572 85.5282 127.441C150.835 119.778 49.673 41.8699 18.9402 127.441C-11.7926 213.013 219.984 129.996 148.274 76.354C76.5641 22.7122 34.3071 66.1365 43.2709 127.441C52.2346 188.746 118.822 179.806 140.591 165.757C162.36 151.708 167.482 105.729 116.261 87.8486" stroke="#B87FFF" stroke-linecap="round"/>
<path d="M139.514 167.125C139.837 165.963 139.459 164.736 138.603 163.747C139.846 163.341 140.801 162.488 141.125 161.321C141.707 159.225 140.017 156.928 137.353 156.189C134.689 155.45 132.056 156.552 131.474 158.649C131.151 159.812 131.529 161.038 132.384 162.027C131.142 162.433 130.187 163.286 129.863 164.453C129.54 165.616 129.918 166.842 130.773 167.831C129.531 168.237 128.576 169.09 128.252 170.257C127.929 171.42 128.307 172.646 129.162 173.635C127.92 174.041 126.964 174.894 126.641 176.061C126.318 177.224 126.696 178.45 127.551 179.439C126.309 179.845 125.353 180.698 125.03 181.865C124.707 183.027 125.085 184.254 125.94 185.243C124.697 185.649 123.742 186.502 123.419 187.669C123.096 188.831 123.474 190.058 124.329 191.046C123.086 191.453 122.131 192.306 121.808 193.473C121.485 194.635 121.863 195.862 122.718 196.85C121.475 197.257 120.52 198.11 120.197 199.277C119.874 200.439 120.252 201.666 121.107 202.654C119.864 203.061 118.909 203.914 118.586 205.081C118.004 207.177 119.693 209.474 122.357 210.213C125.022 210.952 127.655 209.85 128.236 207.757C128.558 206.594 128.181 205.368 127.325 204.379C128.568 203.972 129.523 203.119 129.847 201.953C130.169 200.79 129.792 199.564 128.936 198.575C130.179 198.168 131.134 197.315 131.458 196.149C131.78 194.986 131.403 193.76 130.547 192.771C131.79 192.364 132.745 191.511 133.069 190.345C133.392 189.182 133.014 187.956 132.158 186.967C133.401 186.56 134.356 185.707 134.68 184.541C135.003 183.378 134.625 182.152 133.769 181.163C135.012 180.756 135.967 179.903 136.291 178.737C136.614 177.574 136.236 176.348 135.38 175.359C136.623 174.952 137.578 174.099 137.902 172.933C138.225 171.77 137.847 170.544 136.991 169.555C138.235 169.145 139.191 168.288 139.514 167.125Z" fill="#060606" stroke="#060606" stroke-miterlimit="10"/>
<path d="M170.077 232.266L128.479 220.73C125.844 219.999 124.294 217.293 125.017 214.686L139.844 161.27C140.568 158.663 143.291 157.141 145.926 157.872L187.528 169.409C190.163 170.14 191.713 172.847 190.99 175.454L176.163 228.87C175.436 231.476 172.712 232.997 170.077 232.266Z" fill="#B87FFF"/>
<path d="M134.024 164.58C136.012 165.036 138.143 163.662 138.784 161.511C139.425 159.36 138.333 157.246 136.344 156.79C134.356 156.333 132.225 157.707 131.584 159.859C130.943 162.01 132.035 164.124 134.024 164.58Z" fill="#B87FFF"/>
<path d="M132.45 170.252C134.438 170.708 136.57 169.334 137.211 167.183C137.851 165.032 136.759 162.918 134.771 162.462C132.782 162.005 130.651 163.379 130.01 165.53C129.369 167.682 130.462 169.795 132.45 170.252Z" fill="#B87FFF"/>
<path d="M130.874 175.924C132.863 176.38 134.994 175.006 135.635 172.855C136.276 170.704 135.183 168.59 133.195 168.134C131.207 167.678 129.075 169.052 128.434 171.203C127.794 173.354 128.886 175.468 130.874 175.924Z" fill="#B87FFF"/>
<path d="M129.302 181.593C131.29 182.049 133.422 180.675 134.062 178.524C134.703 176.372 133.611 174.259 131.622 173.802C129.634 173.346 127.503 174.72 126.862 176.871C126.221 179.022 127.313 181.136 129.302 181.593Z" fill="#B87FFF"/>
<path d="M127.727 187.265C129.715 187.721 131.847 186.347 132.487 184.196C133.128 182.045 132.036 179.931 130.047 179.475C128.059 179.018 125.928 180.392 125.287 182.544C124.646 184.695 125.739 186.809 127.727 187.265Z" fill="#B87FFF"/>
<path d="M126.153 192.936C128.141 193.393 130.272 192.019 130.913 189.867C131.554 187.716 130.461 185.602 128.473 185.146C126.485 184.69 124.353 186.064 123.713 188.215C123.072 190.366 124.164 192.48 126.153 192.936Z" fill="#B87FFF"/>
<path d="M124.579 198.605C126.568 199.061 128.699 197.687 129.34 195.536C129.981 193.385 128.888 191.271 126.9 190.815C124.911 190.358 122.78 191.732 122.139 193.883C121.498 196.035 122.591 198.148 124.579 198.605Z" fill="#B87FFF"/>
<path d="M123.005 204.277C124.993 204.734 127.125 203.36 127.766 201.208C128.406 199.057 127.314 196.943 125.326 196.487C123.337 196.031 121.206 197.405 120.565 199.556C119.924 201.707 121.017 203.821 123.005 204.277Z" fill="#B87FFF"/>
<path d="M121.431 209.946C123.42 210.402 125.551 209.028 126.192 206.877C126.833 204.726 125.74 202.612 123.752 202.156C121.763 201.7 119.632 203.074 118.991 205.225C118.35 207.376 119.443 209.49 121.431 209.946Z" fill="#B87FFF"/>
<path d="M133.816 162.107C135.805 162.564 137.936 161.19 138.577 159.038C139.218 156.887 138.125 154.773 136.137 154.317C134.148 153.861 132.017 155.235 131.376 157.386C130.735 159.537 131.828 161.651 133.816 162.107Z" stroke="white" stroke-miterlimit="10"/>
<path d="M132.243 167.779C134.231 168.235 136.362 166.861 137.003 164.71C137.644 162.559 136.551 160.445 134.563 159.989C132.575 159.533 130.443 160.907 129.803 163.058C129.162 165.209 130.254 167.323 132.243 167.779Z" stroke="white" stroke-miterlimit="10"/>
<path d="M130.667 173.452C132.655 173.908 134.787 172.534 135.428 170.383C136.068 168.231 134.976 166.118 132.988 165.661C130.999 165.205 128.868 166.579 128.227 168.73C127.586 170.881 128.679 172.995 130.667 173.452Z" stroke="white" stroke-miterlimit="10"/>
<path d="M129.094 179.12C131.083 179.576 133.214 178.202 133.855 176.051C134.496 173.9 133.403 171.786 131.415 171.33C129.426 170.873 127.295 172.247 126.654 174.399C126.014 176.55 127.106 178.664 129.094 179.12Z" stroke="white" stroke-miterlimit="10"/>
<path d="M127.519 184.792C129.508 185.249 131.639 183.875 132.28 181.723C132.921 179.572 131.828 177.458 129.84 177.002C127.852 176.546 125.72 177.92 125.079 180.071C124.439 182.222 125.531 184.336 127.519 184.792Z" stroke="white" stroke-miterlimit="10"/>
<path d="M125.945 190.464C127.933 190.92 130.065 189.546 130.706 187.395C131.346 185.244 130.254 183.13 128.266 182.673C126.277 182.217 124.146 183.591 123.505 185.742C122.864 187.894 123.957 190.007 125.945 190.464Z" stroke="white" stroke-miterlimit="10"/>
<path d="M124.372 196.132C126.36 196.588 128.492 195.215 129.132 193.063C129.773 190.912 128.681 188.798 126.692 188.342C124.704 187.886 122.573 189.26 121.932 191.411C121.291 193.562 122.383 195.676 124.372 196.132Z" stroke="white" stroke-miterlimit="10"/>
<path d="M122.797 201.805C124.786 202.261 126.917 200.887 127.558 198.736C128.199 196.584 127.106 194.471 125.118 194.014C123.13 193.558 120.998 194.932 120.357 197.083C119.717 199.234 120.809 201.348 122.797 201.805Z" stroke="white" stroke-miterlimit="10"/>
<path d="M121.224 207.473C123.212 207.93 125.344 206.556 125.984 204.405C126.625 202.253 125.533 200.14 123.544 199.683C121.556 199.227 119.425 200.601 118.784 202.752C118.143 204.903 119.235 207.017 121.224 207.473Z" stroke="white" stroke-miterlimit="10"/>
<path d="M166.562 225.249L125.377 213.828C122.768 213.104 121.239 210.404 121.963 207.797L136.79 154.381C137.513 151.774 140.216 150.246 142.825 150.97L184.013 162.392C186.622 163.116 188.15 165.817 187.427 168.423L172.6 221.84C171.873 224.446 169.17 225.973 166.562 225.249Z" fill="white" stroke="#060606" stroke-miterlimit="10"/>
<path d="M177.777 169.892L143.75 160.711L143.437 162.034L177.464 171.214L177.777 169.892Z" fill="#060606"/>
<path d="M176.816 173.358L142.789 164.177L142.476 165.499L176.503 174.68L176.816 173.358Z" fill="#060606"/>
<path d="M175.608 177.713L141.581 168.532L141.268 169.854L175.295 179.035L175.608 177.713Z" fill="#060606"/>
<path d="M220.417 251.129C226.708 247.239 230.007 239.571 228.016 232.066C225.583 222.891 216.167 217.446 206.984 219.901C197.8 222.357 192.329 231.784 194.762 240.958C196.752 248.46 203.414 253.468 210.798 253.702C211.282 254.585 212.008 255.288 212.867 255.749L218.601 285.78C219.255 288.245 222.232 289.587 225.253 288.779C228.273 287.971 230.191 285.32 229.537 282.855L219.42 254.263C220.077 253.366 220.436 252.271 220.417 251.129Z" fill="#B87FFF"/>
<path d="M219.721 282.811C216.813 283.588 213.947 282.297 213.317 279.927L207.285 248.354C206.656 245.984 206.348 244.163 209.256 243.386C212.163 242.609 212.517 244.523 213.146 246.893L223.845 277.11C224.472 279.484 222.625 282.035 219.721 282.811Z" fill="white" stroke="#060606" stroke-miterlimit="10"/>
<path d="M211.373 251.394C214.006 250.689 215.576 247.985 214.878 245.354C214.18 242.722 211.48 241.16 208.846 241.865C206.213 242.569 204.644 245.273 205.341 247.905C206.039 250.536 208.739 252.098 211.373 251.394Z" fill="white" stroke="#060606" stroke-miterlimit="10"/>
<path d="M210.575 248.45C219.405 246.087 224.667 237.02 222.328 228.196C219.988 219.373 210.934 214.135 202.104 216.498C193.274 218.86 188.012 227.928 190.352 236.751C192.691 245.574 201.745 250.812 210.575 248.45Z" fill="white" stroke="#060606" stroke-miterlimit="10"/>
<path d="M209.216 243.322C215.212 241.718 218.784 235.561 217.196 229.57C215.607 223.578 209.459 220.022 203.463 221.626C197.468 223.23 193.895 229.387 195.483 235.378C197.072 241.37 203.22 244.926 209.216 243.322Z" fill="white" stroke="#060606" stroke-miterlimit="10"/>
<path d="M209.8 241.602C203.804 243.206 197.657 239.65 196.068 233.658C195.564 231.754 195.581 229.836 196.033 228.047C195.068 230.281 194.814 232.841 195.485 235.374C197.074 241.365 203.221 244.921 209.217 243.317C213.307 242.223 216.267 239.009 217.232 235.177C215.914 238.231 213.262 240.676 209.8 241.602Z" fill="#060606"/>
<path fill-rule="evenodd" clip-rule="evenodd" d="M239.628 162.637C239.629 162.638 239.63 162.64 239.63 162.641C239.631 162.642 239.632 162.643 239.632 162.644L239.787 162.917L239.764 162.93C240.881 165.957 234.892 172.26 226.032 177.282C217.172 182.304 208.687 184.204 206.664 181.691L206.641 181.704L203.823 176.732L203.846 176.719C202.729 173.692 208.718 167.388 217.578 162.366C226.439 157.344 234.923 155.445 236.947 157.958L236.969 157.945L237.11 158.194C237.115 158.203 237.12 158.212 237.126 158.221C237.131 158.23 237.136 158.24 237.141 158.249L239.628 162.637Z" fill="#B87FFF"/>
<mask id="path-34-inside-1_302_3656" fill="white">
<path fill-rule="evenodd" clip-rule="evenodd" d="M236.269 160.015C236.269 160.016 236.27 160.017 236.27 160.018C236.271 160.019 236.272 160.02 236.272 160.022L236.427 160.294L236.404 160.307C237.521 163.334 231.532 169.638 222.672 174.66C213.812 179.681 205.328 181.581 203.304 179.068L203.281 179.081L200.463 174.109L200.486 174.096C199.37 171.069 205.358 164.766 214.218 159.744C223.079 154.722 231.563 152.822 233.587 155.335L233.609 155.323L233.75 155.571C233.755 155.58 233.761 155.589 233.766 155.599C233.771 155.608 233.776 155.617 233.781 155.626L236.269 160.015Z"/>
</mask>
<path fill-rule="evenodd" clip-rule="evenodd" d="M236.269 160.015C236.269 160.016 236.27 160.017 236.27 160.018C236.271 160.019 236.272 160.02 236.272 160.022L236.427 160.294L236.404 160.307C237.521 163.334 231.532 169.638 222.672 174.66C213.812 179.681 205.328 181.581 203.304 179.068L203.281 179.081L200.463 174.109L200.486 174.096C199.37 171.069 205.358 164.766 214.218 159.744C223.079 154.722 231.563 152.822 233.587 155.335L233.609 155.323L233.75 155.571C233.755 155.58 233.761 155.589 233.766 155.599C233.771 155.608 233.776 155.617 233.781 155.626L236.269 160.015Z" fill="white"/>
<path d="M236.427 160.294L236.92 161.164L237.79 160.671L237.297 159.801L236.427 160.294ZM236.404 160.307L235.911 159.437L235.172 159.856L235.466 160.653L236.404 160.307ZM203.304 179.068L204.083 178.441L203.55 177.779L202.811 178.198L203.304 179.068ZM203.281 179.081L202.411 179.574L202.904 180.444L203.774 179.951L203.281 179.081ZM200.463 174.109L199.97 173.239L199.1 173.732L199.593 174.602L200.463 174.109ZM200.486 174.096L200.979 174.966L201.718 174.547L201.424 173.75L200.486 174.096ZM233.587 155.335L232.808 155.962L233.341 156.624L234.08 156.205L233.587 155.335ZM233.609 155.323L234.479 154.83L233.986 153.96L233.116 154.453L233.609 155.323ZM233.75 155.571L232.88 156.064L232.884 156.071L232.888 156.078L233.75 155.571ZM233.781 155.626L232.903 156.105L232.907 156.112L232.911 156.12L233.781 155.626ZM237.14 159.525C237.14 159.524 237.139 159.523 237.139 159.522C237.138 159.521 237.138 159.522 237.139 159.522L235.399 160.508C235.399 160.509 235.4 160.51 235.4 160.511C235.401 160.512 235.401 160.511 235.4 160.511L237.14 159.525ZM237.142 159.528C237.142 159.529 237.142 159.529 237.142 159.528C237.142 159.528 237.141 159.526 237.14 159.525L235.4 160.511C235.4 160.511 235.4 160.511 235.401 160.512C235.401 160.512 235.402 160.513 235.402 160.515L237.142 159.528ZM235.402 160.515L235.557 160.788L237.297 159.801L237.142 159.528L235.402 160.515ZM235.934 159.424L235.911 159.437L236.898 161.177L236.92 161.164L235.934 159.424ZM223.165 175.529C227.658 172.983 231.455 170.095 234.003 167.426C235.274 166.094 236.268 164.783 236.872 163.565C237.463 162.372 237.762 161.099 237.343 159.961L235.466 160.653C235.605 161.029 235.574 161.679 235.08 162.677C234.598 163.648 233.75 164.794 232.556 166.045C230.174 168.54 226.546 171.314 222.179 173.79L223.165 175.529ZM202.525 179.695C203.286 180.64 204.532 181.037 205.859 181.143C207.214 181.25 208.85 181.071 210.645 180.665C214.244 179.85 218.672 178.076 223.165 175.529L222.179 173.79C217.812 176.265 213.567 177.952 210.203 178.714C208.517 179.096 207.098 179.235 206.017 179.149C204.907 179.061 204.334 178.753 204.083 178.441L202.525 179.695ZM202.811 178.198L202.788 178.211L203.774 179.951L203.797 179.938L202.811 178.198ZM204.151 178.588L201.333 173.616L199.593 174.602L202.411 179.574L204.151 178.588ZM200.956 174.979L200.979 174.966L199.993 173.226L199.97 173.239L200.956 174.979ZM213.725 158.874C209.232 161.42 205.436 164.308 202.888 166.978C201.616 168.309 200.623 169.62 200.019 170.839C199.428 172.031 199.128 173.305 199.548 174.442L201.424 173.75C201.286 173.374 201.316 172.725 201.811 171.727C202.292 170.755 203.14 169.609 204.334 168.359C206.716 165.864 210.344 163.089 214.711 160.614L213.725 158.874ZM234.366 154.708C233.605 153.764 232.359 153.366 231.032 153.261C229.676 153.153 228.041 153.332 226.246 153.739C222.646 154.554 218.218 156.327 213.725 158.874L214.711 160.614C219.079 158.138 223.323 156.451 226.687 155.689C228.373 155.307 229.792 155.169 230.874 155.255C231.984 155.343 232.557 155.65 232.808 155.962L234.366 154.708ZM234.08 156.205L234.102 156.193L233.116 154.453L233.094 154.465L234.08 156.205ZM232.739 155.816L232.88 156.064L234.62 155.078L234.479 154.83L232.739 155.816ZM234.636 155.106C234.628 155.092 234.62 155.078 234.612 155.064L232.888 156.078C232.891 156.083 232.893 156.087 232.896 156.092L234.636 155.106ZM234.659 155.148C234.652 155.134 234.644 155.12 234.636 155.106L232.896 156.092C232.898 156.096 232.901 156.101 232.903 156.105L234.659 155.148ZM232.911 156.12L235.399 160.508L237.139 159.522L234.651 155.133L232.911 156.12Z" fill="#060606" mask="url(#path-34-inside-1_302_3656)"/>
<path d="M233.018 155.293C233.315 155.817 233.306 156.585 232.85 157.627C232.399 158.659 231.547 159.865 230.336 161.168C227.919 163.771 224.153 166.677 219.608 169.253C215.064 171.829 210.636 173.567 207.161 174.304C205.42 174.673 203.948 174.784 202.831 174.642C201.703 174.498 201.039 174.111 200.742 173.587C200.445 173.062 200.454 172.294 200.91 171.253C201.361 170.221 202.214 169.015 203.424 167.711C205.842 165.108 209.608 162.202 214.152 159.627C218.697 157.051 223.124 155.313 226.599 154.576C228.34 154.207 229.812 154.095 230.929 154.238C232.057 154.382 232.721 154.769 233.018 155.293Z" fill="white" stroke="#060606"/>
<path d="M206.172 174.523L208.834 179.219" stroke="#060606"/>
<path d="M212.599 172.34L215.261 177.036" stroke="#060606"/>
<path d="M225.618 165.691L228.28 170.387" stroke="#060606"/>
<path d="M230.755 160.59L233.417 165.286" stroke="#060606"/>
<path d="M219.541 169.135L222.203 173.831" stroke="#060606"/>
</svg>
