<svg width="97" height="96" viewBox="0 0 97 96" fill="none" xmlns="http://www.w3.org/2000/svg">
<circle cx="51.5" cy="50.5" r="45.5" fill="#46B4F2"/>
<ellipse cx="44.6625" cy="44.6314" rx="42.6625" ry="42.6314" fill="white" stroke="#060606" stroke-width="3"/>
<mask id="path-3-inside-1_268_356" fill="white">
<path fill-rule="evenodd" clip-rule="evenodd" d="M44.5 35C52.9407 35 60.5245 31.3306 65.743 25.5C70.2559 30.5422 73 37.2006 73 44.5C73 52.0433 70.0694 58.9021 65.2847 64C60.0855 58.4604 52.6968 55 44.5 55C36.3032 55 28.9145 58.4604 23.7153 64C18.9306 58.9021 16 52.0433 16 44.5C16 37.2006 18.7441 30.5422 23.257 25.5C28.4755 31.3306 36.0593 35 44.5 35Z"/>
</mask>
<path d="M65.743 25.5L67.2333 24.1662L65.743 22.5011L64.2527 24.1662L65.743 25.5ZM65.2847 64L63.8264 65.3687L65.2847 66.9225L66.743 65.3687L65.2847 64ZM23.7153 64L22.257 65.3687L23.7153 66.9225L25.1736 65.3687L23.7153 64ZM23.257 25.5L24.7473 24.1662L23.257 22.5011L21.7667 24.1662L23.257 25.5ZM64.2527 24.1662C59.3976 29.5908 52.3482 33 44.5 33V37C53.5333 37 61.6514 33.0704 67.2333 26.8338L64.2527 24.1662ZM75 44.5C75 36.6897 72.0617 29.5609 67.2333 24.1662L64.2527 26.8338C68.4501 31.5235 71 37.7116 71 44.5H75ZM66.743 65.3687C71.8619 59.9147 75 52.5717 75 44.5H71C71 51.5149 68.277 57.8894 63.8264 62.6313L66.743 65.3687ZM44.5 57C52.1218 57 58.9894 60.2151 63.8264 65.3687L66.743 62.6313C61.1815 56.7057 53.2719 53 44.5 53V57ZM25.1736 65.3687C30.0106 60.2151 36.8783 57 44.5 57V53C35.7281 53 27.8185 56.7057 22.257 62.6313L25.1736 65.3687ZM14 44.5C14 52.5717 17.1381 59.9147 22.257 65.3687L25.1736 62.6313C20.723 57.8894 18 51.5149 18 44.5H14ZM21.7667 24.1662C16.9383 29.5609 14 36.6897 14 44.5H18C18 37.7116 20.5499 31.5235 24.7473 26.8338L21.7667 24.1662ZM44.5 33C36.6518 33 29.6025 29.5908 24.7473 24.1662L21.7667 26.8338C27.3486 33.0704 35.4667 37 44.5 37V33Z" fill="#060606" mask="url(#path-3-inside-1_268_356)"/>
<circle cx="44.5" cy="44.5" r="27.5" stroke="#060606" stroke-width="2"/>
<path d="M56 44.5C56 52.2652 54.6176 59.2474 52.423 64.2509C51.3252 66.7541 50.0437 68.7171 48.6714 70.0405C47.304 71.3592 45.8959 72 44.5 72C43.1041 72 41.696 71.3592 40.3286 70.0405C38.9563 68.7171 37.6748 66.7541 36.577 64.2509C34.3824 59.2474 33 52.2652 33 44.5C33 36.7348 34.3824 29.7526 36.577 24.7491C37.6748 22.2459 38.9563 20.2829 40.3286 18.9595C41.696 17.6408 43.1041 17 44.5 17C45.8959 17 47.304 17.6408 48.6714 18.9595C50.0437 20.2829 51.3252 22.2459 52.423 24.7491C54.6176 29.7526 56 36.7348 56 44.5Z" stroke="#060606" stroke-width="2"/>
<rect x="17" y="44" width="55" height="2" fill="#060606"/>
</svg>
