<svg width="122" height="118" viewBox="0 0 122 118" fill="none" xmlns="http://www.w3.org/2000/svg">
<path fill-rule="evenodd" clip-rule="evenodd" d="M82.9293 43.0383C84.4371 39.4147 91.0873 23.3844 92.1958 19.8795C94.7399 11.8431 83.9681 3.58569 75.4476 13.6312C72.9852 16.5299 67.9602 23.82 62.5507 31.6678C54.3876 43.5105 45.3491 56.6231 42.9204 57.8315C41.4265 58.5747 37.0769 59.0733 32.0979 59.6439C23.6179 60.6159 13.3123 61.7971 12.1801 64.7528C10.3831 69.4441 9.15146 82.3928 10.7162 91.7652C12.281 101.138 15.4207 112.429 20.1352 112.65C20.1352 112.65 36.1868 108.953 40.0029 109.847C41.5554 110.211 43.3669 111.424 45.3925 112.781C48.3459 114.759 51.7544 117.042 55.479 117.442C61.1772 118.052 81.2906 113.691 84.9646 112.879L105.115 113.99C109.245 114.212 112.768 110.708 112.98 106.158L112.99 105.891C113.117 103.156 112.025 100.665 110.238 99.0608C113.989 98.3407 116.919 94.9749 117.118 90.79C117.271 87.5538 115.751 84.6348 113.36 82.9643C116.813 82.2852 119.53 79.4842 119.869 75.4346L119.899 75.0423C120.233 70.7203 117.764 66.8519 114.15 65.5895C117.841 64.3925 120.661 60.9495 121.012 56.6605C121.475 51.011 117.493 46.0268 112.114 45.541L84.6241 43.0384C84.0505 42.9866 83.4841 42.9879 82.9293 43.0383Z" fill="#46B4F2"/>
<path d="M72.1415 38.6102C72.1415 38.6102 74.6315 34.5302 76.8615 29.2202C79.5315 22.8802 82.0515 14.9802 82.7315 12.8302C85.2514 4.83022 74.5815 -3.38978 66.1415 6.61022C63.3615 9.90022 58.3315 21.6002 52.1415 30.6102C44.7215 41.4102 36.1015 49.5202 33.9215 50.6102C29.9215 52.6102 4.16145 56.5902 3.48145 57.5002C0.461452 61.4802 0.481452 75.0602 2.03145 84.3902C3.58145 93.7202 6.69145 104.96 11.3615 105.18C11.3615 105.18 27.2614 101.5 31.0415 102.39C34.8214 103.28 40.1515 109.28 46.3715 109.95C52.5915 110.62 76.1515 105.28 76.1515 105.28" fill="white"/>
<path d="M72.1415 38.6102C72.1415 38.6102 74.6315 34.5302 76.8615 29.2202C79.5315 22.8802 82.0515 14.9802 82.7315 12.8302C85.2515 4.83022 74.5815 -3.38978 66.1415 6.61022C63.3615 9.90022 58.3315 21.6002 52.1415 30.6102C44.7215 41.4102 36.1015 49.5202 33.9215 50.6102C29.9215 52.6102 4.16145 56.5902 3.48145 57.5002C0.461452 61.4802 0.481452 75.0602 2.03145 84.3902C3.58145 93.7202 6.69145 104.96 11.3615 105.18C11.3615 105.18 27.2615 101.5 31.0415 102.39C34.8215 103.28 40.1515 109.28 46.3715 109.95C52.5915 110.62 76.1515 105.28 76.1515 105.28" stroke="#060606" stroke-width="2" stroke-miterlimit="10"/>
<path d="M53.59 66C53.59 66 53.43 75.93 33 79.33L53.59 66Z" fill="white"/>
<path d="M53.59 66C53.59 66 53.43 75.93 33 79.33" stroke="#060606" stroke-width="2" stroke-miterlimit="10" stroke-linecap="round"/>
<path d="M101.522 58.1501L74.1815 55.7801C68.8315 55.3201 64.8715 50.6001 65.3315 45.2501C65.7915 39.9001 70.2015 38.3701 75.5915 37.6101C75.5915 37.6101 96.8815 37.3401 103.212 38.7701C107.112 39.6501 112.522 43.9501 112.062 49.3001C111.592 54.6501 106.562 57.2301 101.522 58.1501Z" fill="white" stroke="#060606" stroke-width="2" stroke-miterlimit="10"/>
<path d="M101.421 74.6901L68.5514 72.7601C63.2514 72.5401 59.9814 67.9201 60.3814 63.3301L60.4114 62.9701C60.8114 58.3801 66.2214 56.0001 69.4514 55.3701C72.1814 54.8401 102.911 58.2701 102.911 58.2701C107.431 60.0901 110.901 62.7101 110.511 67.3101L110.481 67.6701C110.061 72.2501 103.841 74.7301 101.421 74.6901Z" fill="white" stroke="#060606" stroke-width="2" stroke-miterlimit="10"/>
<path d="M99.7514 91.2802C99.7514 91.2802 80.4714 90.4602 73.4314 90.1102C68.8314 89.8802 63.4514 85.7202 63.6814 81.1202C63.9114 76.5202 68.6414 72.8102 73.2514 73.0402C80.2914 73.3902 100.581 74.6102 100.581 74.6102C105.181 74.8402 108.191 77.8902 108.501 83.3602C108.271 87.9602 104.351 91.5102 99.7514 91.2802Z" fill="white" stroke="#060606" stroke-width="2" stroke-miterlimit="10"/>
<path d="M95.5714 106.24C95.5714 106.24 79.0914 105.48 73.7014 104.69C71.0614 104.3 66.5314 101.46 66.7414 97.3703L66.7514 97.1303C66.9514 93.0303 70.5514 90.0003 74.5414 90.0903C76.8114 90.1403 96.3314 91.1803 96.3314 91.1803C100.431 91.3803 103.581 94.8703 103.371 98.9703L103.361 99.2103C103.151 103.29 99.6614 106.44 95.5714 106.24Z" fill="white" stroke="#060606" stroke-width="2" stroke-miterlimit="10"/>
<path d="M71.5014 12.2701C71.5014 12.2701 76.4998 7.5 77.8814 11.3501C79.2278 15.1018 68.5714 19.6501 67.7014 12.0901" fill="white"/>
<path d="M71.5014 12.2701C71.5014 12.2701 76.4998 7.5 77.8814 11.3501C79.2278 15.1018 68.5714 19.6501 67.7014 12.0901" stroke="#060606" stroke-width="2" stroke-miterlimit="10" stroke-linecap="round"/>
<path d="M107 46C107 46 108.56 48.22 107 51.67V46Z" fill="white"/>
<path d="M107 46C107 46 108.56 48.22 107 51.67" stroke="#060606" stroke-width="2" stroke-miterlimit="10" stroke-linecap="round"/>
<path d="M106 63C106 63 107.56 65.22 106 68.67V63Z" fill="white"/>
<path d="M106 63C106 63 107.56 65.22 106 68.67" stroke="#060606" stroke-width="2" stroke-miterlimit="10" stroke-linecap="round"/>
<path d="M104 80C104 80 105.56 82.22 104 85.67V80Z" fill="white"/>
<path d="M104 80C104 80 105.56 82.22 104 85.67" stroke="#060606" stroke-width="2" stroke-miterlimit="10" stroke-linecap="round"/>
<path d="M99 96C99 96 100.56 98.22 99 101.67V96Z" fill="#46B4F2"/>
<path d="M99 96C99 96 100.56 98.22 99 101.67" stroke="#060606" stroke-width="2" stroke-miterlimit="10" stroke-linecap="round"/>
</svg>
