<svg width="148" height="182" viewBox="0 0 148 182" fill="none" xmlns="http://www.w3.org/2000/svg">
<path d="M89.6805 95.3531C105.966 97.9808 122.735 89.8379 130.354 74.227C139.669 55.144 131.769 32.1463 112.708 22.8566C93.6473 13.5669 70.6478 21.505 61.3337 40.588C53.7175 56.1921 57.6171 74.4169 69.7154 85.6227C69.2379 87.8255 69.4345 90.0787 70.2079 92.1159L35.9601 151.315C33.4579 156.441 36.5106 163.07 42.7802 166.125C49.0499 169.181 56.1566 167.504 58.6587 162.377L83.4195 99.1954C85.838 98.6381 88.0431 97.3109 89.6805 95.3531Z" fill="#46B4F2"/>
<path d="M36.7827 154.092C30.7531 151.153 27.8154 144.775 30.2203 139.847L66.2155 77.6233C68.6204 72.6951 70.7641 69.1647 76.7937 72.1039C82.8233 75.043 80.6208 78.7975 78.2158 83.7257L52.0581 150.483C49.643 155.415 42.8055 157.028 36.7827 154.092Z" fill="white" stroke="#060606" stroke-width="2" stroke-miterlimit="10"/>
<path d="M68.6624 88.7802C74.1328 91.4461 80.7344 89.1678 83.4076 83.6914C86.0808 78.2151 83.8132 71.6145 78.3428 68.9486C72.8724 66.2827 66.2707 68.561 63.5976 74.0374C60.9244 79.5137 63.192 86.1143 68.6624 88.7802Z" fill="white" stroke="#060606" stroke-width="2" stroke-miterlimit="10"/>
<path d="M71.6275 82.6808C89.9698 91.6196 112.105 83.9804 121.069 65.6181C130.032 47.2559 122.428 25.124 104.086 16.1852C85.7437 7.24634 63.6082 14.8856 54.645 33.2478C45.6818 51.6101 53.2852 73.742 71.6275 82.6808Z" fill="white" stroke="#060606" stroke-width="2" stroke-miterlimit="10"/>
<path d="M76.8369 72.0093C89.2918 78.0789 104.322 72.8917 110.409 60.4233C116.495 47.9549 111.332 32.9267 98.8771 26.8571C86.4221 20.7874 71.3916 25.9746 65.3054 38.443C59.2191 50.9115 64.382 65.9396 76.8369 72.0093Z" fill="white" stroke="#060606" stroke-width="2" stroke-miterlimit="10"/>
<path d="M80.3352 69.9497C67.8782 63.879 62.7155 48.8514 68.8028 36.3808C70.7377 32.4169 73.5734 29.1955 76.952 26.8289C72.0562 29.1981 67.8828 33.1587 65.3096 38.4302C59.2223 50.9009 64.3849 65.9284 76.842 71.9991C85.3394 76.1402 95.032 75.0379 102.267 69.9642C95.5741 73.2028 87.5264 73.4542 80.3352 69.9497Z" fill="#060606"/>
</svg>
