<svg width="99" height="163" viewBox="0 0 99 163" fill="none" xmlns="http://www.w3.org/2000/svg">
<path d="M75.0249 14.2087L16.0294 135.119L15.5691 159.227L34.6519 144.198L93.7676 23.3463C93.7676 23.3463 92.6424 18.7662 85.9854 15.5207C80.0435 12.6292 75.0249 14.2087 75.0249 14.2087Z" fill="#46B4F2"/>
<path d="M68.4153 14.1886L73.2287 4.32847C74.5827 4.05814 78.4704 3.57722 82.8781 5.72506C87.8479 8.14675 89.5069 11.3079 89.951 12.3985L85.095 22.3165L68.4153 14.1886Z" fill="white" stroke="#060606" stroke-width="2"/>
<mask id="path-3-inside-1_268_398" fill="white">
<path d="M83.2122 5.04115C88.9355 7.82978 90.5017 11.6248 90.7763 12.4365L85.4432 23.327L67.4018 14.5364L72.7092 3.66553C73.6721 3.43012 78.1176 2.55884 83.2122 5.04115ZM83.4227 4.60993C77.4263 1.68821 72.3703 3.26022 72.3703 3.26022L66.7556 14.7607L85.6642 23.9737L91.292 12.4796C91.292 12.4796 90.1433 7.88446 83.4227 4.60993Z"/>
</mask>
<path d="M83.2122 5.04115C88.9355 7.82978 90.5017 11.6248 90.7763 12.4365L85.4432 23.327L67.4018 14.5364L72.7092 3.66553C73.6721 3.43012 78.1176 2.55884 83.2122 5.04115ZM83.4227 4.60993C77.4263 1.68821 72.3703 3.26022 72.3703 3.26022L66.7556 14.7607L85.6642 23.9737L91.292 12.4796C91.292 12.4796 90.1433 7.88446 83.4227 4.60993Z" fill="#060606"/>
<path d="M90.7763 12.4365L92.5732 13.3147L92.9353 12.5751L92.6715 11.7953L90.7763 12.4365ZM85.4432 23.327L84.5658 25.1242L86.3616 25.9992L87.2401 24.2051L85.4432 23.327ZM67.4018 14.5364L65.6038 13.6604L64.7264 15.4576L66.5243 16.3337L67.4018 14.5364ZM72.7092 3.66553L72.2347 1.72344L71.3229 1.94634L70.9112 2.78951L72.7092 3.66553ZM72.3703 3.26022L71.7768 1.35114L70.9515 1.60778L70.5724 2.3842L72.3703 3.26022ZM66.7556 14.7607L64.9576 13.8847L64.0802 15.6819L65.8781 16.5579L66.7556 14.7607ZM85.6642 23.9737L84.7868 25.771L86.5826 26.646L87.4611 24.8518L85.6642 23.9737ZM91.292 12.4796L93.0889 13.3577L93.0899 13.3556L91.292 12.4796ZM82.3348 6.83838C87.4848 9.3477 88.7413 12.6646 88.881 13.0777L92.6715 11.7953C92.2621 10.585 90.3862 6.31185 84.0897 3.24391L82.3348 6.83838ZM88.9794 11.5583L83.6464 22.4488L87.2401 24.2051L92.5732 13.3147L88.9794 11.5583ZM86.3207 21.5297L68.2792 12.7392L66.5243 16.3337L84.5658 25.1242L86.3207 21.5297ZM69.1997 15.4125L74.5071 4.54155L70.9112 2.78951L65.6038 13.6604L69.1997 15.4125ZM73.1837 5.60762C73.9142 5.42901 77.8272 4.64211 82.3348 6.83838L84.0897 3.24391C78.408 0.475575 73.43 1.43122 72.2347 1.72344L73.1837 5.60762ZM84.3002 2.8127C80.9681 1.18918 77.8837 0.809033 75.6212 0.840256C74.4909 0.855855 73.5619 0.974003 72.9019 1.09227C72.5715 1.15147 72.3072 1.21094 72.1173 1.25815C72.0223 1.28177 71.9457 1.30235 71.8887 1.31836C71.8602 1.32636 71.8365 1.33322 71.8178 1.33875C71.8085 1.34151 71.8004 1.34394 71.7936 1.34602C71.7901 1.34705 71.787 1.348 71.7842 1.34886C71.7829 1.34928 71.7815 1.34969 71.7803 1.35007C71.7797 1.35026 71.7788 1.35053 71.7785 1.35062C71.7777 1.35089 71.7768 1.35114 72.3703 3.26022C72.9638 5.1693 72.963 5.16955 72.9622 5.16978C72.962 5.16986 72.9613 5.17009 72.9608 5.17023C72.9599 5.17052 72.959 5.17078 72.9583 5.17102C72.9567 5.1715 72.9554 5.17188 72.9545 5.17217C72.9525 5.17276 72.9518 5.17298 72.9522 5.17286C72.953 5.17261 72.9585 5.171 72.9685 5.16821C72.9884 5.16261 73.0264 5.15227 73.0813 5.13861C73.1913 5.11126 73.3689 5.07074 73.6062 5.02822C74.0815 4.94304 74.7913 4.8508 75.6745 4.83861C77.4391 4.81426 79.8809 5.10896 82.5453 6.40717L84.3002 2.8127ZM70.5724 2.3842L64.9576 13.8847L68.5535 15.6367L74.1683 4.13624L70.5724 2.3842ZM65.8781 16.5579L84.7868 25.771L86.5416 22.1765L67.633 12.9635L65.8781 16.5579ZM87.4611 24.8518L93.0889 13.3577L89.495 11.6015L83.8673 23.0957L87.4611 24.8518ZM91.292 12.4796C93.233 11.9941 93.2327 11.993 93.2324 11.9918C93.2323 11.9914 93.232 11.9902 93.2318 11.9893C93.2313 11.9877 93.2309 11.9859 93.2304 11.9841C93.2295 11.9805 93.2285 11.9766 93.2274 11.9724C93.2252 11.964 93.2227 11.9544 93.2198 11.9438C93.214 11.9224 93.2068 11.8967 93.1981 11.8666C93.1805 11.8065 93.1567 11.7292 93.1253 11.6363C93.0627 11.4505 92.97 11.202 92.838 10.9029C92.574 10.3046 92.1524 9.50383 91.499 8.60074C90.1849 6.78434 87.9651 4.59837 84.3002 2.8127L82.5453 6.40717C85.601 7.89603 87.3158 9.64489 88.2561 10.9447C88.73 11.5997 89.0156 12.1524 89.1769 12.518C89.2576 12.7009 89.3072 12.8369 89.3336 12.9152C89.3468 12.9543 89.3542 12.979 89.3568 12.9878C89.3581 12.9922 89.3582 12.9926 89.3571 12.9889C89.3566 12.987 89.3559 12.9841 89.3548 12.9802C89.3543 12.9782 89.3537 12.9759 89.3531 12.9734C89.3528 12.9722 89.3524 12.9708 89.3521 12.9695C89.3519 12.9688 89.3516 12.9677 89.3516 12.9673C89.3513 12.9662 89.351 12.9651 91.292 12.4796Z" fill="#060606" mask="url(#path-3-inside-1_268_398)"/>
<path d="M81.0519 31.1528L63.9398 22.8149L68.8727 12.7109C68.9748 12.6892 69.0953 12.6654 69.233 12.6412C69.7535 12.55 70.5168 12.4542 71.4607 12.444C73.3475 12.4236 75.9486 12.745 78.7824 14.1232C81.9914 15.6868 83.8356 17.5403 84.8721 18.9646C85.3922 19.6792 85.713 20.2915 85.9009 20.7134C85.9498 20.8232 85.9896 20.9201 86.0217 21.0025L81.0519 31.1528ZM68.4695 12.809L68.4711 12.8085L68.4704 12.8087L68.4695 12.809ZM86.1328 21.3241L86.1326 21.3236C86.133 21.3248 86.133 21.325 86.1328 21.3241Z" fill="white" stroke="#060606" stroke-width="2"/>
<path d="M14.5818 122.359L65.5205 17.9636C66.2417 17.7713 70.8734 16.691 76.208 19.2917C82.1954 22.2107 83.6499 26.258 83.8412 26.8793L32.7759 131.229L14.1318 145.913L14.5818 122.359Z" fill="white" stroke="#060606" stroke-width="2"/>
<path d="M13.7543 146.632L13.8831 139.945L18.9144 142.397L13.7543 146.632Z" fill="#060606"/>
<path d="M16.19 122.943C16.19 122.943 26.138 122.665 31.3635 130.341" stroke="#060606" stroke-width="2" stroke-miterlimit="10" stroke-linecap="round" stroke-linejoin="round"/>
<path d="M26.5705 120.969L74.0015 23.7207" stroke="#060606" stroke-width="2" stroke-miterlimit="10" stroke-linecap="round"/>
</svg>
