<svg width="955" height="341" viewBox="0 0 955 341" fill="none" xmlns="http://www.w3.org/2000/svg">
<path d="M117.493 151.185C117.752 157.77 119.83 163.065 123.726 167.068C127.752 171.071 133.661 173.072 141.453 173.072C145.739 173.072 149.57 172.297 152.947 170.748C156.323 169.069 159.44 166.616 162.297 163.387C173.336 167.649 186.258 171.329 201.063 174.428C196.777 184.371 189.504 192.119 179.245 197.671C169.115 203.224 155.934 206 139.7 206C118.012 206 101.974 200.964 91.5841 190.892C81.1947 180.82 76 167.584 76 151.185C76 134.785 81.1947 121.55 91.5841 111.477C101.974 101.405 118.012 96.3694 139.7 96.3694C155.934 96.3694 169.115 99.1456 179.245 104.698C189.504 110.251 196.777 117.999 201.063 127.941C189.504 130.395 176.583 134.075 162.297 138.982C159.44 135.754 156.323 133.365 152.947 131.815C149.57 130.137 145.739 129.297 141.453 129.297C133.661 129.297 127.752 131.299 123.726 135.302C119.83 139.305 117.752 144.599 117.493 151.185Z" fill="white"/>
<path d="M260.873 126.973C266.327 107.474 279.898 97.7252 301.586 97.7252C305.352 97.7252 308.989 97.9835 312.495 98.5L306.262 141.887C296.911 138.401 289.249 136.658 283.275 136.658C275.872 136.658 270.418 138.853 266.912 143.243C263.405 147.634 261.652 153.509 261.652 160.869V160.676L261.457 173.459C261.457 182.628 261.717 192.829 262.236 204.063H215.679C216.718 185.468 217.237 167.907 217.237 151.378C217.237 134.85 216.718 117.159 215.679 98.3063C224.25 98.6937 230.808 98.8874 235.354 98.8874C240.159 98.8874 246.717 98.6937 255.029 98.3063L260.873 126.973Z" fill="white"/>
<path d="M425.261 155.64H361.756C362.795 161.321 365.327 165.97 369.353 169.586C373.509 173.072 379.353 174.815 386.885 174.815C392.339 174.815 397.469 173.782 402.274 171.716C407.079 169.521 410.91 166.486 413.768 162.613C422.469 166.874 434.027 171.458 448.442 176.365C444.416 185.404 437.079 192.635 426.43 198.059C415.91 203.353 402.144 206 385.132 206C363.054 206 346.691 200.964 336.042 190.892C325.522 180.691 320.263 167.326 320.263 150.797C320.263 134.656 325.522 121.55 336.042 111.477C346.561 101.405 362.924 96.3694 385.132 96.3694C398.378 96.3694 409.872 98.5646 419.612 102.955C429.352 107.345 436.819 113.479 442.014 121.356C447.209 129.104 449.806 138.014 449.806 148.086C449.806 151.443 449.676 153.961 449.416 155.64H425.261ZM387.859 125.617C381.366 125.617 376.041 126.844 371.885 129.297C367.729 131.751 364.807 135.108 363.119 139.369H409.092C407.534 135.237 405.002 131.944 401.495 129.491C397.989 126.908 393.443 125.617 387.859 125.617Z" fill="white"/>
<path d="M588.234 171.91C588.234 176.3 588.753 179.399 589.792 181.207C590.831 183.015 592.909 184.306 596.026 185.081L595.247 203.288C591.091 203.934 587.454 204.386 584.338 204.644C581.351 204.902 577.325 205.032 572.26 205.032C561.091 205.032 553.689 202.578 550.053 197.671C546.416 192.635 544.598 186.243 544.598 178.495V173.653C540.832 184.242 535.313 192.119 528.04 197.284C520.897 202.449 511.742 205.032 500.573 205.032C487.586 205.032 477.781 202.449 471.158 197.284C464.665 192.119 461.418 184.435 461.418 174.234C461.418 165.841 464.21 159.255 469.794 154.477C475.379 149.7 484.015 146.407 495.703 144.599C485.833 137.626 475.963 131.557 466.093 126.392C473.885 116.578 482.781 109.153 492.781 104.117C502.781 98.9519 514.923 96.3694 529.209 96.3694C549.208 96.3694 564.013 100.695 573.624 109.347C583.364 117.869 588.234 131.041 588.234 148.86V171.91ZM533.3 130.459C526.676 130.459 520.832 131.557 515.767 133.752C510.703 135.947 506.157 139.24 502.131 143.631C509.923 142.727 519.664 142.275 531.352 142.275C536.157 142.275 539.533 141.694 541.481 140.532C543.429 139.369 544.403 137.884 544.403 136.077C544.403 134.527 543.429 133.236 541.481 132.203C539.533 131.041 536.806 130.459 533.3 130.459ZM512.845 173.459C520.118 173.459 526.676 172.104 532.52 169.392C538.364 166.551 542.39 162.871 544.598 158.351V153.315C541.481 154.865 538.04 156.092 534.274 156.996C530.507 157.77 525.962 158.545 520.638 159.32L513.625 160.482C506.352 161.902 502.716 164.356 502.716 167.842C502.716 171.587 506.092 173.459 512.845 173.459Z" fill="white"/>
<path d="M696 132.977C684.052 132.203 673.143 131.622 663.273 131.234L663.079 151.766C663.079 158.739 664.572 164.227 667.559 168.23C670.676 172.104 676.13 174.041 683.922 174.041C686.909 174.041 689.766 173.782 692.494 173.266C691.974 178.044 691.714 182.886 691.714 187.793C691.714 190.117 691.844 195.411 692.104 203.676C686.39 204.709 681.585 205.354 677.689 205.613C673.793 205.871 668.728 206 662.494 206C647.3 206 636.521 202.384 630.157 195.153C623.923 187.793 620.807 177.592 620.807 164.55L621.001 131.815C614.898 132.074 608.534 132.461 601.911 132.977V98.6937C608.664 98.6937 614.378 96.5631 619.053 92.3018C623.729 88.0405 626.521 82.9399 627.43 77H680.416C673.793 86.039 666.455 93.2703 658.403 98.6937H696V132.977Z" fill="white"/>
<path d="M735.08 86.9157C726.924 86.9157 720.839 84.8988 716.826 80.8651C712.942 76.8313 711 71.5614 711 65.0554C711 58.6795 712.942 53.4096 716.826 49.2458C720.839 45.0819 726.924 43 735.08 43C742.848 43 748.803 45.147 752.946 49.441C757.089 53.6048 759.16 58.8096 759.16 65.0554C759.16 71.5614 757.153 76.8313 753.14 80.8651C749.127 84.8988 743.107 86.9157 735.08 86.9157ZM712.554 205C713.46 184.051 713.913 166.745 713.913 153.082C713.913 136.817 713.395 118.6 712.359 98.4313H758.966C757.93 117.819 757.412 136.036 757.412 153.082C757.412 167.395 757.865 184.701 758.772 205H712.554Z" fill="#46B4F2"/>
<path d="M852.306 205C853.083 185.872 853.472 168.241 853.472 152.106C853.472 146.381 852.047 141.827 849.199 138.443C846.481 135.06 842.985 133.369 838.713 133.369C834.441 133.369 830.816 135.32 827.838 139.224C824.86 142.998 823.113 148.202 822.595 154.839C822.336 164.728 822.206 171.754 822.206 175.918C822.206 184.766 822.465 194.46 822.983 205H776.571C777.606 186.263 778.124 168.566 778.124 151.911C778.124 135.255 777.606 117.429 776.571 98.4313C785.115 98.8217 791.653 99.0169 796.184 99.0169C800.974 99.0169 807.512 98.8217 815.798 98.4313L821.43 127.123C824.407 116.713 829.068 109.036 835.412 104.092C841.755 99.0169 849.135 96.4795 857.55 96.4795C865.317 96.4795 872.049 98.2361 877.746 101.749C883.442 105.133 887.714 109.752 890.563 115.607C893.54 121.463 895.029 128.034 895.029 135.32V163.427C895.029 180.733 895.353 194.59 896 205H852.306Z" fill="#46B4F2"/>
<path d="M372.878 268.902C370.112 268.902 367.772 268.22 365.856 266.856C363.958 265.473 362.503 263.609 361.491 261.262C360.497 258.897 360 256.242 360 253.295C360 250.384 360.497 247.755 361.491 245.409C362.485 243.062 363.913 241.207 365.775 239.842C367.654 238.478 369.923 237.796 372.58 237.796C375.309 237.796 377.613 238.469 379.493 239.815C381.373 241.161 382.791 243.008 383.749 245.354C384.707 247.683 385.186 250.329 385.186 253.295C385.186 256.242 384.707 258.888 383.749 261.235C382.791 263.582 381.4 265.446 379.574 266.829C377.749 268.211 375.517 268.902 372.878 268.902ZM373.068 265.901C375.254 265.901 377.071 265.355 378.517 264.264C379.981 263.154 381.065 261.653 381.77 259.761C382.493 257.851 382.855 255.696 382.855 253.295C382.855 250.875 382.493 248.72 381.77 246.828C381.047 244.936 379.963 243.462 378.517 242.407C377.071 241.334 375.273 240.797 373.122 240.797C370.899 240.797 369.064 241.352 367.618 242.462C366.172 243.553 365.097 245.045 364.392 246.937C363.687 248.811 363.335 250.93 363.335 253.295C363.335 255.678 363.696 257.824 364.419 259.734C365.16 261.626 366.245 263.127 367.672 264.236C369.118 265.346 370.917 265.901 373.068 265.901ZM382.855 268.084V245.382H382.583V228.791H385.701V268.084H382.855Z" fill="white"/>
<path d="M405.356 268.902C402.554 268.902 400.133 268.275 398.09 267.02C396.048 265.746 394.466 263.955 393.346 261.644C392.225 259.316 391.665 256.569 391.665 253.404C391.665 250.184 392.216 247.41 393.319 245.081C394.439 242.735 396.012 240.934 398.036 239.679C400.078 238.423 402.5 237.796 405.302 237.796C408.139 237.796 410.561 238.451 412.567 239.76C414.592 241.052 416.128 242.926 417.176 245.382C418.243 247.837 418.749 250.793 418.695 254.25H415.441V253.158C415.351 249.12 414.447 246.045 412.73 243.935C411.013 241.825 408.555 240.77 405.356 240.77C402.048 240.77 399.491 241.871 397.683 244.072C395.894 246.255 394.999 249.347 394.999 253.349C394.999 257.315 395.894 260.389 397.683 262.572C399.491 264.755 402.03 265.846 405.302 265.846C407.561 265.846 409.531 265.319 411.212 264.264C412.911 263.19 414.257 261.662 415.251 259.68L418.071 260.935C416.896 263.482 415.197 265.446 412.974 266.829C410.751 268.211 408.212 268.902 405.356 268.902ZM393.807 254.25V251.412H416.932V254.25H393.807Z" fill="white"/>
<path d="M435.509 268.848C432.129 268.848 429.337 268.129 427.132 266.692C424.945 265.255 423.589 263.254 423.065 260.689L426.264 260.144C426.716 261.89 427.782 263.281 429.463 264.318C431.144 265.355 433.204 265.874 435.644 265.874C438.066 265.874 439.991 265.355 441.419 264.318C442.847 263.281 443.561 261.863 443.561 260.062C443.561 259.079 443.335 258.279 442.883 257.66C442.449 257.024 441.582 256.442 440.28 255.914C438.979 255.387 437.045 254.768 434.479 254.059C431.768 253.331 429.644 252.603 428.108 251.876C426.589 251.148 425.514 250.32 424.881 249.393C424.267 248.465 423.96 247.328 423.96 245.982C423.96 244.363 424.42 242.944 425.342 241.725C426.264 240.488 427.547 239.524 429.192 238.833C430.855 238.141 432.771 237.796 434.94 237.796C437.108 237.796 439.06 238.16 440.796 238.887C442.531 239.597 443.931 240.597 444.998 241.889C446.064 243.162 446.679 244.645 446.841 246.337L443.642 246.937C443.335 245.045 442.386 243.553 440.796 242.462C439.205 241.352 437.217 240.788 434.831 240.77C432.572 240.734 430.728 241.188 429.3 242.134C427.873 243.062 427.159 244.29 427.159 245.818C427.159 246.691 427.403 247.437 427.891 248.056C428.397 248.656 429.282 249.211 430.548 249.72C431.813 250.229 433.602 250.775 435.916 251.357C438.735 252.085 440.931 252.831 442.504 253.595C444.094 254.359 445.215 255.259 445.865 256.296C446.516 257.315 446.841 258.579 446.841 260.089C446.841 262.818 445.829 264.964 443.805 266.529C441.799 268.075 439.033 268.848 435.509 268.848Z" fill="white"/>
<path d="M453.404 232.666V228.655H456.522V232.666H453.404ZM453.404 268.084V238.614H456.522V268.084H453.404Z" fill="white"/>
<path d="M476.056 282C474.61 282 473.165 281.782 471.719 281.345C470.291 280.927 468.953 280.235 467.706 279.271C466.459 278.325 465.402 277.061 464.534 275.479L467.354 273.787C468.239 275.606 469.496 276.907 471.122 277.689C472.749 278.471 474.403 278.862 476.084 278.862C478.451 278.862 480.322 278.416 481.695 277.525C483.087 276.652 484.081 275.333 484.678 273.568C485.274 271.822 485.572 269.648 485.572 267.047V259.325H485.898V238.614H488.744V267.047C488.744 267.92 488.726 268.757 488.69 269.557C488.654 270.358 488.573 271.158 488.446 271.959C488.121 274.232 487.452 276.106 486.44 277.58C485.428 279.071 484.054 280.181 482.319 280.909C480.602 281.636 478.514 282 476.056 282ZM475.921 268.902C473.156 268.902 470.815 268.22 468.899 266.856C467.001 265.473 465.546 263.609 464.534 261.262C463.54 258.897 463.043 256.242 463.043 253.295C463.043 250.384 463.54 247.755 464.534 245.409C465.528 243.062 466.956 241.207 468.818 239.842C470.697 238.478 472.966 237.796 475.623 237.796C478.352 237.796 480.656 238.469 482.536 239.815C484.416 241.161 485.834 243.008 486.792 245.354C487.75 247.683 488.229 250.329 488.229 253.295C488.229 256.242 487.75 258.888 486.792 261.235C485.834 263.582 484.443 265.446 482.617 266.829C480.792 268.211 478.56 268.902 475.921 268.902ZM476.111 265.901C478.298 265.901 480.114 265.355 481.56 264.264C483.024 263.154 484.108 261.653 484.813 259.761C485.536 257.851 485.898 255.696 485.898 253.295C485.898 250.875 485.536 248.72 484.813 246.828C484.09 244.936 483.006 243.462 481.56 242.407C480.114 241.334 478.316 240.797 476.165 240.797C473.942 240.797 472.107 241.352 470.661 242.462C469.215 243.553 468.14 245.045 467.435 246.937C466.73 248.811 466.378 250.93 466.378 253.295C466.378 255.678 466.739 257.824 467.462 259.734C468.203 261.626 469.288 263.127 470.716 264.236C472.161 265.346 473.96 265.901 476.111 265.901Z" fill="white"/>
<path d="M517.779 268.084V252.749C517.779 250.893 517.59 249.238 517.21 247.783C516.849 246.327 516.288 245.09 515.529 244.072C514.788 243.053 513.848 242.28 512.71 241.752C511.589 241.225 510.261 240.961 508.724 240.961C507.134 240.961 505.751 241.243 504.576 241.807C503.42 242.353 502.462 243.126 501.703 244.126C500.962 245.127 500.401 246.318 500.022 247.701C499.66 249.065 499.479 250.557 499.479 252.176L497.012 251.876C497.012 248.692 497.546 246.073 498.612 244.017C499.696 241.943 501.151 240.415 502.977 239.433C504.802 238.433 506.854 237.932 509.131 237.932C510.74 237.932 512.176 238.169 513.442 238.642C514.725 239.115 515.836 239.788 516.776 240.661C517.716 241.516 518.493 242.535 519.108 243.717C519.722 244.881 520.174 246.164 520.463 247.564C520.771 248.965 520.924 250.43 520.924 251.958V268.084H517.779ZM496.335 268.084V238.614H499.181V245.245H499.479V268.084H496.335Z" fill="white"/>
<path d="M551.245 268.902C549.059 268.902 547.052 268.593 545.227 267.975C543.401 267.338 541.865 266.356 540.618 265.028C539.678 264.009 538.973 262.863 538.503 261.59C538.033 260.298 537.771 258.943 537.717 257.524C537.699 256.178 537.889 254.841 538.286 253.513C538.684 252.167 539.326 250.966 540.211 249.911C540.79 249.183 541.449 248.583 542.19 248.11C542.931 247.637 543.691 247.237 544.468 246.91C543.022 245.418 541.919 244.054 541.16 242.817C540.401 241.58 540.021 240.052 540.021 238.232C540.021 236.286 540.491 234.503 541.431 232.884C542.389 231.247 543.718 230.028 545.417 229.228C546.338 228.773 547.287 228.455 548.263 228.273C549.239 228.091 550.206 228 551.164 228C552.556 228 553.929 228.182 555.285 228.546C556.641 228.91 557.806 229.483 558.782 230.265C559.433 230.756 560.011 231.338 560.517 232.011C561.042 232.684 561.457 233.385 561.765 234.112L558.782 235.176C558.349 234.139 557.653 233.275 556.695 232.584C555.954 232.038 555.113 231.647 554.173 231.411C553.234 231.174 552.285 231.056 551.327 231.056C549.664 231.056 548.137 231.393 546.745 232.066C545.606 232.648 544.739 233.466 544.142 234.521C543.564 235.558 543.275 236.768 543.275 238.151C543.275 239.333 543.456 240.315 543.817 241.098C544.197 241.862 544.775 242.707 545.552 243.635C545.968 244.09 546.42 244.545 546.908 244.999C547.414 245.436 547.92 245.891 548.426 246.364L561.602 258.725C561.692 258.179 561.755 257.651 561.792 257.142C561.828 256.633 561.846 256.123 561.846 255.614L561.792 249.556H564.882V255.205C564.882 256.805 564.819 258.061 564.693 258.97C564.584 259.88 564.439 260.626 564.259 261.208L569.329 265.956L567.241 268.22L562.768 263.964C562.262 264.709 561.584 265.41 560.734 266.065C559.903 266.701 559.072 267.211 558.24 267.593C557.192 268.102 556.062 268.448 554.851 268.63C553.658 268.812 552.456 268.902 551.245 268.902ZM551.191 265.819C552.384 265.819 553.45 265.746 554.39 265.601C555.348 265.437 556.252 265.119 557.101 264.646C558.15 264.027 558.909 263.472 559.379 262.981C559.849 262.472 560.21 262.035 560.463 261.672L546.989 249.283C546.158 249.538 545.362 249.893 544.603 250.348C543.862 250.784 543.221 251.321 542.678 251.958C542.082 252.685 541.648 253.522 541.377 254.468C541.106 255.414 540.979 256.396 540.997 257.415C541.016 258.452 541.187 259.434 541.513 260.362C541.838 261.271 542.317 262.081 542.949 262.79C543.871 263.827 545.082 264.591 546.582 265.082C548.101 265.574 549.637 265.819 551.191 265.819Z" fill="white"/>
<path d="M585.199 232.666V228.655H588.317V232.666H585.199ZM585.199 268.084V238.614H588.317V268.084H585.199Z" fill="white"/>
<path d="M612 268.084C610.446 268.43 608.909 268.557 607.391 268.466C605.873 268.393 604.517 268.057 603.324 267.456C602.15 266.838 601.264 265.892 600.668 264.618C600.18 263.582 599.908 262.536 599.854 261.481C599.8 260.425 599.773 259.216 599.773 257.851V230.428H602.918V257.797C602.918 259.034 602.927 260.062 602.945 260.88C602.981 261.681 603.171 262.417 603.514 263.09C604.165 264.346 605.195 265.11 606.605 265.383C608.015 265.637 609.813 265.592 612 265.246V268.084ZM593.212 241.48V238.614H612V241.48H593.212Z" fill="white"/>
<path d="M75.4922 154.21C89.9186 143.426 96.8454 125.4 91.2877 109.609C84.4938 90.306 61.6194 81.676 40.1928 90.332C18.7661 98.9879 6.90537 121.65 13.6992 140.953C19.2545 156.737 35.5685 165.383 53.0489 163.276C54.2921 165.047 56.0898 166.335 58.1726 167.043L75.1369 231.02C76.962 236.206 84.1508 238.1 91.1987 235.252C98.2466 232.405 102.478 225.897 100.653 220.712L73.4922 161.452C74.9422 159.246 75.6656 156.712 75.4922 154.21Z" fill="#46B4F2"/>
<path d="M98.5064 223.839C91.5358 226.607 84.4246 224.765 82.6228 219.724L64.3196 151.728C62.5178 146.687 61.5594 142.751 68.5299 139.983C75.5005 137.215 76.5808 141.341 78.3826 146.382L107.862 209.693C109.659 214.744 105.469 221.074 98.5064 223.839Z" fill="white" stroke="#060606" stroke-width="2" stroke-miterlimit="10"/>
<path d="M73.3911 156.132C79.3581 153.698 82.6605 147.328 80.7673 141.902C78.8741 136.477 72.5021 134.051 66.5351 136.485C60.5682 138.918 57.2657 145.289 59.1589 150.714C61.0522 156.139 67.4241 158.565 73.3911 156.132Z" fill="white" stroke="#060606" stroke-width="2" stroke-miterlimit="10"/>
<path d="M69.793 148.649C89.8005 140.49 100.874 119.129 94.5256 100.938C88.1776 82.7469 66.8123 74.6139 46.8048 82.7726C26.7974 90.9314 15.7242 112.292 22.0722 130.483C28.4203 148.675 49.7856 156.807 69.793 148.649Z" fill="white" stroke="#060606" stroke-width="2" stroke-miterlimit="10"/>
<path d="M66.104 138.076C79.6896 132.536 87.2085 118.032 82.8981 105.68C78.5876 93.3274 64.08 87.8049 50.4945 93.3449C36.9089 98.8848 29.39 113.389 33.7004 125.742C38.0109 138.094 52.5185 143.616 66.104 138.076Z" fill="white" stroke="#060606" stroke-width="2" stroke-miterlimit="10"/>
<path d="M67.4927 134.242C53.9732 139.754 39.5394 134.26 35.25 121.969C33.8866 118.063 33.7151 113.946 34.5493 109.956C32.5922 115.078 32.2937 120.652 34.1069 125.848C38.3963 138.138 52.8301 143.632 66.3496 138.12C75.5718 134.36 81.9791 126.449 83.7614 117.901C81.0856 124.904 75.2972 131.06 67.4927 134.242Z" fill="#060606"/>
<path fill-rule="evenodd" clip-rule="evenodd" d="M163.694 245.898L113.43 259.107C108.299 260.455 103.215 257.562 102.076 252.638L95.0608 222.293C93.9234 217.373 97.1587 212.289 102.294 210.94L160.005 195.774C165.136 194.425 170.22 197.318 171.358 202.242L177.306 227.967L200.758 221.799C206.486 220.292 212.163 223.529 213.433 229.025L220.043 257.633C221.318 263.129 217.702 268.809 211.969 270.317L182.154 278.158C176.425 279.665 170.748 276.429 169.478 270.932L163.694 245.898Z" fill="#46B4F2"/>
<path d="M176.936 230.617L118.553 246.872C113.362 248.318 108.303 245.622 107.255 240.845L100.801 211.411C99.7536 206.635 103.112 201.596 108.307 200.149L166.691 183.894C171.881 182.449 176.94 185.144 177.988 189.921L184.443 219.359C185.485 224.133 182.127 229.172 176.936 230.617Z" fill="white" stroke="#060606" stroke-width="2" stroke-miterlimit="10"/>
<path d="M217.512 257.584L187.2 266.057C181.376 267.685 175.699 264.645 174.525 259.27L168.411 231.293C167.237 225.918 171.008 220.237 176.832 218.609L207.144 210.137C212.968 208.509 218.645 211.548 219.819 216.924L225.933 244.9C227.112 250.274 223.341 255.955 217.512 257.584Z" fill="white" stroke="#060606" stroke-width="2" stroke-miterlimit="10"/>
<path d="M117.381 211.736C117.088 211.981 116.411 212.393 115.497 212.664C113.442 213.273 111.853 212.437 111.475 210.594C111.095 208.74 112.255 206.97 114.479 206.311C115.21 206.094 115.891 206.064 116.259 206.113L116.151 207.043C115.825 206.982 115.333 206.982 114.657 207.182C113.095 207.645 112.46 208.916 112.717 210.173C113.003 211.568 114.192 212.126 115.543 211.726C116.247 211.518 116.678 211.218 117.002 210.977L117.381 211.736Z" fill="#060606"/>
<path d="M118.524 203.512L118.889 205.275L120.722 204.74L120.898 205.591L119.065 206.125L119.75 209.437C119.908 210.198 120.245 210.558 120.957 210.35C121.292 210.252 121.531 210.142 121.684 210.057L121.915 210.877C121.686 211.038 121.307 211.216 120.812 211.361C120.216 211.535 119.702 211.51 119.333 211.295C118.901 211.071 118.657 210.564 118.507 209.84L117.814 206.491L116.723 206.809L116.547 205.959L117.638 205.64L117.333 204.169L118.524 203.512Z" fill="#060606"/>
<path d="M122.093 206.615C121.944 205.893 121.801 205.277 121.64 204.721L122.754 204.395L123.046 205.584L123.104 205.567C123.252 204.651 123.911 203.908 124.765 203.658C124.909 203.616 125.013 203.599 125.134 203.59L125.351 204.641C125.216 204.653 125.083 204.679 124.909 204.73C124.013 204.992 123.499 205.774 123.498 206.66C123.5 206.82 123.508 207.006 123.547 207.196L124.222 210.461L122.963 210.829L122.093 206.615Z" fill="#060606"/>
<path d="M125.302 200.522L126.729 200.141L128.78 209.37L127.354 209.752L125.302 200.522Z" fill="#060606"/>
<path d="M194.901 241.28L197.254 236.833C197.483 236.423 197.706 236.055 197.949 235.64L197.944 235.616L194.266 236.71L194.087 235.83L199.266 234.289L199.391 234.975L197.07 239.359C196.857 239.778 196.637 240.159 196.392 240.56L196.397 240.585L200.369 239.403L200.546 240.27L195.03 241.912L194.901 241.28Z" fill="#060606"/>
<path d="M755.831 14.2947L756.966 12.2246L758.102 14.2947C762.661 22.6041 769.517 29.4371 777.855 33.9807L779.932 35.1122L777.855 36.2437C769.517 40.7873 762.661 47.6203 758.102 55.9298L756.966 57.9998L755.831 55.9298C751.272 47.6203 744.415 40.7873 736.077 36.2437L734 35.1122L736.077 33.9807C744.412 29.4371 751.269 22.6041 755.831 14.2947Z" fill="#46B4F2"/>
<path d="M771.593 3.83329L772.05 3L772.508 3.83329C774.345 7.18105 777.108 9.93529 780.47 11.7685L781.307 12.2246L780.47 12.6807C777.111 14.5111 774.347 17.2653 772.508 20.616L772.05 21.4493L771.593 20.616C769.756 17.2682 766.992 14.514 763.63 12.6807L762.794 12.2246L763.63 11.7685C766.992 9.93821 769.756 7.18398 771.593 3.83329Z" fill="#46B4F2"/>
<path d="M746.831 14.2944L747.966 12.2244L749.102 14.2944C753.661 22.6039 760.517 29.4369 768.855 33.9805L770.932 35.112L768.855 36.2435C760.517 40.7871 753.661 47.62 749.102 55.9295L747.966 57.9996L746.831 55.9295C742.272 47.62 735.415 40.7871 727.077 36.2435L725 35.112L727.077 33.9805C735.415 29.4369 742.272 22.6039 746.831 14.2944Z" fill="white" stroke="#060606" stroke-width="2" stroke-miterlimit="10"/>
<path d="M764.889 3.83329L765.347 3L765.804 3.83329C767.641 7.18105 770.405 9.93529 773.767 11.7685L774.603 12.2246L773.767 12.6807C770.408 14.5111 767.644 17.2653 765.804 20.616L765.347 21.4493L764.889 20.616C763.052 17.2682 760.289 14.514 756.927 12.6807L756.09 12.2246L756.927 11.7685C760.286 9.93821 763.049 7.18398 764.889 3.83329Z" fill="white" stroke="#060606" stroke-width="2" stroke-miterlimit="10"/>
<path d="M919.202 137.122L846.775 290.17L848.402 321.619L874.109 303.563L946.714 150.602C946.714 150.602 944.68 144.527 934.909 139.74C926.188 135.473 919.202 137.122 919.202 137.122Z" fill="#46B4F2"/>
<path d="M913.801 136.173L919.304 124.093C920.975 123.856 926.165 123.481 932.315 126.619C939.232 130.148 941.679 134.389 942.317 135.749L936.767 147.889L913.801 136.173Z" fill="white" stroke="#060606" stroke-width="2"/>
<mask id="path-24-inside-1_11_24" fill="white">
<path d="M932.565 126.022C940.251 129.958 942.634 134.785 943.065 135.812L937.149 148.826L912.922 136.418L918.807 123.426C920.035 123.217 925.724 122.518 932.565 126.022ZM932.799 125.507C924.746 121.383 918.329 122.896 918.329 122.896L912.104 136.64L937.495 149.645L943.739 135.91C943.739 135.91 941.824 130.129 932.799 125.507Z"/>
</mask>
<path d="M932.565 126.022C940.251 129.958 942.634 134.785 943.065 135.812L937.149 148.826L912.922 136.418L918.807 123.426C920.035 123.217 925.724 122.518 932.565 126.022ZM932.799 125.507C924.746 121.383 918.329 122.896 918.329 122.896L912.104 136.64L937.495 149.645L943.739 135.91C943.739 135.91 941.824 130.129 932.799 125.507Z" fill="#060606"/>
<path d="M943.065 135.812L944.812 136.71L945.184 135.893L944.829 135.048L943.065 135.812ZM937.149 148.826L936.334 150.624L938.08 151.518L938.896 149.724L937.149 148.826ZM912.922 136.418L911.174 135.522L910.359 137.32L912.107 138.216L912.922 136.418ZM918.807 123.426L918.448 121.443L917.476 121.609L917.059 122.531L918.807 123.426ZM918.329 122.896L917.857 120.936L916.969 121.146L916.581 122.001L918.329 122.896ZM912.104 136.64L910.356 135.745L909.541 137.543L911.289 138.438L912.104 136.64ZM937.495 149.645L936.681 151.443L938.427 152.337L939.242 150.542L937.495 149.645ZM943.739 135.91L945.486 136.807L945.487 136.805L943.739 135.91ZM931.751 127.82C938.962 131.514 941.035 135.942 941.301 136.577L944.829 135.048C944.233 133.628 941.54 128.403 933.38 124.224L931.751 127.82ZM941.318 134.915L935.402 147.928L938.896 149.724L944.812 136.71L941.318 134.915ZM937.963 147.028L913.736 134.619L912.107 138.216L936.334 150.624L937.963 147.028ZM914.67 137.313L920.555 124.321L917.059 122.531L911.174 135.522L914.67 137.313ZM919.166 125.409C920.161 125.239 925.402 124.569 931.751 127.82L933.38 124.224C926.046 120.468 919.909 121.195 918.448 121.443L919.166 125.409ZM933.613 123.709C929.308 121.504 925.422 120.797 922.592 120.649C921.178 120.574 920.025 120.639 919.213 120.725C918.806 120.769 918.484 120.818 918.255 120.857C918.14 120.877 918.049 120.895 917.983 120.909C917.949 120.916 917.922 120.922 917.901 120.926C917.891 120.928 917.882 120.931 917.875 120.932C917.871 120.933 917.868 120.934 917.865 120.934C917.863 120.935 917.862 120.935 917.861 120.935C917.86 120.935 917.859 120.936 917.859 120.936C917.858 120.936 917.857 120.936 918.329 122.896C918.802 124.856 918.801 124.856 918.8 124.856C918.8 124.856 918.799 124.856 918.799 124.856C918.798 124.857 918.797 124.857 918.797 124.857C918.795 124.857 918.794 124.857 918.794 124.858C918.793 124.858 918.793 124.858 918.795 124.857C918.799 124.856 918.809 124.854 918.824 124.851C918.856 124.845 918.91 124.834 918.987 124.82C919.141 124.794 919.382 124.757 919.703 124.722C920.345 124.654 921.301 124.598 922.497 124.661C924.889 124.787 928.237 125.386 931.984 127.305L933.613 123.709ZM916.581 122.001L910.356 135.745L913.852 137.535L920.078 123.791L916.581 122.001ZM911.289 138.438L936.681 151.443L938.31 147.846L912.918 134.842L911.289 138.438ZM939.242 150.542L945.486 136.807L941.991 135.012L935.748 148.747L939.242 150.542ZM943.739 135.91C945.56 135.299 945.56 135.298 945.559 135.296C945.559 135.296 945.559 135.295 945.558 135.294C945.558 135.292 945.557 135.29 945.557 135.288C945.555 135.285 945.554 135.281 945.552 135.276C945.549 135.267 945.546 135.257 945.542 135.245C945.533 135.221 945.523 135.192 945.51 135.158C945.484 135.089 945.449 134.999 945.403 134.889C945.311 134.67 945.176 134.372 944.987 134.01C944.609 133.286 944.017 132.307 943.126 131.185C941.339 128.935 938.379 126.149 933.613 123.709L931.984 127.305C936.243 129.486 938.754 131.902 940.18 133.698C940.896 134.599 941.346 135.354 941.609 135.858C941.741 136.11 941.826 136.3 941.874 136.415C941.898 136.472 941.913 136.511 941.92 136.529C941.923 136.538 941.924 136.542 941.924 136.541C941.924 136.54 941.923 136.538 941.922 136.535C941.921 136.533 941.921 136.531 941.92 136.529C941.919 136.527 941.919 136.526 941.919 136.525C941.918 136.524 941.918 136.523 941.918 136.523C941.918 136.522 941.917 136.52 943.739 135.91Z" fill="#060606" mask="url(#path-24-inside-1_11_24)"/>
<path d="M908.077 147.108L931.688 159.185L937.316 146.822C937.259 146.697 937.185 146.542 937.089 146.359C936.797 145.803 936.312 144.995 935.552 144.043C934.037 142.141 931.417 139.642 927.037 137.401L908.077 147.108ZM908.077 147.108L913.665 134.791C913.82 134.768 914.013 134.742 914.244 134.718C914.927 134.646 915.93 134.59 917.179 134.657C919.675 134.791 923.153 135.418 927.036 137.401L908.077 147.108ZM937.464 147.177L937.464 147.176C937.464 147.179 937.465 147.18 937.465 147.18L937.464 147.178L937.464 147.177ZM913.229 134.868C913.229 134.868 913.229 134.868 913.229 134.868L913.229 134.868Z" fill="white" stroke="#060606" stroke-width="2"/>
<path d="M844.9 273.935L907.246 141.921C908.249 141.729 914.707 140.701 922.506 144.533C931.259 148.833 933.698 154.234 934.027 155.06L871.498 287.004L846.472 304.629L844.9 273.935Z" fill="white" stroke="#060606" stroke-width="2"/>
<path d="M844.521 306.294L844.181 297.894L850.948 301.326L844.521 306.294Z" fill="#060606"/>
<path d="M847.465 275.92C847.465 275.92 859.908 276.229 867.021 285.617" stroke="#060606" stroke-width="2" stroke-miterlimit="10" stroke-linecap="round" stroke-linejoin="round"/>
<path d="M860.735 273.637L921.366 149.323" stroke="#060606" stroke-width="2" stroke-miterlimit="10" stroke-linecap="round"/>
<path d="M889.305 200.899C887.78 190.047 877.793 182.476 866.948 183.902L865.217 171.589C864.609 167.259 849.987 165.737 832.558 168.187C815.128 170.636 801.493 176.129 802.101 180.459L811.033 244.011C811.086 244.389 811.086 244.389 811.113 244.583C811.722 248.913 826.343 250.435 843.773 247.985C861.202 245.536 874.838 240.043 874.229 235.713C874.202 235.519 874.21 235.446 874.149 235.141L872.499 223.4C883.317 221.781 890.83 211.75 889.305 200.899ZM881.721 201.965C882.658 208.627 878.061 214.788 871.433 215.818L868.013 191.484C874.668 190.647 880.785 195.302 881.721 201.965Z" fill="#46B4F2"/>
<path d="M862.14 177.046C851.229 178.58 843.625 188.668 845.158 199.577C846.692 210.485 856.781 218.087 867.692 216.554C878.603 215.02 886.207 204.932 884.674 194.023C883.141 183.114 873.051 175.513 862.14 177.046ZM866.626 208.967C859.905 209.912 853.686 205.23 852.741 198.506C851.797 191.787 856.48 185.569 863.205 184.624C869.926 183.679 876.145 188.361 877.09 195.084C878.035 201.808 873.351 208.022 866.626 208.967Z" fill="white" stroke="#060606" stroke-width="2" stroke-miterlimit="10"/>
<path d="M860.586 164.713C859.977 160.383 845.356 158.862 827.926 161.311C810.493 163.761 796.857 169.254 797.466 173.584L806.397 237.136C806.451 237.514 806.451 237.514 806.478 237.708C807.086 242.038 821.708 243.56 839.137 241.11C856.566 238.661 870.202 233.168 869.593 228.838C869.566 228.644 869.574 228.571 869.513 228.266L860.581 164.714L860.586 164.713Z" fill="white" stroke="#060606" stroke-width="2" stroke-miterlimit="10"/>
<path d="M829.652 173.714C842.579 171.897 852.872 169.095 852.641 167.455C852.411 165.815 841.745 165.958 828.818 167.775C815.891 169.592 805.598 172.394 805.829 174.034C806.059 175.674 816.725 175.53 829.652 173.714Z" fill="#060606"/>
<path d="M802.702 173.675C802.702 173.675 808.16 177.027 828.601 173.907C849.042 170.788 855.585 166.242 855.585 166.242" stroke="#060606" stroke-width="2" stroke-miterlimit="10"/>
<path d="M813.73 175.234L817.132 199.437" stroke="#060606" stroke-width="2" stroke-miterlimit="10"/>
<path d="M822.728 199.534L813.208 200.872L814.876 212.735L824.396 211.397L822.728 199.534Z" fill="#060606"/>
<path d="M821.91 198.917L812.39 200.255L814.057 212.119L823.577 210.781L821.91 198.917Z" fill="white" stroke="#060606" stroke-width="2" stroke-miterlimit="10"/>
<path d="M134.174 320.821C145.592 320.821 154.849 311.572 154.849 300.16C154.849 288.749 145.592 279.5 134.174 279.5C122.757 279.5 113.5 288.749 113.5 300.16C113.5 311.572 122.757 320.821 134.174 320.821Z" fill="#46B4F2" stroke="#46B4F2" stroke-width="3"/>
<path d="M138.174 313.821C149.592 313.821 158.849 304.572 158.849 293.16C158.849 281.749 149.592 272.5 138.174 272.5C126.757 272.5 117.5 281.749 117.5 293.16C117.5 304.572 126.757 313.821 138.174 313.821Z" fill="white" stroke="#060606" stroke-width="3"/>
<path fill-rule="evenodd" clip-rule="evenodd" d="M125.129 293.161C125.129 285.962 130.969 280.126 138.173 280.126C145.378 280.126 151.218 285.962 151.218 293.161C151.218 300.36 145.378 306.196 138.173 306.196C130.969 306.196 125.129 300.36 125.129 293.161ZM138.173 281.945C131.974 281.945 126.949 286.967 126.949 293.161C126.949 299.355 131.974 304.377 138.173 304.377C144.372 304.377 149.398 299.355 149.398 293.161C149.398 286.967 144.372 281.945 138.173 281.945Z" fill="#060606"/>
<path fill-rule="evenodd" clip-rule="evenodd" d="M125.129 293.161C125.129 292.659 125.537 292.252 126.039 292.252H150.308C150.81 292.252 151.218 292.659 151.218 293.161C151.218 293.663 150.81 294.07 150.308 294.07H126.039C125.537 294.07 125.129 293.663 125.129 293.161Z" fill="#060606"/>
<path fill-rule="evenodd" clip-rule="evenodd" d="M135.623 281.364C136.311 280.637 137.172 280.126 138.173 280.126C139.174 280.126 140.036 280.637 140.724 281.364C141.41 282.089 141.986 283.089 142.45 284.249C143.382 286.575 143.937 289.727 143.937 293.161C143.937 296.595 143.382 299.747 142.45 302.073C141.986 303.233 141.41 304.233 140.724 304.958C140.036 305.685 139.174 306.196 138.173 306.196C137.172 306.196 136.311 305.685 135.623 304.958C134.937 304.233 134.361 303.233 133.896 302.073C132.965 299.747 132.41 296.595 132.41 293.161C132.41 289.727 132.965 286.575 133.896 284.249C134.361 283.089 134.937 282.089 135.623 281.364ZM135.586 284.925C134.761 286.987 134.23 289.899 134.23 293.161C134.23 296.423 134.761 299.335 135.586 301.397C136 302.431 136.47 303.206 136.945 303.709C137.419 304.209 137.834 304.377 138.173 304.377C138.513 304.377 138.928 304.209 139.401 303.709C139.877 303.206 140.347 302.431 140.761 301.397C141.586 299.335 142.117 296.423 142.117 293.161C142.117 289.899 141.586 286.987 140.761 284.925C140.347 283.891 139.877 283.116 139.401 282.613C138.928 282.113 138.513 281.945 138.173 281.945C137.834 281.945 137.419 282.113 136.945 282.613C136.47 283.116 136 283.891 135.586 284.925Z" fill="#060606"/>
<path fill-rule="evenodd" clip-rule="evenodd" d="M128.95 284.116C129.305 283.761 129.881 283.761 130.237 284.116C132.269 286.147 135.074 287.401 138.173 287.401C141.273 287.401 144.078 286.147 146.11 284.116C146.466 283.761 147.042 283.761 147.397 284.116C147.753 284.471 147.753 285.047 147.397 285.402C145.038 287.76 141.775 289.22 138.173 289.22C134.572 289.22 131.309 287.76 128.95 285.402C128.594 285.047 128.594 284.471 128.95 284.116Z" fill="#060606"/>
<path fill-rule="evenodd" clip-rule="evenodd" d="M128.95 300.92C131.309 298.562 134.572 297.102 138.173 297.102C141.775 297.102 145.038 298.562 147.397 300.92C147.753 301.275 147.753 301.851 147.397 302.206C147.042 302.561 146.466 302.561 146.11 302.206C144.078 300.175 141.273 298.921 138.173 298.921C135.074 298.921 132.269 300.175 130.237 302.206C129.881 302.561 129.305 302.561 128.95 302.206C128.594 301.851 128.594 301.275 128.95 300.92Z" fill="#060606"/>
<path d="M860.746 56.8241C861.133 55.2711 860.59 53.6584 859.422 52.3776C861.054 51.7948 862.29 50.6306 862.678 49.073C863.376 46.2729 861.058 43.2871 857.502 42.4005C853.947 41.514 850.497 43.0666 849.799 45.8667C849.411 47.4197 849.955 49.0324 851.122 50.3132C849.49 50.896 848.254 52.0602 847.866 53.6178C847.479 55.1708 848.022 56.7835 849.19 58.0644C847.558 58.6471 846.322 59.8113 845.933 61.369C845.546 62.922 846.09 64.5347 847.257 65.8155C845.625 66.3983 844.389 67.5625 844.001 69.1201C843.614 70.6731 844.157 72.2858 845.325 73.5667C843.692 74.1494 842.457 75.3136 842.068 76.8713C841.681 78.4243 842.224 80.037 843.392 81.3179C841.76 81.9006 840.524 83.0648 840.136 84.6224C839.749 86.1755 840.292 87.7881 841.46 89.069C839.827 89.6517 838.592 90.8159 838.203 92.3736C837.816 93.9266 838.359 95.5393 839.527 96.8202C837.895 97.4029 836.659 98.5671 836.271 100.125C835.883 101.678 836.427 103.29 837.594 104.571C835.962 105.154 834.726 106.318 834.338 107.876C833.64 110.676 835.958 113.662 839.514 114.548C843.07 115.435 846.519 113.882 847.216 111.087C847.604 109.534 847.06 107.921 845.893 106.64C847.525 106.058 848.761 104.893 849.149 103.336C849.536 101.783 848.993 100.17 847.825 98.8891C849.458 98.3064 850.693 97.1422 851.082 95.5845C851.469 94.0315 850.925 92.4189 849.758 91.138C851.39 90.5552 852.626 89.391 853.014 87.8334C853.401 86.2804 852.858 84.6677 851.69 83.3868C853.323 82.8041 854.558 81.6399 854.947 80.0822C855.334 78.5292 854.791 76.9165 853.623 75.6357C855.255 75.0529 856.491 73.8887 856.879 72.3311C857.267 70.7781 856.723 69.1654 855.555 67.8845C857.188 67.3018 858.424 66.1376 858.812 64.5799C859.199 63.0269 858.656 61.4142 857.488 60.1334C859.122 59.546 860.358 58.3772 860.746 56.8241Z" fill="#060606" stroke="#060606" stroke-width="2" stroke-miterlimit="10"/>
<path d="M904.267 141.222L849.304 127.518C845.823 126.65 843.704 123.123 844.572 119.641L862.358 48.3048C863.226 44.8232 866.753 42.7039 870.235 43.572L925.202 57.2769C928.683 58.1449 930.803 61.6721 929.935 65.1536L912.149 136.49C911.276 139.971 907.749 142.09 904.267 141.222Z" fill="#46B4F2"/>
<path d="M853.387 49.9142C856.234 50.7097 859.006 49.2278 859.579 46.6042C860.152 43.9806 858.31 41.2088 855.464 40.4132C852.617 39.6176 849.845 41.0995 849.272 43.7231C848.699 46.3468 850.541 49.1186 853.387 49.9142Z" stroke="white" stroke-width="2" stroke-miterlimit="10"/>
<path d="M851.499 57.4887C854.346 58.2843 857.118 56.8024 857.691 54.1788C858.264 51.5552 856.422 48.7833 853.576 47.9878C850.729 47.1922 847.957 48.6741 847.384 51.2977C846.811 53.9214 848.653 56.6932 851.499 57.4887Z" stroke="white" stroke-width="2" stroke-miterlimit="10"/>
<path d="M849.61 65.0642C852.456 65.8598 855.228 64.3778 855.802 61.7542C856.375 59.1306 854.532 56.3588 851.686 55.5632C848.84 54.7676 846.068 56.2495 845.494 58.8732C844.921 61.4968 846.764 64.2686 849.61 65.0642Z" stroke="white" stroke-width="2" stroke-miterlimit="10"/>
<path d="M847.723 72.6344C850.569 73.43 853.341 71.948 853.915 69.3244C854.488 66.7008 852.645 63.929 849.799 63.1334C846.953 62.3378 844.181 63.8197 843.607 66.4434C843.034 69.067 844.877 71.8388 847.723 72.6344Z" stroke="white" stroke-width="2" stroke-miterlimit="10"/>
<path d="M845.834 80.2097C848.68 81.0053 851.452 79.5234 852.026 76.8997C852.599 74.2761 850.756 71.5043 847.91 70.7087C845.064 69.9131 842.292 71.3951 841.718 74.0187C841.145 76.6423 842.988 79.4141 845.834 80.2097Z" stroke="white" stroke-width="2" stroke-miterlimit="10"/>
<path d="M843.946 87.7844C846.792 88.58 849.564 87.0981 850.137 84.4744C850.711 81.8508 848.868 79.079 846.022 78.2834C843.175 77.4878 840.403 78.9698 839.83 81.5934C839.257 84.217 841.099 86.9888 843.946 87.7844Z" stroke="white" stroke-width="2" stroke-miterlimit="10"/>
<path d="M842.058 95.3547C844.904 96.1503 847.676 94.6684 848.25 92.0448C848.823 89.4211 846.98 86.6493 844.134 85.8537C841.288 85.0582 838.516 86.5401 837.942 89.1637C837.369 91.7873 839.212 94.5591 842.058 95.3547Z" stroke="white" stroke-width="2" stroke-miterlimit="10"/>
<path d="M840.17 102.93C843.016 103.726 845.788 102.244 846.361 99.6201C846.935 96.9964 845.092 94.2246 842.246 93.4291C839.399 92.6335 836.627 94.1154 836.054 96.739C835.481 99.3626 837.323 102.134 840.17 102.93Z" stroke="white" stroke-width="2" stroke-miterlimit="10"/>
<path d="M838.282 110.501C841.128 111.296 843.9 109.814 844.473 107.191C845.047 104.567 843.204 101.795 840.358 101C837.512 100.204 834.739 101.686 834.166 104.31C833.593 106.933 835.435 109.705 838.282 110.501Z" stroke="white" stroke-width="2" stroke-miterlimit="10"/>
<path d="M898.602 132.939L843.639 119.235C840.157 118.367 838.038 114.84 838.906 111.358L856.692 40.0216C857.56 36.54 861.087 34.4207 864.569 35.2888L919.536 48.9937C923.018 49.8617 925.137 53.3888 924.269 56.8704L906.483 128.207C905.61 131.687 902.083 133.807 898.602 132.939Z" fill="white" stroke="#060606" stroke-width="2" stroke-miterlimit="10"/>
<path d="M911.748 59.9848L866.305 48.5529L866.171 49.1151L911.614 60.5471L911.748 59.9848Z" fill="#060606"/>
<path d="M910.484 65.0522L865.042 53.6202L864.908 54.1825L910.351 65.6145L910.484 65.0522Z" fill="#060606"/>
<path d="M909.221 70.1187L863.778 58.6868L863.645 59.249L909.087 70.681L909.221 70.1187Z" fill="#060606"/>
</svg>
