<svg width="484" height="229" viewBox="0 0 484 229" fill="none" xmlns="http://www.w3.org/2000/svg">
<path d="M207 2.4999C155.833 -1.5001 1.5 1.10041 1.5 31.5004C1.5 52.5002 167 55.4997 216.5 55.4997C266 55.4997 416.5 47.4997 416.5 31.5C416.5 1.99943 197.5 4.9997 120.5 11.9997" stroke="#46B4F2" stroke-width="2"/>
<path d="M90.9999 225.5L91.1223 224.508L90.9999 225.5ZM325.5 130.5L326.441 130.839C326.615 130.355 326.393 129.817 325.929 129.597C325.464 129.376 324.907 129.544 324.642 129.986L325.5 130.5ZM317.503 164.422C317.46 164.973 317.872 165.454 318.422 165.497C318.973 165.54 319.454 165.128 319.497 164.578L317.503 164.422ZM295.804 147.019C295.262 147.128 294.911 147.655 295.019 148.196C295.128 148.738 295.654 149.089 296.196 148.981L295.804 147.019ZM79.9388 57.6722C47.3702 79.7484 24.7635 118.684 22.9305 153.751C22.0127 171.307 26.3022 187.953 37.2318 200.999C48.1645 214.048 65.6431 223.38 90.8775 226.492L91.1223 224.508C66.2624 221.441 49.2979 212.287 38.7649 199.715C28.2289 187.138 24.0302 171.025 24.9277 153.855C26.7252 119.47 48.9629 81.085 81.0609 59.3278L79.9388 57.6722ZM90.8775 226.492C147.842 233.519 202.531 221.098 245.048 201.218C266.309 191.278 284.547 179.464 298.517 167.261C312.472 155.072 322.234 142.438 326.44 130.841L324.56 130.159C320.515 141.312 311.027 153.678 297.201 165.755C283.391 177.818 265.316 189.534 244.201 199.407C201.969 219.152 147.658 231.481 91.1223 224.508L90.8775 226.492ZM324.642 129.986C323.312 132.202 322.222 135.49 321.326 139.087C320.425 142.707 319.701 146.73 319.136 150.476C318.571 154.224 318.163 157.709 317.896 160.255C317.763 161.529 317.664 162.569 317.6 163.291C317.567 163.653 317.543 163.935 317.527 164.126C317.519 164.222 317.513 164.296 317.509 164.346C317.507 164.371 317.505 164.39 317.504 164.402C317.504 164.409 317.504 164.414 317.503 164.417C317.503 164.419 317.503 164.42 317.503 164.421C317.503 164.421 317.503 164.422 317.503 164.422C317.503 164.422 317.503 164.422 318.5 164.5C319.497 164.578 319.497 164.578 319.497 164.578C319.497 164.577 319.497 164.577 319.497 164.577C319.497 164.576 319.497 164.575 319.497 164.574C319.497 164.571 319.498 164.566 319.498 164.56C319.499 164.548 319.501 164.53 319.503 164.507C319.506 164.459 319.512 164.387 319.52 164.293C319.536 164.105 319.56 163.827 319.592 163.47C319.656 162.756 319.753 161.726 319.885 160.464C320.15 157.937 320.554 154.484 321.114 150.774C321.674 147.062 322.387 143.106 323.267 139.57C324.153 136.01 325.187 132.964 326.357 131.014L324.642 129.986ZM324.559 130.161C323.221 133.879 315.606 143.059 295.804 147.019L296.196 148.981C316.393 144.941 324.779 135.454 326.441 130.839L324.559 130.161Z" fill="#46B4F2"/>
<path fill-rule="evenodd" clip-rule="evenodd" d="M451.327 103.715C452.382 101.179 457.035 89.9627 457.811 87.5103C459.591 81.8871 452.054 76.1092 446.092 83.1382C444.369 85.1665 440.853 90.2673 437.068 95.7584L437.068 95.7586L437.068 95.7587C431.356 104.045 425.032 113.22 423.332 114.066C422.287 114.586 419.244 114.935 415.76 115.334H415.76C409.826 116.014 402.615 116.841 401.823 118.909C400.565 122.191 399.704 131.252 400.799 137.81C401.893 144.368 404.09 152.269 407.389 152.423C407.389 152.423 418.621 149.837 421.291 150.462C422.377 150.717 423.645 151.566 425.062 152.515C427.129 153.899 429.514 155.497 432.12 155.776C436.107 156.203 450.181 153.152 452.751 152.584L466.851 153.361C469.74 153.517 472.206 151.064 472.354 147.88L472.361 147.694C472.45 145.78 471.686 144.037 470.436 142.915C473.06 142.411 475.11 140.056 475.249 137.127C475.357 134.863 474.293 132.821 472.62 131.652C475.036 131.177 476.937 129.217 477.175 126.383L477.195 126.109C477.43 123.084 475.702 120.378 473.173 119.494C475.756 118.657 477.729 116.248 477.974 113.247C478.298 109.293 475.512 105.806 471.748 105.466L452.513 103.715C452.112 103.679 451.715 103.68 451.327 103.715Z" fill="#46B4F2"/>
<path d="M443.779 100.617C443.779 100.617 445.521 97.7619 447.081 94.0464C448.95 89.6102 450.713 84.0825 451.189 82.5781C452.952 76.9804 445.486 71.2287 439.581 78.2258C437.635 80.5279 434.116 88.7146 429.785 95.019C424.593 102.576 418.561 108.251 417.036 109.013C414.237 110.413 396.212 113.198 395.736 113.834C393.623 116.619 393.637 126.121 394.722 132.65C395.806 139.178 397.982 147.043 401.25 147.197C401.25 147.197 412.376 144.622 415.02 145.245C417.665 145.867 421.395 150.066 425.747 150.535C430.099 151.003 446.585 147.267 446.585 147.267" fill="white"/>
<path d="M443.779 100.617C443.779 100.617 445.521 97.7619 447.081 94.0464C448.95 89.6102 450.713 84.0825 451.189 82.5781C452.952 76.9804 445.486 71.2287 439.581 78.2258C437.635 80.5279 434.116 88.7146 429.785 95.019C424.593 102.576 418.561 108.251 417.036 109.013C414.237 110.413 396.212 113.198 395.736 113.834C393.623 116.619 393.637 126.121 394.722 132.65C395.806 139.178 397.982 147.043 401.25 147.197C401.25 147.197 412.376 144.622 415.02 145.245C417.665 145.867 421.395 150.066 425.747 150.535C430.099 151.003 446.585 147.267 446.585 147.267" stroke="#060606" stroke-width="2" stroke-miterlimit="10"/>
<path d="M430.798 119.782C430.798 119.782 430.686 126.73 416.391 129.109L430.798 119.782Z" fill="white"/>
<path d="M430.798 119.782C430.798 119.782 430.686 126.73 416.391 129.109" stroke="#060606" stroke-width="2" stroke-miterlimit="10" stroke-linecap="round"/>
<path d="M464.336 114.289L445.206 112.631C441.463 112.309 438.692 109.006 439.014 105.263C439.336 101.519 442.421 100.449 446.193 99.917C446.193 99.917 461.09 99.7281 465.519 100.729C468.248 101.344 472.033 104.353 471.711 108.097C471.383 111.84 467.863 113.645 464.336 114.289Z" fill="white" stroke="#060606" stroke-width="2" stroke-miterlimit="10"/>
<path d="M464.267 125.862L441.267 124.512C437.559 124.358 435.271 121.125 435.55 117.914L435.571 117.662C435.851 114.45 439.637 112.785 441.897 112.344C443.807 111.973 465.309 114.373 465.309 114.373C468.472 115.647 470.9 117.48 470.627 120.698L470.606 120.95C470.312 124.155 465.96 125.89 464.267 125.862Z" fill="white" stroke="#060606" stroke-width="2" stroke-miterlimit="10"/>
<path d="M463.098 137.471C463.098 137.471 449.607 136.897 444.681 136.652C441.463 136.491 437.698 133.58 437.859 130.362C438.02 127.143 441.33 124.547 444.555 124.708C449.481 124.953 463.679 125.807 463.679 125.807C466.897 125.968 469.003 128.102 469.22 131.929C469.059 135.148 466.316 137.632 463.098 137.471Z" fill="white" stroke="#060606" stroke-width="2" stroke-miterlimit="10"/>
<path d="M460.173 147.938C460.173 147.938 448.642 147.406 444.871 146.854C443.023 146.581 439.854 144.594 440.001 141.732L440.008 141.564C440.147 138.695 442.666 136.575 445.458 136.638C447.047 136.673 460.705 137.401 460.705 137.401C463.574 137.54 465.778 139.982 465.631 142.851L465.624 143.019C465.477 145.874 463.035 148.078 460.173 147.938Z" fill="white" stroke="#060606" stroke-width="2" stroke-miterlimit="10"/>
<path d="M443.5 81.5002C443.5 81.5002 446.533 77.3056 447.5 79.9996C448.442 82.6247 441.281 87.35 440.672 82.0601" fill="white"/>
<path d="M443.5 81.5002C443.5 81.5002 446.533 77.3056 447.5 79.9996C448.442 82.6247 441.281 87.35 440.672 82.0601" stroke="#060606" stroke-width="2" stroke-miterlimit="10" stroke-linecap="round"/>
<path d="M468.17 105.788C468.17 105.788 469.261 107.341 468.17 109.755V105.788Z" fill="white"/>
<path d="M468.17 105.788C468.17 105.788 469.261 107.341 468.17 109.755" stroke="#060606" stroke-width="2" stroke-miterlimit="10" stroke-linecap="round"/>
<path d="M467.47 117.683C467.47 117.683 468.562 119.236 467.47 121.65V117.683Z" fill="white"/>
<path d="M467.47 117.683C467.47 117.683 468.562 119.236 467.47 121.65" stroke="#060606" stroke-width="2" stroke-miterlimit="10" stroke-linecap="round"/>
<path d="M466.071 129.578C466.071 129.578 467.162 131.131 466.071 133.545V129.578Z" fill="white"/>
<path d="M466.071 129.578C466.071 129.578 467.162 131.131 466.071 133.545" stroke="#060606" stroke-width="2" stroke-miterlimit="10" stroke-linecap="round"/>
<path d="M462.572 140.773C462.572 140.773 463.664 142.327 462.572 144.741V140.773Z" fill="#46B4F2"/>
<path d="M462.572 140.773C462.572 140.773 463.664 142.327 462.572 144.741" stroke="#060606" stroke-width="2" stroke-miterlimit="10" stroke-linecap="round"/>
</svg>
