<svg width="293" height="92" viewBox="0 0 293 92" fill="none" xmlns="http://www.w3.org/2000/svg">
<path d="M223 3.2334C236.667 1.72415 269.6 -0.388794 292 3.2334" stroke="#46B4F2" stroke-linecap="round"/>
<path d="M1.5 26.3496C14.6667 24.8404 51.1 22.7274 91.5 26.3496" stroke="#46B4F2" stroke-linecap="round"/>
<path d="M1 29C14.1667 27.4908 50.6 25.3778 91 29" stroke="#46B4F2" stroke-linecap="round"/>
<path d="M22.4882 33.1134C22.5508 32.8445 22.3836 32.5757 22.1146 32.513C21.8457 32.4504 21.5769 32.6176 21.5142 32.8866L22.4882 33.1134ZM139.07 59.5L139.402 59.8741C139.597 59.7008 139.627 59.4063 139.469 59.1981C139.311 58.9899 139.02 58.9382 138.8 59.0793L139.07 59.5ZM130.083 78.1316C130.156 78.398 130.431 78.5551 130.697 78.4824C130.963 78.4097 131.12 78.1348 131.048 77.8684L130.083 78.1316ZM123.061 63.5C122.785 63.5 122.561 63.7239 122.561 64C122.561 64.2761 122.785 64.5 123.061 64.5V63.5ZM21.5142 32.8866C19.2508 42.6053 18.2343 57.2114 22.5934 69.4182C24.7763 75.5308 28.314 81.0597 33.7349 85.0586C39.1584 89.0595 46.4277 91.5 56.0213 91.5V90.5C46.6037 90.5 39.552 88.1072 34.3286 84.2539C29.1025 80.3987 25.6674 75.0526 23.5352 69.0818C19.2642 57.1219 20.249 42.728 22.4882 33.1134L21.5142 32.8866ZM56.0213 91.5C94.2063 91.5 127.506 70.4238 139.402 59.8741L138.739 59.1259C126.954 69.5762 93.8812 90.5 56.0213 90.5V91.5ZM138.749 59.1167C137.188 60.4249 134.65 63.7373 132.695 67.389C131.713 69.2224 130.866 71.1643 130.359 73.0081C129.855 74.8428 129.674 76.6319 130.083 78.1316L131.048 77.8684C130.706 76.6181 130.84 75.0322 131.323 73.2731C131.804 71.5232 132.617 69.6526 133.577 67.861C135.503 64.2627 137.969 61.0751 139.391 59.8833L138.749 59.1167ZM138.8 59.0793C136.523 60.5421 130.146 63.5 123.061 63.5V64.5C130.385 64.5 136.948 61.4579 139.341 59.9207L138.8 59.0793Z" fill="#46B4F2"/>
<path fill-rule="evenodd" clip-rule="evenodd" d="M191.346 46.6978C191.887 45.3991 194.268 39.6583 194.665 38.403C195.576 35.5245 191.718 32.5668 188.666 36.1649C187.784 37.2032 185.984 39.8144 184.047 42.6254C181.123 46.8673 177.885 51.5641 177.015 51.9969C176.48 52.2632 174.922 52.4417 173.139 52.6461C170.101 52.9943 166.41 53.4174 166.005 54.4761C165.361 56.1564 164.92 60.7945 165.48 64.1516C166.041 67.5087 167.165 71.5531 168.854 71.6322C168.854 71.6322 174.603 70.3081 175.97 70.6283C176.526 70.7586 177.175 71.1932 177.901 71.6792C178.959 72.3878 180.18 73.2056 181.514 73.3486C183.555 73.5673 190.76 72.0051 192.075 71.7143L199.293 72.1121C200.772 72.1918 202.034 70.9366 202.11 69.3067L202.113 69.211C202.159 68.2315 201.768 67.3393 201.128 66.7646C202.471 66.5067 203.521 65.3011 203.592 63.8021C203.647 62.6432 203.103 61.5978 202.247 60.9994C203.483 60.7559 204.456 59.7527 204.577 58.3025L204.588 58.162C204.708 56.6135 203.823 55.2276 202.528 54.7757C203.85 54.3473 204.861 53.1138 204.987 51.5771C205.153 49.5535 203.726 47.7682 201.8 47.5942L191.953 46.6978C191.748 46.6793 191.545 46.6797 191.346 46.6978Z" fill="#46B4F2"/>
<path d="M187.482 45.1133C187.482 45.1133 188.374 43.6519 189.173 41.75C190.129 39.479 191.032 36.6494 191.275 35.8793C192.178 33.0138 188.356 30.0694 185.333 33.6513C184.337 34.8298 182.535 39.0206 180.318 42.2478C177.66 46.1163 174.573 49.0212 173.792 49.4116C172.359 50.128 163.132 51.5536 162.889 51.8795C161.807 53.3051 161.814 58.1693 162.369 61.5112C162.925 64.8531 164.039 68.8791 165.711 68.9579C165.711 68.9579 171.407 67.6398 172.76 67.9586C174.114 68.2773 176.024 70.4265 178.252 70.6665C180.479 70.9064 188.918 68.9937 188.918 68.9937" fill="white"/>
<path d="M187.482 45.1133C187.482 45.1133 188.374 43.6519 189.173 41.75C190.129 39.479 191.032 36.6494 191.275 35.8793C192.178 33.0138 188.356 30.0694 185.333 33.6513C184.337 34.8298 182.535 39.0206 180.318 42.2478C177.66 46.1163 174.573 49.0212 173.792 49.4116C172.359 50.128 163.132 51.5536 162.889 51.8795C161.807 53.3051 161.814 58.1693 162.369 61.5112C162.925 64.8531 164.039 68.8791 165.711 68.9579C165.711 68.9579 171.407 67.6398 172.76 67.9586C174.114 68.2773 176.024 70.4265 178.252 70.6665C180.479 70.9064 188.918 68.9937 188.918 68.9937" stroke="#060606" stroke-miterlimit="10"/>
<path d="M180.837 54.9246C180.837 54.9246 180.78 58.4814 173.462 59.6992L180.837 54.9246Z" fill="white"/>
<path d="M180.837 54.9246C180.837 54.9246 180.78 58.4814 173.462 59.6992" stroke="#060606" stroke-miterlimit="10" stroke-linecap="round"/>
<path d="M198.006 52.1122L188.213 51.2633C186.296 51.0986 184.878 49.4079 185.043 47.4916C185.208 45.5753 186.787 45.0273 188.718 44.7551C188.718 44.7551 196.344 44.6584 198.611 45.1706C200.008 45.4858 201.946 47.026 201.781 48.9423C201.613 50.8586 199.811 51.7827 198.006 52.1122Z" fill="white" stroke="#060606" stroke-miterlimit="10"/>
<path d="M197.97 58.0366L186.196 57.3453C184.298 57.2665 183.126 55.6116 183.27 53.9675L183.28 53.8386C183.424 52.1945 185.361 51.342 186.518 51.1164C187.496 50.9265 198.503 52.1551 198.503 52.1551C200.122 52.807 201.365 53.7455 201.226 55.3931L201.215 55.5221C201.064 57.1626 198.836 58.0509 197.97 58.0366Z" fill="white" stroke="#060606" stroke-miterlimit="10"/>
<path d="M197.372 63.9796C197.372 63.9796 190.466 63.6859 187.944 63.5605C186.296 63.4781 184.369 61.9881 184.452 60.3404C184.534 58.6928 186.228 57.3639 187.88 57.4463C190.401 57.5716 197.669 58.0086 197.669 58.0086C199.317 58.091 200.395 59.1835 200.506 61.1428C200.423 62.7904 199.019 64.062 197.372 63.9796Z" fill="white" stroke="#060606" stroke-miterlimit="10"/>
<path d="M195.874 69.3377C195.874 69.3377 189.972 69.0655 188.041 68.7825C187.095 68.6428 185.473 67.6255 185.548 66.1606L185.552 66.0746C185.623 64.606 186.913 63.5207 188.342 63.5529C189.155 63.5709 196.147 63.9434 196.147 63.9434C197.615 64.015 198.744 65.2651 198.668 66.7337L198.665 66.8196C198.59 68.281 197.339 69.4093 195.874 69.3377Z" fill="white" stroke="#060606" stroke-miterlimit="10"/>
<path d="M187.339 35.327C187.339 35.327 188.892 33.1797 189.387 34.5587C189.869 35.9026 186.203 38.3214 185.892 35.6135" fill="white"/>
<path d="M187.339 35.327C187.339 35.327 188.892 33.1797 189.387 34.5587C189.869 35.9026 186.203 38.3214 185.892 35.6135" stroke="#060606" stroke-miterlimit="10" stroke-linecap="round"/>
<path d="M199.968 47.7605C199.968 47.7605 200.527 48.5557 199.968 49.7914V47.7605Z" fill="white"/>
<path d="M199.968 47.7605C199.968 47.7605 200.527 48.5557 199.968 49.7914" stroke="#060606" stroke-miterlimit="10" stroke-linecap="round"/>
<path d="M199.61 53.8494C199.61 53.8494 200.169 54.6445 199.61 55.8803V53.8494Z" fill="white"/>
<path d="M199.61 53.8494C199.61 53.8494 200.169 54.6445 199.61 55.8803" stroke="#060606" stroke-miterlimit="10" stroke-linecap="round"/>
<path d="M198.894 59.9385C198.894 59.9385 199.452 60.7337 198.894 61.9694V59.9385Z" fill="white"/>
<path d="M198.894 59.9385C198.894 59.9385 199.452 60.7337 198.894 61.9694" stroke="#060606" stroke-miterlimit="10" stroke-linecap="round"/>
<path d="M197.103 65.6697C197.103 65.6697 197.661 66.4649 197.103 67.7006V65.6697Z" fill="#46B4F2"/>
<path d="M197.103 65.6697C197.103 65.6697 197.661 66.4649 197.103 67.7006" stroke="#060606" stroke-miterlimit="10" stroke-linecap="round"/>
</svg>
