<svg width="400" height="400" viewBox="0 0 400 400" fill="none" xmlns="http://www.w3.org/2000/svg">
<rect width="400" height="400" fill="#393939"/>
<path fill-rule="evenodd" clip-rule="evenodd" d="M320.981 82.346C324.585 81.3938 329.138 82.346 330.846 85.964C331.984 89.0107 330.467 92.4383 328.569 94.9138C321.55 103.483 313.202 110.909 304.095 117.383C302.388 118.716 299.542 119.097 298.404 117.003C297.265 115.67 298.593 113.956 299.352 112.623C305.613 104.816 311.495 96.4371 316.238 87.4873C317.566 85.5831 318.894 83.2981 320.981 82.346Z" fill="white"/>
<path fill-rule="evenodd" clip-rule="evenodd" d="M153.454 90.7223C156.489 89.9606 160.284 90.1511 162.56 92.4361C166.355 95.6733 166.734 101.957 163.509 105.766C158.766 111.288 147.762 108.241 146.813 100.815C146.244 96.435 149.09 91.8648 153.454 90.7223Z" fill="white"/>
<path fill-rule="evenodd" clip-rule="evenodd" d="M109.252 126.139C114.374 123.092 120.825 122.712 126.706 123.854C133.536 125.187 137.331 134.518 133.157 140.23C130.69 143.658 125.568 143.848 122.153 142.135C118.548 140.04 121.015 134.708 117.6 132.804C114.374 131.661 111.149 132.994 108.683 135.279C104.509 139.278 101.663 144.8 101.473 150.513C101.473 161.558 101.473 172.412 101.473 183.456C101.663 186.503 101.283 190.311 104.129 192.596C107.924 195.833 113.236 195.643 117.789 196.785C119.307 197.928 119.117 200.975 117.22 201.356C110.2 201.927 102.991 200.594 95.9713 200.403C88.003 200.213 80.0348 201.736 72.0665 201.356C71.4973 199.832 70.7384 196.785 73.2048 196.405C77.3786 195.453 82.5012 195.072 84.7778 191.073C86.2956 186.693 85.9161 181.933 85.9161 177.553C85.9161 166.508 86.1058 155.464 85.5366 144.61C85.1572 141.182 84.7778 137.184 81.7422 135.089C78.8964 133.375 75.6712 133.566 72.4459 132.804C70.5487 131.852 70.9282 128.043 73.3946 127.853C80.604 127.091 88.0031 126.139 95.2125 124.997C96.92 124.806 99.5761 124.425 99.9555 126.71C100.335 130.9 99.576 134.899 99.7657 139.088C101.663 134.137 104.509 129.186 109.252 126.139Z" fill="white"/>
<path fill-rule="evenodd" clip-rule="evenodd" d="M277.154 142.137C282.276 132.235 292.521 124.999 303.715 123.666C310.735 122.904 318.323 123.475 324.584 127.093C332.932 131.854 338.434 140.804 339.383 150.325C339.572 152.991 340.141 155.847 339.003 158.322C338.055 159.274 336.726 159.084 335.588 159.084C320.221 159.084 304.853 159.084 289.486 159.084C288.917 167.082 290.245 175.651 294.988 182.315C298.403 187.266 304.094 190.504 309.976 191.265C319.272 192.408 329.138 191.075 337.106 185.743C338.244 186.695 339.762 188.028 339.383 189.742C334.829 196.216 327.62 200.786 319.652 201.929C308.648 203.262 296.695 202.691 287.399 196.407C279.431 191.265 274.308 182.506 272.79 173.366C270.893 162.892 271.842 151.467 277.154 142.137ZM295.367 134.901C291.193 139.852 289.865 146.516 289.865 152.8C299.351 153.181 308.837 152.8 318.323 152.991C319.841 152.8 321.928 153.181 322.687 151.658C324.395 143.85 321.359 134.71 314.339 130.711C308.079 127.665 299.731 129.378 295.367 134.901Z" fill="white"/>
<path fill-rule="evenodd" clip-rule="evenodd" d="M143.021 127.852C149.471 127.28 155.732 125.567 162.182 124.995C163.89 124.614 165.787 125.757 165.597 127.471C165.597 143.466 165.597 159.271 165.597 175.266C165.787 180.598 165.218 186.12 166.546 191.452C168.064 196.022 173.376 196.022 177.36 197.165C177.36 198.688 178.119 201.164 176.032 201.545C170.34 201.925 164.649 200.402 158.957 200.592C151.937 200.402 144.918 202.116 137.708 201.545C136.38 200.592 136.57 198.498 137.329 197.165C140.744 195.832 144.918 196.213 147.764 193.547C150.23 191.452 150.04 188.025 150.23 184.978C150.23 172.601 150.23 160.223 150.23 147.846C149.851 143.847 150.23 139.467 147.574 136.23C145.107 133.564 140.934 133.564 137.708 132.803C137.519 131.279 136.949 129.565 138.088 128.423C139.416 127.852 141.313 128.042 143.021 127.852Z" fill="white"/>
<path fill-rule="evenodd" clip-rule="evenodd" d="M181.915 126.708C188.556 125.946 195.006 127.851 201.646 127.66C208.476 128.041 215.306 125.946 222.136 126.708C222.326 128.231 222.326 129.755 221.947 131.278C218.911 132.23 215.117 131.849 212.65 134.325C210.184 136.991 211.512 140.609 212.46 143.656C217.203 156.414 222.516 169.172 228.397 181.359C228.776 182.692 230.484 183.073 230.674 181.549C236.365 168.982 241.108 155.843 245.093 142.513C245.851 139.657 246.61 136.039 244.523 133.563C242.247 132.04 239.401 132.04 236.934 131.278C236.365 129.755 236.176 127.66 237.693 126.708C242.626 126.137 247.369 128.041 252.302 127.66C256.855 127.851 261.409 126.327 266.152 126.708C267.859 127.47 267.29 129.755 266.91 131.278C261.029 131.659 255.907 135.658 253.82 141.18C244.903 161.746 236.745 182.501 227.259 202.877C225.931 203.448 224.223 203.067 222.705 203.257C212.65 183.454 203.544 163.269 195.006 142.703C193.678 139.847 192.54 136.8 190.073 134.515C187.797 132.23 184.571 132.04 181.726 131.278C181.915 129.755 181.726 128.231 181.915 126.708Z" fill="white"/>
<path fill-rule="evenodd" clip-rule="evenodd" d="M93.6934 261.528C94.8317 263.813 95.4009 265.146 95.4009 265.337C94.8318 265.908 94.0729 266.479 93.3141 267.241C92.3655 268.003 91.227 268.764 89.899 269.716C88.5709 270.668 87.243 271.43 86.2943 271.811C85.3457 272.192 84.5868 272.382 84.0177 272.382C82.8793 272.382 81.9308 272.001 80.9822 271.43C80.0336 270.859 79.2747 269.907 78.7055 268.764C78.7055 268.574 78.5157 268.383 78.5157 268.193C78.326 268.003 78.3261 267.812 78.1364 267.622C77.5672 267.05 76.8083 266.289 76.2391 265.717C75.8597 265.337 75.2905 264.575 74.5316 263.432C73.7727 262.29 72.6344 260.576 71.3063 258.482C70.7372 257.529 70.168 256.387 69.4091 255.435C68.8399 254.483 68.0811 253.34 67.3222 252.388C67.1325 252.578 66.9428 253.34 66.7531 254.292C66.5634 255.244 66.3735 256.577 66.1838 258.291C66.1838 258.481 66.1839 259.053 65.9942 259.624C65.8044 260.195 65.8045 260.767 65.8045 260.957C65.8045 261.147 65.8044 261.338 65.9942 261.528C65.9942 261.909 66.1838 262.1 66.1838 262.29C66.1838 263.242 65.9942 264.385 65.8045 266.289C65.6148 268.003 65.425 269.336 65.425 270.288C65.425 271.049 65.2353 271.43 65.0455 271.811C64.8558 272.192 64.4764 272.382 63.9073 272.382C63.3381 272.382 62.9586 272.192 62.5792 272.192C62.1997 272.382 61.8202 272.382 61.4408 272.382C61.0614 272.382 60.8717 272.192 60.682 271.811C60.4923 271.43 60.4922 270.859 60.4922 270.097C60.4922 269.907 60.4923 269.336 60.682 268.764C60.8717 268.193 60.8717 267.622 60.8717 267.431C60.8717 267.241 60.8717 266.86 60.682 266.479C60.682 266.098 60.4922 265.718 60.4922 265.527C60.4922 265.337 60.4923 264.575 60.682 263.432C60.8717 262.29 61.0614 260.576 61.2511 258.482C61.4408 256.387 61.6305 254.483 61.8203 253.34C62.01 252.007 62.1997 251.245 62.1997 251.055C62.1997 250.865 62.3895 250.674 62.5792 250.293C62.7689 250.103 62.7689 249.722 62.7689 249.341L62.1997 247.056C62.3894 245.723 62.7689 244.009 62.9587 241.534C63.3381 239.059 63.7175 236.012 64.0969 232.394C64.2867 230.299 64.4764 228.585 64.6661 227.443C64.8558 226.3 64.8559 225.539 64.8559 225.348C65.2353 224.206 65.8044 223.254 66.5633 222.492C67.3222 221.73 68.2709 221.159 69.5989 220.778C69.7886 220.588 69.9783 220.588 70.168 220.397C70.3578 220.207 70.7371 220.016 70.9269 219.826C71.3063 219.826 71.6858 220.207 72.2549 221.349C72.8241 222.301 73.0139 223.063 73.0139 223.634C73.0139 223.825 73.0139 224.206 73.0139 224.587C73.0139 224.967 72.8241 225.348 72.6344 225.919C72.4447 226.491 72.2549 227.062 72.2549 227.443C72.0652 227.824 72.0653 228.014 72.0653 228.205C71.6858 229.728 71.1167 231.632 70.5475 233.727C69.9783 236.012 69.4091 238.678 68.84 241.724C68.84 241.915 68.6503 242.296 68.6503 242.677C68.6503 243.057 68.4606 243.438 68.2708 244.009C68.0811 244.39 68.081 244.962 68.081 245.342C68.081 245.723 67.8914 246.104 67.8914 246.295C67.8914 246.675 68.0811 247.056 68.2708 247.437C69.0297 247.056 70.3578 246.104 72.0653 244.2C73.7727 242.296 76.0494 239.63 78.8952 236.202C81.741 232.775 83.828 229.918 85.3457 227.633C86.6738 225.348 87.4326 223.825 87.4326 223.063C87.4326 222.682 87.2429 222.301 86.8635 221.921C86.484 221.349 86.2943 220.969 86.2943 220.588C86.2943 219.826 86.6738 219.255 87.243 218.874C87.8121 218.303 88.9504 218.112 90.0888 217.731C90.2785 217.731 90.8477 217.541 91.4168 216.97C91.986 216.589 92.5552 216.208 92.9346 216.208C93.314 216.208 93.6934 216.398 94.0729 216.398C94.4523 216.208 95.0215 215.827 95.4009 215.637C95.7804 216.018 96.1598 216.589 96.3496 216.97C96.5393 217.541 96.5392 218.112 96.5392 218.683C96.5392 220.016 96.3496 221.159 96.1599 222.111C95.7804 223.063 95.4009 223.825 94.642 224.396C94.4523 224.587 94.2626 224.777 94.0729 224.967C93.8832 225.158 93.6935 225.348 93.5037 225.729C93.1243 226.681 92.5551 227.633 91.7962 228.776C91.0373 229.918 90.0888 231.061 89.1402 232.394C86.8635 235.25 84.7765 237.726 82.6896 240.011C80.7924 242.105 79.0849 244.009 77.3774 245.533C76.8083 246.104 76.2391 246.675 75.8597 247.056C75.4802 247.437 75.2905 247.818 75.2905 248.199C75.67 249.151 76.2391 249.913 76.4288 250.674C76.998 252.198 77.7568 253.721 78.5157 255.244C79.2746 256.768 79.8438 258.291 80.6027 259.814C81.741 262.1 82.8794 263.813 83.828 264.956C84.7766 266.098 85.7252 266.67 86.6738 266.67C86.8635 266.67 87.2429 266.479 87.8121 266.289C88.3813 265.908 89.3299 265.527 90.4682 264.956C90.658 264.575 91.2271 264.194 91.986 263.623C93.314 261.909 93.6934 261.528 93.6934 261.528ZM93.5037 261.528C93.8832 260.957 94.4524 260.386 94.8318 259.814C96.729 258.101 98.4365 256.577 99.7645 255.054C101.093 253.531 101.851 252.198 102.421 250.865L102.041 248.96C102.421 248.199 103.18 247.437 104.697 246.675C106.025 245.723 107.164 245.342 108.112 245.342C109.061 245.342 109.82 245.533 110.389 246.104C110.958 246.675 111.717 247.247 112.286 247.818C112.666 248.008 112.855 248.199 112.855 248.199C113.994 248.96 114.753 250.103 115.322 251.626C115.891 252.959 116.081 254.863 116.081 256.768C116.081 257.91 115.701 259.434 114.753 261.338C113.994 263.432 113.424 264.956 113.424 265.908C113.424 266.098 113.424 266.098 113.614 266.289C113.614 266.289 113.804 266.479 113.994 266.479C114.373 266.479 114.753 266.289 115.322 266.098C115.891 265.718 116.27 265.337 116.839 264.765C118.167 263.432 119.116 262.671 119.496 262.48C119.875 262.29 120.065 262.1 120.634 261.719C120.824 262.29 121.203 262.861 121.393 263.432C121.772 264.004 121.962 264.765 122.341 265.337C122.152 265.527 121.772 265.718 121.582 266.098C121.203 266.479 120.824 266.67 120.444 267.05C119.496 267.812 118.357 268.574 116.839 269.526C115.322 270.478 113.614 271.621 111.527 272.763C110.958 273.144 110.389 273.334 109.63 273.715C108.492 273.715 107.733 273.525 107.164 273.144C106.595 272.763 106.405 272.192 106.405 271.43C106.405 271.049 106.405 270.859 106.595 270.478C106.784 270.097 106.974 269.716 107.164 269.145C107.353 268.764 107.543 268.383 107.733 268.003C107.923 267.622 108.112 267.241 108.302 266.86C108.871 265.146 109.251 263.623 109.63 262.099C110.009 260.576 110.01 259.243 110.01 258.101C110.01 256.768 109.82 255.625 109.44 254.863C109.061 254.102 108.302 253.721 107.353 253.531C106.784 253.911 106.025 254.292 105.456 254.863C104.697 255.435 104.128 256.196 103.369 257.149C102.61 258.101 101.851 258.862 101.282 259.624C100.713 260.195 100.144 260.576 99.7645 260.957C99.5748 261.338 99.1954 261.909 98.6262 262.29C98.0571 262.861 97.2981 263.432 96.5392 264.004C96.5392 264.194 96.3496 264.194 96.3496 264.575C96.1598 264.765 96.1599 264.956 95.7804 265.337C95.5907 264.765 95.4009 264.004 95.0215 263.432C94.0729 262.671 93.8832 262.099 93.5037 261.528ZM121.772 259.624L125.377 257.149C125.567 256.958 125.756 256.768 125.946 256.577C126.136 256.387 126.326 256.006 126.515 255.625C126.705 255.244 126.895 255.054 127.274 254.673C127.654 254.483 127.843 254.292 128.412 254.102C128.602 253.911 128.982 253.531 129.361 253.15C129.741 252.769 130.31 252.198 130.879 251.817C131.258 251.626 131.638 251.436 132.017 251.055C132.397 250.674 132.966 250.293 133.535 249.913C136.001 247.627 138.088 245.914 139.985 244.771C141.883 243.629 143.4 243.057 144.728 243.057C145.487 243.057 145.867 243.248 146.246 243.438C146.626 243.819 146.815 244.2 146.815 244.771C146.815 245.342 146.815 245.914 146.436 246.295C146.246 246.675 145.867 247.056 145.487 247.437C144.918 248.008 144.159 248.389 143.4 249.151C143.021 249.722 142.452 250.293 141.883 250.865C141.313 251.436 140.555 252.198 139.796 252.769C139.606 253.15 139.227 253.34 139.037 253.721C138.847 253.911 138.657 254.102 138.278 254.483C137.898 254.863 137.329 255.244 136.76 255.625C136.57 256.196 135.812 256.958 135.053 257.91C134.104 258.862 132.966 260.005 131.448 261.338C131.258 261.528 130.879 261.909 130.499 262.671C129.93 263.432 129.361 264.194 128.602 265.337L128.792 265.717C129.361 265.527 129.93 265.146 130.689 264.765C131.258 264.385 132.017 263.623 132.776 262.861C133.725 262.099 134.484 261.338 135.053 260.767C135.622 260.195 136.001 259.814 136.381 259.814C136.57 259.624 136.76 259.624 136.95 259.434C137.14 259.243 137.329 259.243 137.519 259.053C138.847 257.529 139.985 256.387 140.934 255.816C142.072 255.054 143.021 254.673 143.97 254.673C144.539 254.673 144.918 254.863 145.298 255.244C145.677 255.625 145.677 256.387 145.867 257.339C145.867 258.672 145.867 260.005 145.867 261.147C145.867 262.099 146.057 262.861 146.626 263.432C147.195 264.194 147.764 264.385 148.523 264.385C148.713 264.385 149.092 264.385 149.282 264.194C149.472 264.004 149.661 263.813 150.041 263.623C150.23 263.432 150.42 263.052 150.61 262.861C150.8 262.671 150.989 262.48 151.179 262.29C151.369 262.29 151.369 262.099 151.558 261.909C151.748 261.719 151.938 261.528 152.128 261.338C152.507 262.1 152.887 262.861 153.076 263.432C153.266 264.004 153.456 264.575 153.645 264.956C153.076 265.527 152.507 266.098 151.748 266.67C151.179 267.241 150.42 267.812 149.851 268.383C149.092 268.955 148.333 269.526 147.574 269.716C146.815 270.097 146.057 270.097 145.298 270.097C143.59 270.097 142.262 269.526 141.314 268.574C140.365 267.622 139.796 266.098 139.606 264.004C139.606 263.813 139.606 263.432 139.416 263.242C139.416 263.052 139.227 262.671 139.037 262.48C138.847 262.671 138.657 262.671 138.657 262.861C138.468 263.052 138.278 263.242 138.088 263.432C137.709 263.623 137.329 264.004 136.76 264.385C136.191 264.765 135.622 265.337 134.863 265.908C133.914 266.86 133.155 267.622 132.397 268.383C131.827 268.955 131.258 269.526 131.069 269.716C130.499 270.097 129.93 270.668 129.171 271.049C128.412 271.43 127.654 272.001 126.705 272.382C126.136 272.763 125.567 272.954 125.187 273.144C124.808 273.334 124.428 273.334 124.239 273.334C122.911 273.334 121.962 272.953 121.393 272.382C120.824 271.811 120.444 270.668 120.444 269.336C120.444 268.574 120.634 268.003 121.013 267.241C121.393 266.67 121.772 265.908 122.341 265.337C122.341 264.956 122.341 264.765 122.341 264.385C122.341 264.194 122.341 264.194 122.152 264.004C122.152 263.813 121.962 263.623 121.962 263.432C121.772 263.052 121.583 262.671 121.393 262.099C121.203 261.528 121.013 261.147 120.634 260.576C120.824 260.386 120.824 260.195 121.013 260.005C121.203 260.576 121.583 260.195 121.772 259.624ZM151.558 261.528L151.748 261.338C151.938 260.957 152.128 260.576 152.507 260.195C152.886 259.814 153.456 259.243 154.025 258.862C154.973 258.291 155.543 257.91 156.112 257.529C156.681 257.149 156.871 256.958 157.06 256.768C157.25 256.387 157.44 256.196 157.629 256.006C158.009 255.816 158.199 255.435 158.768 255.054C159.147 254.673 159.716 254.292 160.286 253.721C160.475 253.531 160.665 253.34 160.855 253.15C161.045 252.769 161.234 252.578 161.424 252.198C161.803 252.007 162.183 251.626 162.562 251.245C162.942 250.865 163.511 250.293 164.08 249.722C164.839 248.96 165.598 248.199 166.357 247.247C167.116 246.295 168.064 245.533 169.203 244.581C169.582 244.39 169.961 244.2 170.151 244.2C170.531 244.009 170.72 244.009 171.1 244.009C172.238 244.009 173.187 244.39 173.756 244.962C174.325 245.533 174.704 246.295 174.704 247.437C174.704 247.627 174.704 248.199 174.515 248.77C174.325 249.341 174.325 250.103 174.135 251.055C173.756 253.721 173.566 255.435 173.376 256.006C173.187 256.577 172.618 258.481 171.669 261.528C171.479 262.099 171.289 262.671 171.1 263.432C170.91 264.194 170.531 265.146 170.341 266.098C170.341 266.289 170.531 266.289 170.72 266.479C170.91 266.479 171.289 266.289 171.669 265.908C172.238 265.527 172.807 264.956 173.566 264.194C174.515 263.242 175.274 262.671 175.843 262.29C176.412 261.909 176.791 261.528 176.791 261.528C177.171 262.29 177.361 262.861 177.74 263.623C177.93 264.194 178.309 264.765 178.499 265.337C178.119 265.527 177.93 265.718 177.55 266.098C177.361 266.289 176.981 266.67 176.791 267.05C176.222 267.431 175.653 267.812 174.894 268.383C174.135 268.955 173.376 269.336 172.428 269.907C172.048 270.288 171.479 270.859 170.72 271.43C169.961 272.001 169.203 272.573 168.444 273.334L167.685 273.525C167.305 274.096 166.926 274.477 166.546 274.667C166.167 274.858 165.977 275.048 165.598 275.239C165.218 275.429 164.649 275.619 164.27 275.619C163.89 275.81 163.321 276 162.942 276C162.562 276 162.373 275.81 162.373 275.429C162.183 275.239 162.183 274.858 162.183 274.286C161.803 273.525 161.424 272.763 161.234 271.811C161.045 270.859 160.855 269.907 160.855 268.574C160.855 268.383 160.855 268.193 160.855 267.812C160.855 267.622 160.855 267.431 160.855 267.241C160.665 266.479 160.665 266.098 160.665 265.908C160.665 265.146 161.045 264.385 161.614 263.813C162.183 263.242 162.942 263.052 163.701 263.052C164.08 263.052 164.459 263.242 164.649 263.623C164.839 264.004 165.029 264.194 165.218 264.194C165.408 264.194 165.598 263.813 165.787 263.052C165.977 262.29 166.167 261.147 166.357 259.814C166.546 258.481 166.736 257.529 166.736 256.577C166.736 255.625 166.736 254.863 166.736 254.483C166.736 254.102 166.736 253.911 166.546 253.721C166.357 253.531 166.167 253.531 165.787 253.531C165.408 253.531 164.27 254.292 162.373 256.006C160.475 257.72 157.819 260.005 154.404 263.242C154.214 263.432 154.215 263.623 154.025 264.004C153.835 264.194 153.645 264.575 153.266 264.956C153.076 264.575 152.887 264.004 152.697 263.432C152.317 263.052 151.938 262.29 151.558 261.528ZM176.791 261.528C176.981 261.338 176.981 261.147 177.171 260.957C177.36 260.767 177.55 260.386 177.74 260.195C177.93 260.005 178.309 259.624 178.878 259.243C179.258 258.862 179.827 258.291 180.396 257.91C180.965 257.339 181.534 256.768 182.104 256.006C182.862 255.244 183.621 254.292 184.57 253.15C184.949 252.769 185.519 252.198 186.277 251.436C186.847 250.674 187.605 249.913 188.554 248.77C189.313 247.818 190.072 247.247 191.021 246.866C191.969 246.485 192.728 246.295 193.866 246.295C194.815 246.295 195.574 246.675 195.953 247.247C196.333 247.818 196.712 248.77 196.712 249.913C196.712 250.484 196.522 251.817 195.953 253.531C195.574 255.244 194.815 257.529 193.866 260.576C193.677 261.147 193.297 261.719 193.107 262.099C192.918 262.48 192.918 262.671 192.728 263.052C192.728 263.242 192.728 263.623 192.728 263.623C192.728 263.813 192.728 264.004 192.918 264.194C193.107 264.194 193.107 264.004 193.297 263.813C193.487 263.623 193.487 263.432 193.677 263.242C193.866 262.861 194.246 262.48 194.625 261.909C195.005 261.528 195.574 260.957 196.143 260.386C196.333 260.005 196.712 259.434 197.091 259.053C197.471 258.672 197.85 258.101 198.42 257.91C198.609 257.72 198.609 257.529 198.799 257.339C198.989 257.149 199.178 256.768 199.368 256.577C199.748 256.196 200.127 255.816 200.696 255.435C201.265 255.054 201.835 254.673 202.404 254.292C203.163 253.911 203.732 253.531 204.301 253.34C204.87 253.15 205.439 252.959 205.819 252.959C206.578 252.959 207.337 253.15 208.095 253.531C208.665 253.911 209.234 254.483 209.803 255.435C210.372 257.149 210.941 258.672 211.321 260.005C211.7 260.767 211.89 261.528 212.269 261.909C212.649 262.29 213.028 262.48 213.408 262.48C213.787 262.48 213.977 262.48 214.356 262.29C214.546 262.1 214.925 261.909 215.115 261.719L216.823 265.527C216.443 265.908 215.874 266.289 215.494 266.67C214.925 267.05 214.546 267.431 214.166 267.812C213.597 268.383 213.028 268.764 212.459 268.955C211.89 269.145 211.321 269.336 210.751 269.336C210.182 269.336 209.613 269.145 209.044 268.955C208.475 268.764 207.906 268.193 207.526 267.812C207.336 267.622 206.957 267.241 206.767 266.67C206.388 266.098 206.008 265.337 205.629 264.575C205.25 264.194 204.87 263.813 204.491 263.242C204.111 262.671 203.542 261.909 202.973 261.147L202.593 260.957C202.024 261.147 201.645 261.338 201.076 261.719C200.507 262.1 200.127 262.48 199.558 263.052C198.42 264.194 197.471 264.765 196.902 265.146C196.333 265.337 195.953 265.718 195.764 266.098C195.384 266.67 194.815 267.622 193.866 268.574C192.918 269.526 191.779 270.859 190.451 272.192C190.072 272.573 189.692 272.954 189.313 273.144C188.934 273.525 188.554 273.715 188.175 274.096C187.795 274.477 187.416 274.667 187.036 274.667C186.657 274.858 186.088 274.858 185.519 274.858C184.38 274.858 183.811 274.477 183.811 273.715C183.621 272.954 183.621 272.192 183.621 271.43C184.001 270.288 184.57 268.955 184.949 267.241C185.519 265.527 186.088 263.623 186.657 261.338C186.657 261.147 186.657 260.957 186.847 260.767C186.847 260.576 187.036 260.195 187.226 259.814C187.416 259.434 187.416 259.243 187.605 258.862C187.605 258.672 187.605 258.291 187.605 258.101C187.605 257.91 187.605 257.72 187.416 257.72C187.226 257.529 187.036 257.529 186.847 257.529C186.657 257.529 186.277 257.72 185.708 258.101C185.329 258.481 184.76 258.862 184.19 259.624C183.432 260.386 182.862 261.147 182.293 261.528C181.914 261.909 181.534 262.29 181.345 262.29C181.155 262.48 180.775 262.671 180.396 263.052C180.017 263.432 179.637 263.813 179.258 264.194C179.258 264.385 179.068 264.385 179.068 264.765C178.878 264.956 178.878 265.146 178.499 265.527C178.309 265.146 178.119 264.575 177.93 264.004C177.55 263.052 177.361 262.29 176.791 261.528ZM215.494 261.528C215.684 261.338 215.874 261.147 216.064 260.767C216.253 260.386 216.443 260.195 216.823 259.814L219.858 257.72C220.237 257.339 220.807 256.768 221.566 256.006C222.324 255.244 223.273 254.483 224.411 253.34C224.601 252.959 224.791 252.769 225.17 252.388C225.55 252.007 225.929 251.626 226.309 251.245C226.688 250.865 227.067 250.484 227.447 250.293C227.826 249.913 228.206 249.722 228.585 249.341C228.965 248.96 229.344 248.58 229.724 248.199C230.103 247.818 230.483 247.437 230.862 247.056C231.241 246.675 231.81 246.295 232.19 246.104C232.569 245.914 233.139 245.723 233.708 245.723C234.277 245.723 234.656 245.723 235.036 245.914C235.415 246.104 235.415 246.295 235.605 246.485C235.415 247.056 235.036 247.818 234.846 248.389L235.036 248.77C236.174 248.389 237.123 248.008 237.882 247.818C238.64 247.627 239.02 247.437 239.21 247.437C241.107 247.437 242.625 248.008 243.573 249.151C244.522 250.293 245.091 252.198 245.091 254.673C245.091 255.054 245.091 255.625 244.901 256.387C244.712 256.958 244.712 257.72 244.332 258.482C244.142 259.243 243.763 260.005 243.384 260.576C243.004 261.147 242.814 261.528 242.435 261.719C242.625 262.1 242.625 262.29 242.814 262.48C243.004 262.671 243.194 262.671 243.384 262.671C243.573 262.671 243.763 262.671 243.953 262.48C244.142 262.29 244.522 262.099 244.712 261.909C244.901 262.48 245.281 263.052 245.47 263.813C245.66 264.385 246.04 265.146 246.229 265.717C245.66 266.098 245.281 266.67 244.901 267.05C244.522 267.431 243.953 267.812 243.384 268.193C242.814 268.764 242.245 269.145 241.676 269.336C241.107 269.526 240.538 269.716 239.969 269.716C239.399 269.716 238.83 269.526 238.451 269.336C238.071 268.955 237.692 268.574 237.502 268.003C236.743 268.955 235.984 269.716 235.036 270.478C234.087 271.24 232.949 271.811 231.811 272.382C231.052 272.763 230.483 272.954 229.913 273.144C229.344 273.334 228.775 273.334 228.396 273.334C228.206 273.334 228.016 273.334 227.637 273.525C227.257 273.715 226.878 273.715 226.688 273.715C225.17 273.715 223.842 273.144 222.514 271.811C221.186 270.478 220.617 268.955 220.617 267.431C220.617 266.86 220.807 265.908 220.996 264.765C221.376 263.623 221.376 263.052 221.376 262.861C221.376 262.671 221.376 262.48 221.186 262.48C220.996 262.29 220.807 262.29 220.617 262.29C220.427 262.29 220.238 262.48 219.668 262.861C219.099 263.242 218.53 263.813 217.581 264.575C217.581 264.765 217.392 264.765 217.202 265.146C217.012 265.337 217.012 265.527 216.633 265.908C216.443 265.337 216.253 264.575 215.874 264.004C216.064 262.671 215.874 262.099 215.494 261.528ZM234.846 254.102C234.656 254.102 234.467 254.292 234.277 254.483C234.087 254.673 233.708 255.054 233.518 255.435C233.139 256.006 232.759 256.768 232.19 257.529C231.81 257.91 231.621 258.101 231.241 258.291C230.862 258.481 230.482 258.672 230.103 258.672C229.913 258.672 229.534 259.053 229.154 259.434C228.775 260.005 228.585 260.576 228.206 261.528C227.826 262.29 227.637 263.052 227.637 263.623C227.447 264.194 227.447 264.765 227.447 265.146C227.447 265.908 227.637 266.479 228.016 266.86C228.396 267.241 228.965 267.431 229.724 267.431C231.052 267.431 232.19 267.05 233.139 266.479C234.087 265.718 235.225 264.765 235.984 263.432C236.364 262.861 236.743 262.48 237.123 261.909C237.312 261.719 237.502 261.528 237.692 261.147C237.882 260.767 237.882 260.386 238.071 259.814L238.83 257.529C238.64 256.768 238.451 256.006 238.071 255.625C237.882 255.244 237.692 254.864 237.502 254.673C237.312 254.673 237.123 254.483 236.554 254.483C236.364 254.292 235.795 254.292 234.846 254.102Z" fill="white"/>
<path fill-rule="evenodd" clip-rule="evenodd" d="M244.707 261.531L244.897 261.341L245.086 260.96C245.656 260.389 246.035 259.818 246.414 259.627C246.794 259.246 246.984 259.056 247.173 258.865C247.363 258.675 247.553 258.485 248.122 258.294C248.501 258.104 249.26 257.723 250.019 257.532L250.588 257.152C250.778 256.771 251.158 256.39 251.537 255.819C252.106 255.247 252.675 254.676 253.244 253.914C253.434 253.724 253.624 253.534 253.814 253.343C254.003 253.153 254.383 252.962 254.762 252.582C255.331 252.01 256.09 251.249 256.659 250.677C257.229 250.106 257.987 249.344 258.557 248.773C258.746 248.583 259.316 248.011 260.074 247.44C260.833 246.869 261.782 245.917 263.11 244.774C263.3 244.584 263.679 244.393 264.059 244.203C264.628 244.013 265.197 243.632 265.956 243.251C266.335 243.06 266.525 242.87 266.715 242.489C266.904 242.108 266.904 241.728 266.904 241.156C267.094 240.775 267.284 240.395 267.474 239.823C267.663 239.252 267.853 238.681 268.043 238.11C268.232 237.348 268.612 236.586 268.612 236.015C268.802 235.444 268.802 235.063 268.991 234.872C269.371 233.73 270.13 232.206 270.889 230.683C271.647 228.969 272.596 227.256 273.734 224.97C274.304 223.828 274.873 222.685 275.632 221.352C276.011 220.591 276.58 220.21 277.149 219.829C277.718 219.448 278.288 219.258 278.857 219.258C279.426 219.258 279.805 219.448 279.995 219.829C280.185 220.21 280.375 220.781 280.375 221.543C280.375 222.685 280.375 223.828 280.185 224.97C279.995 226.113 279.805 227.065 279.236 228.017C279.236 228.208 279.047 228.398 279.047 228.779C279.047 229.16 278.857 229.541 278.857 230.112C278.857 230.493 278.667 230.874 278.477 231.254C278.288 231.635 278.098 232.016 277.908 232.206C277.908 232.397 277.908 232.587 277.908 232.968C277.908 233.159 277.718 233.539 277.718 233.92L277.149 234.682C277.149 234.872 277.149 235.063 277.149 235.253V236.015C277.149 236.205 276.96 236.586 276.77 236.967C276.58 237.348 276.39 238.11 276.011 239.062C275.632 240.014 275.252 240.775 275.062 241.156C274.873 241.728 274.683 242.108 274.683 242.108C274.493 242.299 274.493 242.489 274.304 242.68C274.114 243.06 273.924 243.251 273.734 243.632L273.924 244.584L271.268 253.914C271.268 254.867 271.268 255.819 271.268 256.58C271.268 257.342 271.458 257.913 271.458 258.294C271.647 258.675 271.837 259.246 272.027 260.008C272.406 260.579 272.786 261.341 273.165 262.103C273.545 262.674 273.734 263.055 274.304 263.245C274.683 263.436 275.062 263.626 275.632 263.626C276.201 263.626 276.58 263.436 277.149 263.245C277.718 263.055 278.288 262.483 278.667 261.912C279.047 262.674 279.236 263.245 279.616 263.816C279.995 264.388 280.185 264.959 280.375 265.53C280.185 265.53 279.995 265.911 279.426 266.292C279.047 266.673 278.477 267.434 277.718 268.386C277.339 268.958 276.77 269.339 276.201 269.529C275.632 269.719 274.873 269.91 273.924 269.91C271.837 269.91 270.319 269.339 268.991 268.386C267.663 267.244 266.904 265.721 266.335 263.626C266.145 263.245 266.146 262.864 265.956 262.483C265.956 262.103 265.766 261.912 265.766 261.531C265.576 260.96 265.197 260.389 264.817 259.818C264.628 260.008 264.438 260.198 264.438 260.389C264.059 260.579 263.679 260.96 263.3 261.341C262.92 261.722 262.541 262.293 262.161 262.864C262.161 263.055 261.972 263.436 261.782 263.816C261.592 264.197 261.213 264.768 260.833 265.149C259.885 266.101 259.126 267.244 258.177 268.196C257.229 269.148 256.47 270.291 255.521 271.243C254.383 272.576 253.244 273.528 252.106 274.29C251.157 274.861 250.209 275.242 249.45 275.242C248.122 275.242 247.173 274.861 246.414 274.29C245.845 273.718 245.466 272.576 245.466 271.243C245.466 270.672 245.656 269.719 246.225 268.577C246.604 267.434 246.984 266.673 246.984 266.101L246.794 265.53L244.707 261.531ZM265.007 249.916C265.007 249.725 265.007 249.535 264.817 249.344C264.438 249.725 263.869 250.296 263.3 250.677C262.731 251.249 261.972 251.82 261.213 252.391C261.023 252.772 260.644 253.534 259.885 254.486C259.126 255.438 258.177 256.58 257.039 257.913C256.659 258.294 256.28 259.056 255.711 260.008C255.142 260.96 254.383 262.103 253.624 263.626C253.245 264.197 253.055 264.959 252.675 265.721C252.675 265.911 252.865 266.101 253.055 266.292C253.814 266.101 254.762 265.34 256.09 264.197C257.229 263.055 258.557 261.341 260.264 259.246C261.972 256.961 263.11 255.057 264.059 253.534C264.628 252.01 265.007 250.868 265.007 249.916ZM279.805 259.627L283.41 257.152C283.6 256.961 283.79 256.771 283.979 256.58C284.169 256.39 284.359 256.009 284.548 255.628C284.738 255.247 284.928 255.057 285.307 254.676C285.687 254.486 285.877 254.295 286.446 254.105C286.635 253.914 287.015 253.534 287.394 253.153C287.774 252.772 288.343 252.201 288.912 251.82C289.292 251.629 289.671 251.439 290.05 251.058C290.43 250.677 290.999 250.296 291.568 249.916C294.035 247.631 296.121 245.917 298.019 244.774C299.916 243.632 301.434 243.06 302.762 243.06C303.521 243.06 303.9 243.251 304.279 243.441C304.659 243.822 304.849 244.203 304.849 244.774C304.849 245.346 304.659 245.917 304.469 246.298C304.28 246.678 303.9 247.059 303.521 247.44C302.951 248.011 302.193 248.392 301.434 249.154C301.054 249.725 300.485 250.296 299.916 250.868C299.347 251.439 298.588 252.201 297.829 252.772C297.639 253.153 297.26 253.343 297.07 253.724C296.88 253.914 296.691 254.105 296.311 254.486C295.932 254.867 295.363 255.247 294.793 255.628C294.604 256.2 293.845 256.961 293.086 257.913C292.137 258.865 290.999 260.008 289.481 261.341C289.291 261.531 288.912 261.912 288.533 262.674C287.963 263.436 287.394 264.197 286.635 265.34L286.825 265.721C287.394 265.53 287.964 265.149 288.722 264.768C289.292 264.388 290.05 263.626 290.809 262.864C291.758 262.103 292.517 261.341 293.086 260.77C293.655 260.198 294.035 259.818 294.414 259.818C294.604 259.627 294.793 259.627 294.983 259.437C295.173 259.246 295.363 259.246 295.552 259.056C296.88 257.532 298.019 256.39 298.967 255.819C300.106 255.057 301.054 254.676 302.003 254.676C302.572 254.676 302.951 254.867 303.331 255.247C303.71 255.628 303.71 256.39 303.9 257.342C303.9 258.675 303.9 260.008 303.9 261.15C303.9 262.103 304.09 262.864 304.659 263.436C305.228 264.197 305.797 264.388 306.556 264.388C306.746 264.388 307.125 264.388 307.315 264.197C307.505 264.007 307.694 263.816 308.074 263.626C308.264 263.436 308.453 263.055 308.643 262.864C308.833 262.674 309.023 262.483 309.212 262.293C309.402 262.293 309.402 262.103 309.592 261.912C309.781 261.722 309.971 261.531 310.161 261.341C310.54 262.103 310.92 262.864 311.109 263.436C311.299 264.007 311.489 264.578 311.679 264.959C311.109 265.53 310.54 266.101 309.781 266.673C309.212 267.244 308.453 267.815 307.884 268.386C307.125 268.958 306.366 269.529 305.608 269.719C304.849 270.1 304.09 270.1 303.331 270.1C301.623 270.1 300.295 269.529 299.347 268.577C298.398 267.625 297.829 266.101 297.639 264.007C297.639 263.816 297.639 263.436 297.45 263.245C297.45 263.055 297.26 262.674 297.07 262.483C296.88 262.674 296.691 262.674 296.691 262.864C296.501 263.055 296.311 263.245 296.121 263.436C295.742 263.626 295.363 264.007 294.793 264.388C294.224 264.768 293.655 265.34 292.896 265.911C291.948 266.863 291.189 267.625 290.43 268.386C289.861 268.958 289.291 269.529 289.102 269.719C288.533 270.1 287.963 270.672 287.205 271.052C286.446 271.433 285.687 272.004 284.738 272.385C284.169 272.766 283.6 272.957 283.22 273.147C282.841 273.337 282.462 273.337 282.272 273.337C280.944 273.337 279.995 272.957 279.426 272.385C278.857 271.814 278.477 270.672 278.477 269.339C278.477 268.577 278.667 268.006 279.047 267.244C279.426 266.673 279.805 265.911 280.375 265.34C280.375 264.959 280.375 264.768 280.375 264.388C280.375 264.197 280.375 264.197 280.185 264.007C280.185 263.816 279.995 263.626 279.995 263.436C279.805 263.055 279.616 262.674 279.426 262.103C279.236 261.531 279.047 261.15 278.857 260.579C279.047 260.389 279.047 260.198 279.236 260.008C279.236 260.579 279.616 260.198 279.805 259.627ZM309.592 261.531C309.971 260.96 310.54 260.389 310.92 259.818C312.817 258.104 314.524 256.58 315.853 255.057C317.181 253.534 317.939 252.201 318.509 250.868L318.129 248.964C318.509 248.202 319.267 247.44 320.785 246.678C322.113 245.726 323.252 245.346 324.2 245.346C325.149 245.346 325.908 245.536 326.477 246.107C327.046 246.678 327.805 247.25 328.374 247.821C328.754 248.011 328.943 248.202 328.943 248.202C330.082 248.964 330.841 250.106 331.41 251.629C331.979 252.962 332.168 254.867 332.168 256.771C332.168 257.913 331.789 259.437 330.84 261.341C330.082 263.436 329.512 264.959 329.512 265.911C329.512 266.101 329.512 266.101 329.702 266.292C329.702 266.292 329.892 266.482 330.082 266.482C330.461 266.482 330.841 266.292 331.41 266.101C331.979 265.721 332.358 265.34 332.927 264.768C334.255 263.436 335.204 262.674 335.583 262.483C335.963 262.293 336.153 262.103 336.722 261.722C336.912 262.293 337.291 262.864 337.481 263.436C337.86 264.007 338.05 264.768 338.429 265.34C338.24 265.53 337.86 265.721 337.67 266.101C337.291 266.482 336.911 266.673 336.532 267.054C335.583 267.815 334.445 268.577 332.927 269.529C331.41 270.481 329.702 271.624 327.615 272.766C327.046 273.147 326.477 273.337 325.718 273.718C324.58 273.718 323.821 273.528 323.252 273.147C322.682 272.766 322.493 272.195 322.493 271.433C322.493 271.052 322.493 270.862 322.682 270.481C322.872 270.1 323.062 269.719 323.252 269.148C323.441 268.767 323.631 268.386 323.821 268.006C324.011 267.625 324.2 267.244 324.39 266.863C324.959 265.149 325.339 263.626 325.718 262.103C326.097 260.579 326.097 259.246 326.097 258.104C326.097 256.771 325.908 255.628 325.339 254.867C324.959 254.105 324.2 253.724 323.252 253.534C322.682 253.914 321.924 254.295 321.354 254.867C320.595 255.438 320.026 256.2 319.267 257.152C318.509 258.104 317.75 258.865 317.181 259.627C316.611 260.198 316.042 260.579 315.663 260.96C315.473 261.341 315.094 261.912 314.524 262.293C313.955 262.864 313.196 263.436 312.438 264.007C312.438 264.197 312.248 264.197 312.248 264.578C312.058 264.768 312.058 264.959 311.679 265.34C311.489 264.768 311.299 264.007 310.92 263.436C310.161 262.674 309.781 262.103 309.592 261.531Z" fill="white"/>
<path fill-rule="evenodd" clip-rule="evenodd" d="M0 200.543C0.938588 200.482 1.87767 200.434 2.81675 200.408C8.13488 200.046 13.4102 200.5 18.6833 200.955C24.5091 201.457 30.3322 201.959 36.2076 201.36C37.4329 200.437 37.1744 198.894 36.9295 197.432C36.871 197.083 36.8133 196.739 36.7768 196.409C35.4958 196.187 34.184 196.027 32.8677 195.867C28.5302 195.339 24.1437 194.805 20.6505 192.029C16.4766 188.601 16.0972 182.698 16.0972 177.747C16.1661 174.567 16.135 171.362 16.1037 168.141C16.0487 162.489 15.9933 156.789 16.4767 151.088C18.4233 150.885 20.3873 150.716 22.3574 150.547C29.6041 149.924 36.9348 149.295 43.7965 146.899C51.3853 144.614 58.7845 140.044 62.5789 132.998C66.3734 126.143 66.7527 117.765 65.235 110.148C63.7172 102.341 57.8359 95.8663 50.6265 92.8196C42.5524 89.12 33.504 89.3321 24.8334 89.5354C24.132 89.5518 23.4332 89.5682 22.7375 89.5824C15.1583 89.9692 7.57916 90.2687 0 90.1263V200.543ZM16.285 104.475C16.2724 102.084 16.2571 99.1736 18.3739 97.5801C20.7838 96.3707 23.3827 96.2993 25.9705 96.2281C27.0497 96.1984 28.127 96.1688 29.1879 96.0567C35.0693 96.2472 41.8993 98.1514 44.7451 104.054C48.1601 111.1 47.9704 119.479 47.0218 127.095C46.4526 132.618 43.4171 137.949 38.2946 140.425C31.4647 143.662 23.6861 143.852 16.4767 143.281C16.2599 135.991 16.2908 128.7 16.3218 121.41C16.345 115.942 16.3682 110.474 16.2869 105.007C16.2869 104.833 16.286 104.655 16.285 104.475Z" fill="white"/>
<path fill-rule="evenodd" clip-rule="evenodd" d="M400 90.8213C399.107 90.8289 398.214 90.8366 397.322 90.8443C386.735 90.9357 376.149 91.0271 365.562 90.9128C364.045 106.147 362.716 121.38 361.578 136.614H363.665C363.795 135.506 363.908 134.386 364.022 133.262C364.572 127.82 365.133 122.274 367.649 117.381C369.546 113.573 373.91 112.05 377.894 112.05H377.895C385.263 112.05 392.632 112.05 400 111.983V90.8213ZM400 131.476C396.544 138.895 393.157 146.365 390.036 153.942C383.396 169.747 376.756 186.123 375.048 203.452H391.744C393.177 185.651 396.302 167.85 400 150.37V131.476Z" fill="white"/>
</svg>
