<svg width="100" height="95" viewBox="0 0 100 95" fill="none" xmlns="http://www.w3.org/2000/svg">
<path d="M3.78318 91C21.7604 68.7883 31.0668 38.5614 13.1263 43.7914C1.85071 47.0784 36.3646 58.4432 54.1583 46.2892C67.8181 36.9588 45.5311 -22.9517 12.4599 11.6688C-20.6113 46.2892 26.1197 69.1238 49.1258 66.1774C72.1318 63.231 81.4688 42.6061 69.256 41.1329C57.0432 39.6597 -70.175 52.5623 60.6288 83.1193C99.9287 92.3002 109.772 75.8429 86.766 54.9725" stroke="#46B4F2" stroke-linecap="round"/>
<rect width="51.7049" height="34.4991" rx="6" transform="matrix(0.959814 -0.280637 0.280541 0.959842 1.13818 36.1841)" fill="#46B4F2"/>
<rect x="0.620178" y="0.339602" width="50.7049" height="33.4991" rx="5.5" transform="matrix(0.959814 -0.280637 0.280541 0.959842 2.59615 31.6979)" fill="white" stroke="#060606"/>
<path d="M9.06152 35.2891L32.8307 42.9734L48.7189 23.6937" stroke="#060606" stroke-linecap="round"/>
<path d="M18.2076 36.2824C18.4328 35.4749 19.4329 35.1825 20.0575 35.7415C20.4619 36.1034 21.0696 36.1256 21.4974 35.7917C22.1371 35.2925 23.0787 35.6167 23.2754 36.4039L23.3139 36.558C23.4472 37.0914 23.9251 37.4665 24.4749 37.4692C25.3101 37.4734 25.8869 38.3065 25.597 39.0898L25.5654 39.1752C25.3714 39.6992 25.5436 40.2883 25.9892 40.6253L26.0619 40.6803C26.728 41.184 26.6906 42.1967 25.9892 42.6501C25.5274 42.9486 25.3268 43.5222 25.5017 44.0434L25.5523 44.1939C25.8104 44.9631 25.1917 45.7435 24.3839 45.6676C23.8436 45.6168 23.3437 45.9629 23.1978 46.4856C22.9726 47.2932 21.9725 47.5855 21.3479 47.0265C20.9435 46.6646 20.3358 46.6424 19.908 46.9763C19.2683 47.4755 18.3267 47.1513 18.13 46.3641L18.0915 46.21C17.9582 45.6766 17.4803 45.3015 16.9305 45.2988C16.0953 45.2946 15.5185 44.4615 15.8084 43.6782L15.84 43.5928C16.034 43.0688 15.8618 42.4797 15.4162 42.1427L15.3435 42.0877C14.6774 41.584 14.7148 40.5713 15.4162 40.1179C15.878 39.8194 16.0786 39.2459 15.9037 38.7246L15.8531 38.5741C15.595 37.8049 16.2137 37.0245 17.0215 37.1004C17.5618 37.1513 18.0617 36.8052 18.2076 36.2824Z" fill="#46B4F2" stroke="#060606"/>
<path d="M31.6371 19.2526L58.7173 83.7044L67.3335 92.5152L67.311 80.3037L40.2864 15.8299C40.2864 15.8299 38.3044 14.5896 35.2323 15.8053C32.4923 16.8922 31.6371 19.2526 31.6371 19.2526Z" fill="#46B4F2"/>
<path d="M36.2768 19.1147L33.8208 13.5075C34.1221 12.9157 35.1351 11.2573 37.3705 10.4094C39.8985 9.45055 41.6751 10.0441 42.2215 10.2828L44.686 15.925L36.2768 19.1147Z" fill="white" stroke="#060606"/>
<mask id="path-8-inside-1_392_232" fill="white">
<path d="M37.1895 10.043C40.0581 8.96778 42.0551 9.83092 42.4637 10.0381L45.1829 16.1891L36.1404 19.5786L33.4211 13.4446C33.6221 12.9948 34.6361 11.0002 37.1895 10.043ZM37.0817 9.79972C34.0762 10.9263 33.1553 13.4166 33.1553 13.4166L36.032 19.9058L45.5091 16.3534L42.6389 9.86175C42.6389 9.86175 40.4501 8.53711 37.0817 9.79972Z"/>
</mask>
<path d="M37.1895 10.043C40.0581 8.96778 42.0551 9.83092 42.4637 10.0381L45.1829 16.1891L36.1404 19.5786L33.4211 13.4446C33.6221 12.9948 34.6361 11.0002 37.1895 10.043ZM37.0817 9.79972C34.0762 10.9263 33.1553 13.4166 33.1553 13.4166L36.032 19.9058L45.5091 16.3534L42.6389 9.86175C42.6389 9.86175 40.4501 8.53711 37.0817 9.79972Z" fill="#060606"/>
<path d="M42.4637 10.0381L43.3925 9.69102L43.2444 9.35583L42.9079 9.18522L42.4637 10.0381ZM45.1829 16.1891L45.5839 17.0939L46.5114 16.7462L46.1117 15.842L45.1829 16.1891ZM36.1404 19.5786L35.2119 19.9266L35.613 20.8314L36.5414 20.4833L36.1404 19.5786ZM33.4211 13.4446L32.4889 13.033L32.3217 13.407L32.4927 13.7927L33.4211 13.4446ZM33.1553 13.4166L32.2004 13.0603L32.0704 13.4118L32.2268 13.7646L33.1553 13.4166ZM36.032 19.9058L35.1036 20.2538L35.5046 21.1586L36.4331 20.8106L36.032 19.9058ZM45.5091 16.3534L45.9102 17.2581L46.8377 16.9105L46.438 16.0063L45.5091 16.3534ZM42.6389 9.86175L43.5678 9.51462L43.5674 9.51374L42.6389 9.86175ZM37.5906 10.9478C40.1128 10.0023 41.7925 10.7759 42.0195 10.891L42.9079 9.18522C42.3176 8.88594 40.0034 7.93322 36.7885 9.13831L37.5906 10.9478ZM41.5348 10.3852L44.254 16.5362L46.1117 15.842L43.3925 9.69102L41.5348 10.3852ZM44.7818 15.2844L35.7393 18.6739L36.5414 20.4833L45.5839 17.0939L44.7818 15.2844ZM37.0688 19.2306L34.3496 13.0966L32.4927 13.7927L35.2119 19.9266L37.0688 19.2306ZM34.3534 13.8563C34.5119 13.5016 35.3869 11.7738 37.5906 10.9478L36.7885 9.13831C33.8853 10.2265 32.7323 12.4879 32.4889 13.033L34.3534 13.8563ZM36.6806 8.89499C34.9776 9.53335 33.8635 10.5598 33.1774 11.4242C32.8345 11.8562 32.5959 12.2508 32.4409 12.5428C32.3632 12.6891 32.3061 12.8106 32.2669 12.8992C32.2473 12.9435 32.2322 12.9798 32.2212 13.0069C32.2157 13.0205 32.2113 13.0318 32.2078 13.0407C32.2061 13.0452 32.2046 13.0491 32.2034 13.0523C32.2028 13.054 32.2022 13.0554 32.2017 13.0568C32.2015 13.0574 32.2013 13.058 32.201 13.0586C32.2009 13.0589 32.2008 13.0593 32.2007 13.0595C32.2006 13.0599 32.2004 13.0603 33.1553 13.4166C34.1101 13.773 34.11 13.7733 34.1099 13.7737C34.1098 13.7738 34.1097 13.7742 34.1096 13.7744C34.1095 13.7748 34.1093 13.7752 34.1092 13.7756C34.1089 13.7763 34.1087 13.7769 34.1085 13.7773C34.1082 13.7781 34.1081 13.7784 34.1082 13.7781C34.1084 13.7776 34.1095 13.7748 34.1115 13.7698C34.1155 13.7599 34.1231 13.7416 34.1346 13.7156C34.1575 13.6637 34.1958 13.5817 34.2514 13.4769C34.3629 13.2669 34.5424 12.9684 34.8054 12.6371C35.3312 11.9747 36.1803 11.1927 37.4827 10.7045L36.6806 8.89499ZM32.2268 13.7646L35.1036 20.2538L36.9604 19.5578L34.0837 13.0686L32.2268 13.7646ZM36.4331 20.8106L45.9102 17.2581L45.1081 15.4487L35.6309 19.0011L36.4331 20.8106ZM46.438 16.0063L43.5678 9.51462L41.7101 10.2089L44.5803 16.7005L46.438 16.0063ZM42.6389 9.86175C43.1537 9.04806 43.1532 9.04775 43.1527 9.04744C43.1525 9.04733 43.152 9.04702 43.1516 9.0468C43.1509 9.04635 43.1501 9.04589 43.1493 9.04541C43.1477 9.04445 43.146 9.04341 43.1441 9.04229C43.1403 9.04005 43.136 9.0375 43.1311 9.03466C43.1213 9.02897 43.1093 9.02209 43.095 9.01416C43.0666 8.9983 43.0293 8.97818 42.9833 8.95484C42.8915 8.90817 42.7649 8.84843 42.6056 8.78389C42.2871 8.65487 41.8362 8.50597 41.2699 8.4046C40.1289 8.20034 38.5487 8.19476 36.6806 8.89499L37.4827 10.7045C38.983 10.1421 40.1815 10.1675 40.977 10.3099C41.379 10.3819 41.6858 10.4852 41.883 10.5651C41.9815 10.605 42.0523 10.6389 42.0933 10.6598C42.1138 10.6702 42.1268 10.6773 42.132 10.6802C42.1346 10.6817 42.1353 10.6821 42.134 10.6813C42.1334 10.681 42.1322 10.6803 42.1306 10.6793C42.1297 10.6788 42.1288 10.6783 42.1277 10.6776C42.1272 10.6773 42.1266 10.677 42.126 10.6766C42.1257 10.6764 42.1253 10.6761 42.1251 10.676C42.1246 10.6757 42.1241 10.6755 42.6389 9.86175Z" fill="#060606" mask="url(#path-8-inside-1_392_232)"/>
<path d="M46.6783 20.5584L38.1072 23.7809L35.5488 17.992C35.5736 17.9403 35.6051 17.8778 35.6438 17.8061C35.7675 17.5767 35.9637 17.2556 36.2488 16.9002C36.8189 16.1895 37.7399 15.3469 39.1468 14.8166C40.744 14.2161 42.0392 14.2307 42.921 14.3837C43.3639 14.4605 43.7063 14.573 43.9333 14.6635C44.0056 14.6923 44.0661 14.7189 44.1143 14.7413L46.6783 20.5584ZM35.4753 18.1566L35.4756 18.1559L35.4755 18.1562L35.4753 18.1566Z" fill="white" stroke="#060606"/>
<path d="M59.7923 76.5883L36.3455 20.8981C36.4818 20.5709 37.4136 18.5252 39.8872 17.5484C42.6635 16.4522 44.5537 17.3835 44.8347 17.5379L68.2287 73.257L68.2423 85.1998L59.7923 76.5883Z" fill="white" stroke="#060606"/>
<path d="M67.841 85.36L65.2661 82.8506L67.7986 81.8806L67.841 85.36Z" fill="#060606"/>
<path d="M59.6184 76.2632C59.6184 76.2632 62.7468 72.164 67.5784 73.1124" stroke="#060606" stroke-miterlimit="10" stroke-linecap="round" stroke-linejoin="round"/>
<path d="M62.3558 71.6195L41.4199 20.2031" stroke="#060606" stroke-miterlimit="10" stroke-linecap="round"/>
</svg>
