<svg width="81" height="135" viewBox="0 0 81 135" fill="none" xmlns="http://www.w3.org/2000/svg">
<path d="M17.8138 64C32.3791 47.9075 51.7571 12.6812 37.8024 18.4811C22.7055 24.7557 50.8183 49.2868 61.9747 18.4811C73.1311 -12.3246 -11.0068 17.5615 15.0248 36.8726C41.0564 56.1836 56.3963 40.5509 53.1424 18.4811C49.8884 -3.58867 25.7163 -0.370161 17.8138 4.6875C9.91125 9.74515 8.05185 26.2975 26.6459 32.7345" stroke="#46B4F2" stroke-linecap="round"/>
<path fill-rule="evenodd" clip-rule="evenodd" d="M37.2005 39.4334C32.3993 38.1467 27.4645 40.9959 26.1783 45.7971L25.7074 47.5548C24.6082 47.2603 23.4785 47.9126 23.184 49.0118L21.4506 55.4821C21.1562 56.5813 21.8085 57.7111 22.9076 58.0058L22.9074 58.0063C21.8083 57.7119 20.6786 58.3641 20.3842 59.4633L18.7841 65.4359C18.4896 66.5351 19.1419 67.6649 20.241 67.9596L8.30439 112.516C7.01814 117.317 9.86752 122.252 14.6687 123.539L46.542 132.081C51.3431 133.368 56.2779 130.519 57.5641 125.717L70.8342 76.1838C71.9334 76.4783 73.0632 75.826 73.3577 74.7268L75.091 68.2565C75.3855 67.1573 74.7332 66.0274 73.634 65.7328L75.438 58.9987C76.7243 54.1974 73.8749 49.2622 69.0738 47.9755L37.2005 39.4334Z" fill="#46B4F2"/>
<rect x="0.35357" y="0.612401" width="3.12106" height="9.81952" rx="1.56053" transform="matrix(0.965914 0.258864 -0.258774 0.965938 21.1085 41.3805)" fill="white" stroke="#060606"/>
<rect x="0.35357" y="0.612401" width="3.12106" height="9.81952" rx="1.56053" transform="matrix(0.965914 0.258864 -0.258774 0.965938 69.0348 59.5587)" fill="white" stroke="#060606"/>
<rect x="0.35357" y="0.612401" width="3.12106" height="9.3043" rx="1.56053" transform="matrix(0.965914 0.258864 -0.258774 0.965938 18.3087 51.8322)" fill="white" stroke="#060606"/>
<rect x="0.35357" y="0.612401" width="49.9981" height="86.0714" rx="7.5" transform="matrix(0.965914 0.258864 -0.258774 0.965938 25.8986 31.4625)" fill="white" stroke="#060606"/>
<rect x="0.35357" y="0.612401" width="45.877" height="81.9496" rx="5.5" transform="matrix(0.965914 0.258864 -0.258774 0.965938 27.3556 33.987)" fill="white" stroke="#060606"/>
<rect x="0.35357" y="0.612401" width="19.0899" height="2.09075" rx="1.04538" transform="matrix(0.965914 0.258864 -0.258774 0.965938 40.2926 37.4537)" fill="#060606" stroke="#060606"/>
<rect x="0.35357" y="0.612401" width="32.9987" height="10.3347" rx="5.16737" transform="matrix(0.965914 0.258864 -0.258774 0.965938 16.2609 99.2887)" fill="white" stroke="#060606"/>
<ellipse rx="3.60592" ry="3.60651" transform="matrix(0.965914 0.258864 -0.258774 0.965938 41.8149 112.159)" fill="#060606"/>
<path d="M37.463 61.9532C37.2197 61.888 37.0283 61.7783 36.8888 61.6241C36.7494 61.4699 36.6612 61.2855 36.6243 61.0708C36.5893 60.8551 36.6037 60.6221 36.6675 60.3721C36.7385 60.1191 36.8443 59.9091 36.9851 59.742C37.1262 59.5734 37.2953 59.4588 37.4924 59.398C37.6899 59.3357 37.9088 59.3368 38.1491 59.4012C38.3939 59.4668 38.5906 59.5835 38.7392 59.7513C38.8894 59.9196 38.9702 60.1164 38.9818 60.3419L38.6318 60.3585C38.6139 60.1985 38.5535 60.0624 38.4508 59.95C38.35 59.8366 38.2205 59.7587 38.0623 59.7163C37.8847 59.6687 37.7266 59.6704 37.5882 59.7213C37.4502 59.7707 37.3334 59.8602 37.2379 59.9898C37.1424 60.1193 37.0687 60.278 37.0168 60.4657C36.9422 60.7561 36.947 61.0069 37.0312 61.2183C37.1157 61.4281 37.2879 61.5679 37.5476 61.6375C37.7118 61.6815 37.8614 61.6816 37.9963 61.6377C38.1331 61.5928 38.2508 61.5059 38.3493 61.3771L38.6543 61.5645C38.5071 61.7554 38.3318 61.8844 38.1282 61.9515C37.9251 62.017 37.7034 62.0176 37.463 61.9532Z" fill="#060606"/>
<path d="M38.9575 62.2817L39.6054 59.8635L39.9009 59.9427L39.7449 60.5248L39.7071 60.4331C39.7532 60.3687 39.8059 60.3124 39.8651 60.2643C39.9248 60.2147 39.9852 60.1773 40.0464 60.1521C40.1239 60.1136 40.2082 60.0914 40.2994 60.0855C40.391 60.078 40.4799 60.0835 40.5662 60.1018C40.6529 60.1186 40.7289 60.1454 40.7943 60.1821L40.7115 60.4911C40.6294 60.4451 40.5346 60.4141 40.4269 60.398C40.3192 60.382 40.2117 60.398 40.1044 60.446C40.007 60.4871 39.9264 60.5463 39.8625 60.6235C39.799 60.6993 39.7473 60.7847 39.7075 60.8796C39.6681 60.973 39.6356 61.0675 39.61 61.163L39.2866 62.3699L38.9575 62.2817Z" fill="#060606"/>
<path d="M41.5327 63.0439C41.2969 62.9806 41.1064 62.8736 40.9612 62.7227C40.8175 62.5722 40.7233 62.3894 40.6786 62.1742C40.6338 61.959 40.6457 61.7238 40.714 61.4685C40.7848 61.2043 40.893 60.9885 41.0387 60.8212C41.1843 60.6538 41.3562 60.5407 41.5543 60.4818C41.754 60.4233 41.9703 60.4253 42.2031 60.4877C42.442 60.5517 42.6309 60.6615 42.77 60.8172C42.9095 60.9714 42.9951 61.1623 43.0269 61.39C43.0587 61.6177 43.0329 61.8724 42.9494 62.154L42.6136 62.064L42.6448 61.9476C42.7228 61.6325 42.7182 61.3777 42.6312 61.1832C42.5456 60.989 42.3789 60.8588 42.1311 60.7924C41.8714 60.7227 41.6495 60.7537 41.4655 60.8852C41.283 61.017 41.1499 61.239 41.0663 61.5509C40.9848 61.8555 40.99 62.1105 41.0822 62.3159C41.1762 62.5203 41.3501 62.6565 41.6039 62.7245C41.777 62.7709 41.9384 62.7718 42.0879 62.7271C42.2394 62.6813 42.3726 62.593 42.4877 62.4622L42.7626 62.6631C42.6107 62.848 42.4259 62.9736 42.2081 63.0401C41.9922 63.1054 41.7671 63.1067 41.5327 63.0439ZM40.9253 61.6115L40.9991 61.3361L42.8463 61.8312L42.7725 62.1066L40.9253 61.6115Z" fill="#060606"/>
<path d="M43.7771 63.6454C43.595 63.5965 43.4508 63.5227 43.3445 63.4238C43.2397 63.3253 43.1713 63.2134 43.1393 63.088C43.1073 62.9627 43.1085 62.8358 43.1429 62.7074C43.1781 62.5761 43.2342 62.4711 43.3112 62.3926C43.3901 62.3129 43.4831 62.2554 43.5902 62.2201C43.6987 62.1852 43.8177 62.1683 43.947 62.1694C44.0774 62.1723 44.2194 62.1824 44.3732 62.1996C44.5289 62.2157 44.6798 62.2346 44.826 62.2562C44.9741 62.2766 45.1041 62.2931 45.216 62.3055L45.0804 62.3459C45.1488 62.1083 45.1499 61.919 45.0837 61.778C45.0175 61.6371 44.8642 61.5344 44.6239 61.47C44.4582 61.4256 44.3079 61.4253 44.1729 61.4692C44.0395 61.5134 43.928 61.6099 43.8386 61.7587L43.5436 61.5789C43.6568 61.3772 43.813 61.2391 44.0122 61.1645C44.2114 61.0899 44.4445 61.0884 44.7117 61.16C44.9327 61.2192 45.1088 61.3112 45.2401 61.436C45.3734 61.5597 45.4511 61.7085 45.4733 61.8825C45.4844 61.9606 45.4828 62.0442 45.4685 62.1332C45.4543 62.2221 45.4352 62.3114 45.4112 62.401L45.0087 63.9034L44.7154 63.8248L44.8779 63.218L44.9534 63.2766C44.8157 63.4621 44.6457 63.5862 44.4434 63.6487C44.241 63.7113 44.0189 63.7102 43.7771 63.6454ZM43.8914 63.3712C44.0451 63.4124 44.1869 63.4208 44.3166 63.3964C44.4463 63.3719 44.5591 63.3213 44.6548 63.2446C44.751 63.1664 44.8257 63.0696 44.879 62.9543C44.9177 62.8815 44.9502 62.799 44.9765 62.7068C45.0032 62.6132 45.0227 62.5432 45.0351 62.497L45.1431 62.5955C45.0271 62.5804 44.9015 62.5628 44.7661 62.5425C44.6323 62.5226 44.4993 62.5054 44.3672 62.4908C44.2366 62.4766 44.117 62.4693 44.0083 62.469C43.9344 62.47 43.8606 62.4798 43.7868 62.4984C43.7134 62.5155 43.648 62.5476 43.5906 62.5946C43.5347 62.6421 43.4952 62.709 43.472 62.7956C43.4532 62.8658 43.4522 62.9383 43.4689 63.0132C43.4871 63.0885 43.5293 63.1582 43.5953 63.2222C43.6628 63.2867 43.7615 63.3364 43.8914 63.3712Z" fill="#060606"/>
<path d="M46.9081 64.4125C46.7647 64.4044 46.6274 64.3796 46.4961 64.338C46.3663 64.2969 46.256 64.2369 46.1651 64.1581C46.0757 64.0798 46.0186 63.9797 45.9936 63.8578C45.9743 63.7566 45.9746 63.6599 45.9945 63.5677C46.0164 63.4743 46.0431 63.3687 46.0746 63.2507L46.6679 61.0363L46.9948 61.1239L46.4052 63.3249C46.378 63.4264 46.3559 63.5117 46.339 63.5808C46.324 63.6488 46.3237 63.7127 46.338 63.7725C46.365 63.8869 46.4341 63.9694 46.5453 64.02C46.658 64.0711 46.8048 64.1056 46.9855 64.1236L46.9081 64.4125ZM45.8951 61.8515L45.9707 61.5694L47.556 61.9942L47.4804 62.2764L45.8951 61.8515Z" fill="#060606"/>
<path d="M48.2002 61.6749L48.2991 61.3054L48.6283 61.3937L48.5293 61.7631L48.2002 61.6749ZM47.4293 64.5522L48.0772 62.1339L48.4063 62.2221L47.7585 64.6404L47.4293 64.5522Z" fill="#060606"/>
<path d="M50.1762 65.2883L50.5067 64.0546C50.5427 63.9202 50.563 63.7937 50.5676 63.6749C50.5727 63.5547 50.558 63.4451 50.5237 63.3463C50.4912 63.2465 50.4364 63.1614 50.3593 63.0911C50.2836 63.0212 50.1823 62.9693 50.0554 62.9353C49.939 62.9041 49.8306 62.8966 49.7303 62.9129C49.6314 62.9296 49.5412 62.9678 49.4596 63.0276C49.3799 63.0862 49.3099 63.1651 49.2498 63.2641C49.1897 63.3632 49.1412 63.4814 49.1044 63.6187L48.8853 63.5048C48.9517 63.257 49.0508 63.0604 49.1826 62.9149C49.3143 62.7694 49.4679 62.6738 49.6434 62.6281C49.8188 62.5823 50.0051 62.5858 50.2021 62.6386C50.3469 62.6774 50.467 62.7336 50.5625 62.8072C50.6595 62.8812 50.7351 62.9662 50.7893 63.0624C50.8451 63.1589 50.8829 63.2626 50.9028 63.3735C50.923 63.483 50.9288 63.5957 50.9201 63.7118C50.9118 63.8263 50.8931 63.9381 50.8639 64.0471L50.5076 65.3771L50.1762 65.2883ZM48.4275 64.8197L49.0753 62.4014L49.3731 62.4812L49.2136 63.0768L49.2472 63.0858L48.7589 64.9085L48.4275 64.8197Z" fill="#060606"/>
<path d="M50.5333 37.502C50.5333 31.5742 55.3388 26.7687 61.2667 26.7687C67.1945 26.7687 72 31.5742 72 37.502C72 43.4299 67.1945 48.2354 61.2667 48.2354C55.3388 48.2354 50.5333 43.4299 50.5333 37.502Z" fill="#46B4F2"/>
<path d="M50.5333 37.502C50.5333 31.5742 55.3388 26.7687 61.2667 26.7687C67.1945 26.7687 72 31.5742 72 37.502C72 43.4299 67.1945 48.2354 61.2667 48.2354C55.3388 48.2354 50.5333 43.4299 50.5333 37.502Z" stroke="#46B4F2"/>
<path d="M59.1696 25.5001C53.2866 25.5001 48.4999 30.1751 48.4999 35.9634C48.4999 41.7518 53.2866 46.4268 59.1696 46.4268C65.0527 46.4268 69.8394 41.7518 69.8394 35.9634C69.8394 30.1751 65.0527 25.5001 59.1696 25.5001Z" fill="white" stroke="#060606"/>
<g clip-path="url(#clip0_392_233)">
<path fill-rule="evenodd" clip-rule="evenodd" d="M65.8433 35.7797C65.8433 39.5594 62.7326 42.6235 58.8953 42.6235C55.0581 42.6235 51.9474 39.5594 51.9474 35.7797C51.9474 31.9999 55.0581 28.9358 58.8953 28.9358C62.7326 28.9358 65.8433 31.9999 65.8433 35.7797ZM58.8953 41.6686C62.1971 41.6686 64.8738 39.032 64.8738 35.7797C64.8738 32.5273 62.1971 29.8908 58.8953 29.8908C55.5935 29.8908 52.9169 32.5273 52.9169 35.7797C52.9169 39.032 55.5935 41.6686 58.8953 41.6686Z" fill="#060606"/>
<path fill-rule="evenodd" clip-rule="evenodd" d="M65.8433 35.7798C65.8433 36.0435 65.6262 36.2573 65.3585 36.2573L52.4322 36.2573C52.1645 36.2573 51.9474 36.0435 51.9474 35.7798C51.9474 35.5161 52.1645 35.3024 52.4322 35.3024L65.3585 35.3024C65.6262 35.3024 65.8433 35.5161 65.8433 35.7798Z" fill="#060606"/>
<path fill-rule="evenodd" clip-rule="evenodd" d="M60.2538 41.9738C59.8874 42.3555 59.4285 42.6235 58.8953 42.6235C58.3621 42.6235 57.9032 42.3555 57.5368 41.9738C57.1714 41.5932 56.8646 41.0681 56.6172 40.4587C56.1212 39.2374 55.8253 37.5829 55.8253 35.7797C55.8253 33.9764 56.1212 32.3219 56.6172 31.1006C56.8646 30.4913 57.1714 29.9661 57.5368 29.5855C57.9032 29.2039 58.3621 28.9358 58.8953 28.9358C59.4285 28.9358 59.8874 29.2039 60.2538 29.5855C60.6193 29.9661 60.926 30.4913 61.1735 31.1006C61.6694 32.3219 61.9653 33.9764 61.9653 35.7797C61.9653 37.5829 61.6694 39.2374 61.1735 40.4587C60.926 41.0681 60.6193 41.5932 60.2538 41.9738ZM60.2733 40.1041C60.713 39.0212 60.9959 37.4925 60.9959 35.7797C60.9959 34.0668 60.713 32.5381 60.2733 31.4553C60.0529 30.9125 59.8026 30.5053 59.5494 30.2417C59.2972 29.979 59.076 29.8908 58.8953 29.8908C58.7146 29.8908 58.4934 29.979 58.2412 30.2417C57.988 30.5053 57.7377 30.9125 57.5173 31.4553C57.0776 32.5381 56.7948 34.0668 56.7948 35.7797C56.7948 37.4925 57.0776 39.0212 57.5173 40.1041C57.7377 40.6468 57.988 41.054 58.2412 41.3177C58.4934 41.5804 58.7146 41.6686 58.8953 41.6686C59.076 41.6686 59.2972 41.5804 59.5494 41.3177C59.8026 41.054 60.0529 40.6468 60.2733 40.1041Z" fill="#060606"/>
<path fill-rule="evenodd" clip-rule="evenodd" d="M63.8082 40.5286C63.6189 40.7151 63.312 40.7151 63.1227 40.5286C62.0403 39.4624 60.5463 38.8038 58.8953 38.8038C57.2443 38.8038 55.7503 39.4624 54.6679 40.5286C54.4786 40.7151 54.1717 40.7151 53.9824 40.5286C53.7931 40.3421 53.7931 40.0398 53.9824 39.8533C55.2392 38.6154 56.9768 37.8488 58.8953 37.8488C60.8138 37.8488 62.5514 38.6154 63.8082 39.8533C63.9975 40.0398 63.9975 40.3421 63.8082 40.5286Z" fill="#060606"/>
<path fill-rule="evenodd" clip-rule="evenodd" d="M63.8082 31.7059C62.5514 32.9439 60.8138 33.7104 58.8953 33.7104C56.9768 33.7104 55.2392 32.9439 53.9824 31.7059C53.7931 31.5194 53.7931 31.2171 53.9824 31.0307C54.1717 30.8442 54.4786 30.8442 54.6679 31.0307C55.7503 32.0969 57.2443 32.7555 58.8953 32.7555C60.5463 32.7555 62.0403 32.0969 63.1227 31.0307C63.312 30.8442 63.6189 30.8442 63.8082 31.0307C63.9975 31.2171 63.9975 31.5194 63.8082 31.7059Z" fill="#060606"/>
</g>
<defs>
<clipPath id="clip0_392_233">
<rect width="15.5116" height="15.2793" fill="white" transform="translate(66.6514 43.4194) rotate(-180)"/>
</clipPath>
</defs>
</svg>
