<svg width="618" height="147" viewBox="0 0 618 147" fill="none" xmlns="http://www.w3.org/2000/svg">
<path d="M580.325 0.0541779C579.802 -0.125141 579.234 0.152952 579.054 0.675315C578.875 1.19768 579.153 1.7665 579.675 1.94582L580.325 0.0541779ZM453 123L453.105 123.994L453 123ZM1 96V95C0.510074 95 0.0922925 95.3549 0.0131379 95.8384C-0.0660168 96.3219 0.216767 96.7916 0.681116 96.9478L1 96ZM9.05826 110.336C9.24401 110.856 9.81623 111.127 10.3363 110.942C10.8564 110.756 11.1275 110.184 10.9417 109.664L9.05826 110.336ZM579.675 1.94582C596.268 7.64165 607.689 16.8145 612.833 27.5266C617.951 38.1858 616.943 50.5533 608.305 62.9276C599.642 75.3379 583.302 87.7408 557.822 98.2316C532.356 108.717 497.829 117.262 452.895 122.006L453.105 123.994C498.171 119.238 532.894 110.658 558.584 100.081C584.26 89.5092 600.983 76.9121 609.945 64.0724C618.932 51.1967 620.111 38.0642 614.636 26.6609C609.186 15.3105 597.232 5.85835 580.325 0.0541779L579.675 1.94582ZM452.895 122.006C211.146 147.523 36.8463 107.005 1.31888 95.0522L0.681116 96.9478C36.487 108.995 211.076 149.542 453.105 123.994L452.895 122.006ZM1 97C0.99871 97 1.06861 97.0017 1.22006 97.0649C1.36719 97.1264 1.56612 97.2356 1.81305 97.4176C2.30823 97.7824 2.95029 98.4057 3.70152 99.402C5.20378 101.394 7.07883 104.794 9.05826 110.336L10.9417 109.664C8.92117 104.006 6.96289 100.406 5.29848 98.198C4.46638 97.0943 3.69178 96.3176 2.99945 95.8074C2.33253 95.316 1.64333 95 1 95V97Z" fill="#46B4F2"/>
<path d="M366.831 100.295L367.966 98.2246L369.102 100.295C373.661 108.604 380.517 115.437 388.855 119.981L390.932 121.112L388.855 122.244C380.517 126.787 373.661 133.62 369.102 141.93L367.966 144L366.831 141.93C362.272 133.62 355.415 126.787 347.077 122.244L345 121.112L347.077 119.981C355.412 115.437 362.269 108.604 366.831 100.295Z" fill="#46B4F2"/>
<path d="M382.593 89.8333L383.05 89L383.508 89.8333C385.345 93.1811 388.108 95.9353 391.47 97.7685L392.307 98.2246L391.47 98.6807C388.111 100.511 385.347 103.265 383.508 106.616L383.05 107.449L382.593 106.616C380.756 103.268 377.992 100.514 374.63 98.6807L373.794 98.2246L374.63 97.7685C377.992 95.9382 380.756 93.184 382.593 89.8333Z" fill="#46B4F2"/>
<path d="M357.831 100.294L358.966 98.2244L360.102 100.294C364.661 108.604 371.517 115.437 379.855 119.98L381.932 121.112L379.855 122.243C371.517 126.787 364.661 133.62 360.102 141.93L358.966 144L357.831 141.93C353.272 133.62 346.415 126.787 338.077 122.243L336 121.112L338.077 119.98C346.415 115.437 353.272 108.604 357.831 100.294Z" fill="white" stroke="#060606" stroke-width="2" stroke-miterlimit="10"/>
<path d="M375.889 89.8333L376.347 89L376.804 89.8333C378.641 93.1811 381.405 95.9353 384.767 97.7685L385.603 98.2246L384.767 98.6807C381.408 100.511 378.644 103.265 376.804 106.616L376.347 107.449L375.889 106.616C374.052 103.268 371.289 100.514 367.926 98.6807L367.09 98.2246L367.926 97.7685C371.286 95.9382 374.049 93.184 375.889 89.8333Z" fill="white" stroke="#060606" stroke-width="2" stroke-miterlimit="10"/>
</svg>
