<svg width="184" height="75" viewBox="0 0 184 75" fill="none" xmlns="http://www.w3.org/2000/svg">
<path d="M172.328 1C196.304 16.2784 180.952 71.4397 115.385 65.5638C49.8179 59.6879 12.0934 46.3718 1 37.2315M1 37.2315C2.65573 38.5373 5.9672 42.5198 5.9672 48.004M1 37.2315C1.99344 37.8844 5.56983 39.386 11.9278 40.1695" stroke="#46B4F2"/>
<path d="M147.332 51.5443L147.896 50.5281L148.461 51.5443C150.728 55.6235 154.138 58.9779 158.284 61.2084L159.317 61.7638L158.284 62.3193C154.138 64.5498 150.728 67.9042 148.461 71.9834L147.896 72.9996L147.332 71.9834C145.064 67.9042 141.655 64.5498 137.509 62.3193L136.476 61.7638L137.509 61.2084C141.653 58.9779 145.063 55.6235 147.332 51.5443Z" fill="#46B4F2"/>
<path d="M155.17 46.4091L155.397 46L155.625 46.4091C156.538 48.0525 157.912 49.4046 159.584 50.3046L160 50.5285L159.584 50.7524C157.914 51.6509 156.539 53.003 155.625 54.6479L155.397 55.0569L155.17 54.6479C154.256 53.0044 152.882 51.6523 151.21 50.7524L150.794 50.5285L151.21 50.3046C152.882 49.406 154.256 48.054 155.17 46.4091Z" fill="#46B4F2"/>
<path d="M142.856 51.5443L143.421 50.5281L143.985 51.5443C146.252 55.6235 149.662 58.9779 153.808 61.2084L154.841 61.7638L153.808 62.3193C149.662 64.5498 146.252 67.9042 143.985 71.9834L143.421 72.9996L142.856 71.9834C140.589 67.9042 137.179 64.5498 133.033 62.3193L132 61.7638L133.033 61.2084C137.179 58.9779 140.589 55.6235 142.856 51.5443Z" fill="white" stroke="#060606" stroke-miterlimit="10"/>
<path d="M151.836 46.4091L152.063 46L152.291 46.4091C153.204 48.0525 154.579 49.4046 156.251 50.3046L156.666 50.5285L156.251 50.7524C154.58 51.6509 153.206 53.003 152.291 54.6479L152.063 55.0569L151.836 54.6479C150.923 53.0044 149.548 51.6523 147.876 50.7524L147.46 50.5285L147.876 50.3046C149.547 49.406 150.921 48.054 151.836 46.4091Z" fill="white" stroke="#060606" stroke-miterlimit="10"/>
</svg>
