<svg width="24" height="22" viewBox="0 0 24 22" fill="none" xmlns="http://www.w3.org/2000/svg">
<path d="M10.2889 21.4999C15.6754 21.4999 20.0778 17.306 20.0778 12.0892C20.0778 6.8724 15.6754 2.67847 10.2889 2.67847C4.90244 2.67847 0.5 6.8724 0.5 12.0892C0.5 17.306 4.90244 21.4999 10.2889 21.4999Z" fill="#46B4F2" stroke="#46B4F2"/>
<path d="M13.7047 19.2373C19.092 19.2373 23.4999 15.0647 23.4999 9.86863C23.4999 4.6726 19.092 0.5 13.7047 0.5C8.3173 0.5 3.90942 4.6726 3.90942 9.86863C3.90942 15.0647 8.3173 19.2373 13.7047 19.2373Z" fill="white" stroke="#060606"/>
<path fill-rule="evenodd" clip-rule="evenodd" d="M7.11633 9.51013C7.11633 6.14566 9.95954 3.41821 13.4668 3.41821C16.9741 3.41821 19.8173 6.14566 19.8173 9.51013C19.8173 12.8746 16.9741 15.6021 13.4668 15.6021C9.95954 15.6021 7.11633 12.8746 7.11633 9.51013ZM13.4668 4.26825C10.4489 4.26825 8.00245 6.61512 8.00245 9.51013C8.00245 12.4051 10.4489 14.752 13.4668 14.752C16.4847 14.752 18.9312 12.4051 18.9312 9.51013C18.9312 6.61512 16.4847 4.26825 13.4668 4.26825Z" fill="#060606"/>
<path fill-rule="evenodd" clip-rule="evenodd" d="M7.11633 9.51022C7.11633 9.27549 7.3147 9.08521 7.55939 9.08521H19.3742C19.6189 9.08521 19.8173 9.27549 19.8173 9.51022C19.8173 9.74495 19.6189 9.93524 19.3742 9.93524H7.55939C7.3147 9.93524 7.11633 9.74495 7.11633 9.51022Z" fill="#060606"/>
<path fill-rule="evenodd" clip-rule="evenodd" d="M12.2251 3.99653C12.56 3.65682 12.9795 3.41821 13.4668 3.41821C13.9541 3.41821 14.3736 3.65682 14.7085 3.99653C15.0425 4.33534 15.3229 4.80279 15.549 5.34518C16.0023 6.43231 16.2728 7.90503 16.2728 9.51013C16.2728 11.1152 16.0023 12.5879 15.549 13.6751C15.3229 14.2175 15.0425 14.6849 14.7085 15.0237C14.3736 15.3634 13.9541 15.6021 13.4668 15.6021C12.9795 15.6021 12.56 15.3634 12.2251 15.0237C11.8911 14.6849 11.6107 14.2175 11.3846 13.6751C10.9312 12.5879 10.6608 11.1152 10.6608 9.51013C10.6608 7.90503 10.9312 6.43231 11.3846 5.34518C11.6107 4.80279 11.8911 4.33534 12.2251 3.99653ZM12.2073 5.66087C11.8054 6.62475 11.5469 7.98549 11.5469 9.51013C11.5469 11.0348 11.8054 12.3955 12.2073 13.3594C12.4087 13.8425 12.6375 14.205 12.8689 14.4397C13.0994 14.6735 13.3016 14.752 13.4668 14.752C13.632 14.752 13.8342 14.6735 14.0647 14.4397C14.2961 14.205 14.5249 13.8425 14.7263 13.3594C15.1282 12.3955 15.3867 11.0348 15.3867 9.51013C15.3867 7.98549 15.1282 6.62475 14.7263 5.66087C14.5249 5.17776 14.2961 4.81531 14.0647 4.5806C13.8342 4.34678 13.632 4.26825 13.4668 4.26825C13.3016 4.26825 13.0994 4.34678 12.8689 4.5806C12.6375 4.81531 12.4087 5.17776 12.2073 5.66087Z" fill="#060606"/>
<path fill-rule="evenodd" clip-rule="evenodd" d="M8.97633 5.28318C9.14935 5.1172 9.42988 5.1172 9.6029 5.28318C10.5922 6.23224 11.9577 6.8185 13.4668 6.8185C14.9759 6.8185 16.3414 6.23224 17.3307 5.28318C17.5037 5.1172 17.7843 5.1172 17.9573 5.28318C18.1303 5.44916 18.1303 5.71826 17.9573 5.88424C16.8085 6.9862 15.2203 7.66853 13.4668 7.66853C11.7133 7.66853 10.1251 6.9862 8.97633 5.88424C8.8033 5.71826 8.8033 5.44916 8.97633 5.28318Z" fill="#060606"/>
<path fill-rule="evenodd" clip-rule="evenodd" d="M8.97633 13.1363C10.1251 12.0344 11.7133 11.3521 13.4668 11.3521C15.2203 11.3521 16.8085 12.0344 17.9573 13.1363C18.1303 13.3023 18.1303 13.5714 17.9573 13.7374C17.7843 13.9034 17.5037 13.9034 17.3307 13.7374C16.3414 12.7883 14.9759 12.2021 13.4668 12.2021C11.9577 12.2021 10.5922 12.7883 9.6029 13.7374C9.42988 13.9034 9.14935 13.9034 8.97633 13.7374C8.8033 13.5714 8.8033 13.3023 8.97633 13.1363Z" fill="#060606"/>
</svg>
