<svg width="51" height="48" viewBox="0 0 51 48" fill="none" xmlns="http://www.w3.org/2000/svg">
<path d="M22 46.4999C33.3002 46.4999 42.5 37.4722 42.5 26.2879C42.5 15.1036 33.3002 6.07593 22 6.07593C10.6998 6.07593 1.5 15.1036 1.5 26.2879C1.5 37.4722 10.6998 46.4999 22 46.4999Z" fill="#46B4F2" stroke="#46B4F2" stroke-width="3"/>
<path d="M28.9873 41.7472C40.2869 41.7472 49.5002 32.7667 49.5002 21.6236C49.5002 10.4805 40.2869 1.5 28.9873 1.5C17.6877 1.5 8.47437 10.4805 8.47437 21.6236C8.47437 32.7667 17.6877 41.7472 28.9873 41.7472Z" fill="white" stroke="#060606" stroke-width="3"/>
<path fill-rule="evenodd" clip-rule="evenodd" d="M15.5105 20.8715C15.5105 13.8063 21.3261 8.07886 28.5001 8.07886C35.674 8.07886 41.4897 13.8063 41.4897 20.8715C41.4897 27.9367 35.674 33.6642 28.5001 33.6642C21.3261 33.6642 15.5105 27.9367 15.5105 20.8715ZM28.5001 9.86388C22.3271 9.86388 17.323 14.7922 17.323 20.8715C17.323 26.9509 22.3271 31.8792 28.5001 31.8792C34.673 31.8792 39.6772 26.9509 39.6772 20.8715C39.6772 14.7922 34.673 9.86388 28.5001 9.86388Z" fill="#060606"/>
<path fill-rule="evenodd" clip-rule="evenodd" d="M15.5105 20.8715C15.5105 20.3786 15.9162 19.979 16.4167 19.979H40.5834C41.0839 19.979 41.4897 20.3786 41.4897 20.8715C41.4897 21.3644 41.0839 21.764 40.5834 21.764H16.4167C15.9162 21.764 15.5105 21.3644 15.5105 20.8715Z" fill="#060606"/>
<path fill-rule="evenodd" clip-rule="evenodd" d="M25.9603 9.29329C26.6453 8.57993 27.5033 8.07886 28.5001 8.07886C29.4969 8.07886 30.3549 8.57993 31.0399 9.29329C31.7231 10.0048 32.2966 10.9864 32.7592 12.1254C33.6864 14.4083 34.2397 17.5009 34.2397 20.8715C34.2397 24.2421 33.6864 27.3348 32.7592 29.6177C32.2966 30.7567 31.7231 31.7383 31.0399 32.4498C30.3549 33.1631 29.4969 33.6642 28.5001 33.6642C27.5033 33.6642 26.6453 33.1631 25.9603 32.4498C25.2771 31.7383 24.7036 30.7567 24.241 29.6177C23.3137 27.3348 22.7605 24.2421 22.7605 20.8715C22.7605 17.5009 23.3137 14.4083 24.241 12.1254C24.7036 10.9864 25.2771 10.0048 25.9603 9.29329ZM25.9238 12.7883C25.1017 14.8124 24.573 17.6699 24.573 20.8715C24.573 24.0732 25.1017 26.9307 25.9238 28.9547C26.3359 29.9693 26.8039 30.7304 27.2772 31.2233C27.7487 31.7143 28.1622 31.8792 28.5001 31.8792C28.8379 31.8792 29.2515 31.7143 29.723 31.2233C30.1963 30.7304 30.6643 29.9693 31.0763 28.9547C31.8984 26.9307 32.4272 24.0732 32.4272 20.8715C32.4272 17.6699 31.8984 14.8124 31.0763 12.7883C30.6643 11.7738 30.1963 11.0127 29.723 10.5198C29.2515 10.0288 28.8379 9.86388 28.5001 9.86388C28.1622 9.86388 27.7487 10.0288 27.2772 10.5198C26.8039 11.0127 26.3359 11.7738 25.9238 12.7883Z" fill="#060606"/>
<path fill-rule="evenodd" clip-rule="evenodd" d="M19.315 11.9948C19.6689 11.6463 20.2427 11.6463 20.5966 11.9948C22.6203 13.9878 25.4133 15.2189 28.5 15.2189C31.5867 15.2189 34.3798 13.9878 36.4034 11.9948C36.7573 11.6463 37.3311 11.6463 37.6851 11.9948C38.039 12.3434 38.039 12.9085 37.6851 13.257C35.3354 15.5711 32.0867 17.0039 28.5 17.0039C24.9133 17.0039 21.6647 15.5711 19.315 13.257C18.9611 12.9085 18.9611 12.3434 19.315 11.9948Z" fill="#060606"/>
<path fill-rule="evenodd" clip-rule="evenodd" d="M19.315 28.4859C21.6647 26.1719 24.9133 24.739 28.5 24.739C32.0867 24.739 35.3354 26.1719 37.6851 28.4859C38.039 28.8345 38.039 29.3996 37.6851 29.7481C37.3311 30.0967 36.7573 30.0967 36.4034 29.7481C34.3798 27.7551 31.5867 26.524 28.5 26.524C25.4133 26.524 22.6203 27.7551 20.5966 29.7481C20.2427 30.0967 19.6689 30.0967 19.315 29.7481C18.9611 29.3996 18.9611 28.8345 19.315 28.4859Z" fill="#060606"/>
</svg>
