<svg width="128" height="25" viewBox="0 0 128 25" fill="none" xmlns="http://www.w3.org/2000/svg">
<path d="M6.49528 16.7377C6.53594 17.7303 6.86121 18.5284 7.4711 19.1317C8.10131 19.7351 9.02631 20.0368 10.2461 20.0368C10.917 20.0368 11.5167 19.92 12.0452 19.6865C12.5738 19.4334 13.0617 19.0636 13.509 18.577C15.237 19.2193 17.2598 19.7741 19.5773 20.2412C18.9065 21.7399 17.768 22.9077 16.162 23.7447C14.5763 24.5816 12.5128 25.0001 9.97163 25.0001C6.5766 25.0001 4.0659 24.241 2.43954 22.7228C0.813181 21.2046 0 19.2096 0 16.7377C0 14.2658 0.813181 12.2707 2.43954 10.7525C4.0659 9.23434 6.5766 8.47525 9.97163 8.47525C12.5128 8.47525 14.5763 8.89372 16.162 9.73067C17.768 10.5676 18.9065 11.7355 19.5773 13.2342C17.768 13.604 15.7452 14.1587 13.509 14.8983C13.0617 14.4117 12.5738 14.0517 12.0452 13.8181C11.5167 13.5651 10.917 13.4385 10.2461 13.4385C9.02631 13.4385 8.10131 13.7402 7.4711 14.3436C6.86121 14.947 6.53594 15.745 6.49528 16.7377Z" fill="white"/>
<path d="M28.94 13.0882C29.7939 10.1491 31.9183 8.67962 35.3133 8.67962C35.9029 8.67962 36.4721 8.71855 37.021 8.79641L36.0452 15.3363C34.5815 14.8108 33.382 14.548 32.4469 14.548C31.2881 14.548 30.4342 14.8789 29.8853 15.5406C29.3364 16.2024 29.062 17.088 29.062 18.1975V18.1683L29.0315 20.0952C29.0315 21.4771 29.0722 23.0148 29.1535 24.7082H21.8653C22.028 21.9053 22.1093 19.2583 22.1093 16.7669C22.1093 14.2755 22.028 11.6089 21.8653 8.76721C23.2071 8.8256 24.2337 8.8548 24.9453 8.8548C25.6975 8.8548 26.7241 8.8256 28.0252 8.76721L28.94 13.0882Z" fill="white"/>
<path d="M54.6734 17.4092H44.7322C44.8949 18.2656 45.2913 18.9663 45.9215 19.5113C46.5721 20.0368 47.4869 20.2996 48.666 20.2996C49.5198 20.2996 50.3229 20.1439 51.0751 19.8324C51.8272 19.5016 52.427 19.0442 52.8742 18.4602C54.2363 19.1025 56.0456 19.7935 58.3022 20.5331C57.672 21.8956 56.5234 22.9856 54.8563 23.8031C53.2097 24.6011 51.0547 25.0001 48.3916 25.0001C44.9355 25.0001 42.374 24.241 40.707 22.7228C39.0603 21.1852 38.237 19.1707 38.237 16.6793C38.237 14.2463 39.0603 12.2707 40.707 10.7525C42.3537 9.23434 44.9152 8.47525 48.3916 8.47525C50.4652 8.47525 52.2643 8.80614 53.789 9.46791C55.3138 10.1297 56.4827 11.0542 57.2959 12.2415C58.1091 13.4094 58.5157 14.7524 58.5157 16.2705C58.5157 16.7766 58.4953 17.1562 58.4547 17.4092H54.6734ZM48.8185 12.8838C47.802 12.8838 46.9685 13.0687 46.3179 13.4385C45.6674 13.8084 45.21 14.3144 44.9457 14.9567H52.1424C51.8984 14.3339 51.502 13.8376 50.9531 13.4677C50.4042 13.0785 49.6926 12.8838 48.8185 12.8838Z" fill="white"/>
<path d="M80.1852 19.8616C80.1852 20.5234 80.2665 20.9905 80.4291 21.263C80.5918 21.5355 80.917 21.7302 81.4049 21.847L81.283 24.5914C80.6324 24.6887 80.0632 24.7568 79.5753 24.7957C79.1077 24.8347 78.4775 24.8541 77.6846 24.8541C75.9363 24.8541 74.7775 24.4843 74.2083 23.7447C73.6391 22.9856 73.3545 22.0221 73.3545 20.8543V20.1244C72.7649 21.7204 71.9009 22.9077 70.7624 23.6863C69.6443 24.4649 68.2111 24.8541 66.4628 24.8541C64.4298 24.8541 62.8949 24.4649 61.8581 23.6863C60.8416 22.9077 60.3334 21.7496 60.3334 20.212C60.3334 18.9468 60.7705 17.9542 61.6447 17.234C62.5188 16.5138 63.8707 16.0175 65.7004 15.745C64.1554 14.694 62.6103 13.7792 61.0653 13.0006C62.285 11.5214 63.6776 10.4022 65.243 9.64308C66.8084 8.86453 68.7092 8.47525 70.9454 8.47525C74.0762 8.47525 76.3937 9.12729 77.8981 10.4314C79.4228 11.716 80.1852 13.7013 80.1852 16.3873V19.8616ZM71.5858 13.6137C70.549 13.6137 69.6342 13.7792 68.8413 14.1101C68.0485 14.4409 67.3369 14.9373 66.7067 15.599C67.9265 15.4628 69.4512 15.3947 71.2808 15.3947C72.033 15.3947 72.5616 15.3071 72.8666 15.1319C73.1715 14.9567 73.324 14.7329 73.324 14.4604C73.324 14.2268 73.1715 14.0322 72.8666 13.8765C72.5616 13.7013 72.1347 13.6137 71.5858 13.6137ZM68.3839 20.0952C69.5223 20.0952 70.549 19.8908 71.4638 19.4821C72.3786 19.0539 73.0089 18.4992 73.3545 17.8179V17.0588C72.8666 17.2924 72.3278 17.4773 71.7383 17.6136C71.1487 17.7303 70.4372 17.8471 69.6037 17.9639L68.5059 18.1391C67.3674 18.3532 66.7982 18.723 66.7982 19.2485C66.7982 19.813 67.3268 20.0952 68.3839 20.0952Z" fill="white"/>
<path d="M97.0549 13.9933C95.1846 13.8765 93.477 13.7889 91.9319 13.7305L91.9014 16.8253C91.9014 17.8763 92.1352 18.7035 92.6028 19.3069C93.0907 19.8908 93.9445 20.1828 95.1643 20.1828C95.6319 20.1828 96.0791 20.1439 96.506 20.066C96.4247 20.7862 96.3841 21.5161 96.3841 22.2557C96.3841 22.606 96.4044 23.4041 96.4451 24.6498C95.5506 24.8055 94.7984 24.9028 94.1885 24.9417C93.5786 24.9806 92.7857 25.0001 91.8099 25.0001C89.4314 25.0001 87.744 24.4551 86.7479 23.3651C85.7721 22.2557 85.2842 20.718 85.2842 18.7522L85.3146 13.8181C84.3592 13.857 83.363 13.9154 82.3262 13.9933V8.8256C83.3833 8.8256 84.2778 8.50445 85.0097 7.86214C85.7416 7.21983 86.1787 6.451 86.321 5.55566H94.6154C93.5786 6.91814 92.43 8.00812 91.1696 8.8256H97.0549V13.9933Z" fill="white"/>
<path d="M102.918 6.77711C101.647 6.77711 100.699 6.46586 100.073 5.84337C99.4677 5.22088 99.165 4.40763 99.165 3.40362C99.165 2.41968 99.4677 1.60643 100.073 0.963855C100.699 0.321285 101.647 0 102.918 0C104.129 0 105.057 0.331325 105.703 0.993976C106.349 1.63655 106.672 2.43976 106.672 3.40362C106.672 4.40763 106.359 5.22088 105.733 5.84337C105.108 6.46586 104.169 6.77711 102.918 6.77711ZM99.4072 25C99.5484 21.7671 99.6191 19.0964 99.6191 16.988C99.6191 14.4779 99.5383 11.6667 99.3769 8.55422H106.641C106.48 11.5462 106.399 14.3574 106.399 16.988C106.399 19.1968 106.47 21.8675 106.611 25H99.4072Z" fill="white"/>
<path d="M121.19 25C121.311 22.0482 121.371 19.3273 121.371 16.8373C121.371 15.9538 121.15 15.251 120.706 14.7289C120.282 14.2068 119.737 13.9458 119.071 13.9458C118.405 13.9458 117.84 14.247 117.376 14.8494C116.912 15.4317 116.64 16.2349 116.559 17.259C116.518 18.7851 116.498 19.8695 116.498 20.512C116.498 21.8775 116.539 23.3735 116.619 25H109.385C109.547 22.1084 109.627 19.3775 109.627 16.8072C109.627 14.2369 109.547 11.4859 109.385 8.55422C110.717 8.61446 111.736 8.64458 112.442 8.64458C113.189 8.64458 114.208 8.61446 115.499 8.55422L116.377 12.9819C116.841 11.3755 117.568 10.1908 118.557 9.42771C119.545 8.64458 120.695 8.25301 122.007 8.25301C123.218 8.25301 124.267 8.5241 125.155 9.06626C126.043 9.58835 126.709 10.3012 127.153 11.2048C127.617 12.1084 127.849 13.1225 127.849 14.247V18.5843C127.849 21.255 127.899 23.3936 128 25H121.19Z" fill="white"/>
</svg>
