<svg width="100" height="95" viewBox="0 0 100 95" fill="none" xmlns="http://www.w3.org/2000/svg">
<path d="M3.78318 91C21.7604 68.7883 31.0668 38.5614 13.1263 43.7914C1.85071 47.0784 36.3646 58.4432 54.1583 46.2892C67.8181 36.9588 45.5311 -22.9517 12.4599 11.6688C-20.6113 46.2892 26.1197 69.1238 49.1258 66.1774C72.1318 63.231 81.4688 42.6061 69.256 41.1329C57.0432 39.6597 -70.175 52.5623 60.6288 83.1193C99.9287 92.3002 109.772 75.8429 86.766 54.9725" stroke="#46B4F2" stroke-linecap="round"/>
<rect width="51.7049" height="34.4991" rx="6" transform="matrix(0.959814 -0.280637 0.280541 0.959842 1.13818 36.1841)" fill="#46B4F2"/>
<rect x="0.620178" y="0.339602" width="50.7049" height="33.4991" rx="5.5" transform="matrix(0.959814 -0.280637 0.280541 0.959842 2.59591 31.6982)" fill="white" stroke="#060606"/>
<path d="M9.0614 35.2891L32.8306 42.9734L48.7188 23.6937" stroke="#060606" stroke-linecap="round"/>
<path d="M18.2076 36.2826C18.4328 35.4751 19.4329 35.1827 20.0575 35.7417C20.4619 36.1036 21.0696 36.1259 21.4974 35.792C22.1371 35.2928 23.0787 35.617 23.2754 36.4042L23.3139 36.5582C23.4472 37.0916 23.9251 37.4668 24.4749 37.4695C25.3101 37.4736 25.8869 38.3067 25.597 39.09L25.5654 39.1755C25.3714 39.6994 25.5436 40.2886 25.9892 40.6256L26.0619 40.6805C26.728 41.1843 26.6906 42.197 25.9892 42.6504C25.5274 42.9489 25.3268 43.5224 25.5017 44.0436L25.5523 44.1942C25.8104 44.9633 25.1917 45.7438 24.3839 45.6678C23.8436 45.617 23.3437 45.9631 23.1978 46.4859C22.9726 47.2934 21.9725 47.5858 21.3479 47.0268C20.9435 46.6649 20.3358 46.6426 19.908 46.9765C19.2683 47.4757 18.3267 47.1515 18.13 46.3643L18.0915 46.2103C17.9582 45.6769 17.4803 45.3017 16.9305 45.299C16.0953 45.2949 15.5185 44.4618 15.8084 43.6785L15.84 43.593C16.034 43.0691 15.8618 42.4799 15.4162 42.1429L15.3435 42.088C14.6774 41.5842 14.7148 40.5715 15.4162 40.1181C15.878 39.8196 16.0786 39.2461 15.9037 38.7249L15.8531 38.5743C15.595 37.8051 16.2137 37.0247 17.0215 37.1007C17.5618 37.1515 18.0617 36.8054 18.2076 36.2826Z" fill="#46B4F2" stroke="#060606"/>
<path d="M31.6374 19.2524L58.7175 83.7042L67.3337 92.515L67.3113 80.3034L40.2866 15.8297C40.2866 15.8297 38.3046 14.5893 35.2326 15.805C32.4925 16.892 31.6374 19.2524 31.6374 19.2524Z" fill="#46B4F2"/>
<path d="M36.2768 19.1144L33.8208 13.5072C34.1221 12.9155 35.1351 11.2571 37.3705 10.4092C39.8985 9.4503 41.6751 10.0438 42.2215 10.2825L44.686 15.9248L36.2768 19.1144Z" fill="white" stroke="#060606"/>
<mask id="path-8-inside-1_38_28" fill="white">
<path d="M37.1892 10.043C40.0577 8.96778 42.0547 9.83092 42.4633 10.0381L45.1825 16.1891L36.14 19.5786L33.4208 13.4446C33.6218 12.9948 34.6357 11.0002 37.1892 10.043ZM37.0813 9.79972C34.0758 10.9263 33.1549 13.4166 33.1549 13.4166L36.0316 19.9058L45.5088 16.3534L42.6386 9.86175C42.6386 9.86175 40.4497 8.53711 37.0813 9.79972Z"/>
</mask>
<path d="M37.1892 10.043C40.0577 8.96778 42.0547 9.83092 42.4633 10.0381L45.1825 16.1891L36.14 19.5786L33.4208 13.4446C33.6218 12.9948 34.6357 11.0002 37.1892 10.043ZM37.0813 9.79972C34.0758 10.9263 33.1549 13.4166 33.1549 13.4166L36.0316 19.9058L45.5088 16.3534L42.6386 9.86175C42.6386 9.86175 40.4497 8.53711 37.0813 9.79972Z" fill="#060606"/>
<path d="M42.4633 10.0381L43.3922 9.69102L43.244 9.35583L42.9075 9.18522L42.4633 10.0381ZM45.1825 16.1891L45.5836 17.0939L46.5111 16.7462L46.1114 15.842L45.1825 16.1891ZM36.14 19.5786L35.2116 19.9266L35.6126 20.8314L36.5411 20.4833L36.14 19.5786ZM33.4208 13.4446L32.4885 13.033L32.3214 13.407L32.4923 13.7927L33.4208 13.4446ZM33.1549 13.4166L32.2001 13.0603L32.0701 13.4118L32.2265 13.7646L33.1549 13.4166ZM36.0316 19.9058L35.1032 20.2538L35.5043 21.1586L36.4327 20.8106L36.0316 19.9058ZM45.5088 16.3534L45.9098 17.2581L46.8374 16.9105L46.4376 16.0063L45.5088 16.3534ZM42.6386 9.86175L43.5674 9.51462L43.567 9.51374L42.6386 9.86175ZM37.5902 10.9478C40.1124 10.0023 41.7921 10.7759 42.0191 10.891L42.9075 9.18522C42.3172 8.88594 40.003 7.93322 36.7881 9.13831L37.5902 10.9478ZM41.5345 10.3852L44.2536 16.5362L46.1114 15.842L43.3922 9.69102L41.5345 10.3852ZM44.7814 15.2844L35.7389 18.6739L36.5411 20.4833L45.5836 17.0939L44.7814 15.2844ZM37.0685 19.2306L34.3492 13.0966L32.4923 13.7927L35.2116 19.9266L37.0685 19.2306ZM34.3531 13.8563C34.5115 13.5016 35.3865 11.7738 37.5902 10.9478L36.7881 9.13831C33.8849 10.2265 32.732 12.4879 32.4885 13.033L34.3531 13.8563ZM36.6802 8.89499C34.9772 9.53335 33.8632 10.5598 33.1771 11.4242C32.8341 11.8562 32.5956 12.2508 32.4405 12.5428C32.3628 12.6891 32.3057 12.8106 32.2665 12.8992C32.2469 12.9435 32.2318 12.9798 32.2209 13.0069C32.2154 13.0205 32.2109 13.0318 32.2075 13.0407C32.2057 13.0452 32.2043 13.0491 32.203 13.0523C32.2024 13.054 32.2019 13.0554 32.2014 13.0568C32.2011 13.0574 32.2009 13.058 32.2007 13.0586C32.2006 13.0589 32.2004 13.0593 32.2004 13.0595C32.2002 13.0599 32.2001 13.0603 33.1549 13.4166C34.1098 13.773 34.1096 13.7733 34.1095 13.7737C34.1095 13.7738 34.1093 13.7742 34.1093 13.7744C34.1091 13.7748 34.1089 13.7752 34.1088 13.7756C34.1085 13.7763 34.1083 13.7769 34.1082 13.7773C34.1078 13.7781 34.1077 13.7784 34.1078 13.7781C34.1081 13.7776 34.1091 13.7748 34.1111 13.7698C34.1151 13.7599 34.1227 13.7416 34.1342 13.7156C34.1571 13.6637 34.1954 13.5817 34.251 13.4769C34.3626 13.2669 34.5421 12.9684 34.8051 12.6371C35.3308 11.9747 36.1799 11.1927 37.4824 10.7045L36.6802 8.89499ZM32.2265 13.7646L35.1032 20.2538L36.9601 19.5578L34.0834 13.0686L32.2265 13.7646ZM36.4327 20.8106L45.9098 17.2581L45.1077 15.4487L35.6306 19.0011L36.4327 20.8106ZM46.4376 16.0063L43.5674 9.51462L41.7097 10.2089L44.5799 16.7005L46.4376 16.0063ZM42.6386 9.86175C43.1534 9.04806 43.1529 9.04775 43.1523 9.04744C43.1522 9.04733 43.1516 9.04702 43.1513 9.0468C43.1505 9.04635 43.1498 9.04589 43.149 9.04541C43.1474 9.04445 43.1456 9.04341 43.1437 9.04229C43.14 9.04005 43.1356 9.0375 43.1307 9.03466C43.1209 9.02897 43.1089 9.02209 43.0947 9.01416C43.0662 8.9983 43.0289 8.97818 42.983 8.95484C42.8911 8.90817 42.7645 8.84843 42.6052 8.78389C42.2867 8.65487 41.8358 8.50597 41.2695 8.4046C40.1285 8.20034 38.5483 8.19476 36.6802 8.89499L37.4824 10.7045C38.9827 10.1421 40.1811 10.1675 40.9766 10.3099C41.3786 10.3819 41.6854 10.4852 41.8826 10.5651C41.9812 10.605 42.0519 10.6389 42.0929 10.6598C42.1134 10.6702 42.1264 10.6773 42.1316 10.6802C42.1343 10.6817 42.1349 10.6821 42.1336 10.6813C42.133 10.681 42.1318 10.6803 42.1302 10.6793C42.1294 10.6788 42.1284 10.6783 42.1274 10.6776C42.1268 10.6773 42.1263 10.677 42.1257 10.6766C42.1254 10.6764 42.1249 10.6761 42.1247 10.676C42.1243 10.6757 42.1238 10.6755 42.6386 9.86175Z" fill="#060606" mask="url(#path-8-inside-1_38_28)"/>
<path d="M46.6783 20.5586L38.1072 23.7811L35.5488 17.9923C35.5736 17.9406 35.6051 17.878 35.6438 17.8064C35.7675 17.577 35.9637 17.2559 36.2488 16.9004C36.8189 16.1897 37.7399 15.3471 39.1468 14.8168C40.744 14.2163 42.0392 14.231 42.921 14.3839C43.3639 14.4608 43.7063 14.5732 43.9333 14.6637C44.0056 14.6925 44.0661 14.7191 44.1143 14.7415L46.6783 20.5586ZM35.4753 18.1568L35.4756 18.1561L35.4755 18.1564L35.4753 18.1568Z" fill="white" stroke="#060606"/>
<path d="M59.7923 76.5883L36.3455 20.8981C36.4818 20.5709 37.4136 18.5252 39.8872 17.5484C42.6635 16.4522 44.5537 17.3835 44.8347 17.5379L68.2287 73.257L68.2423 85.1998L59.7923 76.5883Z" fill="white" stroke="#060606"/>
<path d="M67.8411 85.36L65.2662 82.8506L67.7987 81.8806L67.8411 85.36Z" fill="#060606"/>
<path d="M59.6185 76.2629C59.6185 76.2629 62.7469 72.1637 67.5785 73.1122" stroke="#060606" stroke-miterlimit="10" stroke-linecap="round" stroke-linejoin="round"/>
<path d="M62.3556 71.6195L41.4197 20.2031" stroke="#060606" stroke-miterlimit="10" stroke-linecap="round"/>
</svg>
