<svg width="81" height="135" viewBox="0 0 81 135" fill="none" xmlns="http://www.w3.org/2000/svg">
<path d="M17.8138 64C32.3791 47.9075 51.7571 12.6812 37.8024 18.4811C22.7055 24.7557 50.8183 49.2868 61.9747 18.4811C73.1311 -12.3246 -11.0068 17.5615 15.0248 36.8726C41.0564 56.1836 56.3963 40.5509 53.1424 18.4811C49.8884 -3.58867 25.7163 -0.370161 17.8138 4.6875C9.91125 9.74515 8.05185 26.2975 26.6459 32.7345" stroke="#46B4F2" stroke-linecap="round"/>
<path fill-rule="evenodd" clip-rule="evenodd" d="M37.2006 39.4334C32.3994 38.1467 27.4646 40.9959 26.1784 45.7971L25.7075 47.5548C24.6083 47.2603 23.4786 47.9126 23.1841 49.0118L21.4508 55.4821C21.1563 56.5813 21.8086 57.7111 22.9077 58.0058L22.9076 58.0063C21.8084 57.7119 20.6788 58.3641 20.3843 59.4633L18.7842 65.4359C18.4898 66.5351 19.142 67.6649 20.2411 67.9596L8.30451 112.516C7.01826 117.317 9.86764 122.252 14.6688 123.539L46.5421 132.081C51.3432 133.368 56.278 130.519 57.5643 125.717L70.8343 76.1838C71.9335 76.4783 73.0633 75.826 73.3578 74.7268L75.0912 68.2565C75.3857 67.1573 74.7333 66.0274 73.6341 65.7328L75.4381 58.9987C76.7244 54.1974 73.875 49.2622 69.0739 47.9755L37.2006 39.4334Z" fill="#46B4F2"/>
<rect x="0.35357" y="0.612401" width="3.12106" height="9.81952" rx="1.56053" transform="matrix(0.965914 0.258864 -0.258774 0.965938 21.1086 41.3805)" fill="white" stroke="#060606"/>
<rect x="0.35357" y="0.612401" width="3.12106" height="9.81952" rx="1.56053" transform="matrix(0.965914 0.258864 -0.258774 0.965938 69.0351 59.559)" fill="white" stroke="#060606"/>
<rect x="0.35357" y="0.612401" width="3.12106" height="9.3043" rx="1.56053" transform="matrix(0.965914 0.258864 -0.258774 0.965938 18.3087 51.8319)" fill="white" stroke="#060606"/>
<rect x="0.35357" y="0.612401" width="49.9981" height="86.0714" rx="7.5" transform="matrix(0.965914 0.258864 -0.258774 0.965938 25.8987 31.4628)" fill="white" stroke="#060606"/>
<rect x="0.35357" y="0.612401" width="45.877" height="81.9496" rx="5.5" transform="matrix(0.965914 0.258864 -0.258774 0.965938 27.3557 33.987)" fill="white" stroke="#060606"/>
<rect x="0.35357" y="0.612401" width="19.0899" height="2.09075" rx="1.04538" transform="matrix(0.965914 0.258864 -0.258774 0.965938 40.2925 37.454)" fill="#060606" stroke="#060606"/>
<rect x="0.35357" y="0.612401" width="32.9987" height="10.3347" rx="5.16737" transform="matrix(0.965914 0.258864 -0.258774 0.965938 16.261 99.2887)" fill="white" stroke="#060606"/>
<ellipse rx="3.60592" ry="3.60651" transform="matrix(0.965914 0.258864 -0.258774 0.965938 41.815 112.159)" fill="#060606"/>
<path d="M37.4633 61.9532C37.22 61.888 37.0286 61.7783 36.8891 61.6241C36.7496 61.4699 36.6614 61.2855 36.6245 61.0708C36.5896 60.8551 36.604 60.6221 36.6678 60.3721C36.7387 60.1191 36.8446 59.9091 36.9853 59.742C37.1265 59.5734 37.2956 59.4588 37.4927 59.398C37.6901 59.3357 37.909 59.3368 38.1493 59.4012C38.3942 59.4668 38.5909 59.5835 38.7395 59.7513C38.8896 59.9196 38.9705 60.1164 38.982 60.3419L38.632 60.3585C38.6141 60.1985 38.5538 60.0624 38.4511 59.95C38.3503 59.8366 38.2208 59.7587 38.0625 59.7163C37.8849 59.6687 37.7269 59.6704 37.5884 59.7213C37.4504 59.7707 37.3337 59.8602 37.2381 59.9898C37.1426 60.1193 37.0689 60.278 37.017 60.4657C36.9425 60.7561 36.9472 61.0069 37.0314 61.2183C37.116 61.4281 37.2881 61.5679 37.5479 61.6375C37.7121 61.6815 37.8616 61.6816 37.9966 61.6377C38.1334 61.5928 38.251 61.5059 38.3495 61.3771L38.6545 61.5645C38.5074 61.7554 38.332 61.8844 38.1285 61.9515C37.9253 62.017 37.7036 62.0176 37.4633 61.9532Z" fill="#060606"/>
<path d="M38.9578 62.2817L39.6056 59.8635L39.9011 59.9427L39.7452 60.5248L39.7074 60.4331C39.7534 60.3687 39.8061 60.3124 39.8654 60.2643C39.9251 60.2147 39.9855 60.1773 40.0466 60.1521C40.1241 60.1136 40.2085 60.0914 40.2997 60.0855C40.3912 60.078 40.4802 60.0835 40.5665 60.1018C40.6532 60.1186 40.7292 60.1454 40.7945 60.1821L40.7118 60.4911C40.6297 60.4451 40.5348 60.4141 40.4271 60.398C40.3194 60.382 40.2119 60.398 40.1047 60.446C40.0073 60.4871 39.9266 60.5463 39.8627 60.6235C39.7992 60.6993 39.7476 60.7847 39.7077 60.8796C39.6683 60.973 39.6358 61.0675 39.6102 61.163L39.2869 62.3699L38.9578 62.2817Z" fill="#060606"/>
<path d="M41.533 63.0439C41.2971 62.9806 41.1066 62.8736 40.9615 62.7227C40.8178 62.5722 40.7236 62.3894 40.6788 62.1742C40.6341 61.959 40.6459 61.7238 40.7143 61.4685C40.7851 61.2043 40.8933 60.9885 41.0389 60.8212C41.1845 60.6538 41.3564 60.5407 41.5546 60.4818C41.7542 60.4233 41.9705 60.4253 42.2034 60.4877C42.4422 60.5517 42.6312 60.6615 42.7702 60.8172C42.9097 60.9714 42.9954 61.1623 43.0271 61.39C43.0589 61.6177 43.0331 61.8724 42.9497 62.154L42.6138 62.064L42.645 61.9476C42.723 61.6325 42.7185 61.3777 42.6314 61.1832C42.5458 60.989 42.3791 60.8588 42.1313 60.7924C41.8716 60.7227 41.6497 60.7537 41.4657 60.8852C41.2832 61.017 41.1502 61.239 41.0666 61.5509C40.985 61.8555 40.9903 62.1105 41.0824 62.3159C41.1765 62.5203 41.3503 62.6565 41.6041 62.7245C41.7773 62.7709 41.9386 62.7718 42.0882 62.7271C42.2396 62.6813 42.3729 62.593 42.4879 62.4622L42.7629 62.6631C42.611 62.848 42.4261 62.9736 42.2083 63.0401C41.9924 63.1054 41.7673 63.1067 41.533 63.0439ZM40.9256 61.6115L40.9993 61.3361L42.8466 61.8312L42.7728 62.1066L40.9256 61.6115Z" fill="#060606"/>
<path d="M43.7774 63.6454C43.5953 63.5965 43.4511 63.5227 43.3448 63.4238C43.2399 63.3253 43.1715 63.2134 43.1395 63.088C43.1075 62.9627 43.1087 62.8358 43.1431 62.7074C43.1783 62.5761 43.2344 62.4711 43.3115 62.3926C43.3904 62.3129 43.4834 62.2554 43.5904 62.2201C43.699 62.1852 43.8179 62.1683 43.9472 62.1694C44.0776 62.1723 44.2197 62.1824 44.3735 62.1996C44.5291 62.2157 44.6801 62.2346 44.8263 62.2562C44.9744 62.2766 45.1044 62.2931 45.2162 62.3055L45.0806 62.3459C45.1491 62.1083 45.1502 61.919 45.084 61.778C45.0177 61.6371 44.8644 61.5344 44.6241 61.47C44.4584 61.4256 44.3081 61.4253 44.1732 61.4692C44.0397 61.5134 43.9283 61.6099 43.8388 61.7587L43.5438 61.5789C43.6571 61.3772 43.8132 61.2391 44.0124 61.1645C44.2116 61.0899 44.4448 61.0884 44.712 61.16C44.9329 61.2192 45.109 61.3112 45.2404 61.436C45.3736 61.5597 45.4514 61.7085 45.4735 61.8825C45.4846 61.9606 45.483 62.0442 45.4688 62.1332C45.4545 62.2221 45.4354 62.3114 45.4114 62.401L45.0089 63.9034L44.7156 63.8248L44.8782 63.218L44.9537 63.2766C44.816 63.4621 44.646 63.5862 44.4436 63.6487C44.2413 63.7113 44.0192 63.7102 43.7774 63.6454ZM43.8916 63.3712C44.0454 63.4124 44.1871 63.4208 44.3168 63.3964C44.4466 63.3719 44.5593 63.3213 44.6551 63.2446C44.7512 63.1664 44.8259 63.0696 44.8792 62.9543C44.9179 62.8815 44.9504 62.799 44.9767 62.7068C45.0034 62.6132 45.0229 62.5432 45.0353 62.497L45.1433 62.5955C45.0274 62.5804 44.9017 62.5628 44.7664 62.5425C44.6325 62.5226 44.4995 62.5054 44.3675 62.4908C44.2369 62.4766 44.1172 62.4693 44.0085 62.469C43.9347 62.47 43.8608 62.4798 43.7871 62.4984C43.7137 62.5155 43.6483 62.5476 43.5909 62.5946C43.535 62.6421 43.4954 62.709 43.4723 62.7956C43.4535 62.8658 43.4524 62.9383 43.4692 63.0132C43.4874 63.0885 43.5295 63.1582 43.5955 63.2222C43.6631 63.2867 43.7617 63.3364 43.8916 63.3712Z" fill="#060606"/>
<path d="M46.9084 64.4125C46.7649 64.4044 46.6276 64.3796 46.4964 64.338C46.3666 64.2969 46.2563 64.2369 46.1654 64.1581C46.076 64.0798 46.0188 63.9797 45.9939 63.8578C45.9746 63.7566 45.9749 63.6599 45.9948 63.5677C46.0166 63.4743 46.0433 63.3687 46.0749 63.2507L46.6682 61.0363L46.9951 61.1239L46.4054 63.3249C46.3782 63.4264 46.3562 63.5117 46.3393 63.5808C46.3242 63.6488 46.3239 63.7127 46.3383 63.7725C46.3652 63.8869 46.4343 63.9694 46.5455 64.02C46.6583 64.0711 46.805 64.1056 46.9858 64.1236L46.9084 64.4125ZM45.8954 61.8515L45.971 61.5694L47.5562 61.9942L47.4806 62.2764L45.8954 61.8515Z" fill="#060606"/>
<path d="M48.2004 61.6749L48.2994 61.3054L48.6285 61.3937L48.5295 61.7631L48.2004 61.6749ZM47.4296 64.5522L48.0774 62.1339L48.4066 62.2221L47.7587 64.6404L47.4296 64.5522Z" fill="#060606"/>
<path d="M50.1764 65.2883L50.507 64.0546C50.543 63.9202 50.5633 63.7937 50.5679 63.6749C50.5729 63.5547 50.5582 63.4451 50.5239 63.3463C50.4915 63.2465 50.4367 63.1614 50.3595 63.0911C50.2838 63.0212 50.1826 62.9693 50.0557 62.9353C49.9393 62.9041 49.8309 62.8966 49.7305 62.9129C49.6316 62.9296 49.5414 62.9678 49.4598 63.0276C49.3801 63.0862 49.3102 63.1651 49.25 63.2641C49.1899 63.3632 49.1414 63.4814 49.1046 63.6187L48.8856 63.5048C48.952 63.257 49.051 63.0604 49.1828 62.9149C49.3146 62.7694 49.4682 62.6738 49.6436 62.6281C49.8191 62.5823 50.0053 62.5858 50.2024 62.6386C50.3472 62.6774 50.4673 62.7336 50.5628 62.8072C50.6597 62.8812 50.7353 62.9662 50.7896 63.0624C50.8453 63.1589 50.8831 63.2626 50.903 63.3735C50.9233 63.483 50.9291 63.5957 50.9204 63.7118C50.9121 63.8263 50.8933 63.9381 50.8641 64.0471L50.5078 65.3771L50.1764 65.2883ZM48.4277 64.8197L49.0756 62.4014L49.3734 62.4812L49.2138 63.0768L49.2474 63.0858L48.7591 64.9085L48.4277 64.8197Z" fill="#060606"/>
<path d="M50.5333 37.502C50.5333 31.5742 55.3388 26.7687 61.2667 26.7687C67.1945 26.7687 72 31.5742 72 37.502C72 43.4299 67.1945 48.2354 61.2667 48.2354C55.3388 48.2354 50.5333 43.4299 50.5333 37.502Z" fill="#46B4F2"/>
<path d="M50.5333 37.502C50.5333 31.5742 55.3388 26.7687 61.2667 26.7687C67.1945 26.7687 72 31.5742 72 37.502C72 43.4299 67.1945 48.2354 61.2667 48.2354C55.3388 48.2354 50.5333 43.4299 50.5333 37.502Z" stroke="#46B4F2"/>
<path d="M59.1696 25.4999C53.2866 25.4999 48.4999 30.1749 48.4999 35.9632C48.4999 41.7515 53.2866 46.4265 59.1696 46.4265C65.0527 46.4265 69.8394 41.7515 69.8394 35.9632C69.8394 30.1749 65.0527 25.4999 59.1696 25.4999Z" fill="white" stroke="#060606"/>
<g clip-path="url(#clip0_38_30)">
<path fill-rule="evenodd" clip-rule="evenodd" d="M65.8433 35.7797C65.8433 39.5594 62.7326 42.6235 58.8953 42.6235C55.0581 42.6235 51.9474 39.5594 51.9474 35.7797C51.9474 31.9999 55.0581 28.9358 58.8953 28.9358C62.7326 28.9358 65.8433 31.9999 65.8433 35.7797ZM58.8953 41.6686C62.1971 41.6686 64.8738 39.032 64.8738 35.7797C64.8738 32.5273 62.1971 29.8908 58.8953 29.8908C55.5935 29.8908 52.9169 32.5273 52.9169 35.7797C52.9169 39.032 55.5935 41.6686 58.8953 41.6686Z" fill="#060606"/>
<path fill-rule="evenodd" clip-rule="evenodd" d="M65.8433 35.7798C65.8433 36.0435 65.6262 36.2573 65.3585 36.2573L52.4322 36.2573C52.1645 36.2573 51.9474 36.0435 51.9474 35.7798C51.9474 35.5161 52.1645 35.3024 52.4322 35.3024L65.3585 35.3024C65.6262 35.3024 65.8433 35.5161 65.8433 35.7798Z" fill="#060606"/>
<path fill-rule="evenodd" clip-rule="evenodd" d="M60.2538 41.9738C59.8874 42.3555 59.4285 42.6235 58.8953 42.6235C58.3621 42.6235 57.9032 42.3555 57.5368 41.9738C57.1714 41.5932 56.8646 41.0681 56.6172 40.4587C56.1212 39.2374 55.8253 37.5829 55.8253 35.7797C55.8253 33.9764 56.1212 32.3219 56.6172 31.1006C56.8646 30.4913 57.1714 29.9661 57.5368 29.5855C57.9032 29.2039 58.3621 28.9358 58.8953 28.9358C59.4285 28.9358 59.8874 29.2039 60.2538 29.5855C60.6193 29.9661 60.926 30.4913 61.1735 31.1006C61.6694 32.3219 61.9653 33.9764 61.9653 35.7797C61.9653 37.5829 61.6694 39.2374 61.1735 40.4587C60.926 41.0681 60.6193 41.5932 60.2538 41.9738ZM60.2733 40.1041C60.713 39.0212 60.9959 37.4925 60.9959 35.7797C60.9959 34.0668 60.713 32.5381 60.2733 31.4553C60.0529 30.9125 59.8026 30.5053 59.5494 30.2417C59.2972 29.979 59.076 29.8908 58.8953 29.8908C58.7146 29.8908 58.4934 29.979 58.2412 30.2417C57.988 30.5053 57.7377 30.9125 57.5173 31.4553C57.0776 32.5381 56.7948 34.0668 56.7948 35.7797C56.7948 37.4925 57.0776 39.0212 57.5173 40.1041C57.7377 40.6468 57.988 41.054 58.2412 41.3177C58.4934 41.5804 58.7146 41.6686 58.8953 41.6686C59.076 41.6686 59.2972 41.5804 59.5494 41.3177C59.8026 41.054 60.0529 40.6468 60.2733 40.1041Z" fill="#060606"/>
<path fill-rule="evenodd" clip-rule="evenodd" d="M63.8082 40.5286C63.6189 40.7151 63.312 40.7151 63.1227 40.5286C62.0403 39.4624 60.5463 38.8038 58.8953 38.8038C57.2443 38.8038 55.7503 39.4624 54.6679 40.5286C54.4786 40.7151 54.1717 40.7151 53.9824 40.5286C53.7931 40.3421 53.7931 40.0398 53.9824 39.8533C55.2392 38.6154 56.9768 37.8488 58.8953 37.8488C60.8138 37.8488 62.5514 38.6154 63.8082 39.8533C63.9975 40.0398 63.9975 40.3421 63.8082 40.5286Z" fill="#060606"/>
<path fill-rule="evenodd" clip-rule="evenodd" d="M63.8082 31.7062C62.5514 32.9441 60.8138 33.7107 58.8953 33.7107C56.9768 33.7107 55.2392 32.9441 53.9824 31.7062C53.7931 31.5197 53.7931 31.2174 53.9824 31.0309C54.1717 30.8444 54.4786 30.8444 54.6679 31.0309C55.7503 32.0971 57.2443 32.7557 58.8953 32.7557C60.5463 32.7557 62.0403 32.0971 63.1227 31.0309C63.312 30.8444 63.6189 30.8444 63.8082 31.0309C63.9975 31.2174 63.9975 31.5197 63.8082 31.7062Z" fill="#060606"/>
</g>
<defs>
<clipPath id="clip0_38_30">
<rect width="15.5116" height="15.2793" fill="white" transform="translate(66.6511 43.4194) rotate(-180)"/>
</clipPath>
</defs>
</svg>
