<svg width="48" height="46" viewBox="0 0 48 46" fill="none" xmlns="http://www.w3.org/2000/svg">
<path d="M26 3.74779C14.6996 3.74779 5.5 12.7773 5.5 23.9632C5.5 35.1492 14.6996 44.1787 26 44.1787C37.3004 44.1787 46.5 35.1492 46.5 23.9633C46.5 12.7773 37.3004 3.74779 26 3.74779Z" fill="#46B4F2" stroke="#46B4F2" stroke-width="3"/>
<path d="M21.013 1.00026C9.97955 1.00026 1.00003 9.76837 1.00002 20.6273C1.00002 31.4863 9.97955 40.2544 21.013 40.2544C32.0464 40.2544 41.0259 31.4863 41.0259 20.6273C41.0259 9.76837 32.0464 1.00026 21.013 1.00026Z" fill="white" stroke="#060606" stroke-width="2"/>
<path fill-rule="evenodd" clip-rule="evenodd" d="M33.4897 20.284C33.4897 27.3506 27.6741 33.0791 20.5002 33.0791C13.3262 33.0791 7.51058 27.3506 7.51058 20.284C7.51058 13.2175 13.3262 7.48899 20.5002 7.48899C27.6741 7.48899 33.4897 13.2175 33.4897 20.284ZM20.5002 31.2937C26.6731 31.2937 31.6772 26.3645 31.6772 20.284C31.6772 14.2036 26.6731 9.27435 20.5002 9.27435C14.3272 9.27435 9.32308 14.2036 9.32308 20.284C9.32308 26.3645 14.3272 31.2937 20.5002 31.2937Z" fill="#060606"/>
<path fill-rule="evenodd" clip-rule="evenodd" d="M33.4897 20.2841C33.4897 20.7771 33.084 21.1768 32.5835 21.1768L8.41683 21.1768C7.91632 21.1768 7.51058 20.7771 7.51058 20.2841C7.51058 19.7911 7.91632 19.3914 8.41683 19.3914L32.5835 19.3914C33.084 19.3914 33.4897 19.7911 33.4897 20.2841Z" fill="#060606"/>
<path fill-rule="evenodd" clip-rule="evenodd" d="M23.04 31.8644C22.3549 32.5779 21.497 33.0791 20.5002 33.0791C19.5033 33.0791 18.6454 32.5779 17.9604 31.8644C17.2772 31.1528 16.7036 30.171 16.241 29.0318C15.3138 26.7485 14.7606 23.6553 14.7606 20.284C14.7606 16.9128 15.3138 13.8196 16.241 11.5363C16.7036 10.3971 17.2772 9.41526 17.9604 8.70365C18.6454 7.99016 19.5033 7.48899 20.5002 7.48899C21.497 7.48899 22.3549 7.99016 23.04 8.70365C23.7232 9.41526 24.2967 10.3971 24.7593 11.5363C25.6865 13.8196 26.2397 16.9128 26.2397 20.284C26.2397 23.6553 25.6865 26.7485 24.7593 29.0318C24.2967 30.171 23.7232 31.1528 23.04 31.8644ZM23.0764 28.3688C23.8985 26.3443 24.4272 23.4863 24.4272 20.284C24.4272 17.0818 23.8985 14.2238 23.0764 12.1993C22.6644 11.1846 22.1964 10.4234 21.7231 9.93039C21.2516 9.43929 20.838 9.27435 20.5002 9.27435C20.1623 9.27435 19.7487 9.43929 19.2772 9.93038C18.8039 10.4234 18.336 11.1846 17.9239 12.1993C17.1018 14.2238 16.5731 17.0818 16.5731 20.284C16.5731 23.4863 17.1018 26.3443 17.9239 28.3688C18.336 29.3835 18.8039 30.1447 19.2772 30.6377C19.7487 31.1288 20.1623 31.2937 20.5002 31.2937C20.838 31.2937 21.2516 31.1288 21.7231 30.6377C22.1964 30.1447 22.6644 29.3835 23.0764 28.3688Z" fill="#060606"/>
<path fill-rule="evenodd" clip-rule="evenodd" d="M29.6848 29.1624C29.3308 29.511 28.757 29.511 28.4031 29.1624C26.3795 27.169 23.5865 25.9377 20.4998 25.9377C17.413 25.9377 14.62 27.169 12.5963 29.1624C12.2424 29.511 11.6686 29.511 11.3147 29.1624C10.9608 28.8138 10.9608 28.2485 11.3147 27.8999C13.6644 25.5855 16.913 24.1523 20.4998 24.1523C24.0865 24.1523 27.3351 25.5855 29.6848 27.8999C30.0387 28.2485 30.0387 28.8138 29.6848 29.1624Z" fill="#060606"/>
<path fill-rule="evenodd" clip-rule="evenodd" d="M29.6848 12.6682C27.3351 14.9826 24.0865 16.4158 20.4998 16.4158C16.913 16.4158 13.6644 14.9826 11.3147 12.6682C10.9608 12.3196 10.9608 11.7543 11.3147 11.4057C11.6686 11.0571 12.2424 11.0571 12.5963 11.4057C14.62 13.3991 17.413 14.6304 20.4998 14.6304C23.5865 14.6304 26.3795 13.3991 28.4031 11.4057C28.757 11.0571 29.3308 11.0571 29.6848 11.4057C30.0387 11.7543 30.0387 12.3196 29.6848 12.6682Z" fill="#060606"/>
</svg>
