<svg width="28" height="28" viewBox="0 0 28 28" fill="none" xmlns="http://www.w3.org/2000/svg">
<path d="M15.1411 6.81422L15.625 5.93188L16.109 6.81422C18.0523 10.356 20.9747 13.2685 24.5287 15.2052L25.4141 15.6874L24.5287 16.1697C20.9747 18.1064 18.0523 21.0189 16.109 24.5607L15.625 25.443L15.1411 24.5607C13.1978 21.0189 10.2753 18.1064 6.72131 16.1697L5.83594 15.6874L6.72131 15.2052C10.274 13.2685 13.1965 10.356 15.1411 6.81422Z" fill="#46B4F2"/>
<path d="M21.8597 2.35518L22.0548 2L22.2498 2.35518C23.0327 3.78212 24.2107 4.95608 25.6438 5.73747L26.0002 5.93189L25.6438 6.1263C24.2119 6.90645 23.0339 8.0804 22.2498 9.50859L22.0548 9.86377L21.8597 9.50859C21.0769 8.08165 19.8989 6.90769 18.4658 6.1263L18.1094 5.93189L18.4658 5.73747C19.8989 4.95733 21.0769 3.78337 21.8597 2.35518Z" fill="#46B4F2"/>
<path d="M11.3051 6.81422L11.7891 5.93188L12.273 6.81422C14.2163 10.356 17.1388 13.2685 20.6928 15.2052L21.5781 15.6874L20.6928 16.1697C17.1388 18.1064 14.2163 21.0189 12.273 24.5607L11.7891 25.443L11.3051 24.5607C9.36181 21.0189 6.43935 18.1064 2.88537 16.1697L2 15.6874L2.88537 15.2052C6.43935 13.2685 9.36181 10.356 11.3051 6.81422Z" fill="white" stroke="#060606" stroke-miterlimit="10"/>
<path d="M19.0023 2.35518L19.1973 2L19.3924 2.35518C20.1753 3.78212 21.3532 4.95608 22.7863 5.73747L23.1427 5.93189L22.7863 6.1263C21.3545 6.90645 20.1765 8.0804 19.3924 9.50859L19.1973 9.86377L19.0023 9.50859C18.2194 8.08165 17.0414 6.90769 15.6084 6.1263L15.252 5.93189L15.6084 5.73747C17.0402 4.95733 18.2182 3.78337 19.0023 2.35518Z" fill="white" stroke="#060606" stroke-miterlimit="10"/>
</svg>
