<svg width="27" height="26" viewBox="0 0 27 26" fill="none" xmlns="http://www.w3.org/2000/svg">
<path d="M14.9535 2.38773C8.58366 2.38773 3.40697 7.47613 3.40697 13.7688C3.40697 20.0615 8.58366 25.1499 14.9535 25.1499C21.3233 25.1499 26.5 20.0615 26.5 13.7688C26.5 7.47613 21.3233 2.38773 14.9535 2.38773Z" fill="#46B4F2" stroke="#46B4F2"/>
<path d="M12.0539 0.500039C5.68248 0.500039 0.499851 5.5629 0.49985 11.8297C0.49985 18.0966 5.68248 23.1594 12.0539 23.1594C18.4253 23.1594 23.6079 18.0966 23.6079 11.8297C23.6079 5.5629 18.4253 0.50004 12.0539 0.500039Z" fill="white" stroke="#060606"/>
<g clip-path="url(#clip0_268_1722)">
<path fill-rule="evenodd" clip-rule="evenodd" d="M19.3081 11.6294C19.3081 15.7378 15.9269 19.0684 11.756 19.0684C7.58512 19.0684 4.20393 15.7378 4.20393 11.6294C4.20393 7.52093 7.58512 4.19039 11.756 4.19039C15.9269 4.19039 19.3081 7.52093 19.3081 11.6294ZM11.756 18.0304C15.3449 18.0304 18.2543 15.1645 18.2543 11.6294C18.2543 8.0942 15.3449 5.22839 11.756 5.22839C8.1671 5.22838 5.25771 8.0942 5.25771 11.6294C5.25771 15.1645 8.1671 18.0304 11.756 18.0304Z" fill="#060606"/>
<path fill-rule="evenodd" clip-rule="evenodd" d="M19.3081 11.6294C19.3081 11.9161 19.0722 12.1484 18.7812 12.1484L4.73082 12.1484C4.43983 12.1484 4.20393 11.9161 4.20393 11.6294C4.20393 11.3428 4.43983 11.1104 4.73082 11.1104L18.7812 11.1104C19.0722 11.1104 19.3081 11.3428 19.3081 11.6294Z" fill="#060606"/>
<path fill-rule="evenodd" clip-rule="evenodd" d="M13.2324 18.3622C12.8342 18.777 12.3354 19.0684 11.7558 19.0684C11.1763 19.0684 10.6774 18.777 10.2792 18.3622C9.88197 17.9484 9.54853 17.3776 9.27957 16.7153C8.74049 15.3878 8.41884 13.5894 8.41884 11.6294C8.41884 9.66935 8.74049 7.87098 9.27957 6.54345C9.54853 5.88113 9.88197 5.31031 10.2792 4.89658C10.6774 4.48176 11.1763 4.19039 11.7558 4.19039C12.3354 4.19039 12.8342 4.48176 13.2324 4.89658C13.6296 5.31031 13.9631 5.88113 14.232 6.54345C14.7711 7.87098 15.0928 9.66935 15.0928 11.6294C15.0928 13.5894 14.7711 15.3878 14.232 16.7153C13.9631 17.3776 13.6296 17.9484 13.2324 18.3622ZM13.2536 16.3298C13.7316 15.1528 14.039 13.4912 14.039 11.6294C14.039 9.7676 13.7316 8.10597 13.2536 6.92895C13.0141 6.33901 12.742 5.89642 12.4668 5.6098C12.1927 5.32428 11.9522 5.22839 11.7558 5.22839C11.5594 5.22839 11.3189 5.32428 11.0448 5.6098C10.7696 5.89642 10.4975 6.33901 10.258 6.92895C9.78002 8.10597 9.47262 9.76759 9.47262 11.6294C9.47262 13.4912 9.78002 15.1528 10.258 16.3298C10.4975 16.9197 10.7696 17.3623 11.0448 17.6489C11.3189 17.9345 11.5594 18.0304 11.7558 18.0304C11.9522 18.0304 12.1927 17.9345 12.4668 17.6489C12.742 17.3623 13.0141 16.9197 13.2536 16.3298Z" fill="#060606"/>
<path fill-rule="evenodd" clip-rule="evenodd" d="M17.0957 16.7911C16.8899 16.9938 16.5563 16.9938 16.3505 16.7911C15.174 15.6322 13.5501 14.9163 11.7556 14.9163C9.96094 14.9163 8.33709 15.6322 7.16054 16.7911C6.95478 16.9938 6.62117 16.9938 6.41541 16.7911C6.20965 16.5884 6.20965 16.2598 6.41541 16.0571C7.78149 14.7115 9.67024 13.8783 11.7556 13.8783C13.8409 13.8783 15.7296 14.7115 17.0957 16.0571C17.3014 16.2598 17.3014 16.5884 17.0957 16.7911Z" fill="#060606"/>
<path fill-rule="evenodd" clip-rule="evenodd" d="M17.0957 7.20153C15.7296 8.54716 13.8409 9.38037 11.7556 9.38037C9.67024 9.38037 7.78149 8.54716 6.41541 7.20153C6.20965 6.99885 6.20965 6.67024 6.41541 6.46755C6.62117 6.26487 6.95478 6.26487 7.16054 6.46755C8.33709 7.62648 9.96094 8.34237 11.7556 8.34237C13.5501 8.34237 15.174 7.62648 16.3505 6.46756C16.5563 6.26487 16.8899 6.26487 17.0957 6.46756C17.3014 6.67024 17.3014 6.99885 17.0957 7.20153Z" fill="#060606"/>
</g>
<defs>
<clipPath id="clip0_268_1722">
<rect width="16.8605" height="16.608" fill="white" transform="translate(20.186 19.9333) rotate(-180)"/>
</clipPath>
</defs>
</svg>
