<svg width="81" height="82" viewBox="0 0 81 82" fill="none" xmlns="http://www.w3.org/2000/svg">
<path d="M45.7089 18.6462L47.2818 15.7786L48.8546 18.6462C55.1704 30.1571 64.6684 39.6226 76.2188 45.9167L79.0963 47.4842L76.2188 49.0516C64.6684 55.3457 55.1704 64.8113 48.8546 76.3222L47.2818 79.1897L45.7089 76.3222C39.3932 64.8113 29.8952 55.3457 18.3447 49.0516L15.4673 47.4842L18.3447 45.9167C29.8911 39.6226 39.3891 30.1571 45.7089 18.6462Z" fill="#46B4F2"/>
<path d="M67.5435 4.15433L68.1775 3L68.8115 4.15433C71.3557 8.7919 75.1842 12.6073 79.8417 15.1468L81 15.7786L79.8417 16.4105C75.1882 18.946 71.3598 22.7613 68.8115 27.4029L68.1775 28.5573L67.5435 27.4029C64.9993 22.7654 61.1708 18.95 56.5133 16.4105L55.355 15.7786L56.5133 15.1468C61.1708 12.6113 64.9993 8.79595 67.5435 4.15433Z" fill="#46B4F2"/>
<path d="M33.2417 18.6462L34.8145 15.7786L36.3873 18.6462C42.7031 30.1571 52.2011 39.6226 63.7516 45.9167L66.629 47.4842L63.7516 49.0516C52.2011 55.3457 42.7031 64.8113 36.3873 76.3222L34.8145 79.1897L33.2417 76.3222C26.9259 64.8113 17.4279 55.3457 5.87745 49.0516L3 47.4842L5.87745 45.9167C17.4279 39.6226 26.9259 30.1571 33.2417 18.6462Z" fill="white" stroke="#060606" stroke-width="2" stroke-miterlimit="10"/>
<path d="M58.2574 4.15433L58.8914 3L59.5254 4.15433C62.0696 8.7919 65.898 12.6073 70.5556 15.1468L71.7139 15.7786L70.5556 16.4105C65.9021 18.946 62.0736 22.7613 59.5254 27.4029L58.8914 28.5573L58.2574 27.4029C55.7132 22.7654 51.8847 18.95 47.2271 16.4105L46.0688 15.7786L47.2271 15.1468C51.8806 12.6113 55.7091 8.79595 58.2574 4.15433Z" fill="white" stroke="#060606" stroke-width="2" stroke-miterlimit="10"/>
</svg>
