<svg width="701" height="532" viewBox="0 0 701 532" fill="none" xmlns="http://www.w3.org/2000/svg">
<path d="M402.61 195.699L402.206 194.784L402.146 194.811L402.09 194.845L402.61 195.699ZM516.476 172.544L515.715 171.895L515.715 171.895L516.476 172.544ZM561.256 269.003L561.225 268.003L561.256 269.003ZM612.355 171.66C611.864 171.405 611.261 171.597 611.007 172.087C610.753 172.578 610.944 173.181 611.435 173.435L612.355 171.66ZM185.5 476L185.556 475.001L185.5 476ZM131.5 451.5L132.19 452.224L131.5 451.5ZM402.09 194.845C400.266 195.956 398.9 197.062 398.003 198.166C397.103 199.275 396.621 200.456 396.738 201.666C396.856 202.876 397.553 203.895 398.549 204.725C399.542 205.551 400.9 206.25 402.521 206.838C408.974 209.177 420.55 210.08 434.123 209.003C461.279 206.847 497.163 196.699 517.236 173.194L515.715 171.895C496.155 194.8 460.925 204.869 433.965 207.009C420.48 208.079 409.248 207.149 403.203 204.958C401.7 204.413 400.577 203.811 399.829 203.188C399.085 202.568 398.779 201.989 398.729 201.472C398.679 200.955 398.862 200.282 399.556 199.427C400.253 198.568 401.409 197.602 403.131 196.553L402.09 194.845ZM517.236 173.194C521.249 168.495 522.969 162.013 522.882 154.633C522.796 147.249 520.903 138.879 517.587 130.279C510.956 113.082 498.571 94.796 483.177 81.3795C467.794 67.9713 449.275 59.3195 430.407 61.6871C411.499 64.0598 392.556 77.4556 376.264 107.452L378.021 108.406C394.131 78.7453 412.609 65.936 430.656 63.6715C448.742 61.402 466.711 69.6808 481.863 82.8872C497.006 96.0852 509.205 114.098 515.721 130.999C518.978 139.448 520.799 147.577 520.882 154.657C520.965 161.741 519.309 167.687 515.715 171.895L517.236 173.194ZM376.264 107.452C359.985 137.424 356.76 161.854 362.225 181.25C367.691 200.651 381.793 214.815 399.748 224.372C417.696 233.925 439.558 238.911 460.72 239.953C481.877 240.994 502.427 238.096 517.758 231.794L516.997 229.945C502.007 236.106 481.766 238.986 460.818 237.955C439.876 236.925 418.318 231.99 400.687 222.606C383.063 213.226 369.427 199.439 364.15 180.708C358.871 161.973 361.898 138.091 378.021 108.406L376.264 107.452ZM517.758 231.794C548.328 219.229 566.292 196.91 572.243 178.225C575.211 168.906 575.232 160.344 572.134 154.359C570.575 151.347 568.23 149.003 565.117 147.586C562.012 146.173 558.207 145.711 553.759 146.342L554.04 148.322C558.2 147.732 561.604 148.185 564.288 149.407C566.964 150.624 568.989 152.634 570.357 155.278C573.114 160.603 573.223 168.557 570.337 177.618C564.581 195.691 547.07 217.584 516.997 229.945L517.758 231.794ZM553.759 146.342C549.352 146.968 540.225 149.541 528.443 153.497C516.63 157.463 502.071 162.846 486.761 169.13C456.168 181.687 422.471 197.883 401.707 213.603C396.51 217.538 392.098 221.461 388.741 225.309C385.39 229.15 383.046 232.968 382.059 236.695C381.063 240.458 381.461 244.104 383.549 247.492C385.615 250.845 389.284 253.861 394.67 256.526C405.431 261.849 423.395 265.937 450.447 268.34C477.528 270.746 513.813 271.47 561.287 270.002L561.225 268.003C513.794 269.469 477.595 268.744 450.624 266.348C423.625 263.95 405.97 259.884 395.557 254.733C390.356 252.16 387.049 249.359 385.252 246.443C383.477 243.562 383.125 240.487 383.993 237.207C384.871 233.89 387.004 230.342 390.248 226.624C393.485 222.912 397.784 219.082 402.914 215.198C423.459 199.644 456.951 183.528 487.521 170.98C502.793 164.712 517.31 159.344 529.079 155.393C540.88 151.431 549.841 148.919 554.04 148.322L553.759 146.342ZM561.287 270.002C589.866 269.119 612.291 265.172 628.629 259.078C644.943 252.993 655.334 244.709 659.578 235.047C663.852 225.318 661.776 214.479 653.808 203.622C645.854 192.784 631.971 181.825 612.355 171.66L611.435 173.435C630.907 183.526 644.494 194.311 652.196 204.805C659.884 215.281 661.648 225.362 657.747 234.243C653.817 243.19 644.018 251.203 627.93 257.204C611.865 263.196 589.674 267.124 561.225 268.003L561.287 270.002ZM185.556 475.001C176.548 474.5 160.526 470.905 148.067 466.183C141.822 463.817 136.594 461.212 133.589 458.644C132.078 457.352 131.258 456.178 131.033 455.165C130.83 454.252 131.073 453.288 132.19 452.224L130.81 450.776C129.302 452.212 128.693 453.857 129.08 455.599C129.445 457.242 130.657 458.769 132.289 460.164C135.571 462.968 141.073 465.672 147.358 468.054C159.957 472.828 176.185 476.483 185.444 476.998L185.556 475.001ZM132.19 452.224C133.022 451.431 133.692 451.076 134.194 450.971C134.647 450.876 135.024 450.969 135.392 451.258C135.798 451.576 136.221 452.158 136.603 453.079C136.982 453.99 137.293 455.165 137.517 456.582C138.416 462.274 137.835 471.373 135.326 481.343C130.298 501.327 117.707 524.171 94.7532 530.031L95.2479 531.969C119.294 525.83 132.181 502.04 137.266 481.831C139.814 471.705 140.448 462.319 139.492 456.27C139.252 454.752 138.908 453.413 138.45 452.312C137.998 451.222 137.405 450.294 136.627 449.684C135.812 449.045 134.837 448.792 133.783 449.013C132.777 449.224 131.785 449.848 130.81 450.776L132.19 452.224ZM403.015 196.614C406.102 195.249 408.705 195.182 410.887 196.092C413.093 197.011 415.038 198.998 416.645 202.072C419.872 208.247 421.538 218.437 421.359 231.473C421.002 257.487 413.311 294.288 396.973 331.453C364.295 405.789 297.218 481.219 185.556 475.001L185.444 476.998C298.282 483.281 365.954 406.985 398.804 332.258C415.231 294.89 422.998 257.825 423.359 231.501C423.539 218.367 421.879 207.769 418.417 201.146C416.679 197.821 414.438 195.405 411.657 194.246C408.852 193.077 405.667 193.255 402.206 194.784L403.015 196.614Z" fill="#FF6895"/>
<path d="M424.475 1C384.352 45.7015 317.167 133.572 369.412 127.441C434.72 119.778 333.557 41.8699 302.824 127.441C272.092 213.013 503.868 129.996 432.158 76.354C360.448 22.7122 318.191 66.1365 327.155 127.441C336.119 188.746 402.706 179.806 424.475 165.757C446.244 151.708 451.367 105.729 400.145 87.8486" stroke="#FF6895" stroke-width="2" stroke-linecap="round"/>
<path fill-rule="evenodd" clip-rule="evenodd" d="M387.645 153.81L328.034 171.352C322.012 173.124 315.67 169.663 313.872 163.613L302.787 126.329C300.99 120.284 304.413 113.944 310.44 112.17L378.175 92.2377C384.197 90.4655 390.539 93.9265 392.338 99.9765L401.136 129.572L428.931 121.394C435.606 119.43 442.636 123.27 444.628 129.969L454.994 164.834C456.992 171.531 453.193 178.558 446.513 180.523L411.773 190.744C405.098 192.708 398.069 188.868 396.077 182.169L387.645 153.81Z" fill="#FF6895"/>
<path d="M383.316 145.19L315.713 164.96C309.703 166.718 303.356 163.227 301.539 157.155L290.346 119.741C288.53 113.669 291.93 107.328 297.945 105.569L365.548 85.7985C371.559 84.0408 377.906 87.5313 379.722 93.6033L390.917 131.023C392.726 137.091 389.326 143.432 383.316 145.19Z" fill="white" stroke="#060606" stroke-width="2" stroke-miterlimit="10"/>
<path d="M433.855 174.453L399.21 184.581C392.554 186.527 385.524 182.658 383.514 175.941L373.052 140.983C371.042 134.266 374.811 127.24 381.468 125.294L416.113 115.166C422.769 113.22 429.799 117.089 431.809 123.806L442.271 158.764C444.286 165.479 440.517 172.505 433.855 174.453Z" fill="white" stroke="#060606" stroke-width="2" stroke-miterlimit="10"/>
<path d="M309.963 122.747C309.662 123.04 308.946 123.522 307.937 123.815C305.67 124.475 303.726 123.346 303.025 121.016C302.32 118.67 303.392 116.509 305.846 115.795C306.653 115.56 307.429 115.557 307.859 115.638L307.87 116.798C307.487 116.704 306.923 116.68 306.177 116.897C304.454 117.399 303.91 118.961 304.388 120.551C304.919 122.314 306.363 123.075 307.854 122.641C308.63 122.415 309.081 122.062 309.417 121.775L309.963 122.747Z" fill="#060606"/>
<path d="M310.612 112.191L311.268 114.375L313.217 113.806L313.533 114.859L311.584 115.427L312.815 119.528C313.098 120.47 313.521 120.928 314.279 120.707C314.635 120.603 314.884 120.48 315.04 120.383L315.414 121.402C315.183 121.588 314.789 121.789 314.263 121.942C313.629 122.127 313.057 122.071 312.619 121.789C312.109 121.493 311.767 120.858 311.498 119.963L310.253 115.815L309.093 116.153L308.777 115.1L309.937 114.762L309.39 112.94L310.612 112.191Z" fill="#060606"/>
<path d="M315.524 115.683C315.255 114.788 315.009 114.022 314.75 113.328L315.942 112.981L316.437 114.461L316.499 114.443C316.532 113.322 317.159 112.438 318.073 112.172C318.228 112.127 318.341 112.111 318.474 112.107L318.866 113.411C318.717 113.42 318.573 113.445 318.387 113.499C317.427 113.779 316.968 114.716 317.094 115.807C317.119 116.005 317.154 116.234 317.225 116.47L318.443 120.524L317.096 120.917L315.524 115.683V115.683Z" fill="#060606"/>
<path d="M318.95 108.256L320.298 107.86L323.616 118.986L322.267 119.382L318.95 108.256Z" fill="#060606"/>
<path d="M405.519 153.766L407.571 148.288C407.774 147.783 407.976 147.331 408.194 146.822L408.185 146.79L404.115 147.974L403.779 146.856L409.51 145.189L409.755 146.059L407.731 151.461C407.549 151.976 407.352 152.445 407.128 152.938L407.138 152.969L411.534 151.691L411.865 152.793L405.761 154.569L405.519 153.766V153.766Z" fill="#060606"/>
<path d="M329.831 223.295L330.966 221.225L332.102 223.295C336.661 231.604 343.517 238.437 351.855 242.981L353.932 244.112L351.855 245.244C343.517 249.787 336.661 256.62 332.102 264.93L330.966 267L329.831 264.93C325.272 256.62 318.415 249.787 310.077 245.244L308 244.112L310.077 242.981C318.412 238.437 325.269 231.604 329.831 223.295Z" fill="#FF6895"/>
<path d="M345.593 212.833L346.05 212L346.508 212.833C348.345 216.181 351.108 218.935 354.47 220.769L355.307 221.225L354.47 221.681C351.111 223.511 348.347 226.265 346.508 229.616L346.05 230.449L345.593 229.616C343.756 226.268 340.992 223.514 337.63 221.681L336.794 221.225L337.63 220.769C340.992 218.938 343.756 216.184 345.593 212.833Z" fill="#FF6895"/>
<path d="M320.831 223.294L321.966 221.224L323.102 223.294C327.661 231.604 334.517 238.437 342.855 242.98L344.932 244.112L342.855 245.243C334.517 249.787 327.661 256.62 323.102 264.93L321.966 267L320.831 264.93C316.272 256.62 309.415 249.787 301.077 245.243L299 244.112L301.077 242.98C309.415 238.437 316.272 231.604 320.831 223.294Z" fill="white" stroke="#060606" stroke-width="2" stroke-miterlimit="10"/>
<path d="M338.889 212.833L339.347 212L339.804 212.833C341.641 216.181 344.405 218.935 347.767 220.769L348.603 221.225L347.767 221.681C344.408 223.511 341.644 226.265 339.804 229.616L339.347 230.449L338.889 229.616C337.052 226.268 334.289 223.514 330.926 221.681L330.09 221.225L330.926 220.769C334.286 218.938 337.049 216.184 338.889 212.833Z" fill="white" stroke="#060606" stroke-width="2" stroke-miterlimit="10"/>
<path d="M448.025 137.209L389.029 258.119L388.569 282.227L407.652 267.198L466.768 146.346C466.768 146.346 465.642 141.766 458.985 138.521C453.043 135.629 448.025 137.209 448.025 137.209Z" fill="#FF6895"/>
<path d="M441.415 137.189L446.229 127.328C447.583 127.058 451.47 126.577 455.878 128.725C460.848 131.147 462.507 134.308 462.951 135.398L458.095 145.316L441.415 137.189Z" fill="white" stroke="#060606" stroke-width="2"/>
<mask id="path-17-inside-1_268_3488" fill="white">
<path d="M456.212 128.041C461.936 130.83 463.502 134.625 463.776 135.437L458.443 146.327L440.402 137.536L445.709 126.666C446.672 126.43 451.118 125.559 456.212 128.041ZM456.423 127.61C450.426 124.688 445.37 126.26 445.37 126.26L439.756 137.761L458.664 146.974L464.292 135.48C464.292 135.48 463.143 130.884 456.423 127.61Z"/>
</mask>
<path d="M456.212 128.041C461.936 130.83 463.502 134.625 463.776 135.437L458.443 146.327L440.402 137.536L445.709 126.666C446.672 126.43 451.118 125.559 456.212 128.041ZM456.423 127.61C450.426 124.688 445.37 126.26 445.37 126.26L439.756 137.761L458.664 146.974L464.292 135.48C464.292 135.48 463.143 130.884 456.423 127.61Z" fill="#060606"/>
<path d="M463.776 135.437L465.573 136.315L465.935 135.575L465.672 134.795L463.776 135.437ZM458.443 146.327L457.566 148.124L459.362 148.999L460.24 147.205L458.443 146.327ZM440.402 137.536L438.604 136.66L437.726 138.458L439.524 139.334L440.402 137.536ZM445.709 126.666L445.235 124.723L444.323 124.946L443.911 125.79L445.709 126.666ZM445.37 126.26L444.777 124.351L443.951 124.608L443.572 125.384L445.37 126.26ZM439.756 137.761L437.958 136.885L437.08 138.682L438.878 139.558L439.756 137.761ZM458.664 146.974L457.787 148.771L459.583 149.646L460.461 147.852L458.664 146.974ZM464.292 135.48L466.089 136.358L466.09 136.356L464.292 135.48ZM455.335 129.838C460.485 132.348 461.741 135.665 461.881 136.078L465.672 134.795C465.262 133.585 463.386 129.312 457.09 126.244L455.335 129.838ZM461.979 134.558L456.646 145.449L460.24 147.205L465.573 136.315L461.979 134.558ZM459.321 144.53L441.279 135.739L439.524 139.334L457.566 148.124L459.321 144.53ZM442.2 138.412L447.507 127.542L443.911 125.79L438.604 136.66L442.2 138.412ZM446.184 128.608C446.914 128.429 450.827 127.642 455.335 129.838L457.09 126.244C451.408 123.476 446.43 124.431 445.235 124.723L446.184 128.608ZM457.3 125.813C453.968 124.189 450.884 123.809 448.621 123.84C447.491 123.856 446.562 123.974 445.902 124.092C445.571 124.151 445.307 124.211 445.117 124.258C445.022 124.282 444.946 124.302 444.889 124.318C444.86 124.326 444.836 124.333 444.818 124.339C444.808 124.342 444.8 124.344 444.794 124.346C444.79 124.347 444.787 124.348 444.784 124.349C444.783 124.349 444.782 124.35 444.78 124.35C444.78 124.35 444.779 124.351 444.779 124.351C444.778 124.351 444.777 124.351 445.37 126.26C445.964 128.169 445.963 128.17 445.962 128.17C445.962 128.17 445.961 128.17 445.961 128.17C445.96 128.171 445.959 128.171 445.958 128.171C445.957 128.171 445.955 128.172 445.954 128.172C445.953 128.173 445.952 128.173 445.952 128.173C445.953 128.173 445.958 128.171 445.968 128.168C445.988 128.163 446.026 128.152 446.081 128.139C446.191 128.111 446.369 128.071 446.606 128.028C447.082 127.943 447.791 127.851 448.675 127.839C450.439 127.814 452.881 128.109 455.545 129.407L457.3 125.813ZM443.572 125.384L437.958 136.885L441.553 138.637L447.168 127.136L443.572 125.384ZM438.878 139.558L457.787 148.771L459.542 145.177L440.633 135.963L438.878 139.558ZM460.461 147.852L466.089 136.358L462.495 134.602L456.867 146.096L460.461 147.852ZM464.292 135.48C466.233 134.994 466.233 134.993 466.232 134.992C466.232 134.991 466.232 134.99 466.232 134.989C466.231 134.988 466.231 134.986 466.23 134.984C466.23 134.98 466.228 134.977 466.227 134.972C466.225 134.964 466.223 134.954 466.22 134.944C466.214 134.922 466.207 134.897 466.198 134.867C466.181 134.806 466.157 134.729 466.125 134.636C466.063 134.451 465.97 134.202 465.838 133.903C465.574 133.305 465.152 132.504 464.499 131.601C463.185 129.784 460.965 127.598 457.3 125.813L455.545 129.407C458.601 130.896 460.316 132.645 461.256 133.945C461.73 134.6 462.016 135.152 462.177 135.518C462.258 135.701 462.307 135.837 462.334 135.915C462.347 135.954 462.354 135.979 462.357 135.988C462.358 135.992 462.358 135.993 462.357 135.989C462.357 135.987 462.356 135.984 462.355 135.98C462.354 135.978 462.354 135.976 462.353 135.973C462.353 135.972 462.352 135.971 462.352 135.969C462.352 135.969 462.352 135.968 462.352 135.967C462.351 135.966 462.351 135.965 464.292 135.48Z" fill="#060606" mask="url(#path-17-inside-1_268_3488)"/>
<path d="M454.052 154.153L436.94 145.815L441.873 135.711C441.975 135.689 442.095 135.665 442.233 135.641C442.754 135.55 443.517 135.454 444.461 135.444C446.347 135.424 448.949 135.745 451.782 137.123C454.991 138.687 456.836 140.54 457.872 141.965C458.392 142.679 458.713 143.291 458.901 143.713C458.95 143.823 458.99 143.92 459.022 144.003L454.052 154.153ZM441.469 135.809L441.471 135.808L441.47 135.809L441.469 135.809Z" fill="white" stroke="#060606" stroke-width="2"/>
<path d="M387.582 245.359L438.52 140.964C439.242 140.771 443.873 139.691 449.208 142.292C455.195 145.211 456.65 149.258 456.841 149.879L405.776 254.229L387.132 268.913L387.582 245.359Z" fill="white" stroke="#060606" stroke-width="2"/>
<path d="M386.754 269.632L386.883 262.945L391.914 265.397L386.754 269.632Z" fill="#060606"/>
<path d="M389.19 245.943C389.19 245.943 399.138 245.665 404.363 253.341" stroke="#060606" stroke-width="2" stroke-miterlimit="10" stroke-linecap="round" stroke-linejoin="round"/>
<path d="M399.57 243.969L447.001 146.721" stroke="#060606" stroke-width="2" stroke-miterlimit="10" stroke-linecap="round"/>
</svg>
