<svg width="1260" height="428" viewBox="0 0 1260 428" fill="none" xmlns="http://www.w3.org/2000/svg">
<path d="M0 192.868C0 116.705 61.7422 54.9629 137.905 54.9629H1102.08C1178.24 54.9629 1239.99 116.705 1239.99 192.868V192.868C1239.99 269.031 1178.24 330.773 1102.08 330.773H137.905C61.742 330.773 0 269.031 0 192.868V192.868Z" fill="#FF6895"/>
<path fill-rule="evenodd" clip-rule="evenodd" d="M784.596 122.92C794.322 132.608 809.067 137.452 828.833 137.452C848.284 137.452 862.873 132.608 872.599 122.92C882.325 113.232 887.188 100.575 887.188 84.9497C887.188 73.4967 884.262 63.5011 878.409 54.9629L778.428 54.9629C773.128 63.4626 770.478 73.4582 770.478 84.9497C770.478 100.575 775.184 113.232 784.596 122.92ZM883.275 330.773H777.195C777.423 318.397 777.537 306.928 777.537 296.365C777.537 257.301 776.282 213.549 773.772 165.109H886.717C884.207 211.674 882.952 255.426 882.952 296.365C882.952 307.129 883.06 318.599 883.275 330.773ZM1040.21 330.773H932.797C933.029 318.134 933.145 305.728 933.145 293.552C933.145 253.551 931.89 210.736 929.381 165.109C950.087 166.047 965.931 166.516 976.912 166.516C988.52 166.516 1004.36 166.047 1024.44 165.109L1038.09 234.019C1045.31 209.017 1056.6 190.579 1071.97 178.704C1087.35 166.516 1105.23 160.422 1125.62 160.422C1144.45 160.422 1160.76 164.641 1174.57 173.078C1188.37 181.204 1198.72 192.298 1205.63 206.361C1212.84 220.424 1216.45 236.206 1216.45 253.707V269.949C1194.02 303.16 1157.51 326.077 1115.48 330.13C1115.65 317.766 1115.74 305.729 1115.74 294.021C1115.74 280.27 1112.29 269.333 1105.39 261.207C1098.8 253.082 1090.33 249.019 1079.97 249.019C1069.62 249.019 1060.84 253.707 1053.62 263.082C1046.4 272.145 1042.17 284.646 1040.91 300.584C1040.6 312.328 1040.37 322.391 1040.21 330.773Z" fill="white"/>
<path d="M1108.53 121.847C1108.81 120.271 1108.15 118.702 1106.9 117.506C1108.48 116.811 1109.64 115.565 1109.92 113.985C1110.42 111.145 1107.9 108.33 1104.29 107.694C1100.68 107.058 1097.34 108.846 1096.84 111.686C1096.57 113.262 1097.22 114.831 1098.47 116.027C1096.89 116.722 1095.73 117.968 1095.46 119.548C1095.18 121.123 1095.83 122.693 1097.09 123.888C1095.5 124.583 1094.35 125.83 1094.07 127.41C1093.79 128.985 1094.45 130.555 1095.7 131.75C1094.11 132.445 1092.96 133.692 1092.68 135.271C1092.4 136.847 1093.06 138.416 1094.31 139.612C1092.72 140.307 1091.57 141.553 1091.29 143.133C1091.02 144.708 1091.67 146.278 1092.93 147.473C1091.34 148.168 1090.19 149.415 1089.91 150.995C1089.63 152.57 1090.28 154.14 1091.54 155.335C1089.95 156.03 1088.8 157.277 1088.52 158.856C1088.24 160.432 1088.9 162.001 1090.15 163.197C1088.56 163.892 1087.41 165.138 1087.13 166.718C1086.86 168.293 1087.51 169.863 1088.76 171.059C1087.18 171.753 1086.02 173 1085.75 174.58C1085.24 177.42 1087.77 180.235 1091.37 180.871C1094.98 181.507 1098.32 179.718 1098.82 176.883C1099.09 175.308 1098.44 173.738 1097.19 172.543C1098.77 171.848 1099.93 170.601 1100.2 169.021C1100.48 167.446 1099.83 165.876 1098.57 164.681C1100.16 163.986 1101.31 162.74 1101.59 161.16C1101.87 159.584 1101.21 158.015 1099.96 156.819C1101.55 156.125 1102.7 154.878 1102.98 153.298C1103.26 151.723 1102.6 150.153 1101.35 148.958C1102.94 148.263 1104.09 147.016 1104.37 145.436C1104.64 143.861 1103.99 142.291 1102.73 141.096C1104.32 140.401 1105.47 139.154 1105.75 137.575C1106.03 135.999 1105.38 134.43 1104.12 133.234C1105.71 132.54 1106.86 131.293 1107.14 129.713C1107.42 128.138 1106.76 126.568 1105.51 125.373C1107.1 124.673 1108.25 123.422 1108.53 121.847Z" fill="#060606" stroke="#060606" stroke-width="2" stroke-miterlimit="10"/>
<path d="M1159.82 205.062L1104.04 195.232C1100.5 194.61 1098.14 191.241 1098.77 187.71L1111.53 115.356C1112.16 111.825 1115.53 109.467 1119.06 110.089L1174.85 119.92C1178.38 120.542 1180.74 123.911 1180.12 127.442L1167.35 199.796C1166.73 203.326 1163.36 205.685 1159.82 205.062Z" fill="#FF6895"/>
<path d="M1100.39 115.812C1103.09 116.235 1105.74 114.274 1106.3 111.431C1106.87 108.588 1105.13 105.941 1102.43 105.518C1099.73 105.095 1097.08 107.056 1096.51 109.899C1095.95 112.741 1097.68 115.389 1100.39 115.812Z" stroke="white" stroke-width="2" stroke-miterlimit="10"/>
<path d="M1099.03 123.494C1101.74 123.917 1104.39 121.956 1104.95 119.113C1105.51 116.27 1103.78 113.623 1101.08 113.2C1098.37 112.777 1095.72 114.738 1095.16 117.581C1094.6 120.424 1096.33 123.071 1099.03 123.494Z" stroke="white" stroke-width="2" stroke-miterlimit="10"/>
<path d="M1097.68 131.178C1100.38 131.601 1103.03 129.64 1103.59 126.797C1104.16 123.954 1102.42 121.307 1099.72 120.884C1097.02 120.461 1094.37 122.422 1093.8 125.265C1093.24 128.108 1094.97 130.755 1097.68 131.178Z" stroke="white" stroke-width="2" stroke-miterlimit="10"/>
<path d="M1096.32 138.855C1099.03 139.278 1101.67 137.317 1102.24 134.474C1102.8 131.632 1101.07 128.984 1098.37 128.561C1095.66 128.138 1093.01 130.1 1092.45 132.942C1091.88 135.785 1093.62 138.432 1096.32 138.855Z" stroke="white" stroke-width="2" stroke-miterlimit="10"/>
<path d="M1094.97 146.54C1097.67 146.963 1100.32 145.001 1100.88 142.159C1101.45 139.316 1099.71 136.669 1097.01 136.246C1094.31 135.822 1091.66 137.784 1091.09 140.627C1090.53 143.469 1092.26 146.117 1094.97 146.54Z" stroke="white" stroke-width="2" stroke-miterlimit="10"/>
<path d="M1093.61 154.222C1096.31 154.645 1098.96 152.683 1099.53 149.841C1100.09 146.998 1098.36 144.351 1095.65 143.928C1092.95 143.505 1090.3 145.466 1089.74 148.309C1089.17 151.151 1090.91 153.799 1093.61 154.222Z" stroke="white" stroke-width="2" stroke-miterlimit="10"/>
<path d="M1092.26 161.9C1094.96 162.323 1097.61 160.362 1098.17 157.519C1098.74 154.676 1097 152.029 1094.3 151.606C1091.6 151.183 1088.95 153.144 1088.38 155.987C1087.82 158.83 1089.55 161.477 1092.26 161.9Z" stroke="white" stroke-width="2" stroke-miterlimit="10"/>
<path d="M1090.9 169.583C1093.6 170.006 1096.25 168.045 1096.82 165.202C1097.38 162.36 1095.65 159.712 1092.94 159.289C1090.24 158.866 1087.59 160.828 1087.03 163.67C1086.46 166.513 1088.2 169.16 1090.9 169.583Z" stroke="white" stroke-width="2" stroke-miterlimit="10"/>
<path d="M1089.54 177.262C1092.25 177.685 1094.9 175.723 1095.46 172.881C1096.03 170.038 1094.29 167.391 1091.59 166.967C1088.88 166.544 1086.24 168.506 1085.67 171.348C1085.11 174.191 1086.84 176.838 1089.54 177.262Z" stroke="white" stroke-width="2" stroke-miterlimit="10"/>
<path d="M1151.6 195.085L1095.82 185.256C1092.28 184.633 1089.92 181.265 1090.55 177.733L1103.31 105.38C1103.94 101.849 1107.31 99.49 1110.84 100.113L1166.63 109.943C1170.16 110.566 1172.52 113.934 1171.9 117.465L1159.13 189.819C1158.51 193.349 1155.14 195.708 1151.6 195.085Z" fill="white" stroke="#060606" stroke-width="2" stroke-miterlimit="10"/>
<path d="M1159.62 121.218L1113.55 113.212L1113.41 114.008L1159.47 122.014L1159.62 121.218Z" fill="#060606"/>
<path d="M1158.71 126.358L1112.64 118.352L1112.5 119.147L1158.57 127.153L1158.71 126.358Z" fill="#060606"/>
<path d="M1157.8 131.495L1111.74 123.49L1111.6 124.285L1157.66 132.291L1157.8 131.495Z" fill="#060606"/>
<path fill-rule="evenodd" clip-rule="evenodd" d="M1136.18 69.4948L1082.61 82.0863C1077.24 83.3493 1071.79 80.1851 1070.45 75.0118L1062.2 43.1307C1060.86 37.9619 1064.13 32.7452 1069.51 31.4811L1129.94 17.2758C1135.31 16.0128 1140.75 19.177 1142.09 24.3503L1148.37 48.5878L1173.37 42.7188C1179.3 41.3265 1185.3 44.8184 1186.78 50.5159L1194.47 80.1687C1195.95 85.8652 1192.34 91.6156 1186.41 93.0089L1155.55 100.255C1149.62 101.647 1143.61 98.1552 1142.13 92.4577L1136.18 69.4948Z" fill="#FF6895"/>
<path d="M1134.02 63.7806L1074.31 77.2435C1069 78.4405 1063.53 75.1437 1062.1 69.8727L1053.27 37.3941C1051.84 32.1231 1054.98 26.8852 1060.29 25.6872L1120 12.2243C1125.31 11.0273 1130.78 14.3241 1132.21 19.5951L1141.04 52.0783C1142.47 57.3457 1139.33 62.5836 1134.02 63.7806Z" fill="white" stroke="#060606" stroke-width="2" stroke-miterlimit="10"/>
<path d="M1177.25 88.7875L1146.9 95.6189C1141.07 96.9314 1135.06 93.3125 1133.49 87.538L1125.3 57.4847C1123.73 51.7102 1127.19 45.962 1133.02 44.6494L1163.36 37.8181C1169.19 36.5055 1175.2 40.1245 1176.77 45.8989L1184.96 75.9523C1186.53 81.7257 1183.08 87.4739 1177.25 88.7875Z" fill="white" stroke="#060606" stroke-width="2" stroke-miterlimit="10"/>
<path d="M1070.13 41.9965C1069.87 42.2252 1069.26 42.5882 1068.4 42.7738C1066.47 43.1907 1064.83 42.1168 1064.25 40.1059C1063.67 38.0814 1064.6 36.3228 1066.69 35.8716C1067.38 35.7232 1068.04 35.7685 1068.4 35.863L1068.4 36.844C1068.08 36.7409 1067.6 36.6857 1066.97 36.8227C1065.5 37.1397 1065.02 38.4251 1065.41 39.7974C1065.85 41.3192 1067.07 42.0511 1068.34 41.777C1069 41.6342 1069.39 41.3634 1069.68 41.1426L1070.13 41.9965Z" fill="#060606"/>
<path d="M1071.14 32.9811L1071.66 34.8462L1073.29 34.4913L1073.54 35.3903L1071.92 35.7452L1072.9 39.2471C1073.13 40.0522 1073.48 40.4605 1074.11 40.3225C1074.4 40.2577 1074.61 40.1696 1074.74 40.0984L1075.04 40.9727C1074.85 41.1145 1074.52 41.2576 1074.08 41.3533C1073.56 41.4688 1073.08 41.3873 1072.72 41.1244C1072.3 40.846 1072.02 40.2944 1071.81 39.5296L1070.81 35.9874L1069.84 36.1986L1069.59 35.2996L1070.56 35.0884L1070.12 33.5319L1071.14 32.9811Z" fill="#060606"/>
<path d="M1075.54 35.9821C1075.33 35.216 1075.13 34.5603 1074.92 33.964L1075.91 33.7467L1076.31 35.015L1076.36 35.0037C1076.4 34.0681 1076.93 33.3675 1077.7 33.2011C1077.83 33.1729 1077.92 33.1665 1078.03 33.1708L1078.35 34.2863C1078.22 34.2848 1078.1 34.2968 1077.95 34.3306C1077.14 34.5056 1076.75 35.2614 1076.85 36.1822C1076.87 36.3491 1076.9 36.5429 1076.95 36.7445L1077.93 40.2119L1076.81 40.4574L1075.54 35.9821V35.9821Z" fill="#060606"/>
<path d="M1078.91 29.9224L1079.96 29.6795L1082.44 39.0617L1081.39 39.3046L1078.91 29.9224Z" fill="#060606"/>
<path d="M1153.27 69.8793L1155.07 65.3722C1155.24 64.9581 1155.42 64.5877 1155.61 64.1708L1155.6 64.1435L1152.13 64.8922L1151.85 63.9253L1156.74 62.8709L1156.95 63.6227L1155.18 68.0668C1155.02 68.4917 1154.84 68.8756 1154.65 69.279L1154.66 69.3062L1158.41 68.4975L1158.69 69.4508L1153.47 70.5738L1153.27 69.8793V69.8793Z" fill="#060606"/>
<path d="M965.559 337.223C977.789 328.003 982.741 311.35 976.601 295.924C969.096 277.067 947.863 267.207 929.172 273.899C910.481 280.591 901.414 301.299 908.92 320.156C915.056 335.575 930.378 344.977 945.982 344.233C947.229 346.007 948.941 347.362 950.869 348.186L970.739 410.284C972.755 415.349 979.37 417.67 985.518 415.469C991.666 413.267 995.014 407.38 992.998 402.315L964.275 343.97C965.424 341.975 965.895 339.616 965.559 337.223Z" fill="#FF6895"/>
<path d="M975.586 410.927C969.784 413.027 963.541 410.811 961.642 405.979L941.179 341.212C939.28 336.38 938.182 332.638 943.984 330.539C949.786 328.439 951.001 332.368 952.901 337.2L982.648 398.37C984.544 403.211 981.381 408.83 975.586 410.927Z" fill="white" stroke="#060606" stroke-width="2" stroke-miterlimit="10"/>
<path d="M951.302 347.474C956.784 345.523 959.443 339.488 957.24 333.994C955.037 328.5 948.807 325.627 943.324 327.578C937.841 329.528 935.182 335.564 937.385 341.058C939.588 346.552 945.819 349.425 951.302 347.474Z" fill="white" stroke="#060606" stroke-width="2" stroke-miterlimit="10"/>
<path d="M949.953 342.343C968.337 335.803 977.253 315.566 969.866 297.143C962.48 278.721 941.588 269.089 923.204 275.63C904.82 282.17 895.905 302.407 903.291 320.83C910.678 339.252 931.569 348.884 949.953 342.343Z" fill="white" stroke="#060606" stroke-width="2" stroke-miterlimit="10"/>
<path d="M945.661 331.637C958.144 327.195 964.198 313.454 959.182 300.945C954.166 288.435 939.981 281.895 927.497 286.336C915.014 290.778 908.961 304.519 913.976 317.028C918.992 329.537 933.177 336.078 945.661 331.637Z" fill="white" stroke="#060606" stroke-width="2" stroke-miterlimit="10"/>
<path d="M946.275 327.83C933.742 332.289 919.503 325.723 914.467 313.163C912.866 309.171 912.391 305.06 912.889 301.152C911.401 306.102 911.536 311.627 913.665 316.937C918.7 329.497 932.94 336.063 945.473 331.603C954.022 328.561 959.562 321.174 960.625 312.801C958.59 319.568 953.51 325.255 946.275 327.83Z" fill="#060606"/>
<path d="M1000.16 363.572C1011.58 363.572 1020.84 354.33 1020.84 342.925C1020.84 331.52 1011.58 322.278 1000.16 322.278C988.748 322.278 979.489 331.52 979.489 342.925C979.489 354.33 988.748 363.572 1000.16 363.572Z" fill="#FF6895" stroke="#FF6895" stroke-width="3"/>
<path d="M995.164 356.077C1006.3 356.077 1015.34 347.058 1015.34 335.93C1015.34 324.802 1006.3 315.783 995.164 315.783C984.023 315.783 974.989 324.802 974.989 335.93C974.989 347.058 984.023 356.077 995.164 356.077Z" fill="white" stroke="#060606" stroke-width="2"/>
<path fill-rule="evenodd" clip-rule="evenodd" d="M982.118 335.93C982.118 328.736 987.959 322.905 995.163 322.905C1002.37 322.905 1008.21 328.736 1008.21 335.93C1008.21 343.124 1002.37 348.956 995.163 348.956C987.959 348.956 982.118 343.124 982.118 335.93ZM995.163 324.722C988.964 324.722 983.939 329.74 983.939 335.93C983.939 342.12 988.964 347.139 995.163 347.139C1001.36 347.139 1006.39 342.12 1006.39 335.93C1006.39 329.74 1001.36 324.722 995.163 324.722Z" fill="#060606"/>
<path fill-rule="evenodd" clip-rule="evenodd" d="M982.118 335.93C982.118 335.428 982.526 335.021 983.028 335.021H1007.3C1007.8 335.021 1008.21 335.428 1008.21 335.93C1008.21 336.432 1007.8 336.839 1007.3 336.839H983.028C982.526 336.839 982.118 336.432 982.118 335.93Z" fill="#060606"/>
<path fill-rule="evenodd" clip-rule="evenodd" d="M992.612 324.141C993.3 323.415 994.162 322.905 995.163 322.905C996.164 322.905 997.025 323.415 997.713 324.141C998.399 324.866 998.975 325.865 999.44 327.025C1000.37 329.349 1000.93 332.498 1000.93 335.93C1000.93 339.362 1000.37 342.511 999.44 344.836C998.975 345.996 998.399 346.995 997.713 347.72C997.025 348.446 996.164 348.956 995.163 348.956C994.162 348.956 993.3 348.446 992.612 347.72C991.926 346.995 991.35 345.996 990.886 344.836C989.954 342.511 989.399 339.362 989.399 335.93C989.399 332.498 989.954 329.349 990.886 327.025C991.35 325.865 991.926 324.866 992.612 324.141ZM992.576 327.7C991.75 329.761 991.219 332.67 991.219 335.93C991.219 339.19 991.75 342.1 992.576 344.161C992.989 345.194 993.459 345.969 993.935 346.471C994.408 346.971 994.823 347.139 995.163 347.139C995.502 347.139 995.917 346.971 996.391 346.471C996.866 345.969 997.336 345.194 997.75 344.161C998.575 342.1 999.106 339.19 999.106 335.93C999.106 332.67 998.575 329.761 997.75 327.7C997.336 326.667 996.866 325.892 996.391 325.39C995.917 324.89 995.502 324.722 995.163 324.722C994.823 324.722 994.408 324.89 993.935 325.39C993.459 325.892 992.989 326.667 992.576 327.7Z" fill="#060606"/>
<path fill-rule="evenodd" clip-rule="evenodd" d="M985.939 326.892C986.294 326.537 986.871 326.537 987.226 326.892C989.258 328.921 992.063 330.175 995.163 330.175C998.262 330.175 1001.07 328.921 1003.1 326.892C1003.45 326.537 1004.03 326.537 1004.39 326.892C1004.74 327.247 1004.74 327.822 1004.39 328.177C1002.03 330.533 998.764 331.992 995.163 331.992C991.561 331.992 988.298 330.533 985.939 328.177C985.584 327.822 985.584 327.247 985.939 326.892Z" fill="#060606"/>
<path fill-rule="evenodd" clip-rule="evenodd" d="M985.939 343.684C988.298 341.327 991.561 339.868 995.163 339.868C998.764 339.868 1002.03 341.327 1004.39 343.684C1004.74 344.038 1004.74 344.614 1004.39 344.969C1004.03 345.324 1003.45 345.324 1003.1 344.969C1001.07 342.939 998.262 341.686 995.163 341.686C992.063 341.686 989.258 342.939 987.226 344.969C986.871 345.324 986.294 345.324 985.939 344.969C985.584 344.614 985.584 344.038 985.939 343.684Z" fill="#060606"/>
<path d="M1017.29 251.726C1015.77 240.882 1005.78 233.316 994.937 234.74L993.206 222.436C992.598 218.109 977.977 216.589 960.547 219.037C943.118 221.484 929.482 226.974 930.091 231.301L939.022 294.809C939.075 295.187 939.075 295.187 939.103 295.38C939.711 299.707 954.332 301.228 971.762 298.78C989.191 296.332 1002.83 290.843 1002.22 286.516C1002.19 286.322 1002.2 286.25 1002.14 285.944L1000.49 274.212C1011.31 272.594 1018.82 262.57 1017.29 251.726ZM1009.71 252.791C1010.65 259.449 1006.05 265.606 999.422 266.635L996.002 242.317C1002.66 241.481 1008.77 246.133 1009.71 252.791Z" fill="#FF6895"/>
<path d="M988.764 229.269C977.853 230.801 970.249 240.883 971.782 251.784C973.315 262.685 983.405 270.282 994.316 268.749C1005.23 267.217 1012.83 257.136 1011.3 246.234C1009.76 235.333 999.675 227.737 988.764 229.269ZM993.25 261.168C986.529 262.112 980.31 257.434 979.365 250.715C978.421 244 983.103 237.786 989.829 236.841C996.549 235.898 1002.77 240.576 1003.71 247.295C1004.66 254.014 999.975 260.224 993.25 261.168Z" fill="white" stroke="#060606" stroke-width="2" stroke-miterlimit="10"/>
<path d="M987.211 216.944C986.602 212.617 971.981 211.097 954.551 213.545C937.118 215.993 923.482 221.482 924.091 225.809L933.022 289.317C933.075 289.696 933.075 289.696 933.103 289.889C933.711 294.216 948.332 295.737 965.762 293.289C983.191 290.841 996.827 285.352 996.218 281.025C996.191 280.831 996.199 280.758 996.138 280.453L987.206 216.945L987.211 216.944Z" fill="white" stroke="#060606" stroke-width="2" stroke-miterlimit="10"/>
<path d="M956.277 225.939C969.204 224.123 979.497 221.323 979.266 219.684C979.036 218.045 968.369 218.188 955.442 220.004C942.516 221.819 932.223 224.62 932.453 226.259C932.684 227.898 943.35 227.754 956.277 225.939Z" fill="#060606"/>
<path d="M929.327 225.9C929.327 225.9 934.785 229.25 955.226 226.132C975.667 223.015 982.21 218.473 982.21 218.473" stroke="#060606" stroke-width="2" stroke-miterlimit="10"/>
<path d="M940.355 227.458L943.757 251.644" stroke="#060606" stroke-width="2" stroke-miterlimit="10"/>
<path d="M949.353 251.741L939.833 253.078L941.5 264.934L951.02 263.597L949.353 251.741Z" fill="#060606"/>
<path d="M948.535 251.125L939.015 252.462L940.682 264.317L950.202 262.98L948.535 251.125Z" fill="white" stroke="#060606" stroke-width="2" stroke-miterlimit="10"/>
<path d="M1214.6 60.4798L1145.31 219.672L1144.91 250.09L1167.47 228.927L1236.9 69.7947C1236.9 69.7947 1235.54 64.1578 1227.62 60.8493C1220.55 57.903 1214.6 60.4798 1214.6 60.4798Z" fill="#FF6895"/>
<path d="M1203.74 61.9315L1209.99 47.9326C1211.57 47.4287 1216.65 46.1634 1222.45 48.5227C1228.99 51.1885 1231.05 55.3512 1231.54 56.6278L1225.25 70.6904L1203.74 61.9315Z" fill="white" stroke="#060606" stroke-width="2"/>
<mask id="path-49-inside-1_268_861" fill="white">
<path d="M1222.76 47.8669C1229.96 50.7832 1231.92 55.5573 1232.27 56.5863L1225.53 71.5586L1202.83 62.3656L1209.54 47.4223C1210.75 46.9889 1216.35 45.2709 1222.76 47.8669ZM1223.03 47.2741C1215.48 44.2186 1209.11 46.9346 1209.11 46.9346L1202.02 62.7434L1225.8 72.3782L1232.91 56.5761C1232.91 56.5761 1231.48 50.6985 1223.03 47.2741Z"/>
</mask>
<path d="M1222.76 47.8669C1229.96 50.7832 1231.92 55.5573 1232.27 56.5863L1225.53 71.5586L1202.83 62.3656L1209.54 47.4223C1210.75 46.9889 1216.35 45.2709 1222.76 47.8669ZM1223.03 47.2741C1215.48 44.2186 1209.11 46.9346 1209.11 46.9346L1202.02 62.7434L1225.8 72.3782L1232.91 56.5761C1232.91 56.5761 1231.48 50.6985 1223.03 47.2741Z" fill="#060606"/>
<path d="M1232.27 56.5863L1234.1 57.3325L1234.41 56.6445L1234.18 55.9417L1232.27 56.5863ZM1225.53 71.5586L1224.72 73.3644L1226.55 74.1079L1227.36 72.3048L1225.53 71.5586ZM1202.83 62.3656L1201 61.6213L1200.19 63.4271L1202.02 64.1714L1202.83 62.3656ZM1209.54 47.4223L1208.89 45.5908L1208.06 45.8878L1207.7 46.678L1209.54 47.4223ZM1209.11 46.9346L1208.35 45.1488L1207.6 45.4661L1207.28 46.1903L1209.11 46.9346ZM1202.02 62.7434L1200.18 61.9991L1199.37 63.8049L1201.21 64.5492L1202.02 62.7434ZM1225.8 72.3782L1224.99 74.184L1226.83 74.9275L1227.64 73.1243L1225.8 72.3782ZM1232.91 56.5761L1234.75 57.3222L1234.75 57.3203L1232.91 56.5761ZM1221.95 49.6727C1228.49 52.3225 1230.14 56.5777 1230.35 57.2309L1234.18 55.9417C1233.71 54.537 1231.43 49.2438 1223.57 46.061L1221.95 49.6727ZM1230.43 55.8401L1223.69 70.8124L1227.36 72.3048L1234.1 57.3325L1230.43 55.8401ZM1226.34 69.7528L1203.64 60.5598L1202.02 64.1714L1224.72 73.3644L1226.34 69.7528ZM1204.67 63.1099L1211.38 48.1666L1207.7 46.678L1201 61.6213L1204.67 63.1099ZM1210.19 49.2537C1211.19 48.8966 1216.21 47.3467 1221.95 49.6727L1223.57 46.061C1216.5 43.1951 1210.32 45.0812 1208.89 45.5908L1210.19 49.2537ZM1223.84 45.4683C1219.68 43.7863 1215.85 43.6916 1213.05 44.0195C1211.65 44.1833 1210.51 44.4532 1209.7 44.687C1209.29 44.804 1208.97 44.9125 1208.74 44.9951C1208.63 45.0364 1208.54 45.0713 1208.47 45.0976C1208.44 45.1108 1208.41 45.1218 1208.39 45.1304C1208.38 45.1347 1208.37 45.1385 1208.36 45.1415C1208.36 45.1431 1208.36 45.1445 1208.35 45.1457C1208.35 45.1463 1208.35 45.1469 1208.35 45.1474C1208.35 45.1477 1208.35 45.148 1208.35 45.1481C1208.35 45.1485 1208.35 45.1488 1209.11 46.9346C1209.88 48.7203 1209.88 48.7207 1209.88 48.721C1209.88 48.7211 1209.88 48.7214 1209.88 48.7216C1209.88 48.7219 1209.88 48.7222 1209.88 48.7225C1209.88 48.7231 1209.88 48.7235 1209.88 48.7237C1209.87 48.7242 1209.87 48.7241 1209.88 48.7234C1209.88 48.7219 1209.89 48.718 1209.9 48.7121C1209.93 48.7001 1209.99 48.6796 1210.06 48.6526C1210.21 48.5986 1210.45 48.5188 1210.76 48.429C1211.38 48.249 1212.3 48.0308 1213.43 47.8976C1215.71 47.6313 1218.82 47.7064 1222.22 49.0799L1223.84 45.4683ZM1207.28 46.1903L1200.18 61.9991L1203.86 63.4877L1210.95 47.6789L1207.28 46.1903ZM1201.21 64.5492L1224.99 74.184L1226.61 70.5724L1202.83 60.9376L1201.21 64.5492ZM1227.64 73.1243L1234.75 57.3222L1231.08 55.8299L1223.97 71.6321L1227.64 73.1243ZM1232.91 56.5761C1234.87 56.0808 1234.87 56.0797 1234.87 56.0785C1234.87 56.0781 1234.87 56.077 1234.87 56.0762C1234.87 56.0745 1234.87 56.0728 1234.87 56.071C1234.87 56.0673 1234.86 56.0633 1234.86 56.059C1234.86 56.0502 1234.86 56.0401 1234.86 56.0285C1234.85 56.0053 1234.84 55.9765 1234.83 55.9422C1234.81 55.8737 1234.78 55.7836 1234.75 55.6739C1234.67 55.4546 1234.56 55.1566 1234.41 54.7972C1234.09 54.0785 1233.58 53.1118 1232.77 52.037C1231.16 49.875 1228.41 47.3219 1223.84 45.4683L1222.22 49.0799C1226.09 50.6507 1228.29 52.7486 1229.5 54.3815C1230.12 55.2041 1230.49 55.9208 1230.71 56.4111C1230.82 56.6563 1230.89 56.8442 1230.92 56.9597C1230.94 57.0175 1230.96 57.0569 1230.96 57.0762C1230.96 57.0859 1230.96 57.0904 1230.96 57.0897C1230.96 57.0893 1230.96 57.0876 1230.96 57.0846C1230.96 57.0831 1230.96 57.0812 1230.96 57.079C1230.96 57.0779 1230.96 57.0767 1230.96 57.0754C1230.96 57.0748 1230.96 57.0738 1230.96 57.0734C1230.96 57.0724 1230.96 57.0713 1232.91 56.5761Z" fill="#060606" mask="url(#path-49-inside-1_268_861)"/>
<path d="M1220.56 82.2333L1198.59 73.3245L1205.04 58.9252C1205.2 58.8707 1205.42 58.8034 1205.67 58.7306C1206.34 58.5409 1207.31 58.3148 1208.51 58.1789C1210.92 57.9072 1214.21 57.9972 1217.8 59.4486C1221.86 61.094 1224.2 63.3009 1225.52 65.0601C1226.19 65.9428 1226.6 66.7187 1226.84 67.2634C1226.94 67.4756 1227 67.6526 1227.05 67.787L1220.56 82.2333ZM1204.68 59.0594C1204.68 59.0596 1204.68 59.0595 1204.68 59.0593L1204.68 59.0594Z" fill="white" stroke="#060606" stroke-width="2"/>
<path d="M1142.65 203.427L1202.59 65.8904C1203.45 65.5638 1208.96 63.6614 1215.32 66.3169C1222.47 69.2973 1224.22 74.2293 1224.46 74.99L1164.36 212.484L1142.26 233.17L1142.65 203.427Z" fill="white" stroke="#060606" stroke-width="2"/>
<path d="M1142.68 233.569L1142.77 224.896L1149.1 227.484L1142.68 233.569Z" fill="#060606"/>
<path d="M1144.39 203.279C1144.39 203.279 1157.26 201.689 1164.11 211.538" stroke="#060606" stroke-width="2" stroke-miterlimit="10" stroke-linecap="round" stroke-linejoin="round"/>
<path d="M1157.51 199.883L1211.8 72.7607" stroke="#060606" stroke-width="2" stroke-miterlimit="10" stroke-linecap="round"/>
</svg>
