<svg width="75" height="107" viewBox="0 0 75 107" fill="none" xmlns="http://www.w3.org/2000/svg">
<g filter="url(#filter0_di_0_245)">
<path d="M8 99V2H73V99L40.5 80L8 99Z" fill="#41B7FA"/>
</g>
<path d="M21.0568 37V28.2727H24.108C24.7159 28.2727 25.2173 28.3778 25.6122 28.5881C26.0071 28.7955 26.3011 29.0753 26.4943 29.4276C26.6875 29.777 26.7841 30.1648 26.7841 30.5909C26.7841 30.9659 26.7173 31.2756 26.5838 31.5199C26.4531 31.7642 26.2798 31.9574 26.0639 32.0994C25.8509 32.2415 25.6193 32.3466 25.3693 32.4148V32.5C25.6364 32.517 25.9048 32.6108 26.1747 32.7812C26.4446 32.9517 26.6705 33.196 26.8523 33.5142C27.0341 33.8324 27.125 34.2216 27.125 34.6818C27.125 35.1193 27.0256 35.5128 26.8267 35.8622C26.6278 36.2116 26.3139 36.4886 25.8849 36.6932C25.456 36.8977 24.8977 37 24.2102 37H21.0568ZM22.1136 36.0625H24.2102C24.9006 36.0625 25.3906 35.929 25.6804 35.6619C25.973 35.392 26.1193 35.0653 26.1193 34.6818C26.1193 34.3864 26.044 34.1136 25.8935 33.8636C25.7429 33.6108 25.5284 33.4091 25.25 33.2585C24.9716 33.1051 24.642 33.0284 24.2614 33.0284H22.1136V36.0625ZM22.1136 32.108H24.0739C24.392 32.108 24.679 32.0455 24.9347 31.9205C25.1932 31.7955 25.3977 31.6193 25.5483 31.392C25.7017 31.1648 25.7784 30.8977 25.7784 30.5909C25.7784 30.2074 25.6449 29.8821 25.3778 29.6151C25.1108 29.3452 24.6875 29.2102 24.108 29.2102H22.1136V32.108ZM31.4695 37.1364C30.8388 37.1364 30.2947 36.9972 29.8374 36.7188C29.3828 36.4375 29.032 36.0455 28.7848 35.5426C28.5405 35.0369 28.4183 34.4489 28.4183 33.7784C28.4183 33.108 28.5405 32.517 28.7848 32.0057C29.032 31.4915 29.3757 31.0909 29.8161 30.804C30.2592 30.5142 30.7763 30.3693 31.3672 30.3693C31.7081 30.3693 32.0447 30.4261 32.3771 30.5398C32.7095 30.6534 33.0121 30.8381 33.2848 31.0938C33.5575 31.3466 33.7749 31.6818 33.9368 32.0994C34.0987 32.517 34.1797 33.0312 34.1797 33.642V34.0682H29.1342V33.1989H33.157C33.157 32.8295 33.0831 32.5 32.9354 32.2102C32.7905 31.9205 32.5831 31.6918 32.3132 31.5241C32.0462 31.3565 31.7308 31.2727 31.3672 31.2727C30.9666 31.2727 30.62 31.3722 30.3274 31.571C30.0376 31.767 29.8146 32.0227 29.6584 32.3381C29.5021 32.6534 29.424 32.9915 29.424 33.3523V33.9318C29.424 34.4261 29.5092 34.8452 29.6797 35.1889C29.853 35.5298 30.093 35.7898 30.3999 35.9688C30.7067 36.1449 31.0632 36.233 31.4695 36.233C31.7337 36.233 31.9723 36.196 32.1854 36.1222C32.4013 36.0455 32.5874 35.9318 32.7436 35.7812C32.8999 35.6278 33.0206 35.4375 33.1058 35.2102L34.0774 35.483C33.9751 35.8125 33.8033 36.1023 33.5618 36.3523C33.3203 36.5994 33.022 36.7926 32.6669 36.9318C32.3118 37.0682 31.9126 37.1364 31.4695 37.1364ZM40.3459 31.9205L39.4425 32.1761C39.3857 32.0256 39.3018 31.8793 39.1911 31.7372C39.0831 31.5923 38.9354 31.473 38.7479 31.3793C38.5604 31.2855 38.3203 31.2386 38.0277 31.2386C37.6271 31.2386 37.2933 31.331 37.0263 31.5156C36.7621 31.6974 36.63 31.929 36.63 32.2102C36.63 32.4602 36.7209 32.6577 36.9027 32.8026C37.0845 32.9474 37.3686 33.0682 37.755 33.1648L38.7266 33.4034C39.3118 33.5455 39.7479 33.7628 40.0348 34.0554C40.3217 34.3452 40.4652 34.7187 40.4652 35.1761C40.4652 35.5511 40.3572 35.8864 40.1413 36.1818C39.9283 36.4773 39.63 36.7102 39.2464 36.8807C38.8629 37.0511 38.4169 37.1364 37.9084 37.1364C37.2408 37.1364 36.6882 36.9915 36.2507 36.7017C35.8132 36.4119 35.5362 35.9886 35.4197 35.4318L36.3743 35.1932C36.4652 35.5455 36.6371 35.8097 36.8899 35.9858C37.1456 36.1619 37.4794 36.25 37.8913 36.25C38.3601 36.25 38.7322 36.1506 39.0078 35.9517C39.2862 35.75 39.4254 35.5085 39.4254 35.2273C39.4254 35 39.3459 34.8097 39.1868 34.6562C39.0277 34.5 38.7834 34.3835 38.4538 34.3068L37.3629 34.0511C36.7635 33.9091 36.3232 33.6889 36.0419 33.3906C35.7635 33.0895 35.6243 32.7131 35.6243 32.2614C35.6243 31.892 35.728 31.5653 35.9354 31.2812C36.1456 30.9972 36.4311 30.7741 36.7919 30.6122C37.1555 30.4503 37.5675 30.3693 38.0277 30.3693C38.6754 30.3693 39.1839 30.5114 39.5533 30.7955C39.9254 31.0795 40.1896 31.4545 40.3459 31.9205ZM44.8256 30.4545V31.3068H41.4336V30.4545H44.8256ZM42.4222 28.8864H43.4279V35.125C43.4279 35.4091 43.4691 35.6222 43.5515 35.7642C43.6367 35.9034 43.7447 35.9972 43.8754 36.0455C44.0089 36.0909 44.1495 36.1136 44.2972 36.1136C44.408 36.1136 44.4989 36.108 44.57 36.0966C44.641 36.0824 44.6978 36.071 44.7404 36.0625L44.945 36.9659C44.8768 36.9915 44.7816 37.017 44.6594 37.0426C44.5373 37.071 44.3825 37.0852 44.195 37.0852C43.9109 37.0852 43.6325 37.0241 43.3597 36.902C43.0898 36.7798 42.8654 36.5938 42.6864 36.3438C42.5103 36.0938 42.4222 35.7784 42.4222 35.3977V28.8864ZM23.75 51H21.0568V42.2727H23.8693C24.7159 42.2727 25.4403 42.4474 26.0426 42.7969C26.6449 43.1435 27.1065 43.642 27.4276 44.2926C27.7486 44.9403 27.9091 45.7159 27.9091 46.6193C27.9091 47.5284 27.7472 48.3111 27.4233 48.9673C27.0994 49.6207 26.6278 50.1236 26.0085 50.4759C25.3892 50.8253 24.6364 51 23.75 51ZM22.1136 50.0625H23.6818C24.4034 50.0625 25.0014 49.9233 25.4759 49.6449C25.9503 49.3665 26.304 48.9702 26.5369 48.456C26.7699 47.9418 26.8864 47.3295 26.8864 46.6193C26.8864 45.9148 26.7713 45.3082 26.5412 44.7997C26.3111 44.2884 25.9673 43.8963 25.5099 43.6236C25.0526 43.348 24.483 43.2102 23.8011 43.2102H22.1136V50.0625ZM32.2898 51.1364C31.6591 51.1364 31.1151 50.9972 30.6577 50.7188C30.2031 50.4375 29.8523 50.0455 29.6051 49.5426C29.3608 49.0369 29.2386 48.4489 29.2386 47.7784C29.2386 47.108 29.3608 46.517 29.6051 46.0057C29.8523 45.4915 30.196 45.0909 30.6364 44.804C31.0795 44.5142 31.5966 44.3693 32.1875 44.3693C32.5284 44.3693 32.8651 44.4261 33.1974 44.5398C33.5298 44.6534 33.8324 44.8381 34.1051 45.0938C34.3778 45.3466 34.5952 45.6818 34.7571 46.0994C34.919 46.517 35 47.0312 35 47.642V48.0682H29.9545V47.1989H33.9773C33.9773 46.8295 33.9034 46.5 33.7557 46.2102C33.6108 45.9205 33.4034 45.6918 33.1335 45.5241C32.8665 45.3565 32.5511 45.2727 32.1875 45.2727C31.7869 45.2727 31.4403 45.3722 31.1477 45.571C30.858 45.767 30.6349 46.0227 30.4787 46.3381C30.3224 46.6534 30.2443 46.9915 30.2443 47.3523V47.9318C30.2443 48.4261 30.3295 48.8452 30.5 49.1889C30.6733 49.5298 30.9134 49.7898 31.2202 49.9688C31.527 50.1449 31.8835 50.233 32.2898 50.233C32.554 50.233 32.7926 50.196 33.0057 50.1222C33.2216 50.0455 33.4077 49.9318 33.5639 49.7812C33.7202 49.6278 33.8409 49.4375 33.9261 49.2102L34.8977 49.483C34.7955 49.8125 34.6236 50.1023 34.3821 50.3523C34.1406 50.5994 33.8423 50.7926 33.4872 50.9318C33.1321 51.0682 32.733 51.1364 32.2898 51.1364ZM41.1662 45.9205L40.2628 46.1761C40.206 46.0256 40.1222 45.8793 40.0114 45.7372C39.9034 45.5923 39.7557 45.473 39.5682 45.3793C39.3807 45.2855 39.1406 45.2386 38.848 45.2386C38.4474 45.2386 38.1136 45.331 37.8466 45.5156C37.5824 45.6974 37.4503 45.929 37.4503 46.2102C37.4503 46.4602 37.5412 46.6577 37.723 46.8026C37.9048 46.9474 38.1889 47.0682 38.5753 47.1648L39.5469 47.4034C40.1321 47.5455 40.5682 47.7628 40.8551 48.0554C41.142 48.3452 41.2855 48.7187 41.2855 49.1761C41.2855 49.5511 41.1776 49.8864 40.9616 50.1818C40.7486 50.4773 40.4503 50.7102 40.0668 50.8807C39.6832 51.0511 39.2372 51.1364 38.7287 51.1364C38.0611 51.1364 37.5085 50.9915 37.071 50.7017C36.6335 50.4119 36.3565 49.9886 36.2401 49.4318L37.1946 49.1932C37.2855 49.5455 37.4574 49.8097 37.7102 49.9858C37.9659 50.1619 38.2997 50.25 38.7116 50.25C39.1804 50.25 39.5526 50.1506 39.8281 49.9517C40.1065 49.75 40.2457 49.5085 40.2457 49.2273C40.2457 49 40.1662 48.8097 40.0071 48.6562C39.848 48.5 39.6037 48.3835 39.2741 48.3068L38.1832 48.0511C37.5838 47.9091 37.1435 47.6889 36.8622 47.3906C36.5838 47.0895 36.4446 46.7131 36.4446 46.2614C36.4446 45.892 36.5483 45.5653 36.7557 45.2812C36.9659 44.9972 37.2514 44.7741 37.6122 44.6122C37.9759 44.4503 38.3878 44.3693 38.848 44.3693C39.4957 44.3693 40.0043 44.5114 40.3736 44.7955C40.7457 45.0795 41.0099 45.4545 41.1662 45.9205ZM42.7994 51V44.4545H43.805V51H42.7994ZM43.3107 43.3636C43.1147 43.3636 42.9457 43.2969 42.8036 43.1634C42.6644 43.0298 42.5948 42.8693 42.5948 42.6818C42.5948 42.4943 42.6644 42.3338 42.8036 42.2003C42.9457 42.0668 43.1147 42 43.3107 42C43.5067 42 43.6744 42.0668 43.8136 42.2003C43.9556 42.3338 44.0266 42.4943 44.0266 42.6818C44.0266 42.8693 43.9556 43.0298 43.8136 43.1634C43.6744 43.2969 43.5067 43.3636 43.3107 43.3636ZM48.2891 53.5909C47.8033 53.5909 47.3857 53.5284 47.0362 53.4034C46.6868 53.2812 46.3956 53.1193 46.1626 52.9176C45.9325 52.7188 45.7493 52.5057 45.6129 52.2784L46.4141 51.7159C46.505 51.8352 46.62 51.9716 46.7592 52.125C46.8984 52.2812 47.0888 52.4162 47.3303 52.5298C47.5746 52.6463 47.8942 52.7045 48.2891 52.7045C48.8175 52.7045 49.2536 52.5767 49.5973 52.321C49.9411 52.0653 50.1129 51.6648 50.1129 51.1193V49.7898H50.0277C49.9538 49.9091 49.8487 50.0568 49.7124 50.233C49.5788 50.4062 49.3857 50.5611 49.1328 50.6974C48.8828 50.831 48.5447 50.8977 48.1186 50.8977C47.5902 50.8977 47.1158 50.7727 46.6953 50.5227C46.2777 50.2727 45.9467 49.9091 45.7024 49.4318C45.4609 48.9545 45.3402 48.375 45.3402 47.6932C45.3402 47.0227 45.4581 46.4389 45.6939 45.9418C45.9297 45.4418 46.2578 45.0554 46.6783 44.7827C47.0987 44.5071 47.5845 44.3693 48.1357 44.3693C48.5618 44.3693 48.8999 44.4403 49.1499 44.5824C49.4027 44.7216 49.5959 44.8807 49.7294 45.0597C49.8658 45.2358 49.9709 45.3807 50.0447 45.4943H50.147V44.4545H51.1186V51.1875C51.1186 51.75 50.9908 52.2074 50.7351 52.5597C50.4822 52.9148 50.1413 53.1747 49.7124 53.3395C49.2862 53.5071 48.8118 53.5909 48.2891 53.5909ZM48.255 49.9943C48.6584 49.9943 48.9993 49.902 49.2777 49.7173C49.5561 49.5327 49.7678 49.267 49.9126 48.9205C50.0575 48.5739 50.13 48.1591 50.13 47.6761C50.13 47.2045 50.0589 46.7884 49.9169 46.4276C49.7749 46.0668 49.5646 45.7841 49.2862 45.5795C49.0078 45.375 48.6641 45.2727 48.255 45.2727C47.8288 45.2727 47.4737 45.3807 47.1896 45.5966C46.9084 45.8125 46.6967 46.1023 46.5547 46.4659C46.4155 46.8295 46.3459 47.233 46.3459 47.6761C46.3459 48.1307 46.4169 48.5327 46.5589 48.8821C46.7038 49.2287 46.9169 49.5014 47.1982 49.7003C47.4822 49.8963 47.8345 49.9943 48.255 49.9943ZM53.9652 47.0625V51H52.9595V44.4545H53.9311V45.4773H54.0163C54.1697 45.1449 54.4027 44.8778 54.7152 44.6761C55.0277 44.4716 55.4311 44.3693 55.9254 44.3693C56.3686 44.3693 56.7564 44.4602 57.0888 44.642C57.4212 44.821 57.6797 45.0938 57.8643 45.4602C58.049 45.8239 58.1413 46.2841 58.1413 46.8409V51H57.1357V46.9091C57.1357 46.3949 57.0021 45.9943 56.7351 45.7074C56.468 45.4176 56.1016 45.2727 55.6357 45.2727C55.3146 45.2727 55.0277 45.3423 54.7749 45.4815C54.5249 45.6207 54.3274 45.8239 54.1825 46.0909C54.0376 46.358 53.9652 46.6818 53.9652 47.0625ZM21.4148 65H20.3068L23.5114 56.2727H24.6023L27.8068 65H26.6989L24.0909 57.6534H24.0227L21.4148 65ZM21.8239 61.5909H26.2898V62.5284H21.8239V61.5909ZM29.6925 65L27.6982 58.4545H28.755L30.1697 63.4659H30.2379L31.6357 58.4545H32.7095L34.0902 63.4489H34.1584L35.5732 58.4545H36.63L34.6357 65H33.647L32.2152 59.9716H32.1129L30.6811 65H29.6925ZM39.8857 65.1534C39.4709 65.1534 39.0945 65.0753 38.7564 64.919C38.4183 64.7599 38.1499 64.5312 37.951 64.233C37.7521 63.9318 37.6527 63.5682 37.6527 63.142C37.6527 62.767 37.7266 62.4631 37.8743 62.2301C38.022 61.9943 38.2195 61.8097 38.4666 61.6761C38.7138 61.5426 38.9865 61.4432 39.2848 61.3778C39.5859 61.3097 39.8885 61.2557 40.1925 61.2159C40.5902 61.1648 40.9126 61.1264 41.1598 61.1009C41.4098 61.0724 41.5916 61.0256 41.7053 60.9602C41.8217 60.8949 41.88 60.7812 41.88 60.6193V60.5852C41.88 60.1648 41.7649 59.8381 41.5348 59.6051C41.3075 59.3722 40.9624 59.2557 40.4993 59.2557C40.0192 59.2557 39.6428 59.3608 39.37 59.571C39.0973 59.7812 38.9055 60.0057 38.7947 60.2443L37.8402 59.9034C38.0107 59.5057 38.2379 59.196 38.522 58.9744C38.8089 58.75 39.1214 58.5937 39.4595 58.5057C39.8004 58.4148 40.1357 58.3693 40.4652 58.3693C40.6754 58.3693 40.9169 58.3949 41.1896 58.446C41.4652 58.4943 41.7308 58.5952 41.9865 58.7486C42.245 58.902 42.4595 59.1335 42.63 59.4432C42.8004 59.7528 42.8857 60.1676 42.8857 60.6875V65H41.88V64.1136H41.8288C41.7607 64.2557 41.647 64.4077 41.4879 64.5696C41.3288 64.7315 41.1172 64.8693 40.853 64.983C40.5888 65.0966 40.2663 65.1534 39.8857 65.1534ZM40.0391 64.25C40.4368 64.25 40.772 64.1719 41.0447 64.0156C41.3203 63.8594 41.5277 63.6577 41.6669 63.4105C41.8089 63.1634 41.88 62.9034 41.88 62.6307V61.7102C41.8374 61.7614 41.7436 61.8082 41.5987 61.8509C41.4567 61.8906 41.2919 61.9261 41.1044 61.9574C40.9197 61.9858 40.7393 62.0114 40.5632 62.0341C40.3899 62.054 40.2493 62.071 40.1413 62.0852C39.88 62.1193 39.6357 62.1747 39.4084 62.2514C39.1839 62.3253 39.0021 62.4375 38.8629 62.5881C38.7266 62.7358 38.6584 62.9375 38.6584 63.1932C38.6584 63.5426 38.7876 63.8068 39.0462 63.9858C39.3075 64.1619 39.6385 64.25 40.0391 64.25ZM44.7212 65V58.4545H45.6928V59.4432H45.761C45.8803 59.1193 46.0962 58.8565 46.4087 58.6548C46.7212 58.4531 47.0735 58.3523 47.4656 58.3523C47.5394 58.3523 47.6317 58.3537 47.7425 58.3565C47.8533 58.3594 47.9371 58.3636 47.994 58.3693V59.392C47.9599 59.3835 47.8817 59.3707 47.7596 59.3537C47.6403 59.3338 47.5138 59.3239 47.3803 59.3239C47.0621 59.3239 46.7781 59.3906 46.5281 59.5241C46.2809 59.6548 46.0849 59.8366 45.94 60.0696C45.7979 60.2997 45.7269 60.5625 45.7269 60.858V65H44.7212ZM51.4585 65.1364C50.913 65.1364 50.4315 64.9986 50.0138 64.723C49.5962 64.4446 49.2695 64.0526 49.0337 63.5469C48.7979 63.0384 48.68 62.4375 48.68 61.7443C48.68 61.0568 48.7979 60.4602 49.0337 59.9545C49.2695 59.4489 49.5977 59.0582 50.0181 58.7827C50.4386 58.5071 50.9244 58.3693 51.4755 58.3693C51.9016 58.3693 52.2383 58.4403 52.4854 58.5824C52.7354 58.7216 52.9258 58.8807 53.0565 59.0597C53.19 59.2358 53.2937 59.3807 53.3675 59.4943H53.4528V56.2727H54.4585V65H53.4869V63.9943H53.3675C53.2937 64.1136 53.1886 64.2642 53.0522 64.446C52.9158 64.625 52.7212 64.7855 52.4684 64.9276C52.2156 65.0668 51.8789 65.1364 51.4585 65.1364ZM51.5948 64.233C51.9982 64.233 52.3391 64.1278 52.6175 63.9176C52.896 63.7045 53.1076 63.4105 53.2525 63.0355C53.3974 62.6577 53.4698 62.2216 53.4698 61.7273C53.4698 61.2386 53.3988 60.8111 53.2567 60.4446C53.1147 60.0753 52.9045 59.7884 52.6261 59.5838C52.3477 59.3764 52.0039 59.2727 51.5948 59.2727C51.1687 59.2727 50.8136 59.3821 50.5295 59.6009C50.2482 59.8168 50.0366 60.1108 49.8945 60.483C49.7553 60.8523 49.6857 61.267 49.6857 61.7273C49.6857 62.1932 49.7567 62.6165 49.8988 62.9972C50.0437 63.375 50.2567 63.6761 50.538 63.9006C50.8221 64.1222 51.1744 64.233 51.5948 64.233ZM61.0763 59.9205L60.1729 60.1761C60.1161 60.0256 60.0323 59.8793 59.9215 59.7372C59.8136 59.5923 59.6658 59.473 59.4783 59.3793C59.2908 59.2855 59.0508 59.2386 58.7582 59.2386C58.3576 59.2386 58.0238 59.331 57.7567 59.5156C57.4925 59.6974 57.3604 59.929 57.3604 60.2102C57.3604 60.4602 57.4513 60.6577 57.6332 60.8026C57.815 60.9474 58.0991 61.0682 58.4854 61.1648L59.457 61.4034C60.0423 61.5455 60.4783 61.7628 60.7653 62.0554C61.0522 62.3452 61.1957 62.7187 61.1957 63.1761C61.1957 63.5511 61.0877 63.8864 60.8718 64.1818C60.6587 64.4773 60.3604 64.7102 59.9769 64.8807C59.5934 65.0511 59.1474 65.1364 58.6388 65.1364C57.9712 65.1364 57.4187 64.9915 56.9812 64.7017C56.5437 64.4119 56.2667 63.9886 56.1502 63.4318L57.1048 63.1932C57.1957 63.5455 57.3675 63.8097 57.6204 63.9858C57.8761 64.1619 58.2099 64.25 58.6218 64.25C59.0906 64.25 59.4627 64.1506 59.7383 63.9517C60.0167 63.75 60.1559 63.5085 60.1559 63.2273C60.1559 63 60.0763 62.8097 59.9173 62.6562C59.7582 62.5 59.5138 62.3835 59.1843 62.3068L58.0934 62.0511C57.494 61.9091 57.0536 61.6889 56.7724 61.3906C56.494 61.0895 56.3548 60.7131 56.3548 60.2614C56.3548 59.892 56.4585 59.5653 56.6658 59.2812C56.8761 58.9972 57.1616 58.7741 57.5224 58.6122C57.886 58.4503 58.2979 58.3693 58.7582 58.3693C59.4059 58.3693 59.9144 58.5114 60.2837 58.7955C60.6559 59.0795 60.9201 59.4545 61.0763 59.9205Z" fill="white"/>
<defs>
<filter id="filter0_di_0_245" x="0" y="0" width="75" height="107" filterUnits="userSpaceOnUse" color-interpolation-filters="sRGB">
<feFlood flood-opacity="0" result="BackgroundImageFix"/>
<feColorMatrix in="SourceAlpha" type="matrix" values="0 0 0 0 0 0 0 0 0 0 0 0 0 0 0 0 0 0 127 0" result="hardAlpha"/>
<feOffset dx="-3" dy="3"/>
<feGaussianBlur stdDeviation="2.5"/>
<feComposite in2="hardAlpha" operator="out"/>
<feColorMatrix type="matrix" values="0 0 0 0 0.0447917 0 0 0 0 0.245313 0 0 0 0 0.358333 0 0 0 0.39 0"/>
<feBlend mode="normal" in2="BackgroundImageFix" result="effect1_dropShadow_0_245"/>
<feBlend mode="normal" in="SourceGraphic" in2="effect1_dropShadow_0_245" result="shape"/>
<feColorMatrix in="SourceAlpha" type="matrix" values="0 0 0 0 0 0 0 0 0 0 0 0 0 0 0 0 0 0 127 0" result="hardAlpha"/>
<feOffset dx="-3" dy="4"/>
<feGaussianBlur stdDeviation="2"/>
<feComposite in2="hardAlpha" operator="arithmetic" k2="-1" k3="1"/>
<feColorMatrix type="matrix" values="0 0 0 0 0.0898438 0 0 0 0 0.632162 0 0 0 0 0.9375 0 0 0 1 0"/>
<feBlend mode="normal" in2="shape" result="effect2_innerShadow_0_245"/>
</filter>
</defs>
</svg>
