<svg width="128" height="25" viewBox="0 0 128 25" fill="none" xmlns="http://www.w3.org/2000/svg">
<path d="M6.49528 16.7376C6.53594 17.7302 6.86121 18.5282 7.4711 19.1316C8.10131 19.735 9.02631 20.0367 10.2461 20.0367C10.917 20.0367 11.5167 19.9199 12.0452 19.6863C12.5738 19.4333 13.0617 19.0635 13.509 18.5769C15.237 19.2192 17.2598 19.7739 19.5773 20.2411C18.9065 21.7398 17.768 22.9076 16.162 23.7446C14.5763 24.5815 12.5128 25 9.97163 25C6.5766 25 4.0659 24.2409 2.43954 22.7227C0.813181 21.2045 0 19.2095 0 16.7376C0 14.2656 0.813181 12.2706 2.43954 10.7524C4.0659 9.23422 6.5766 8.47513 9.97163 8.47513C12.5128 8.47513 14.5763 8.8936 16.162 9.73055C17.768 10.5675 18.9065 11.7353 19.5773 13.2341C17.768 13.6039 15.7452 14.1586 13.509 14.8982C13.0617 14.4116 12.5738 14.0515 12.0452 13.818C11.5167 13.5649 10.917 13.4384 10.2461 13.4384C9.02631 13.4384 8.10131 13.7401 7.4711 14.3435C6.86121 14.9469 6.53594 15.7449 6.49528 16.7376Z" fill="white"/>
<path d="M28.94 13.0881C29.7939 10.149 31.9183 8.6795 35.3133 8.6795C35.9029 8.6795 36.4721 8.71843 37.021 8.79628L36.0452 15.3362C34.5815 14.8106 33.382 14.5479 32.4469 14.5479C31.2881 14.5479 30.4342 14.8788 29.8853 15.5405C29.3364 16.2023 29.062 17.0879 29.062 18.1974V18.1682L29.0315 20.0951C29.0315 21.477 29.0722 23.0147 29.1535 24.708H21.8654C22.028 21.9052 22.1093 19.2581 22.1093 16.7668C22.1093 14.2754 22.028 11.6088 21.8654 8.76709C23.2071 8.82548 24.2337 8.85467 24.9453 8.85467C25.6975 8.85467 26.7241 8.82548 28.0252 8.76709L28.94 13.0881Z" fill="white"/>
<path d="M54.6734 17.4091H44.7322C44.8949 18.2655 45.2913 18.9662 45.9215 19.5112C46.5721 20.0367 47.4869 20.2995 48.666 20.2995C49.5198 20.2995 50.3229 20.1437 51.0751 19.8323C51.8272 19.5014 52.427 19.044 52.8742 18.4601C54.2363 19.1024 56.0456 19.7934 58.3022 20.533C57.672 21.8955 56.5234 22.9855 54.8563 23.803C53.2097 24.601 51.0547 25 48.3916 25C44.9355 25 42.374 24.2409 40.707 22.7227C39.0603 21.1851 38.237 19.1705 38.237 16.6792C38.237 14.2462 39.0603 12.2706 40.707 10.7524C42.3537 9.23422 44.9152 8.47513 48.3916 8.47513C50.4652 8.47513 52.2643 8.80601 53.789 9.46779C55.3138 10.1296 56.4827 11.0541 57.2959 12.2414C58.1091 13.4092 58.5157 14.7522 58.5157 16.2704C58.5157 16.7765 58.4953 17.156 58.4547 17.4091H54.6734ZM48.8185 12.8837C47.802 12.8837 46.9685 13.0686 46.3179 13.4384C45.6674 13.8082 45.21 14.3143 44.9457 14.9566H52.1424C51.8984 14.3338 51.502 13.8374 50.9531 13.4676C50.4042 13.0783 49.6926 12.8837 48.8185 12.8837Z" fill="white"/>
<path d="M80.1852 19.8615C80.1852 20.5233 80.2665 20.9904 80.4291 21.2629C80.5918 21.5354 80.917 21.73 81.405 21.8468L81.283 24.5912C80.6324 24.6886 80.0632 24.7567 79.5753 24.7956C79.1077 24.8345 78.4775 24.854 77.6846 24.854C75.9363 24.854 74.7775 24.4842 74.2083 23.7446C73.6391 22.9855 73.3545 22.022 73.3545 20.8542V20.1243C72.7649 21.7203 71.9009 22.9076 70.7624 23.6862C69.6443 24.4647 68.2111 24.854 66.4628 24.854C64.4298 24.854 62.8949 24.4647 61.8581 23.6862C60.8416 22.9076 60.3334 21.7495 60.3334 20.2119C60.3334 18.9467 60.7705 17.9541 61.6447 17.2339C62.5188 16.5137 63.8707 16.0174 65.7004 15.7449C64.1553 14.6938 62.6103 13.779 61.0653 13.0005C62.285 11.5212 63.6776 10.4021 65.243 9.64296C66.8084 8.8644 68.7092 8.47513 70.9454 8.47513C74.0762 8.47513 76.3937 9.12717 77.8981 10.4313C79.4228 11.7159 80.1852 13.7012 80.1852 16.3872V19.8615ZM71.5858 13.6136C70.549 13.6136 69.6342 13.779 68.8413 14.1099C68.0485 14.4408 67.3369 14.9371 66.7067 15.5989C67.9265 15.4627 69.4512 15.3945 71.2809 15.3945C72.033 15.3945 72.5616 15.307 72.8666 15.1318C73.1715 14.9566 73.324 14.7328 73.324 14.4603C73.324 14.2267 73.1715 14.0321 72.8666 13.8764C72.5616 13.7012 72.1347 13.6136 71.5858 13.6136ZM68.3839 20.0951C69.5223 20.0951 70.549 19.8907 71.4638 19.482C72.3786 19.0538 73.0089 18.499 73.3545 17.8178V17.0587C72.8666 17.2923 72.3278 17.4772 71.7383 17.6134C71.1487 17.7302 70.4372 17.847 69.6037 17.9638L68.5059 18.139C67.3674 18.3531 66.7982 18.7229 66.7982 19.2484C66.7982 19.8129 67.3268 20.0951 68.3839 20.0951Z" fill="white"/>
<path d="M97.0549 13.9931C95.1846 13.8764 93.477 13.7888 91.9319 13.7304L91.9014 16.8251C91.9014 17.8762 92.1352 18.7034 92.6028 19.3068C93.0907 19.8907 93.9445 20.1827 95.1643 20.1827C95.6319 20.1827 96.0791 20.1437 96.5061 20.0659C96.4247 20.7861 96.3841 21.5159 96.3841 22.2556C96.3841 22.6059 96.4044 23.4039 96.4451 24.6496C95.5506 24.8053 94.7984 24.9027 94.1885 24.9416C93.5786 24.9805 92.7858 25 91.8099 25C89.4314 25 87.744 24.455 86.7479 23.365C85.7721 22.2556 85.2842 20.7179 85.2842 18.7521L85.3147 13.818C84.3592 13.8569 83.363 13.9153 82.3262 13.9931V8.82548C83.3833 8.82548 84.2778 8.50432 85.0097 7.86201C85.7416 7.21971 86.1787 6.45088 86.321 5.55554H94.6154C93.5786 6.91802 92.43 8.00799 91.1695 8.82548H97.0549V13.9931Z" fill="white"/>
<path d="M102.918 6.77711C101.647 6.77711 100.698 6.46586 100.073 5.84337C99.4675 5.22088 99.1648 4.40763 99.1648 3.40362C99.1648 2.41968 99.4675 1.60643 100.073 0.963855C100.698 0.321285 101.647 0 102.918 0C104.129 0 105.057 0.331325 105.703 0.993976C106.348 1.63655 106.671 2.43976 106.671 3.40362C106.671 4.40763 106.359 5.22088 105.733 5.84337C105.107 6.46586 104.169 6.77711 102.918 6.77711ZM99.4069 25C99.5482 21.7671 99.6188 19.0964 99.6188 16.988C99.6188 14.4779 99.5381 11.6667 99.3767 8.55422H106.641C106.48 11.5462 106.399 14.3574 106.399 16.988C106.399 19.1968 106.47 21.8675 106.611 25H99.4069Z" fill="#46B4F2"/>
<path d="M121.19 25C121.311 22.0482 121.371 19.3273 121.371 16.8374C121.371 15.9538 121.149 15.251 120.705 14.7289C120.282 14.2068 119.737 13.9458 119.071 13.9458C118.405 13.9458 117.84 14.247 117.376 14.8494C116.912 15.4317 116.639 16.2349 116.559 17.259C116.518 18.7851 116.498 19.8695 116.498 20.512C116.498 21.8775 116.538 23.3735 116.619 25H109.385C109.546 22.1084 109.627 19.3775 109.627 16.8072C109.627 14.2369 109.546 11.4859 109.385 8.55422C110.717 8.61446 111.736 8.64458 112.442 8.64458C113.189 8.64458 114.208 8.61446 115.499 8.55422L116.377 12.9819C116.841 11.3755 117.568 10.1908 118.556 9.42771C119.545 8.64458 120.695 8.25301 122.007 8.25301C123.218 8.25301 124.267 8.5241 125.155 9.06627C126.043 9.58835 126.709 10.3012 127.152 11.2048C127.617 12.1084 127.849 13.1225 127.849 14.247V18.5843C127.849 21.255 127.899 23.3936 128 25H121.19Z" fill="#46B4F2"/>
</svg>
